<svg xmlns="http://www.w3.org/2000/svg" width="32" height="13" viewBox="0 0 32 13" class="@@class">
  <title>@@title</title>
  <g fill="none" fill-rule="evenodd">
    <path fill="#FFF" d="M0 0H375V812H0z" transform="translate(-30 -239)"/>
    <g transform="translate(-30 -239) translate(15 214)">
      <rect width="344" height="83" x=".5" y=".5" fill="#F9F9F9" stroke="#F1F1F1" rx="6"/>
        <g fill="#FF9700" fill-rule="nonzero">
          <path d="M5.614 0c1.772 0 2.836 1.123 2.6 2.777C7.977 3.96 7.15 4.845 5.968 5.318c.177.06.414.177.65.355.827.65 1.182 1.595 1.005 2.777-.355 1.89-1.714 3.31-3.841 3.31-.355 0-.65-.06-.946-.178l.237-1.418c.236.059.472.118.827.118 1.182 0 2.01-.768 2.186-1.95.296-1.418-.472-2.305-2.186-2.364h-.06l.296-1.536h.355c1.182 0 2.009-.65 2.186-1.537.178-.886-.295-1.536-1.24-1.536-1.005 0-1.773.71-2.069 1.596-.118.354-.236.709-.295 1.063L1.477 13H0l1.655-9.1c.118-.886.354-1.773.827-2.364C3.25.532 4.372 0 5.614 0zm21.981 3.84c.355 0 .65.06.946.12.295.058.532.176.768.295.236.118.414.236.591.413s.295.296.414.473l.472-1.123h1.123l-1.359 7.505h-1.064l-.118-.887c-.118.119-.236.178-.354.296-.178.118-.355.236-.591.354-.237.119-.473.178-.768.296-.296.059-.65.118-1.005.118-.532 0-.945-.118-1.36-.295-.413-.178-.767-.414-1.063-.71-.295-.295-.532-.65-.709-1.122-.177-.414-.236-.887-.236-1.418 0-.591.118-1.123.295-1.655.237-.532.532-1.005.887-1.36.354-.413.827-.708 1.359-.945.532-.236 1.122-.354 1.772-.354zM13.71 3.724c.532 0 1.005.059 1.418.236.414.177.768.355 1.064.65.295.296.532.591.709 1.005.177.354.236.827.236 1.24 0 .237 0 .532-.059.769-.059.236-.118.472-.177.65h-6.145c.059.354.118.59.236.886.118.236.295.473.473.65.177.177.413.296.709.414.236.118.532.118.827.118.473 0 .886-.118 1.24-.296.355-.177.592-.472.77-.768h1.713c-.178.296-.355.591-.65.887-.237.295-.532.531-.887.768-.354.236-.709.413-1.122.532-.414.118-.828.177-1.241.177-.532 0-1.005-.06-1.478-.236-.472-.178-.827-.414-1.181-.71-.355-.295-.591-.709-.769-1.122-.059-.473-.177-.946-.177-1.478 0-.59.118-1.122.355-1.654.236-.532.532-1.005.945-1.418.414-.414.887-.71 1.418-.946.532-.236 1.123-.354 1.773-.354zm7.86-1.714l-.355 2.068h1.536l-.236 1.241h-1.537l-.709 4.137c-.059.295 0 .472.06.65.117.177.295.236.59.236h.71l-.237 1.24c-.118 0-.296.06-.473.06h-.59c-.296 0-.533-.06-.769-.118-.236-.06-.414-.178-.532-.355-.118-.177-.236-.354-.295-.65-.06-.236-.06-.59.059-.945l.768-4.255h-1.064l.237-1.24h1.063l.355-2.069h1.418zM27.713 5.2c-.414 0-.828.06-1.182.236-.355.178-.65.355-.887.65-.236.237-.472.591-.59.887-.178.354-.237.709-.237 1.122 0 .355.06.65.177.946.119.295.296.532.473.709.177.177.414.355.71.473.295.118.59.177.886.177.413 0 .827-.06 1.181-.236.355-.178.65-.355.887-.65.236-.237.473-.591.59-.887.119-.354.237-.709.237-1.122 0-.355-.059-.65-.177-.946-.118-.295-.296-.532-.473-.709-.177-.177-.414-.355-.709-.473s-.59-.177-.886-.177zm-14.182-.177c-.296 0-.591.059-.887.177-.295.118-.531.236-.768.414-.236.177-.413.413-.59.65-.178.236-.296.472-.355.768H15.6c0-.237 0-.473-.06-.71-.058-.236-.176-.472-.354-.65-.236-.177-.413-.354-.709-.472-.236-.118-.59-.177-.945-.177z" transform="translate(15 25)"/>
      </g>
    </g>
  </g>
</svg>
