<svg xmlns="http://www.w3.org/2000/svg" width="32" height="32" viewBox="0 0 32 32" class="@@class">
  <title>@@title</title>
  <g fill="none" fill-rule="evenodd">
    <path d="M0 0H32V32H0z"></path>
    <path class="svg-color" fill-rule="nonzero" d="M20.189 6c1.736 0 3.17.602 4.226 1.654C25.472 8.707 26 10.135 26 11.864v8.271c0 1.73-.604 3.233-1.66 4.286C23.283 25.474 21.774 26 20.113 26h-8.226c-1.66 0-3.17-.526-4.227-1.579C6.528 23.368 6 21.865 6 20.135v-8.27C6 8.406 8.34 6 11.887 6h8.302zm-.076 1.805h-8.302c-1.207 0-2.264.375-2.943 1.052-.68.677-1.057 1.73-1.057 2.932v8.271c0 1.203.378 2.256 1.132 3.008.755.676 1.736 1.052 2.944 1.052h8.226c1.208 0 2.264-.376 2.944-1.052.754-.677 1.132-1.73 1.132-2.933v-8.27c0-1.203-.378-2.18-1.057-2.933-.755-.752-1.736-1.127-3.019-1.127zM16 11c2.664 0 5 2.206 5 5s-2.263 5-5 5c-2.81 0-5-2.28-5-5 0-2.794 2.263-5 5-5zm0 2c-1.657 0-3 1.343-3 3s1.343 3 3 3 3-1.343 3-3-1.343-3-3-3zm5.5-3.5c.563 0 1 .438 1 1 0 .563-.438 1-1 1-.563 0-1-.438-1-1 0-.563.438-1 1-1z"></path>
  </g>
</svg>