<svg xmlns="http://www.w3.org/2000/svg" width="32" height="32" viewBox="0 0 32 32" class="@@class">
  <title>@@title</title>
  <g fill="none" fill-rule="evenodd">
    <path d="M0 0H32V32H0z"></path>
    <path class="svg-color" d="M25.692 9.894c-.732.322-1.513.534-2.326.637.837-.5 1.476-1.285 1.776-2.23-.78.465-1.642.793-2.56.976C21.842 8.488 20.785 8 19.633 8c-2.235 0-4.035 1.814-4.035 4.038 0 .32.028.628.094.92-3.356-.163-6.326-1.772-8.322-4.222-.348.604-.552 1.296-.552 2.04 0 1.399.72 2.638 1.794 3.356-.65-.013-1.285-.2-1.824-.498v.045c0 1.961 1.399 3.591 3.234 3.966-.329.09-.687.133-1.058.133-.26 0-.52-.014-.765-.069.524 1.599 2.007 2.774 3.773 2.813-1.374 1.074-3.118 1.722-5.006 1.722-.331 0-.648-.015-.966-.056C7.788 23.341 9.908 24 12.193 24c7.429 0 11.49-6.154 11.49-11.488 0-.179-.006-.351-.014-.522.801-.569 1.474-1.28 2.023-2.096"></path>
  </g>
</svg>