<svg xmlns="http://www.w3.org/2000/svg" width="28" height="28" viewBox="0 0 28 28" class="@@class">
	<title>@@title</title>
	<g fill="none" fill-rule="evenodd">
			<rect width="28" height="28" fill="#111" rx="14"/>
			<path fill="#F9F9F9" d="M20.707 9.874c-.16-.738-.635-1.319-1.237-1.516C18.378 8 14 8 14 8s-4.378 0-5.47.358c-.602.197-1.077.778-1.238 1.516C7 11.21 7 14 7 14s0 2.79.292 4.126c.161.738.636 1.319 1.238 1.516C9.622 20 14 20 14 20s4.378 0 5.47-.358c.602-.197 1.076-.778 1.237-1.516C21 16.79 21 14 21 14s0-2.79-.293-4.126"/>
			<path fill="#111" d="M12.579 16.71l4.705-2.352c.198-.099.278-.34.18-.537-.04-.077-.102-.14-.18-.179L12.58 11.29c-.198-.098-.438-.018-.537.18-.028.055-.042.116-.042.178v4.706c0 .22.18.4.4.4.062 0 .123-.015.179-.042z"/>
	</g>
</svg>
