<svg xmlns="http://www.w3.org/2000/svg" width="32" height="32" viewBox="0 0 32 32" class="@@class">
  <title>@@title</title>
  <g fill="none" fill-rule="evenodd">
    <path d="M0 0H32V32H0z"></path>
    <path class="svg-color" d="M16.838 8c1.446.008 7.087.066 8.647.507.99.28 1.769 1.102 2.033 2.147.452 1.779.48 5.374.481 5.803v.085c-.002.429-.029 4.024-.48 5.803-.265 1.045-1.044 1.868-2.034 2.147-1.638.463-7.776.504-8.831.507h-.31c-1.055-.003-7.193-.044-8.83-.507-.99-.28-1.77-1.102-2.034-2.147-.408-1.607-.47-4.695-.48-5.594v-.503c.01-.899.072-3.987.48-5.594.264-1.045 1.044-1.868 2.033-2.147 1.56-.441 7.202-.499 8.647-.507zM14 13v7l6-3.5-6-3.5z"></path>
  </g>
</svg>