<svg xmlns="http://www.w3.org/2000/svg" width="40" height="40" viewBox="0 0 40 40" class="@@class">
  <title>@@title</title>
  <g fill="none" fill-rule="evenodd">
    <circle cx="20" cy="20" r="20" fill="#000" opacity=".4"/>
    <path fill="#FFF" d="M24 10c2.21 0 4 1.79 4 4s-1.79 4-4 4c-1.336 0-2.519-.655-3.245-1.66l-4.03 2.198c.177.453.275.946.275 1.462s-.098 1.009-.276 1.462l4.031 2.199C21.481 22.655 22.665 22 24 22c2.21 0 4 1.79 4 4s-1.79 4-4 4-4-1.79-4-4c0-.516.098-1.009.276-1.462l-4.03-2.199c-.635.878-1.617 1.49-2.745 1.63v-1.01C14.919 22.72 16 21.485 16 20s-1.08-2.72-2.5-2.958V16.03c1.129.14 2.111.752 2.745 1.63l4.03-2.2C20.099 15.01 20 14.517 20 14c0-2.21 1.79-4 4-4zm0 13c-1.657 0-3 1.343-3 3s1.343 3 3 3 3-1.343 3-3-1.343-3-3-3zm-11.5-6.97v1.011C11.081 17.28 10 18.513 10 20s1.081 2.72 2.5 2.959v1.01C10.527 23.723 9 22.04 9 20c0-2.04 1.527-3.723 3.5-3.97zM24 11c-1.657 0-3 1.343-3 3s1.343 3 3 3 3-1.343 3-3-1.343-3-3-3z"/>
  </g>
</svg>
