<svg xmlns="http://www.w3.org/2000/svg" xmlns:xlink="http://www.w3.org/1999/xlink" width="56" height="56" viewBox="0 0 56 56">
	<title>@@title</title>
    <defs>
        <circle id="2y3zty5jra" cx="28" cy="28" r="28"/>
    </defs>
    <g fill="none" fill-rule="evenodd">
        <mask id="48tbv7ak6b" fill="#fff">
            <use xlink:href="#2y3zty5jra"/>
        </mask>
        <use fill="#1EA1F1" fill-rule="nonzero" xlink:href="#2y3zty5jra"/>
        <path fill="#FFF" d="M42.933 20.385c-1.04.45-2.15.747-3.308.892 1.191-.7 2.1-1.799 2.527-3.123-1.11.651-2.336 1.11-3.64 1.368-1.054-1.105-2.556-1.789-4.194-1.789-3.178 0-5.737 2.54-5.737 5.653 0 .448.04.88.133 1.29-4.772-.23-8.995-2.482-11.832-5.913-.495.847-.785 1.815-.785 2.857 0 1.958 1.024 3.693 2.55 4.698-.923-.018-1.827-.281-2.594-.697v.063c0 2.746 1.99 5.027 4.599 5.553-.468.126-.976.186-1.505.186-.368 0-.739-.02-1.087-.097.745 2.238 2.854 3.884 5.365 3.938-1.954 1.504-4.433 2.41-7.118 2.41-.471 0-.922-.02-1.374-.077 2.543 1.614 5.557 2.536 8.806 2.536 10.563 0 16.339-8.615 16.339-16.084 0-.25-.01-.49-.021-.73 1.14-.796 2.096-1.79 2.876-2.934" mask="url(#48tbv7ak6b)"/>
    </g>
</svg>
