<svg xmlns="http://www.w3.org/2000/svg" xmlns:xlink="http://www.w3.org/1999/xlink" width="56" height="56" viewBox="0 0 56 56">
	<title>@@title</title>
    <defs>
        <circle id="w2i24grdga" cx="28" cy="28" r="28"/>
    </defs>
    <g fill="none" fill-rule="evenodd">
        <mask id="b5n84hs82b" fill="#fff">
            <use xlink:href="#w2i24grdga"/>
        </mask>
        <use fill="#FFE300" xlink:href="#w2i24grdga"/>
        <path fill="#391B1B" d="M28 13c9.389 0 17 6.017 17 13.44 0 7.421-7.611 13.44-17 13.44-1.079 0-2.133-.081-3.155-.233-1.884 1.281-6.25 4.25-6.543 4.444-.372.249-.942.261-.712-.663.098-.388.396-1.515.71-2.695l.146-.545.619-2.315C14.225 35.504 11 31.271 11 26.44 11 19.017 18.61 13 28 13zm7.304 9.362c-.506 0-.917.41-.917.918v6.757c0 .508.41.918.917.918.507 0 .917-.41.917-.918v-2.085l.524-.523 2.437 3.198c.271.362.787.437 1.148.163.363-.272.436-.787.164-1.149l-2.577-3.383 2.328-2.329c.315-.315.315-.826 0-1.141-.315-.316-.826-.316-1.142 0l-2.882 2.881v-2.39c0-.506-.41-.917-.917-.917zm-10.677 0c-.605 0-1.105.37-1.204.853-.017.036-.034.072-.048.112L20.94 29.86c-.15.429.075.898.502 1.048.428.15.898-.076 1.048-.503l.422-1.204h3.39l.422 1.204c.15.427.62.653 1.048.503.428-.15.653-.62.503-1.048l-2.478-6.778-.008-.007c-.159-.413-.616-.714-1.16-.714zm-3.468.12h-4.971c-.468 0-.846.378-.846.845 0 .467.378.845.846.845h1.616v5.956c0 .216.088.429.243.583.152.153.364.241.581.241h.181c.217 0 .428-.088.58-.24.155-.155.243-.367.243-.584v-5.956h1.527c.468 0 .846-.378.846-.845 0-.467-.378-.846-.846-.846zm8.719-.12c-.507 0-.918.41-.918.918v6.556c0 .05.007.099.015.147-.01.047-.015.097-.015.146 0 .425.343.768.768.768h3.378c.425 0 .767-.343.767-.768 0-.423-.342-.767-.767-.767h-2.311V23.28c0-.507-.41-.918-.917-.918zm-5.29 2.053c.013 0 .024.004.037.004l1.139 3.248h-2.315z" mask="url(#b5n84hs82b)"/>
    </g>
</svg>
