<svg xmlns="http://www.w3.org/2000/svg" width="28" height="28" viewBox="0 0 28 28" class="@@class">
	<title>@@title</title>
	<g fill="none" fill-rule="evenodd">
			<rect width="28" height="28" fill="#111" rx="14"/>
			<path fill="#F9F9F9" d="M17 7c2.21 0 4 1.79 4 4v6c0 2.21-1.79 4-4 4h-6c-2.21 0-4-1.79-4-4v-6c0-2.21 1.79-4 4-4h6zm-3 3c-2.21 0-4 1.79-4 4s1.79 4 4 4 4-1.79 4-4-1.79-4-4-4zm0 1.5c1.38 0 2.5 1.12 2.5 2.5s-1.12 2.5-2.5 2.5-2.5-1.12-2.5-2.5 1.12-2.5 2.5-2.5zm4.24-2.732c-.552 0-1 .448-1 1s.448 1 1 1 1-.448 1-1-.448-1-1-1z"/>
	</g>
</svg>
