<?xml version="1.0" encoding="UTF-8"?>
<svg width="18px" height="18px" viewBox="0 0 18 18" version="1.1" xmlns="http://www.w3.org/2000/svg" xmlns:xlink="http://www.w3.org/1999/xlink">
    <!-- Generator: Sketch 57.1 (83088) - https://sketch.com -->
    <title>Ic/18/Stencil/Bell/Black@2x</title>
    <desc>Created with Sketch.</desc>
    <defs>
        <path d="M5.333,9.5 L5.33333333,12.0932418 L4.78064262,13 L11,13 L11,14 L10.9947104,14.0005572 C10.9196573,15.1183215 10.0552726,16 9,16 C7.94472744,16 7.0803427,15.1183215 7.00528965,14.0005572 L3,14 L4.33333333,11.8125 L4.333,9.5 L5.333,9.5 Z M8.009,14 L8.03103079,14.1302442 C8.14347029,14.6393423 8.54685591,15 9,15 C9.49061784,15 9.92290715,14.5772251 9.99075891,14.0010158 L8.009,14 Z M9,2 C9.82842712,2 10.5,2.67157288 10.5,3.5 C10.5,3.58248322 10.4933424,3.71297848 10.4805353,3.88110734 C12.3321375,4.46139455 13.6666667,6.10026199 13.6666667,8.03134443 L13.6666667,11.8125 L15,14 L12,14 L12,13 L13.2193574,13 L12.6666667,12.0932418 L12.6666667,8.03134443 C12.6666667,6.58480457 11.663131,5.29968861 10.1814803,4.83534322 L9.42305578,4.59765497 L9.48342403,3.80515312 C9.49445605,3.66032711 9.5,3.55174906 9.5,3.5 C9.5,3.22385763 9.27614237,3 9,3 C8.72385763,3 8.5,3.22385763 8.5,3.5 C8.5,3.55174906 8.50554395,3.66032711 8.51657597,3.80515312 L8.57694422,4.59765497 L7.81851966,4.83534322 C6.33686903,5.29968861 5.33333333,6.58480457 5.33333333,8.03134443 L5.333,8.5 L4.333,8.5 L4.33333333,8.03134443 C4.33333333,6.10026199 5.66786253,4.46139455 7.51946466,3.88110734 C7.50665757,3.71297848 7.5,3.58248322 7.5,3.5 C7.5,2.67157288 8.17157288,2 9,2 Z" id="path-1"></path>
    </defs>
    <g id="Ic/18/Stencil/Bell/Black" stroke="none" stroke-width="1" fill="none" fill-rule="evenodd">
        <mask id="mask-2" fill="white">
            <use xlink:href="#path-1"></use>
        </mask>
        <use id="Combined-Shape" fill="#000000" fill-rule="nonzero" xlink:href="#path-1"></use>
    </g>
</svg>