<?xml version="1.0" encoding="UTF-8"?>
<svg width="14px" height="14px" viewBox="0 0 14 14" version="1.1" xmlns="http://www.w3.org/2000/svg" xmlns:xlink="http://www.w3.org/1999/xlink">
    <!-- Generator: Sketch 57.1 (83088) - https://sketch.com -->
    <title>Ic/14/Stencil/Clock/Black@2x</title>
    <desc>Created with Sketch.</desc>
    <g id="Ic/14/Stencil/Clock/Black" stroke="none" stroke-width="1" fill="none" fill-rule="evenodd">
        <path d="M7,1.5 C9.76142375,1.5 12,3.73857625 12,6.5 C12,9.26142375 9.76142375,11.5 7,11.5 C4.40756606,11.5 2.27594469,9.52702684 2.02475737,7.00070198 L3.03104114,7.00075535 C3.2774255,8.97354544 4.96045147,10.5 7,10.5 C9.209139,10.5 11,8.709139 11,6.5 C11,4.290861 9.209139,2.5 7,2.5 C4.96010817,2.5 3.27685893,4.02696848 3.03091685,6.00024088 L2.02465783,6.00030016 C2.27538101,3.47349494 4.40722328,1.5 7,1.5 Z M7.5,3.5 L7.5,6 L10,6 L10,7 L6.5,7 L6.5,3.5 L7.5,3.5 Z" id="Combined-Shape" fill="#000000" fill-rule="nonzero"></path>
    </g>
</svg>