<?xml version="1.0" encoding="UTF-8"?>
<svg width="14px" height="14px" viewBox="0 0 14 14" version="1.1" xmlns="http://www.w3.org/2000/svg" xmlns:xlink="http://www.w3.org/1999/xlink">
    <!-- Generator: Sketch 57.1 (83088) - https://sketch.com -->
    <title>Ic/14/Line/Refresh/Black@2x</title>
    <desc>Created with Sketch.</desc>
    <g id="Ic/14/Line/Refresh/Black" stroke="none" stroke-width="1" fill="none" fill-rule="evenodd">
        <path d="M9,6 L9,5 L10.4648366,4.99994009 C9.7732092,3.80437039 8.48053998,3 7,3 C4.790861,3 3,4.790861 3,7 C3,9.209139 4.790861,11 7,11 C9.14219539,11 10.8910789,9.31603153 10.9951047,7.19964034 L11,7 L12,7 C12,9.76142375 9.76142375,12 7,12 C4.23857625,12 2,9.76142375 2,7 C2,4.23857625 4.23857625,2 7,2 C8.63628233,2 10.0889846,2.78599948 11.0011431,4.00103465 L11,3 L12,3 L12,6 L10.8740452,6.00024347 L9,6 Z" id="Combined-Shape" fill="#000000" fill-rule="nonzero"></path>
    </g>
</svg>