<?xml version="1.0" encoding="UTF-8"?>
<svg width="14px" height="14px" viewBox="0 0 14 14" version="1.1" xmlns="http://www.w3.org/2000/svg" xmlns:xlink="http://www.w3.org/1999/xlink">
    <!-- Generator: Sketch 57.1 (83088) - https://sketch.com -->
    <title>Ic/14/Line/Thumbdown/Black@2x</title>
    <desc>Created with Sketch.</desc>
    <g id="Ic/14/Line/Thumbdown/Black" stroke="none" stroke-width="1" fill="none" fill-rule="evenodd">
        <path d="M5,2 L9.17936356,2 C10.1371573,2 10.9604989,2.67904355 11.1428016,3.61932788 L11.1428016,3.61932788 L11.9552255,7.80966394 C11.9673849,7.87237972 11.9735065,7.93611636 11.9735065,8 C11.9735065,8.55228475 11.5257913,9 10.9735065,9 L10.9735065,9 L7.53158946,9 L7.7992522,10.0313543 C8.02342589,10.8951371 7.60614812,11.7969772 6.80264876,12.18526 L6.80264876,12.18526 L6.41700865,12.3716165 C6.38658075,12.3863205 6.35542703,12.3994726 6.32366744,12.4110221 C5.80463707,12.5997704 5.23086909,12.3320239 5.0421208,11.8129935 L5.0421208,11.8129935 L4.019,9 L2,9 L2,2 L5,2 Z M9.17936356,3 L5.01977939,3 L5.01977939,8.82551959 L5.98190841,11.4712345 L6.36754852,11.2848779 C6.74145695,11.1041906 6.93563717,10.6845193 6.83131794,10.2825579 L6.83131794,10.2825579 L6.23893593,8 L10.9735065,8 L10.1610826,3.80966394 C10.0699312,3.33952178 9.65826044,3 9.17936356,3 L9.17936356,3 Z M4,3 L3,3 L3,8 L4,8 L4,3 Z" id="Combined-Shape" fill="#000000" fill-rule="nonzero"></path>
    </g>
</svg>