<?xml version="1.0" encoding="UTF-8"?>
<svg width="14px" height="14px" viewBox="0 0 14 14" version="1.1" xmlns="http://www.w3.org/2000/svg" xmlns:xlink="http://www.w3.org/1999/xlink">
    <!-- Generator: Sketch 57.1 (83088) - https://sketch.com -->
    <title>Ic/14/Line/Clock/Black@2x</title>
    <desc>Created with Sketch.</desc>
    <g id="Ic/14/Line/Clock/Black" stroke="none" stroke-width="1" fill="none" fill-rule="evenodd">
        <path d="M7,11.5 C9.76142375,11.5 12,9.26142375 12,6.5 C12,3.73857625 9.76142375,1.5 7,1.5 C4.23857625,1.5 2,3.73857625 2,6.5 C2,9.26142375 4.23857625,11.5 7,11.5 Z M7,10.5 C4.790861,10.5 3,8.709139 3,6.5 C3,4.290861 4.790861,2.5 7,2.5 C9.209139,2.5 11,4.290861 11,6.5 C11,8.709139 9.209139,10.5 7,10.5 Z" id="Oval" fill="#000000" fill-rule="nonzero"></path>
        <polygon id="Path-14" fill="#000000" fill-rule="nonzero" points="7.5 6 7.5 3.5 6.5 3.5 6.5 7 10 7 10 6"></polygon>
    </g>
</svg>