<?xml version="1.0" encoding="UTF-8"?>
<svg width="18px" height="18px" viewBox="0 0 18 18" version="1.1" xmlns="http://www.w3.org/2000/svg" xmlns:xlink="http://www.w3.org/1999/xlink">
    <!-- Generator: Sketch 57.1 (83088) - https://sketch.com -->
    <title>Ic/18/Stencil/Thumbdown/Black@2x</title>
    <desc>Created with Sketch.</desc>
    <g id="Ic/18/Stencil/Thumbdown/Black" stroke="none" stroke-width="1" fill="none" fill-rule="evenodd">
        <path d="M9.08697002,3.06346157 C9.11730992,3.07479161 9.1470815,3.08758886 9.17617949,3.10180808 L9.89872976,3.45489425 C10.7666555,3.87902052 11.2073898,4.86288841 10.9460555,5.792879 L10.3866428,7.78361839 L13.9781074,7.78361839 C14.5303922,7.78361839 14.9781074,8.23133364 14.9781074,8.78361839 C14.9781074,8.84652607 14.9721714,8.9092934 14.9603782,8.97108577 L13.9703449,14.1585531 C13.7903775,15.1015264 12.9657963,15.7836184 12.0058032,15.7836184 L9.5,15.783 L9.5,14.783 L12.0058032,14.7836184 C12.4857998,14.7836184 12.8980903,14.4425724 12.988074,13.9710858 L13.9781074,8.78361839 L9.06690281,8.78361839 L9.98334371,5.52234978 C10.1140109,5.05735449 9.8936437,4.56542054 9.45968085,4.35335741 L8.73713058,4.00027124 L7,8.65200739 L7,14.7836184 L8.5,14.783 L8.5,15.783 L6,15.7836184 L6,15.78 L3,15.78 L3,7.78 L6.257,7.78 L7.80032091,3.65043181 C7.99353189,3.13304611 8.56958432,2.87025058 9.08697002,3.06346157 Z M6,8.78 L4,8.78 L4,14.78 L6,14.78 L6,8.78 Z" id="Combined-Shape" fill="#000000" fill-rule="nonzero" transform="translate(8.989054, 9.391809) scale(1, -1) translate(-8.989054, -9.391809) "></path>
    </g>
</svg>