<?xml version="1.0" encoding="UTF-8"?>
<svg width="18px" height="18px" viewBox="0 0 18 18" version="1.1" xmlns="http://www.w3.org/2000/svg" xmlns:xlink="http://www.w3.org/1999/xlink">
    <!-- Generator: Sketch 57.1 (83088) - https://sketch.com -->
    <title>Ic/18/Stencil/Gif/Black@2x</title>
    <desc>Created with Sketch.</desc>
    <defs>
        <path d="M9,3 C12.3137085,3 15,5.6862915 15,9 C15,12.3137085 12.3137085,15 9,15 C5.85497576,15 3.27511705,12.5802387 3.02061151,9.50090367 L4.02475737,9.50070198 C4.27594469,12.0270268 6.40756606,14 9,14 C11.7614237,14 14,11.7614237 14,9 C14,6.23857625 11.7614237,4 9,4 C6.40722328,4 4.27538101,5.97349494 4.02465783,8.50030016 L3.02052886,8.50009733 C3.27455798,5.42028573 5.85463498,3 9,3 Z M7.185,7.31 C7.64,7.31 7.955,7.405 8.155,7.505 L8.155,8.055 C7.95,7.98 7.685,7.875 7.245,7.875 C6.46,7.875 6.225,8.37 6.225,8.995 L6.225,9.15 C6.225,9.845 6.395,10.315 7.145,10.315 C7.33,10.315 7.515,10.275 7.625,10.24 L7.625,9.52 L7.03,9.52 L7.03,9.02 L8.31,9.02 L8.31,10.64 C8.05,10.74 7.625,10.85 7.16,10.85 C6.13,10.85 5.48,10.365 5.48,9.15 L5.48,9.04 C5.48,7.735 6.285,7.31 7.185,7.31 Z M9.64,7.365 L9.64,10.795 L8.925,10.795 L8.925,7.365 L9.64,7.365 Z M12.54,7.365 L12.54,7.9 L11.07,7.9 L11.07,8.855 L12.215,8.855 L12.215,9.395 L11.07,9.395 L11.07,10.795 L10.36,10.795 L10.36,7.365 L12.54,7.365 Z" id="path-1"></path>
    </defs>
    <g id="Ic/18/Stencil/Gif/Black" stroke="none" stroke-width="1" fill="none" fill-rule="evenodd">
        <mask id="mask-2" fill="white">
            <use xlink:href="#path-1"></use>
        </mask>
        <use id="Combined-Shape" fill="#000000" fill-rule="nonzero" xlink:href="#path-1"></use>
    </g>
</svg>