<?xml version="1.0" encoding="UTF-8"?>
<svg width="18px" height="18px" viewBox="0 0 18 18" version="1.1" xmlns="http://www.w3.org/2000/svg" xmlns:xlink="http://www.w3.org/1999/xlink">
    <!-- Generator: Sketch 57.1 (83088) - https://sketch.com -->
    <title>Ic/18/Line/Arrow/Circleleft/Black@2x</title>
    <desc>Created with Sketch.</desc>
    <g id="Ic/18/Line/Arrow/Circleleft/Black" stroke="none" stroke-width="1" fill="none" fill-rule="evenodd">
        <path d="M9,15 C12.3137085,15 15,12.3137085 15,9 C15,5.6862915 12.3137085,3 9,3 C5.6862915,3 3,5.6862915 3,9 C3,12.3137085 5.6862915,15 9,15 Z M9,14 C6.23857625,14 4,11.7614237 4,9 C4,6.23857625 6.23857625,4 9,4 C11.7614237,4 14,6.23857625 14,9 C14,11.7614237 11.7614237,14 9,14 Z" id="Oval" fill="#000000" fill-rule="nonzero"></path>
        <polygon id="Fill-1" fill="#000000" points="8 7.232 9.768 9.001 8 10.768 8.707 11.475 11.182 9.001 8.707 6.525"></polygon>
    </g>
</svg>