<?xml version="1.0" encoding="UTF-8"?>
<svg width="18px" height="18px" viewBox="0 0 18 18" version="1.1" xmlns="http://www.w3.org/2000/svg" xmlns:xlink="http://www.w3.org/1999/xlink">
    <!-- Generator: Sketch 61 (89581) - https://sketch.com -->
    <title>Ic/18/Stencil/Report/Black</title>
    <desc>Created with Sketch.</desc>
    <g id="Ic/18/Stencil/Report/Black" stroke="none" stroke-width="1" fill="none" fill-rule="evenodd">
        <path d="M15.5,12 L15.5,16 L2.5,16 L2.5,12 L6,12 L6,13 L3.499,13 L3.499,15 L14.499,15 L14.499,13 L7,13 L7,12 L15.5,12 Z" id="Combined-Shape" fill="#000000" fill-rule="nonzero"></path>
        <path d="M9,4.00054932 C11.6884593,4.00054932 13.8812818,6.12262286 13.9948317,8.78313421 L13.9994507,9 L13.9994507,13 L6.99954932,12.9995493 L6.99954932,11.9995493 L12.999,12 L12.9996774,9.02129409 L12.9957412,8.82577511 C12.9046638,6.69180034 11.1440948,5.00054932 9,5.00054932 C6.92290818,5.00054932 5.20574634,6.58774876 5.0182699,8.60764268 L5.00494158,8.80442829 L5.00054932,9 L4.00054932,9 L4.00516832,8.78313421 C4.11871822,6.12262286 6.31154069,4.00054932 9,4.00054932 Z M5,9.99954932 L5,12 L5.99954932,11.9995493 L5.99954932,12.9995493 L4.00054932,13 L4,9.99954932 L5,9.99954932 Z" id="Combined-Shape" fill="#000000" fill-rule="nonzero"></path>
        <polygon id="Path-2" fill="#000000" fill-rule="nonzero" points="9.5 1.80175781 9.5 3.30175781 8.5 3.30175781 8.5 1.80175781"></polygon>
        <polygon id="Path-2" fill="#000000" fill-rule="nonzero" transform="translate(4.440404, 4.440404) rotate(-45.000000) translate(-4.440404, -4.440404) " points="4.94040422 3.69040422 4.94040422 5.19040422 3.94040422 5.19040422 3.94040422 3.69040422"></polygon>
        <polygon id="Path-2" fill="#000000" fill-rule="nonzero" transform="translate(13.559596, 4.440404) rotate(-315.000000) translate(-13.559596, -4.440404) " points="14.0595958 3.69040422 14.0595958 5.19040422 13.0595958 5.19040422 13.0595958 3.69040422"></polygon>
        <path d="M9,6.00216675 L9,7.00216675 C7.94663568,7.00216675 7.08364955,7.81727268 7.00737264,8.85115352 L7.00189209,9.00027466 L6.00189209,9.00027466 C6.00189209,7.40360143 7.25002436,6.09844511 8.82383839,6.00725623 L9,6.00216675 Z" id="Oval" fill="#000000" fill-rule="nonzero"></path>
    </g>
</svg>