<?xml version="1.0" encoding="UTF-8"?>
<svg width="14px" height="14px" viewBox="0 0 14 14" version="1.1" xmlns="http://www.w3.org/2000/svg" xmlns:xlink="http://www.w3.org/1999/xlink">
    <!-- Generator: Sketch 57.1 (83088) - https://sketch.com -->
    <title>Ic/14/Stencil/Link/Black@2x</title>
    <desc>Created with Sketch.</desc>
    <g id="Ic/14/Stencil/Link/Black" stroke="none" stroke-width="1" fill="none" fill-rule="evenodd">
        <path d="M11.3653846,2.63461538 C12.2681578,3.53738853 12.2681578,5.00107301 11.3653846,5.90384615 L9.40384615,7.86538462 C8.50107301,8.76815776 7.03738853,8.76815776 6.13461538,7.86538462 C5.88469813,7.61546736 5.70396617,7.32256386 5.59241953,7.01047413 L6.71431741,7.01062022 C6.75252244,7.06216606 6.79499069,7.11154636 6.84172217,7.15827783 C7.35397102,7.67052669 8.18449052,7.67052669 8.69673937,7.15827783 L10.6582778,5.19673937 C11.1705267,4.68449052 11.1705267,3.85397102 10.6582778,3.34172217 C10.146029,2.82947331 9.31550948,2.82947331 8.80326063,3.34172217 L7.13425012,5.00953552 L5.80571298,5.00973734 C5.89728448,4.86277008 6.00691861,4.72385062 6.13461538,4.59615385 L8.09615385,2.63461538 C8.99892699,1.73184224 10.4626115,1.73184224 11.3653846,2.63461538 Z" id="Mask" fill="#000000" fill-rule="nonzero"></path>
        <path d="M7.86538462,6.13461538 C8.10673605,6.37596682 8.28356351,6.65740831 8.39586698,6.95750415 L7.26163365,6.95793679 C7.2298753,6.91768681 7.19542337,6.8788677 7.15827783,6.84172217 C6.64602898,6.32947331 5.81550948,6.32947331 5.30326063,6.84172217 L3.34172217,8.80326063 C2.82947331,9.31550948 2.82947331,10.146029 3.34172217,10.6582778 C3.85397102,11.1705267 4.68449052,11.1705267 5.19673937,10.6582778 L6.89653552,8.95753552 L8.21376156,8.9584337 C8.11838973,9.11719246 8.00226408,9.26696669 7.86538462,9.40384615 L5.90384615,11.3653846 C5.00107301,12.2681578 3.53738853,12.2681578 2.63461538,11.3653846 C1.73184224,10.4626115 1.73184224,8.99892699 2.63461538,8.09615385 L4.59615385,6.13461538 C5.49892699,5.23184224 6.96261147,5.23184224 7.86538462,6.13461538 Z" id="Combined-Shape" fill="#000000" fill-rule="nonzero"></path>
    </g>
</svg>