<?xml version="1.0" encoding="UTF-8"?>
<svg width="14px" height="14px" viewBox="0 0 14 14" version="1.1" xmlns="http://www.w3.org/2000/svg" xmlns:xlink="http://www.w3.org/1999/xlink">
    <!-- Generator: Sketch 59.1 (86144) - https://sketch.com -->
    <title>Ic/14/Line/Gif/Black@2x</title>
    <desc>Created with Sketch.</desc>
    <g id="Ic/14/Line/Gif/Black" stroke="none" stroke-width="1" fill="none" fill-rule="evenodd">
        <path d="M7,2 C9.76142375,2 12,4.23857625 12,7 C12,9.76142375 9.76142375,12 7,12 C4.23857625,12 2,9.76142375 2,7 C2,4.23857625 4.23857625,2 7,2 Z M7,3 C4.790861,3 3,4.790861 3,7 C3,9.209139 4.790861,11 7,11 C9.209139,11 11,9.209139 11,7 C11,4.790861 9.209139,3 7,3 Z M5.394,5.6 C5.766,5.6 6.054,5.672 6.202,5.748 L6.202,5.748 L6.202,6.3 C6.054,6.248 5.834,6.176 5.498,6.176 C4.926,6.176 4.774,6.472 4.774,6.924 L4.774,6.924 L4.774,7.044 C4.774,7.544 4.882,7.836 5.35,7.836 C5.462,7.836 5.574,7.816 5.638,7.792 L5.638,7.792 L5.638,7.372 L5.254,7.372 L5.254,6.88 L6.338,6.88 L6.338,8.2 C6.138,8.284 5.758,8.372 5.374,8.372 C4.522,8.372 3.998,8.02 3.998,7.032 L3.998,7.032 L3.998,6.944 C3.998,5.924 4.65,5.6 5.394,5.6 Z M7.554,5.644 L7.554,8.332 L6.798,8.332 L6.798,5.644 L7.554,5.644 Z M9.922,5.644 L9.922,6.184 L8.826,6.184 L8.826,6.792 L9.682,6.792 L9.682,7.32 L8.826,7.32 L8.826,8.332 L8.074,8.332 L8.074,5.644 L9.922,5.644 Z" id="Combined-Shape" fill="#000000" fill-rule="nonzero"></path>
    </g>
</svg>