<?xml version="1.0" encoding="UTF-8"?>
<svg width="18px" height="18px" viewBox="0 0 18 18" version="1.1" xmlns="http://www.w3.org/2000/svg" xmlns:xlink="http://www.w3.org/1999/xlink">
    <!-- Generator: Sketch 57.1 (83088) - https://sketch.com -->
    <title>Ic/18/Stencil/Hanger/Black@2x</title>
    <desc>Created with Sketch.</desc>
    <g id="Ic/18/Stencil/Hanger/Black" stroke="none" stroke-width="1" fill="none" fill-rule="evenodd">
        <path d="M9.06666667,3.52 C10.2715532,3.52 11.2333333,4.55276525 11.2333333,5.80967666 C11.2333333,6.37504823 11.0388442,6.87008339 10.6572608,7.26780223 C10.408587,7.52699135 10.0915803,7.85570449 9.70617852,8.25400726 L9.711,8.261 L9.004,8.968 L9,8.96421356 L5.41421356,12.55 L12.5857864,12.55 L9.711,9.675 L10.418,8.968 L15,13.55 L3,13.55 L8.86807043,7.68205824 C9.30699897,7.22868164 9.66289255,6.85979449 9.93566803,6.57548452 C10.1365766,6.36608044 10.2333333,6.11980447 10.2333333,5.80967666 C10.2333333,5.08976582 9.70272927,4.52 9.06666667,4.52 C8.42275272,4.52 7.9,5.06894002 7.9,5.78107103 L7.9,5.78107103 L6.9,5.78107103 C6.9,4.52729247 7.85923936,3.52 9.06666667,3.52 Z" id="Combined-Shape" fill="#000000" fill-rule="nonzero"></path>
    </g>
</svg>