<?xml version="1.0" encoding="UTF-8"?>
<svg width="14px" height="14px" viewBox="0 0 14 14" version="1.1" xmlns="http://www.w3.org/2000/svg" xmlns:xlink="http://www.w3.org/1999/xlink">
    <!-- Generator: Sketch 63.1 (92452) - https://sketch.com -->
    <title>Ic/14/Solid/Show</title>
    <desc>Created with Sketch.</desc>
    <g id="Ic/14/Solid/Show" stroke="none" stroke-width="1" fill="none" fill-rule="evenodd">
        <path d="M7,3 C9.77000508,3 12.1265448,4.66949924 13,6.9997571 C12.1268457,9.33028762 9.7701819,11 7,11 C4.22999492,11 1.87345515,9.33050076 1,7.0002429 C1.87315431,4.66971238 4.2298181,3 7,3 Z M7,5 C5.8954305,5 5,5.8954305 5,7 C5,8.1045695 5.8954305,9 7,9 C8.1045695,9 9,8.1045695 9,7 C9,5.8954305 8.1045695,5 7,5 Z M7,6 C7.55228475,6 8,6.44771525 8,7 C8,7.55228475 7.55228475,8 7,8 C6.44771525,8 6,7.55228475 6,7 C6,6.44771525 6.44771525,6 7,6 Z" id="Combined-Shape" fill="#000000"></path>
    </g>
</svg>