<?xml version="1.0" encoding="UTF-8"?>
<svg width="18px" height="18px" viewBox="0 0 18 18" version="1.1" xmlns="http://www.w3.org/2000/svg" xmlns:xlink="http://www.w3.org/1999/xlink">
    <!-- Generator: Sketch 57.1 (83088) - https://sketch.com -->
    <title>Ic/18/Line/Refresh/Black@2x</title>
    <desc>Created with Sketch.</desc>
    <defs>
        <path d="M11.5,8 L11.5,7 L13.5841971,7.00055128 C12.8127664,5.23435206 11.0505324,4 9,4 C6.23857625,4 4,6.23857625 4,9 C4,11.7614237 6.23857625,14 9,14 C11.6887547,14 13.8818181,11.8776933 13.9953805,9.21688962 L14,9 L15,9 C15,12.3137085 12.3137085,15 9,15 C5.6862915,15 3,12.3137085 3,9 C3,5.6862915 5.6862915,3 9,3 C11.0877339,3 12.9264227,4.06628875 14.0011789,5.68397867 L14,4.5 L15,4.5 L15,8 L14.9170737,8.00019152 L14.9170737,8.00019152 L11.5,8 Z" id="path-1"></path>
    </defs>
    <g id="Ic/18/Line/Refresh/Black" stroke="none" stroke-width="1" fill="none" fill-rule="evenodd">
        <mask id="mask-2" fill="white">
            <use xlink:href="#path-1"></use>
        </mask>
        <use id="Mask" fill="#000000" fill-rule="nonzero" xlink:href="#path-1"></use>
    </g>
</svg>