<?xml version="1.0" encoding="UTF-8"?>
<svg width="18px" height="18px" viewBox="0 0 18 18" version="1.1" xmlns="http://www.w3.org/2000/svg" xmlns:xlink="http://www.w3.org/1999/xlink">
    <!-- Generator: Sketch 57.1 (83088) - https://sketch.com -->
    <title>Ic/18/Line/Listview/Black@2x</title>
    <desc>Created with Sketch.</desc>
    <defs>
        <path d="M8.5,9.5 L8.5,15 L3,15 L3,9.5 L8.5,9.5 Z M15,13.5 L15,14.5 L9.5,14.5 L9.5,13.5 L15,13.5 Z M7.5,10.5 L4,10.5 L4,14 L7.5,14 L7.5,10.5 Z M15,10 L15,11 L9.5,11 L9.5,10 L15,10 Z M8.5,3 L8.5,8.5 L3,8.5 L3,3 L8.5,3 Z M15,7 L15,8 L9.5,8 L9.5,7 L15,7 Z M7.5,4 L4,4 L4,7.5 L7.5,7.5 L7.5,4 Z M15,3.5 L15,4.5 L9.5,4.5 L9.5,3.5 L15,3.5 Z" id="path-1"></path>
    </defs>
    <g id="Ic/18/Line/Listview/Black" stroke="none" stroke-width="1" fill="none" fill-rule="evenodd">
        <mask id="mask-2" fill="white">
            <use xlink:href="#path-1"></use>
        </mask>
        <use id="Mask" fill="#000000" fill-rule="nonzero" xlink:href="#path-1"></use>
    </g>
</svg>