<?xml version="1.0" encoding="UTF-8"?>
<svg width="18px" height="18px" viewBox="0 0 18 18" version="1.1" xmlns="http://www.w3.org/2000/svg" xmlns:xlink="http://www.w3.org/1999/xlink">
    <!-- Generator: Sketch 57.1 (83088) - https://sketch.com -->
    <title>Ic/18/Line/Timelineview/Black@2x</title>
    <desc>Created with Sketch.</desc>
    <defs>
        <path d="M15,9.5 L15,15 L5,15 L5,9.5 L15,9.5 Z M4,9.5 L4,15 L3,15 L3,9.5 L4,9.5 Z M14,10.5 L6,10.5 L6,14 L14,14 L14,10.5 Z M15,3 L15,8.5 L5,8.5 L5,3 L15,3 Z M4,3 L4,8.5 L3,8.5 L3,3 L4,3 Z M14,4 L6,4 L6,7.5 L14,7.5 L14,4 Z" id="path-1"></path>
    </defs>
    <g id="Ic/18/Line/Timelineview/Black" stroke="none" stroke-width="1" fill="none" fill-rule="evenodd">
        <mask id="mask-2" fill="white">
            <use xlink:href="#path-1"></use>
        </mask>
        <use id="Mask" fill="#000000" fill-rule="nonzero" xlink:href="#path-1"></use>
    </g>
</svg>