<?xml version="1.0" encoding="UTF-8"?>
<svg width="14px" height="14px" viewBox="0 0 14 14" version="1.1" xmlns="http://www.w3.org/2000/svg" xmlns:xlink="http://www.w3.org/1999/xlink">
    <!-- Generator: Sketch 57.1 (83088) - https://sketch.com -->
    <title>Ic/14/Stencil/Setting/Black@2x</title>
    <desc>Created with Sketch.</desc>
    <g id="Ic/14/Stencil/Setting/Black" stroke="none" stroke-width="1" fill="none" fill-rule="evenodd">
        <path d="M7.5,1.5 L7.50075535,3.03104114 C8.23082188,3.12222012 8.89976262,3.41014765 9.45283609,3.8400823 L10.6464466,2.64644661 L11.3535534,3.35355339 L10.1602937,4.54764772 C10.5903157,5.1010077 10.8782022,5.77031072 10.9691466,6.50075028 L12.5,6.5 L12.5,7.5 L10.9689485,7.5008382 C10.8777664,8.23080566 10.5898888,8.89966107 10.1600358,9.45268421 L11.2426407,10.5355339 L10.5355339,11.2426407 L9.45262144,10.1600845 C8.89958954,10.5899268 8.23072744,10.8777917 7.50075535,10.9689589 L7.5,12.5 L6.5,12.5 L6.50029469,9.9585702 C6.66280605,9.98581775 6.82974681,10 7,10 C8.65685425,10 10,8.65685425 10,7 C10,5.34314575 8.65685425,4 7,4 C5.8894576,4 4.91985316,4.60342711 4.40118003,5.50028797 L3.29085016,5.49977364 C3.43000458,5.15606471 3.61554667,4.83609873 3.83971279,4.54763933 L2.64644661,3.35355339 L3.35355339,2.64644661 L4.54730574,3.83997206 C5.10071108,3.40981912 5.77010979,3.12183828 6.50066769,3.03086368 L6.5,1.5 L7.5,1.5 Z M3.03091685,6.50024088 L4.0414298,6.50029469 C4.01418225,6.66280605 4,6.82974681 4,7 C4,8.1105424 4.60342711,9.08014684 5.50028797,9.59881997 L5.49977364,10.7091498 C5.15606471,10.5699954 4.83609873,10.3844533 4.54763933,10.1602872 L3.35355339,11.3535534 L2.64644661,10.6464466 L3.83997206,9.45269426 C3.41001772,8.89954441 3.12210422,8.23050829 3.0309898,7.50034413 L1.5,7.5 L1.5,6.5 L3.03091685,6.50024088 Z" id="Combined-Shape" fill="#000000" fill-rule="nonzero"></path>
    </g>
</svg>