<?xml version="1.0" encoding="UTF-8"?>
<svg width="18px" height="18px" viewBox="0 0 18 18" version="1.1" xmlns="http://www.w3.org/2000/svg" xmlns:xlink="http://www.w3.org/1999/xlink">
    <!-- Generator: Sketch 62 (91390) - https://sketch.com -->
    <title>Ic/18/Line/Balloon2</title>
    <desc>Created with Sketch.</desc>
    <g id="Ic/18/Line/Balloon2" stroke="none" stroke-width="1" fill="none" fill-rule="evenodd">
        <path d="M11.0649111,3.7 C13.5143431,3.7 15.5,5.68565694 15.5,8.13508891 C15.5,10.5845209 13.5143431,12.5701778 11.0649111,12.5701778 L10.74,12.57 L9.82837308,13.9193464 C9.51899598,14.3768442 8.89732103,14.4969197 8.43982321,14.1875426 C8.3341339,14.1160716 8.24309797,14.0250357 8.17162692,13.9193464 L7.259,12.57 L6.93508891,12.5701778 C4.48565694,12.5701778 2.5,10.5845209 2.5,8.13508891 C2.5,5.68565694 4.48565694,3.7 6.93508891,3.7 L11.0649111,3.7 Z M11.0649111,4.7 L6.93508891,4.7 C5.03794169,4.7 3.5,6.23794169 3.5,8.13508891 C3.5,9.96899789 4.93712107,11.4672493 6.74611929,11.5650951 L6.93453991,11.570178 L7.78970263,11.5697085 L8.999,13.358 L10.2089706,11.5697092 L11.0649111,11.5701778 C12.9620583,11.5701778 14.5,10.0322361 14.5,8.13508891 C14.5,6.30117993 13.0628789,4.80292856 11.2533848,4.70508282 L11.0649111,4.7 Z M6.5,7.7 C6.77614237,7.7 7,7.92385763 7,8.2 C7,8.47614237 6.77614237,8.7 6.5,8.7 C6.22385763,8.7 6,8.47614237 6,8.2 C6,7.92385763 6.22385763,7.7 6.5,7.7 Z M9,7.7 C9.27614237,7.7 9.5,7.92385763 9.5,8.2 C9.5,8.47614237 9.27614237,8.7 9,8.7 C8.72385763,8.7 8.5,8.47614237 8.5,8.2 C8.5,7.92385763 8.72385763,7.7 9,7.7 Z M11.5,7.7 C11.7761424,7.7 12,7.92385763 12,8.2 C12,8.47614237 11.7761424,8.7 11.5,8.7 C11.2238576,8.7 11,8.47614237 11,8.2 C11,7.92385763 11.2238576,7.7 11.5,7.7 Z" id="Combined-Shape" fill="#000000"></path>
    </g>
</svg>