<?xml version="1.0" encoding="UTF-8"?>
<svg width="14px" height="14px" viewBox="0 0 14 14" version="1.1" xmlns="http://www.w3.org/2000/svg" xmlns:xlink="http://www.w3.org/1999/xlink">
    <!-- Generator: Sketch 59.1 (86144) - https://sketch.com -->
    <title>Ic/14/Stencil/Heart/Black@2x</title>
    <desc>Created with Sketch.</desc>
    <g id="Ic/14/Stencil/Heart/Black" stroke="none" stroke-width="1" fill="none" fill-rule="evenodd">
        <path d="M6.24230031,3.1526021 L6.33334957,3.237 L7.70434957,4.609 L6.99861408,5.31447807 L5.69210739,4.0071692 L5.58450734,3.90580088 C4.93351741,3.33727022 3.94722607,3.36863792 3.33210678,3.98375721 C2.68709717,4.62876682 2.68709717,5.67453403 3.33210678,6.31954365 L7,9.98743687 L10.0413496,6.945 L10.7483496,7.652 L7,11.4016504 L2.625,7.02665043 C1.58946609,5.99111652 1.58946609,4.31218434 2.625,3.27665043 C3.61738666,2.28426377 5.20067209,2.24291433 6.24230031,3.1526021 Z M11.375,3.27665043 C12.383283,4.28493344 12.4098168,5.90319724 11.4546013,6.9435845 L10.7443496,6.234 L10.7750228,6.20172145 C11.310671,5.5528893 11.2749611,4.59082508 10.6678932,3.98375721 C10.0504481,3.36631211 9.06576631,3.33992557 8.41628761,3.90524275 L7.70834957,3.198 L7.75769969,3.1526021 C8.79932791,2.24291433 10.3826133,2.28426377 11.375,3.27665043 Z" id="Combined-Shape" fill="#000000" fill-rule="nonzero"></path>
    </g>
</svg>