<?xml version="1.0" encoding="UTF-8"?>
<svg width="18px" height="18px" viewBox="0 0 18 18" version="1.1" xmlns="http://www.w3.org/2000/svg" xmlns:xlink="http://www.w3.org/1999/xlink">
    <!-- Generator: Sketch 57.1 (83088) - https://sketch.com -->
    <title>Ic/18/Stencil/Sound/Black@2x</title>
    <desc>Created with Sketch.</desc>
    <defs>
        <path d="M7.99900906,7 L8,12.5 C8,13.8807119 6.88071187,15 5.5,15 C4.29067455,15 3.28190033,14.1413382 3.05009729,13.0004345 L4.08560151,13.000703 C4.29171807,13.5829319 4.8471533,14 5.5,14 C6.32842712,14 7,13.3284271 7,12.5 C7,11.6715729 6.32842712,11 5.5,11 C4.84678131,11 4.29108512,11.4175435 4.08524952,12.0002925 L3.0498926,12.000574 C3.2813059,10.8591679 4.29031824,10 5.5,10 C6.06323916,10 6.58297478,10.1862608 7.00097133,10.5005469 L7.00000906,7 L7.99900906,7 Z M14.9990091,5 L15,11.25 L14.9875531,11.2489635 C14.9957849,11.3315257 15,11.4152706 15,11.5 C15,12.8807119 13.8807119,14 12.5,14 C11.1192881,14 10,12.8807119 10,11.5 C10,10.1192881 11.1192881,9 12.5,9 C13.0632392,9 13.5829748,9.1862608 14.0009713,9.50054687 L13.9990091,5 L14.9990091,5 Z M12.5,10 C11.6715729,10 11,10.6715729 11,11.5 C11,12.3284271 11.6715729,13 12.5,13 C13.3284271,13 14,12.3284271 14,11.5 C14,10.6715729 13.3284271,10 12.5,10 Z M15,3 L14.9990091,4 L8,4 L7.99900906,6 L6.99900906,6 L7,3 L15,3 Z" id="path-1"></path>
    </defs>
    <g id="Ic/18/Stencil/Sound/Black" stroke="none" stroke-width="1" fill="none" fill-rule="evenodd">
        <mask id="mask-2" fill="white">
            <use xlink:href="#path-1"></use>
        </mask>
        <use id="Combined-Shape" fill="#000000" fill-rule="nonzero" xlink:href="#path-1"></use>
    </g>
</svg>