<?xml version="1.0" encoding="UTF-8"?>
<svg width="18px" height="18px" viewBox="0 0 18 18" version="1.1" xmlns="http://www.w3.org/2000/svg" xmlns:xlink="http://www.w3.org/1999/xlink">
    <!-- Generator: Sketch 57.1 (83088) - https://sketch.com -->
    <title>Ic/18/Stencil/Tag/Black@2x</title>
    <desc>Created with Sketch.</desc>
    <defs>
        <path d="M15,3 L15,7.90909091 L7.90909091,15 L7.201,14.291 L7.908,13.584 L7.90909091,13.5857864 L14,7.49487735 L14,4 L10.5051227,4 L6.106,8.398 L5.399,7.691 L10.0909091,3 L15,3 Z M4.691,8.399 L5.398,9.106 L4.41421356,10.0909091 L7.201,12.877 L6.493,13.584 L3,10.0909091 L4.691,8.399 Z M11.5,5 C12.3284271,5 13,5.67157288 13,6.5 C13,7.32842712 12.3284271,8 11.5,8 C10.6715729,8 10,7.32842712 10,6.5 C10,5.67157288 10.6715729,5 11.5,5 Z M11.5,6 C11.2238576,6 11,6.22385763 11,6.5 C11,6.77614237 11.2238576,7 11.5,7 C11.7761424,7 12,6.77614237 12,6.5 C12,6.22385763 11.7761424,6 11.5,6 Z" id="path-1"></path>
    </defs>
    <g id="Ic/18/Stencil/Tag/Black" stroke="none" stroke-width="1" fill="none" fill-rule="evenodd">
        <mask id="mask-2" fill="white">
            <use xlink:href="#path-1"></use>
        </mask>
        <use id="Combined-Shape" fill="#000000" fill-rule="nonzero" xlink:href="#path-1"></use>
    </g>
</svg>