<?xml version="1.0" encoding="UTF-8"?>
<svg width="14px" height="14px" viewBox="0 0 14 14" version="1.1" xmlns="http://www.w3.org/2000/svg" xmlns:xlink="http://www.w3.org/1999/xlink">
    <!-- Generator: Sketch 57.1 (83088) - https://sketch.com -->
    <title>Ic/14/Stencil/Balloon/Black@2x</title>
    <desc>Created with Sketch.</desc>
    <g id="Ic/14/Stencil/Balloon/Black" stroke="none" stroke-width="1" fill="none" fill-rule="evenodd">
        <path d="M12,2 L12,10.5467202 L7.90909091,10.5467202 L7.00155843,11.446375 L6.09090909,10.5467202 L2,10.5467202 L2,5 L3,5 L3,9.54672025 L6.50156948,9.54672025 L7.0003526,10.0394814 L7.49742853,9.54672025 L11,9.54672025 L11,3 L5,3 L5,2 L12,2 Z M5.5,6 L5.5,7 L4.5,7 L4.5,6 L5.5,6 Z M9.5,6 L9.5,7 L8.5,7 L8.5,6 L9.5,6 Z M7.5,6 L7.5,7 L6.5,7 L6.5,6 L7.5,6 Z M4,2 L4,3 L3,3 L3,4 L2,4 L2,2 L4,2 Z" id="Combined-Shape" fill="#000000" fill-rule="nonzero"></path>
    </g>
</svg>