<?xml version="1.0" encoding="UTF-8"?>
<svg width="14px" height="14px" viewBox="0 0 14 14" version="1.1" xmlns="http://www.w3.org/2000/svg" xmlns:xlink="http://www.w3.org/1999/xlink">
    <!-- Generator: Sketch 63.1 (92452) - https://sketch.com -->
    <title>Ic/14/Solid/Hide</title>
    <desc>Created with Sketch.</desc>
    <g id="Ic/14/Solid/Hide" stroke="none" stroke-width="1" fill="none" fill-rule="evenodd">
        <path d="M13,6.9997571 C12.1268457,9.33028762 9.7701819,11 7,11 C6.02724008,11 5.10547066,10.7941094 4.28101558,10.4260156 L5.9838916,8.72301675 C6.28167596,8.89900711 6.6290439,9 7,9 C8.1045695,9 9,8.1045695 9,7 C9,6.62945884 8.89923291,6.2824531 8.72360704,5.98489106 L10.6337116,4.07427869 C11.7158322,4.78560623 12.5525321,5.80597441 13,6.9997571 Z M7,3 C7.97315012,3 8.89526882,3.20605577 9.71997649,3.57442744 L8.0161084,5.27698325 C7.71832404,5.10099289 7.3709561,5 7,5 C5.8954305,5 5,5.8954305 5,7 C5,7.3709561 5.10099289,7.71832404 5.27698325,8.0161084 L3.36730042,9.92638643 C2.2846895,9.2150299 1.44760741,8.19439772 1,7.0002429 C1.87315431,4.66971238 4.2298181,3 7,3 Z M7.96646375,6.74223577 C7.98834055,6.82447258 8,6.91087468 8,7 C8,7.55228475 7.55228475,8 7,8 C6.91087468,8 6.82447258,7.98834055 6.74223577,7.96646375 Z M7,6 C7.08949058,6 7.17623559,6.01175521 7.25877513,6.03380574 L6.03380574,7.25877513 C6.01175521,7.17623559 6,7.08949058 6,7 C6,6.44771525 6.44771525,6 7,6 Z" id="Combined-Shape" fill="#000000"></path>
    </g>
</svg>