<?xml version="1.0" encoding="UTF-8"?>
<svg width="18px" height="18px" viewBox="0 0 18 18" version="1.1" xmlns="http://www.w3.org/2000/svg" xmlns:xlink="http://www.w3.org/1999/xlink">
    <!-- Generator: Sketch 57.1 (83088) - https://sketch.com -->
    <title>Ic/18/Stencil/Smile/Black@2x</title>
    <desc>Created with Sketch.</desc>
    <defs>
        <path d="M9,3 C12.3137085,3 15,5.6862915 15,9 C15,12.3137085 12.3137085,15 9,15 C5.85497576,15 3.27511705,12.5802387 3.02061151,9.50090367 L4.02475737,9.50070198 C4.27594469,12.0270268 6.40756606,14 9,14 C11.7614237,14 14,11.7614237 14,9 C14,6.23857625 11.7614237,4 9,4 C6.40722328,4 4.27538101,5.97349494 4.02465783,8.50030016 L3.02052886,8.50009733 C3.27455798,5.42028573 5.85463498,3 9,3 Z M12,9.5 C12,11.1568542 10.6568542,12.5 9,12.5 C7.34314575,12.5 6,11.1568542 6,9.5 L7.0053403,9.64727769 C7.0807307,10.6830789 7.94496428,11.5 9,11.5 C10.0543618,11.5 10.9181651,10.6841222 10.9945143,9.64926234 L10.999,9.529 L12,9.5 Z M7,7 L7,8.5 L6,8.5 L6,7 L7,7 Z M12,7 L12,8.5 L11,8.5 L11,7 L12,7 Z" id="path-1"></path>
    </defs>
    <g id="Ic/18/Stencil/Smile/Black" stroke="none" stroke-width="1" fill="none" fill-rule="evenodd">
        <mask id="mask-2" fill="white">
            <use xlink:href="#path-1"></use>
        </mask>
        <use id="Combined-Shape" fill="#000000" fill-rule="nonzero" xlink:href="#path-1"></use>
    </g>
</svg>