<?xml version="1.0" encoding="UTF-8"?>
<svg width="14px" height="14px" viewBox="0 0 14 14" version="1.1" xmlns="http://www.w3.org/2000/svg" xmlns:xlink="http://www.w3.org/1999/xlink">
    <!-- Generator: Sketch 57.1 (83088) - https://sketch.com -->
    <title>Ic/14/Line/Mike/Black@2x</title>
    <desc>Created with Sketch.</desc>
    <g id="Ic/14/Line/Mike/Black" stroke="none" stroke-width="1" fill="none" fill-rule="evenodd">
        <path d="M9,4 L9,7 C9,8.1045695 8.1045695,9 7,9 C5.8954305,9 5,8.1045695 5,7 L5,4 C5,2.8954305 5.8954305,2 7,2 C8.1045695,2 9,2.8954305 9,4 Z M7,3 C6.44771525,3 6,3.44771525 6,4 L6,7 C6,7.55228475 6.44771525,8 7,8 C7.55228475,8 8,7.55228475 8,7 L8,4 C8,3.44771525 7.55228475,3 7,3 Z" id="Rectangle" fill="#000000" fill-rule="nonzero"></path>
        <path d="M9.5,7 L9.5,7.17142857 C9.5,8.45067108 8.38707538,9.5 7,9.5 C5.61292462,9.5 4.5,8.45067108 4.5,7.17142857 L4.5,7 L3.5,7 L3.5,7.17142857 C3.5,9.01653979 5.07336688,10.5 7,10.5 C8.92663312,10.5 10.5,9.01653979 10.5,7.17142857 L10.5,7 L9.5,7 Z" id="Shape" fill="#000000" fill-rule="nonzero"></path>
        <polygon id="Path-19" fill="#000000" fill-rule="nonzero" points="7.5 12 7.5 10 6.5 10 6.5 12"></polygon>
    </g>
</svg>