<?xml version="1.0" encoding="UTF-8"?>
<svg width="14px" height="14px" viewBox="0 0 14 14" version="1.1" xmlns="http://www.w3.org/2000/svg" xmlns:xlink="http://www.w3.org/1999/xlink">
    <!-- Generator: Sketch 57.1 (83088) - https://sketch.com -->
    <title>Ic/14/Stencil/Clothes/Black@2x</title>
    <desc>Created with Sketch.</desc>
    <g id="Ic/14/Stencil/Clothes/Black" stroke="none" stroke-width="1" fill="none" fill-rule="evenodd">
        <path d="M8.61034757,1.74897074 C10.5816976,2.41921073 12,4.28596792 12,6.48398739 L12,10 L9.999,9.99997074 L10,12 L4,12 L3.999,9.99997074 L2,10 L2,6.49997074 L3,6.49997074 L3,9 L3.999,8.99997074 L4,6.5 L4,5.5 L5,5.5 L4.999,8.99997074 L5,8.99997074 L5,9.99997074 L4.999,9.99997074 L5,11 L9,11 L8.999,10.7489707 L9,10.7489707 L9,8.74897074 L8.999,8.74897074 L9,5.5 L10,5.5 L9.999,8.99997074 L11,9 L11,6.48398739 C11,5.00673938 10.1917848,3.68392546 8.95090994,2.99046149 C8.44067048,3.51431521 7.75050496,3.82862096 7,3.82862096 C6.24949504,3.82862096 5.55932952,3.51431521 5.04909006,2.99046149 C4.09205786,3.52529976 3.3923871,4.43449797 3.12237174,5.50017859 L2.09675223,5.50021481 C2.44754725,3.74207693 3.72031275,2.31653014 5.38965243,1.74897074 C5.69388545,2.39087218 6.30085978,2.82862096 7,2.82862096 C7.69914022,2.82862096 8.30611455,2.39087218 8.61034757,1.74897074 Z" id="Combined-Shape" fill="#000000" fill-rule="nonzero"></path>
    </g>
</svg>