<?xml version="1.0" encoding="UTF-8"?>
<svg width="14px" height="14px" viewBox="0 0 14 14" version="1.1" xmlns="http://www.w3.org/2000/svg" xmlns:xlink="http://www.w3.org/1999/xlink">
    <!-- Generator: Sketch 57.1 (83088) - https://sketch.com -->
    <title>Ic/14/Line/Bag/Black@2x</title>
    <desc>Created with Sketch.</desc>
    <g id="Ic/14/Line/Bag/Black" stroke="none" stroke-width="1" fill="none" fill-rule="evenodd">
        <path d="M7,1.99817419 C8.09237459,1.99817419 9,2.80549675 9,3.83240727 L9,3.83240727 L9,3.99917419 L10.75,4 L10.75,12 L3.25,12 L3.25,4 L5,3.99917419 L5,3.83240727 C5,2.85439725 5.823243,2.07555999 6.84528134,2.00360272 Z M9.75,5 L9,4.99917419 L9,5.99817419 L8,5.99817419 L8,4.99917419 L6,4.99917419 L6,5.99817419 L5,5.99817419 L5,4.99917419 L4.25,5 L4.25,11 L9.75,11 L9.75,5 Z M7,2.99817419 C6.43552034,2.99817419 6,3.38556462 6,3.83240727 L6,3.83240727 L6,3.99917419 L8,3.99917419 L8,3.83240727 C8,3.41748196 7.62447481,3.05381901 7.11887434,3.00398412 Z" id="Combined-Shape" fill="#000000" fill-rule="nonzero"></path>
    </g>
</svg>