<?xml version="1.0" encoding="UTF-8"?>
<svg width="14px" height="14px" viewBox="0 0 14 14" version="1.1" xmlns="http://www.w3.org/2000/svg" xmlns:xlink="http://www.w3.org/1999/xlink">
    <!-- Generator: Sketch 57.1 (83088) - https://sketch.com -->
    <title>Ic/14/Stencil/Bag/Black@2x</title>
    <desc>Created with Sketch.</desc>
    <g id="Ic/14/Stencil/Bag/Black" stroke="none" stroke-width="1" fill="none" fill-rule="evenodd">
        <path d="M4.25,9.99917419 L4.25,11 L5.25,10.9991742 L5.25,11.9991742 L3.25,12 L3.25,9.99917419 L4.25,9.99917419 Z M7,1.99817419 C8.04035676,1.99817419 8.91314055,2.73043955 8.99390373,3.68726303 L9,3.83240727 L9,3.99917419 L10.75,4 L10.75,12 L6.25,11.9991742 L6.25,10.9991742 L9.75,11 L9.75,5 L9,4.99917419 L9,5.99817419 L8,5.99817419 L8,4.99917419 L6,4.99917419 L6,5.99817419 L5,5.99817419 L5,4.99917419 L4.25,5 L4.25,8.99917419 L3.25,8.99917419 L3.25,4 L5,3.99917419 L5,3.83240727 C5,2.90587146 5.73886629,2.15809458 6.68564994,2.02076472 L6.84528134,2.00360272 L7,1.99817419 Z M7,2.99817419 C6.47584032,2.99817419 6.06287515,3.33219962 6.00655441,3.73768477 L6,3.83240727 L6,3.99917419 L8,3.99917419 L8,3.83240727 C8,3.45205907 7.68445452,3.11478549 7.24242251,3.02282898 L7.11887434,3.00398412 L7,2.99817419 Z" id="Combined-Shape" fill="#000000" fill-rule="nonzero"></path>
    </g>
</svg>