<?xml version="1.0" encoding="UTF-8"?>
<svg width="14px" height="14px" viewBox="0 0 14 14" version="1.1" xmlns="http://www.w3.org/2000/svg" xmlns:xlink="http://www.w3.org/1999/xlink">
    <!-- Generator: Sketch 63.1 (92452) - https://sketch.com -->
    <title>Ic/14/Stencil/Gift</title>
    <desc>Created with Sketch.</desc>
    <g id="Ic/14/Stencil/Gift" stroke="none" stroke-width="1" fill="none" fill-rule="evenodd">
        <path d="M10.5833088,3.7049362 C10.5484498,3.89898181 10.4850149,4.07809689 10.3942327,4.24187731 L12,4.24090049 L12,8.24090049 L11,8.24090049 L11,9.24090049 L10,9.24090049 L10,8.24090049 L7.5,8.24 L7.5,11.24 L10,11.24 L10,10.2409005 L11,10.2409005 L11,12.2409005 L3,12.2409005 L3,10.2409005 L4,10.2409005 L4,11.24 L6.5,11.24 L6.5,8.24 L4,8.24090049 L4,9.24090049 L3,9.24090049 L3,8.24090049 L2,8.24090049 L2,4.24090049 L3.60491926,4.24136883 C3.51483047,4.07806498 3.45158033,3.89914943 3.41669124,3.7049362 C3.19527251,2.47238948 4.46978028,1.65897518 5.75617345,2.14055846 C6.27182078,2.33359985 6.68340868,2.72862588 7.0002308,3.31256097 C7.31562925,2.72954966 7.72757647,2.3338255 8.24382655,2.14055846 C9.53021972,1.65897518 10.8047275,2.47238948 10.5833088,3.7049362 Z M5.029,5.24 L3,5.24090049 L3,7.24090049 L6.5,7.24 L6.5,5.245 L5.06097412,5.24599692 L5.029,5.24 Z M11,5.24090049 L8.967,5.24 L8.93902588,5.24599692 L7.5,5.245 L7.5,7.24 L11,7.24090049 L11,5.24090049 Z M4.40093572,3.52812331 C4.45377011,3.82223058 4.65967307,4.04830933 5.07543445,4.21807384 L5.137,4.24 L6.324,4.24 L6.26484306,4.08869144 C6.08156559,3.65008782 5.86207003,3.35279892 5.61325768,3.18493443 L5.50484903,3.12088179 L5.40556971,3.07708236 C4.78574834,2.84504163 4.33042792,3.1356355 4.40093572,3.52812331 Z M8.59443029,3.07708236 C8.29629234,3.1886954 8.03313341,3.46111655 7.81549909,3.90918278 L7.73604079,4.08546996 L7.675,4.24 L8.862,4.24 L8.91363559,4.22228612 C9.24366915,4.08849279 9.44258552,3.92310779 9.53987439,3.71604629 L9.5754335,3.62472463 L9.59906428,3.52812331 C9.66957208,3.1356355 9.21425166,2.84504163 8.59443029,3.07708236 Z" fill="#000000"></path>
    </g>
</svg>