<?xml version="1.0" encoding="UTF-8"?>
<svg width="18px" height="18px" viewBox="0 0 18 18" version="1.1" xmlns="http://www.w3.org/2000/svg" xmlns:xlink="http://www.w3.org/1999/xlink">
    <!-- Generator: Sketch 57.1 (83088) - https://sketch.com -->
    <title>Ic/18/Stencil/User/Black@2x</title>
    <desc>Created with Sketch.</desc>
    <g id="Ic/18/Stencil/User/Black" stroke="none" stroke-width="1" fill="none" fill-rule="evenodd">
        <path d="M9,9.5 C11.9634791,9.5 14.3795391,11.8244099 14.4956328,14.7351665 L14.5,14.9545455 L14.5,15.5 L13.48,15.5 L13.48,14.5 L13.4768487,14.5 C13.246879,12.2548145 11.3318921,10.5 9,10.5 C6.74097956,10.5 4.87321481,12.1468523 4.54960887,14.2909891 L4.52315134,14.5 L12.48,14.5 L12.48,15.5 L3.5,15.5 L3.5,14.9545455 C3.5,11.9420832 5.96243388,9.5 9,9.5 Z M9,3 C10.4866011,3 11.7206526,4.08129303 11.9585702,5.50029469 L10.9369863,5.49998077 C10.7149582,4.63737692 9.93191279,4 9,4 C7.8954305,4 7,4.8954305 7,6 C7,7.1045695 7.8954305,8 9,8 C9.93155158,8 10.7143512,7.36311707 10.9367279,6.50102216 L11.9584039,6.50069618 C11.7200781,7.9192103 10.486255,9 9,9 C7.34314575,9 6,7.65685425 6,6 C6,4.34314575 7.34314575,3 9,3 Z" id="Combined-Shape" fill="#000000" fill-rule="nonzero"></path>
    </g>
</svg>