<?xml version="1.0" encoding="UTF-8"?>
<svg width="18px" height="18px" viewBox="0 0 18 18" version="1.1" xmlns="http://www.w3.org/2000/svg" xmlns:xlink="http://www.w3.org/1999/xlink">
    <!-- Generator: Sketch 62 (91390) - https://sketch.com -->
    <title>Ic/18/Stencil/notice</title>
    <desc>Created with Sketch.</desc>
    <g id="Ic/18/Stencil/notice" stroke="none" stroke-width="1" fill="none" fill-rule="evenodd">
        <path d="M6.49935507,12 L6.5,7 L4.5,7 L4.49935507,9 L3.49935507,9 L3.5,6 L6.5,6 L10.5,3 L10.5,15 L6.5,12 L6.49935507,12 Z M9.5,5 L7.5,6.5 L7.5,11.5 L9.5,13 L9.5,5 Z M11.5000132,5.5 C13.4330098,5.5 15.0000132,7.06700338 15.0000132,9 C15.0000132,10.8685634 13.5357356,12.3951264 11.6920484,12.4948211 L11.5000132,12.5 L11.5000132,11.5 C12.8807251,11.5 14.0000132,10.3807119 14.0000132,9 C14.0000132,7.6745166 12.9684773,6.58996133 11.6643889,6.50531768 L11.5000132,6.5 L11.5000132,5.5 Z M4.49935507,10 L4.5,11 L5.49935507,11 L5.49935507,12 L3.5,12 L3.49935507,10 L4.49935507,10 Z" id="Combined-Shape" fill="#000000"></path>
    </g>
</svg>