<?xml version="1.0" encoding="UTF-8"?>
<svg width="18px" height="18px" viewBox="0 0 18 18" version="1.1" xmlns="http://www.w3.org/2000/svg" xmlns:xlink="http://www.w3.org/1999/xlink">
    <!-- Generator: Sketch 57.1 (83088) - https://sketch.com -->
    <title>Ic/18/Stencil/Setting/Black@2x</title>
    <desc>Created with Sketch.</desc>
    <defs>
        <path d="M9.5,2 L9.49985158,4.02467289 C10.5055455,4.12449409 11.4235825,4.52230791 12.1644179,5.12856994 L13.5961941,3.69669914 L14.3033009,4.40380592 L12.8714301,5.83558206 C13.4776921,6.57641753 13.8755059,7.49445445 13.9753271,8.50014842 L16,8.5 L16,9.5 L13.9752426,9.50070198 C13.8752812,10.5060669 13.4775182,11.4237983 12.8714231,12.1644264 L14.3033009,13.5961941 L13.5961941,14.3033009 L12.1642048,12.8716045 C11.4233964,13.4777765 10.5054244,13.8755262 9.49981093,13.9753311 L9.5,16 L8.5,16 L8.49924465,12.9689589 C8.66328409,12.989446 8.83040953,13 9,13 C11.209139,13 13,11.209139 13,9 C13,6.790861 11.209139,5 9,5 C7.32111487,5 5.88380971,6.03432675 5.29055034,7.5005144 L4.22889771,7.50001092 C4.42180365,6.88581593 4.73003498,6.32269214 5.1282132,5.83601803 L3.69669914,4.40380592 L4.40380592,3.69669914 L5.83619087,5.1280718 C6.57670433,4.52226681 7.49419436,4.12469879 8.4992684,4.02476031 L8.5,2 L9.5,2 Z M5,9 C5,10.6785069 6.03386078,12.1155427 7.49952358,12.7090486 L7.49912092,13.7708227 C6.88508853,13.5778409 6.32212076,13.2695886 5.83558206,12.8714301 L4.40380592,14.3033009 L3.69669914,13.5961941 L5.12856994,12.1644179 C4.52250813,11.4238271 4.12475687,10.5061519 4.02477188,9.50084795 L2,9.5 L2,8.5 L4.02465783,8.50030016 L5.03091685,8.50024088 C5.01051135,8.66396072 5,8.83075283 5,9 Z" id="path-1"></path>
    </defs>
    <g id="Ic/18/Stencil/Setting/Black" stroke="none" stroke-width="1" fill="none" fill-rule="evenodd">
        <mask id="mask-2" fill="white">
            <use xlink:href="#path-1"></use>
        </mask>
        <use id="Combined-Shape" fill="#000000" fill-rule="nonzero" xlink:href="#path-1"></use>
    </g>
</svg>