<?xml version="1.0" encoding="UTF-8"?>
<svg width="14px" height="14px" viewBox="0 0 14 14" version="1.1" xmlns="http://www.w3.org/2000/svg" xmlns:xlink="http://www.w3.org/1999/xlink">
    <title>Ic/14/Line/Calendar</title>
    <g id="Ic/14/Line/Calendar" stroke="none" stroke-width="1" fill="none" fill-rule="evenodd">
        <path d="M12,12 L2,12 L2,9 L3,9 L3,11 L11,11 L11,7 L3,7 L3,8 L2,8 L2,3 L4,3 L4,2 L5,2 L5,3 L9,3 L9,2 L10,2 L10,3 L12,3 L12,12 Z M4,4 L3,4 L3,6 L11,6 L11,4 L10,4 L10,5 L9,5 L9,4 L5,4 L5,5 L4,5 L4,4 Z" id="Combined-Shape" fill="#000000"></path>
    </g>
</svg>