<svg width="18px" height="18px" viewBox="0 0 18 18" version="1.1" xmlns="http://www.w3.org/2000/svg" xmlns:xlink="http://www.w3.org/1999/xlink" class="@@class">
    <title>@@title</title>
    <g stroke="none" stroke-width="1" fill="none" fill-rule="evenodd">
        <path d="M7.99955283,4.2057828 L8.14997143,4.3295009 L8.16864069,4.34678644 L9.70464069,5.88178644 L9.00142745,6.58542789 L7.61008746,5.19406663 L7.47913428,5.07132081 L7.34416559,4.96429328 C6.55994716,4.39564573 5.46000129,4.46999871 4.75842712,5.17157288 C3.97737854,5.95262146 3.97737854,7.21895142 4.75842712,8 L9.00185425,12.2434271 L12.5336407,8.71078644 L13.2406407,9.41778644 L9.00106781,13.6568542 L4.05132034,8.70710678 C2.87974747,7.53553391 2.87974747,5.63603897 4.05132034,4.46446609 C5.12916739,3.38661905 6.82312767,3.30039129 7.99955283,4.2057828 Z M13.9523882,4.46446609 C15.123961,5.63603897 15.123961,7.53553391 13.9523882,8.70710678 L13.9476407,8.71078644 L13.2406407,8.00378644 L13.2452814,8 C14.02633,7.21895142 14.02633,5.95262146 13.2452814,5.17157288 C12.4642328,4.39052429 11.1979028,4.39052429 10.4164613,5.17196565 L10.4116407,5.17578644 L9.70464069,4.46878644 L9.70974747,4.46446609 C10.8813203,3.29289322 12.7808153,3.29289322 13.9523882,4.46446609 Z" id="Combined-Shape" fill="#000000" fill-rule="nonzero"></path>
    </g>
</svg>