<?xml version="1.0" encoding="UTF-8"?>
<svg width="18px" height="18px" viewBox="0 0 18 18" version="1.1" xmlns="http://www.w3.org/2000/svg" xmlns:xlink="http://www.w3.org/1999/xlink">
    <!-- Generator: Sketch 57.1 (83088) - https://sketch.com -->
    <title>Ic/18/Line/Clothes/Black@2x</title>
    <desc>Created with Sketch.</desc>
    <defs>
        <path d="M10.9726033,3.33180314 C13.317288,4.14769073 15,6.37733614 15,9 L15,13 L13,12.9998031 L13,15 L5,15 L5,12.9998031 L3,13 L3,9 C3,6.37733614 4.68271203,4.14769073 7.02739671,3.33180314 C7.18545847,4.27846035 8.00846693,5 9,5 C9.99153307,5 10.8145415,4.27846035 10.9726033,3.33180314 Z M12,12 L12,8.5 L13,8.5 L13,11.9998031 L14,12 L14,9 C14,7.1768248 13.0151666,5.54119228 11.4957967,4.66563227 C10.9545565,5.47519943 10.0325049,6 9,6 C7.96749508,6 7.04544349,5.47519943 6.50420329,4.66563227 C4.98483339,5.54119228 4,7.1768248 4,9 L4,12 L5,11.9998031 L5,8.5 L6,8.5 L6,11.9998031 L6,13 L6,14 L12,14 L12,12.9998031 L12,12 Z" id="path-1"></path>
    </defs>
    <g id="Ic/18/Line/Clothes/Black" stroke="none" stroke-width="1" fill="none" fill-rule="evenodd">
        <mask id="mask-2" fill="white">
            <use xlink:href="#path-1"></use>
        </mask>
        <use id="Combined-Shape" fill="#000000" fill-rule="nonzero" xlink:href="#path-1"></use>
    </g>
</svg>