<?xml version="1.0" encoding="UTF-8"?>
<svg width="18px" height="18px" viewBox="0 0 18 18" version="1.1" xmlns="http://www.w3.org/2000/svg" xmlns:xlink="http://www.w3.org/1999/xlink">
    <!-- Generator: Sketch 59.1 (86144) - https://sketch.com -->
    <title>Ic/18/Stencil/Hide/Black</title>
    <desc>Created with Sketch.</desc>
    <g id="Ic/18/Stencil/Hide/Black" stroke="none" stroke-width="1" fill="none" fill-rule="evenodd">
        <path d="M14.6464466,2.64644661 L15.3470554,3.34744661 L4.05,14.6464466 L4.05505543,14.6514466 L3.35355339,15.3535534 L2.64644661,14.6464466 L4.45803693,12.835555 C2.86859398,11.9429875 1.63788439,10.5957314 1.00005543,9.00080607 C2.16410197,6.08711202 5.30629965,4 8.99984676,4 C10.2831516,4 11.4998986,4.25195219 12.5902603,4.70296064 L14.6464466,2.64644661 Z M17.0000382,9.00019461 C15.8348719,11.9133659 12.6929709,14 8.99984676,14 C8.11326725,14 7.25845465,13.8797476 6.4551361,13.6566843 L7.28486702,12.8275805 C7.83729702,12.9405112 8.41172391,13 8.99984676,13 C11.9694359,13 14.5897599,11.4833504 15.7927266,9.22805656 L15.9082591,9.00009385 L15.7927764,8.77214157 C15.3014621,7.85071179 14.5734155,7.05252569 13.681538,6.43069459 L14.3973575,5.71384801 C15.5725998,6.57181529 16.4820198,7.70427417 17.0000382,9.00019461 Z M12.2632085,9 C12.2632085,10.8022485 10.8021975,12.2632595 8.999949,12.2632595 C8.65269242,12.2632595 8.31810443,12.2090188 8.00419513,12.1085476 L8.85340463,11.2585913 C8.90185399,11.2616876 8.95071793,11.2632595 8.999949,11.2632595 C10.2499127,11.2632595 11.2632085,10.2499637 11.2632085,9 L11.2570554,8.85344661 L12.1084215,8.00401157 C12.2089408,8.31798876 12.2632085,8.65265693 12.2632085,9 Z M8.99984676,5 C5.93080219,5 3.23500423,6.619912 2.09177723,9.00061853 C2.72163043,10.3111148 3.8219921,11.3910081 5.19602891,12.0969141 L6.36587369,10.9266443 C6.06378029,10.5143275 5.85615995,10.028449 5.77489185,9.50088792 L6.79252586,9.50185989 C6.85000601,9.75575748 6.95016752,9.99345984 7.0850711,10.2070277 L10.2069767,7.0851221 C9.85762876,6.86445084 9.44370306,6.73674048 8.999949,6.73674048 C7.92156992,6.73674048 7.01934279,7.49093669 6.79196276,8.50063396 L5.77464812,8.50069686 C6.01497647,6.93545756 7.36747505,5.73674048 8.999949,5.73674048 C9.72084839,5.73674048 10.3871498,5.97050225 10.9271877,6.36636028 L11.815704,5.47751815 C10.9424038,5.1688082 9.9905589,5 8.99984676,5 Z" id="Combined-Shape" fill="#000000" fill-rule="nonzero"></path>
    </g>
</svg>