<?xml version="1.0" encoding="UTF-8"?>
<svg width="14px" height="14px" viewBox="0 0 14 14" version="1.1" xmlns="http://www.w3.org/2000/svg" xmlns:xlink="http://www.w3.org/1999/xlink">
    <!-- Generator: Sketch 57.1 (83088) - https://sketch.com -->
    <title>Ic/14/Line/Thumbup/Black@2x</title>
    <desc>Created with Sketch.</desc>
    <g id="Ic/14/Line/Thumbup/Black" stroke="none" stroke-width="1" fill="none" fill-rule="evenodd">
        <path d="M2,5 L5,5 L5,12 L2,12 L2,5 Z M3,6 L3,11 L4,11 L4,6 L3,6 Z" id="Rectangle" fill="#000000" fill-rule="nonzero"></path>
        <path d="M7.51181007,5.00361839 L10.9537272,5.00361839 C11.5060119,5.00361839 11.9537272,5.45133364 11.9537272,6.00361839 C11.9537272,6.06750203 11.9476055,6.13123867 11.9354462,6.19395445 L11.1230222,10.3842905 C10.9407195,11.3245748 10.1173779,12.0036184 9.15958418,12.0036184 L4,12.0036184 L4,5.08036003 L3.98022061,5.0563055 L5.02234141,2.19062487 C5.21108971,1.6715945 5.78485768,1.40384798 6.30388805,1.59259628 C6.33564765,1.60414583 6.36680136,1.61729791 6.39722927,1.63200187 L6.78286937,1.81835844 C7.58636873,2.20664114 8.0036465,3.10848125 7.77947281,3.97226411 L7.51181007,5.00361839 Z M5,11.0036184 L9.15958418,11.0036184 C9.63848106,11.0036184 10.0501518,10.6640966 10.1413032,10.1939545 L10.9537272,6.00361839 L7.51181007,6.00361839 L6.21915655,6.00361839 L6.81153855,3.72106048 C6.91585778,3.31909912 6.72167757,2.89942782 6.34776913,2.71874046 L5.96212903,2.5323839 L5,5.1780988 L5,11.0036184 Z" id="Combined-Shape" fill="#000000" fill-rule="nonzero"></path>
    </g>
</svg>