<?xml version="1.0" encoding="UTF-8"?>
<svg width="14px" height="14px" viewBox="0 0 14 14" version="1.1" xmlns="http://www.w3.org/2000/svg" xmlns:xlink="http://www.w3.org/1999/xlink">
    <!-- Generator: Sketch 57.1 (83088) - https://sketch.com -->
    <title>Ic/14/Line/Tag/Black@2x</title>
    <desc>Created with Sketch.</desc>
    <g id="Ic/14/Line/Tag/Black" stroke="none" stroke-width="1" fill="none" fill-rule="evenodd">
        <path d="M2,7.90909091 L7.90909091,2 L12,2 L12,6.09090909 L6.09090909,12 L2,7.90909091 Z M6.09090909,10.5857864 L11,5.67669553 L11,3 L8.32330447,3 L3.41421356,7.90909091 L6.09090909,10.5857864 Z" id="Path-24" fill="#000000" fill-rule="nonzero"></path>
        <path d="M8.75,6.5 C9.44035594,6.5 10,5.94035594 10,5.25 C10,4.55964406 9.44035594,4 8.75,4 C8.05964406,4 7.5,4.55964406 7.5,5.25 C7.5,5.94035594 8.05964406,6.5 8.75,6.5 Z M8.75,5.5 C8.61192881,5.5 8.5,5.38807119 8.5,5.25 C8.5,5.11192881 8.61192881,5 8.75,5 C8.88807119,5 9,5.11192881 9,5.25 C9,5.38807119 8.88807119,5.5 8.75,5.5 Z" id="Oval" fill="#000000" fill-rule="nonzero"></path>
    </g>
</svg>