<?xml version="1.0" encoding="UTF-8"?>
<svg width="14px" height="14px" viewBox="0 0 14 14" version="1.1" xmlns="http://www.w3.org/2000/svg" xmlns:xlink="http://www.w3.org/1999/xlink">
    <!-- Generator: Sketch 57.1 (83088) - https://sketch.com -->
    <title>Ic/14/Stencil/Bell/Black@2x</title>
    <desc>Created with Sketch.</desc>
    <g id="Ic/14/Stencil/Bell/Black" stroke="none" stroke-width="1" fill="none" fill-rule="evenodd">
        <path d="M4.111,7.5 L4.11111111,9.25912603 L3.69951446,10 L8.74,10 L8.739,11.013 L8.71899804,11.1481387 C8.56410179,11.9232531 7.84774557,12.5 7,12.5 C6.09927034,12.5 5.34686693,11.8489069 5.25864351,11.0005725 L2,11 L3.11111111,9 L3.111,7.5 L4.111,7.5 Z M7.72605584,11 L6.27394416,11 C6.35674394,11.2832052 6.64538869,11.5 7,11.5 C7.35461131,11.5 7.64325606,11.2832052 7.72605584,11 Z M7,1.5 C7.82842712,1.5 8.5,2.17157288 8.5,3 C8.5,3.08915679 8.49222154,3.17649683 8.47730624,3.2613785 C9.89244308,3.78480698 10.8888889,5.03767391 10.8888889,6.5 L10.8888889,9 L12,11 L9.739,11 L9.74,10 L10.3004855,10 L9.88888889,9.25912603 L9.88888889,6.5 C9.88888889,5.50358272 9.1991707,4.59459345 8.13039772,4.19927747 L7.34802837,3.90989599 L7.49239622,3.08831132 C7.49742719,3.05968052 7.5,3.03023773 7.5,3 C7.5,2.72385763 7.27614237,2.5 7,2.5 C6.72385763,2.5 6.5,2.72385763 6.5,3 C6.5,3.03023773 6.50257281,3.05968052 6.50760378,3.08831132 L6.65197163,3.90989599 L5.86960228,4.19927747 C4.8008293,4.59459345 4.11111111,5.50358272 4.11111111,6.5 L3.11111111,6.5 C3.11111111,5.03767391 4.10755692,3.78480698 5.52269376,3.2613785 C5.50777846,3.17649683 5.5,3.08915679 5.5,3 C5.5,2.17157288 6.17157288,1.5 7,1.5 Z" id="Combined-Shape" fill="#000000" fill-rule="nonzero"></path>
    </g>
</svg>