<?xml version="1.0" encoding="UTF-8"?>
<svg width="14px" height="14px" viewBox="0 0 14 14" version="1.1" xmlns="http://www.w3.org/2000/svg" xmlns:xlink="http://www.w3.org/1999/xlink">
    <!-- Generator: Sketch 59.1 (86144) - https://sketch.com -->
    <title>Ic/14/Stencil/Hide/Black</title>
    <desc>Created with Sketch.</desc>
    <g id="Ic/14/Stencil/Hide/Black" stroke="none" stroke-width="1" fill="none" fill-rule="evenodd">
        <path d="M11.6464466,1.64644661 L12.3535534,2.35355339 L10.5872873,4.11959048 L10.5896137,4.12144661 L9.86181821,4.85019916 C9.86079694,4.84961513 9.85977544,4.84903141 9.85875371,4.84844799 L8.90585305,5.80210533 L8.90761371,5.80444661 L8.16562563,6.54553859 C8.16537177,6.54488794 8.16511739,6.54423756 8.16486248,6.54358744 L6.54254783,8.16452535 L6.54561371,8.16544661 L5.80544736,8.9080369 C5.80414957,8.90722273 5.80285267,8.90640726 5.80155667,8.90559051 L5.11662111,9.59024643 L5.12061371,9.59044661 L4.34625077,10.367037 C4.3449375,10.3664818 4.34362448,10.3659263 4.3423117,10.3653704 L2.35355339,12.3535534 L1.64644661,11.6464466 L3.41320801,9.88088344 C2.30909036,9.18637075 1.45523631,8.18011664 1.00161371,7.0000177 C1.87509765,4.72830599 4.23083309,3.1011837 6.99987102,3.1011837 C7.94849762,3.1011837 8.84861762,3.29214835 9.65724395,3.63455071 L11.6464466,1.64644661 Z M12.9979271,6.99945879 C12.1250064,9.27144396 9.7691217,10.8988163 6.99987102,10.8988163 C6.45185332,10.8988163 5.92002385,10.8350852 5.41267035,10.7152436 L6.27367968,9.85443715 C6.51161545,9.88372569 6.75407277,9.8988163 6.99987102,9.8988163 C9.0803408,9.8988163 10.9212853,8.81773769 11.8070063,7.19668589 L11.908662,6.99960244 L11.8069714,6.8025776 C11.5244301,6.28578458 11.1447795,5.82388108 10.6912277,5.43441398 L11.400234,4.72680732 C12.1105061,5.35278566 12.6631487,6.12879822 12.9979271,6.99945879 Z M9.25074761,7 C9.25074761,8.24308175 8.24303075,9.25079861 6.999949,9.25079861 L6.88061371,9.24544661 L9.24758722,6.87969137 C9.24968534,6.91952851 9.25074761,6.9596402 9.25074761,7 Z M6.99987102,4.1011837 C4.83640515,4.1011837 2.93185693,5.27025323 2.09091564,7.00005996 C2.52630648,7.89578085 3.24706405,8.64120102 4.14135477,9.15176099 L5.0946773,8.19889806 C4.87579628,7.85178561 4.74915039,7.44068267 4.74915039,7 C4.74915039,5.75691825 5.75686725,4.74920139 6.999949,4.74920139 C7.44020712,4.74920139 7.85094247,4.87560337 8.19784367,5.09409595 L8.88307507,4.4097379 C8.29457592,4.20977917 7.65924391,4.1011837 6.99987102,4.1011837 Z M6.999949,5.74920139 C6.309152,5.74920139 5.74915039,6.309203 5.74915039,7 C5.74915039,7.16143626 5.77973413,7.3157293 5.83542365,7.45740117 L7.45636156,5.83508653 C7.31496062,5.77964304 7.16100982,5.74920139 6.999949,5.74920139 Z" id="Combined-Shape" fill="#000000" fill-rule="nonzero"></path>
    </g>
</svg>