<svg width="18px" height="18px" viewBox="0 0 18 18" version="1.1" xmlns="http://www.w3.org/2000/svg" xmlns:xlink="http://www.w3.org/1999/xlink" class="@@class">
  <title>@@title</title>
  <defs>
    <path d="M9,3 C12.3137085,3 15,5.6862915 15,9 C15,12.3137085 12.3137085,15 9,15 C5.6862915,15 3,12.3137085 3,9 C3,5.6862915 5.6862915,3 9,3 Z M9,4 C6.23857625,4 4,6.23857625 4,9 C4,11.7614237 6.23857625,14 9,14 C11.7614237,14 14,11.7614237 14,9 C14,6.23857625 11.7614237,4 9,4 Z M9.5,11.7 L9.5,12.7 L8.5,12.7 L8.5,11.7 L9.5,11.7 Z M9,5.5 C10.2426407,5.5 11.25,6.50735931 11.25,7.75 C11.25,8.76443613 10.5786597,9.62207235 9.6560269,9.90286099 L9.5,9.94424589 L9.5,10.9431726 L8.5,10.9431726 L8.5,9 L9,9 C9.69035594,9 10.25,8.44035594 10.25,7.75 C10.25,7.05964406 9.69035594,6.5 9,6.5 C8.35279131,6.5 7.8204661,6.99187466 7.75645361,7.62219476 L7.75,7.75 L6.75,7.75 C6.75,6.50735931 7.75735931,5.5 9,5.5 Z" id="path-1"></path>
  </defs>
  <g stroke="none" stroke-width="1" fill="none" fill-rule="evenodd">
    <mask id="mask-2" fill="white">
        <use xlink:href="#path-1"></use>
    </mask>
    <use class="svg-color" id="Mask" fill="#000000" fill-rule="nonzero" xlink:href="#path-1"></use>
  </g>
</svg>