<?xml version="1.0" encoding="UTF-8"?>
<svg width="14px" height="14px" viewBox="0 0 14 14" version="1.1" xmlns="http://www.w3.org/2000/svg" xmlns:xlink="http://www.w3.org/1999/xlink">
    <!-- Generator: Sketch 57.1 (83088) - https://sketch.com -->
    <title>Ic/14/Stencil/Video/Black@2x</title>
    <desc>Created with Sketch.</desc>
    <g id="Ic/14/Stencil/Video/Black" stroke="none" stroke-width="1" fill="none" fill-rule="evenodd">
        <path d="M7,2 C9.76142375,2 12,4.23857625 12,7 C12,9.76142375 9.76142375,12 7,12 C4.40756606,12 2.27594469,10.0270268 2.02475737,7.50070198 L3.03104114,7.50075535 C3.2774255,9.47354544 4.96045147,11 7,11 C9.209139,11 11,9.209139 11,7 C11,4.790861 9.209139,3 7,3 C4.96010817,3 3.27685893,4.52696848 3.03091685,6.50024088 L2.02465783,6.50030016 C2.27538101,3.97349494 4.40722328,2 7,2 Z M5.89229777,4.75 L9.39229777,7 L5.89229777,9.25 L5.89229777,4.75 Z M6.89229777,6.5816655 L6.89229777,7.4183345 L7.54304032,7 L6.89229777,6.5816655 Z" id="Combined-Shape" fill="#000000" fill-rule="nonzero"></path>
    </g>
</svg>