<?xml version="1.0" encoding="UTF-8"?>
<svg width="18px" height="18px" viewBox="0 0 18 18" version="1.1" xmlns="http://www.w3.org/2000/svg" xmlns:xlink="http://www.w3.org/1999/xlink">
    <title>Ic/18/Line/Calendar</title>
    <g id="Ic/18/Line/Calendar" stroke="none" stroke-width="1" fill="none" fill-rule="evenodd">
        <path d="M15,15 L3,15 L3,3 L6,3 L6,2 L7,2 L7,3 L11,3 L11,2 L12,2 L12,3 L15,3 L15,15 Z M14,8 L4,8 L4,14 L14,14 L14,8 Z M6,4 L4,4 L4,7 L14,7 L14,4 L12,4 L12,5 L11,5 L11,4 L7,4 L7,5 L6,5 L6,4 Z" id="Combined-Shape" fill="#000000"></path>
    </g>
</svg>