<?xml version="1.0" encoding="UTF-8"?>
<svg width="14px" height="14px" viewBox="0 0 14 14" version="1.1" xmlns="http://www.w3.org/2000/svg" xmlns:xlink="http://www.w3.org/1999/xlink">
    <!-- Generator: Sketch 57.1 (83088) - https://sketch.com -->
    <title>Ic/14/Line/Gridview/Black@2x</title>
    <desc>Created with Sketch.</desc>
    <g id="Ic/14/Line/Gridview/Black" stroke="none" stroke-width="1" fill="none" fill-rule="evenodd">
        <path d="M2,2 L6.5,2 L6.5,6.5 L2,6.5 L2,2 Z M3,5.5 L5.5,5.5 L5.5,3 L3,3 L3,5.5 Z" id="Rectangle" fill="#000000" fill-rule="nonzero"></path>
        <path d="M7.5,1.99850471 L12,1.99850471 L12,6.49850471 L7.5,6.49850471 L7.5,1.99850471 Z M8.5,5.49850471 L11,5.49850471 L11,2.99850471 L8.5,2.99850471 L8.5,5.49850471 Z" id="Rectangle" fill="#000000" fill-rule="nonzero"></path>
        <path d="M7.5,7.49850471 L12,7.49850471 L12,11.9985047 L7.5,11.9985047 L7.5,7.49850471 Z M8.5,8.49850471 L8.5,10.9985047 L11,10.9985047 L11,8.49850471 L8.5,8.49850471 Z" id="Rectangle" fill="#000000" fill-rule="nonzero"></path>
        <path d="M2,7.49850471 L6.5,7.49850471 L6.5,11.9985047 L2,11.9985047 L2,7.49850471 Z M3,8.49850471 L3,10.9985047 L5.5,10.9985047 L5.5,8.49850471 L3,8.49850471 Z" id="Rectangle" fill="#000000" fill-rule="nonzero"></path>
    </g>
</svg>