<?xml version="1.0" encoding="UTF-8"?>
<svg width="14px" height="14px" viewBox="0 0 14 14" version="1.1" xmlns="http://www.w3.org/2000/svg" xmlns:xlink="http://www.w3.org/1999/xlink">
    <!-- Generator: Sketch 58 (84663) - https://sketch.com -->
    <title>Ic/14/Line/Exclamation/Black@2x</title>
    <desc>Created with Sketch.</desc>
    <g id="Ic/14/Line/Exclamation/Black" stroke="none" stroke-width="1" fill="none" fill-rule="evenodd">
        <path d="M7,1.5 C10.0375661,1.5 12.5,3.96243388 12.5,7 C12.5,10.0375661 10.0375661,12.5 7,12.5 C3.96243388,12.5 1.5,10.0375661 1.5,7 C1.5,3.96243388 3.96243388,1.5 7,1.5 Z M7,2.5 C4.51471863,2.5 2.5,4.51471863 2.5,7 C2.5,9.48528137 4.51471863,11.5 7,11.5 C9.48528137,11.5 11.5,9.48528137 11.5,7 C11.5,4.51471863 9.48528137,2.5 7,2.5 Z M7.5,9 L7.5,10 L6.5,10 L6.5,9 L7.5,9 Z M7.5,4 L7.5,8.2 L6.5,8.2 L6.5,4 L7.5,4 Z" id="Combined-Shape" fill="#000000"></path>
    </g>
</svg>