<?xml version="1.0" encoding="UTF-8"?>
<svg width="14px" height="14px" viewBox="0 0 14 14" version="1.1" xmlns="http://www.w3.org/2000/svg" xmlns:xlink="http://www.w3.org/1999/xlink">
    <!-- Generator: Sketch 57.1 (83088) - https://sketch.com -->
    <title>Ic/14/Line/Share/Black@2x</title>
    <desc>Created with Sketch.</desc>
    <g id="Ic/14/Line/Share/Black" stroke="none" stroke-width="1" fill="none" fill-rule="evenodd">
        <path d="M10,8 C11.1045695,8 12,8.8954305 12,10 C12,11.1045695 11.1045695,12 10,12 C8.8954305,12 8,11.1045695 8,10 C8,8.8954305 8.8954305,8 10,8 Z M10,9 C9.44771525,9 9,9.44771525 9,10 C9,10.5522847 9.44771525,11 10,11 C10.5522847,11 11,10.5522847 11,10 C11,9.44771525 10.5522847,9 10,9 Z M4,5 C5.1045695,5 6,5.8954305 6,7 C6,8.1045695 5.1045695,9 4,9 C2.8954305,9 2,8.1045695 2,7 C2,5.8954305 2.8954305,5 4,5 Z M4,6 C3.44771525,6 3,6.44771525 3,7 C3,7.55228475 3.44771525,8 4,8 C4.55228475,8 5,7.55228475 5,7 C5,6.44771525 4.55228475,6 4,6 Z M10,2 C11.1045695,2 12,2.8954305 12,4 C12,5.1045695 11.1045695,6 10,6 C8.8954305,6 8,5.1045695 8,4 C8,2.8954305 8.8954305,2 10,2 Z M10,3 C9.44771525,3 9,3.44771525 9,4 C9,4.55228475 9.44771525,5 10,5 C10.5522847,5 11,4.55228475 11,4 C11,3.44771525 10.5522847,3 10,3 Z M8.85889949,8.87043275 L8.41168589,9.76485994 L5.15463286,8.13633342 L5.60184645,7.24190623 L8.85889949,8.87043275 Z M5.58102406,6.76850496 L5.13381046,5.87407777 L8.46171845,4.21012378 L8.90893204,5.10455097 L5.58102406,6.76850496 Z" id="Combined-Shape" fill="#000000" fill-rule="nonzero"></path>
    </g>
</svg>