<?xml version="1.0" encoding="UTF-8"?>
<svg width="14px" height="14px" viewBox="0 0 14 14" version="1.1" xmlns="http://www.w3.org/2000/svg" xmlns:xlink="http://www.w3.org/1999/xlink">
    <!-- Generator: Sketch 57.1 (83088) - https://sketch.com -->
    <title>Ic/14/Stencil/Sound/Black@2x</title>
    <desc>Created with Sketch.</desc>
    <g id="Ic/14/Stencil/Sound/Black" stroke="none" stroke-width="1" fill="none" fill-rule="evenodd">
        <path d="M6.49975411,5 L6.5,10.5 L6.48620587,10.5005597 C6.3615904,11.6252778 5.40794636,12.5 4.25,12.5 C3.17947219,12.5 2.28356371,11.7523658 2.0559236,10.7507464 L3.10441166,10.7509162 C3.2975097,11.191903 3.7377749,11.5 4.25,11.5 C4.94035594,11.5 5.5,10.9403559 5.5,10.25 C5.5,9.55964406 4.94035594,9 4.25,9 C3.73737905,9 3.29682928,9.30857339 3.10396442,9.75010644 L2.05569603,9.75025601 C2.28296606,8.74813306 3.17911511,8 4.25,8 C4.71301946,8 5.14337301,8.13985943 5.50111933,8.379637 L5.49975411,5 L6.49975411,5 Z M11.9997541,4 L12,9.31967213 C11.9623056,10.529902 10.969442,11.5 9.75,11.5 C8.50735931,11.5 7.5,10.4926407 7.5,9.25 C7.5,8.00735931 8.50735931,7 9.75,7 C10.2130195,7 10.643373,7.13985943 11.0011193,7.379637 L10.9997541,4 L11.9997541,4 Z M9.75,8 C9.05964406,8 8.5,8.55964406 8.5,9.25 C8.5,9.94035594 9.05964406,10.5 9.75,10.5 C10.4403559,10.5 11,9.94035594 11,9.25 C11,8.55964406 10.4403559,8 9.75,8 Z M12,2 L11.9997541,3 L6.5,3 L6.49975411,4 L5.49975411,4 L5.5,2 L12,2 Z" id="Combined-Shape" fill="#000000" fill-rule="nonzero"></path>
    </g>
</svg>