<?xml version="1.0" encoding="UTF-8"?>
<svg width="18px" height="18px" viewBox="0 0 18 18" version="1.1" xmlns="http://www.w3.org/2000/svg" xmlns:xlink="http://www.w3.org/1999/xlink">
    <!-- Generator: Sketch 57.1 (83088) - https://sketch.com -->
    <title>Ic/18/Stencil/Link/Black@2x</title>
    <desc>Created with Sketch.</desc>
    <defs>
        <path d="M10.1774188,7.82258122 C10.4914321,8.13659452 10.7155415,8.50646694 10.849747,8.90021288 L9.75578323,8.90001531 C9.67881795,8.76768868 9.58366087,8.64303687 9.470312,8.529688 C8.76406133,7.82343733 7.61900275,7.82343733 6.91275209,8.529688 L4.529688,10.9127521 C3.82343733,11.6190028 3.82343733,12.7640613 4.529688,13.470312 C5.23593867,14.1765627 6.38099725,14.1765627 7.08724791,13.470312 L8.657,11.9 L10.071,11.9 L7.79435469,14.1774188 C6.69757973,15.2741937 4.91935618,15.2741937 3.82258122,14.1774188 C2.72580626,13.0806438 2.72580626,11.3024203 3.82258122,10.2056453 L6.20564531,7.82258122 C7.30242027,6.72580626 9.08064382,6.72580626 10.1774188,7.82258122 Z M14.1774188,3.82258122 C15.2741937,4.91935618 15.2741937,6.69757973 14.1774188,7.79435469 L11.7943547,10.1774188 C10.6975797,11.2741937 8.91935618,11.2741937 7.82258122,10.1774188 C7.50856792,9.86340548 7.28445853,9.49353306 7.15025304,9.09978712 L8.24421677,9.09998469 C8.32118205,9.23231132 8.41633913,9.35696313 8.529688,9.470312 C9.23593867,10.1765627 10.3809972,10.1765627 11.0872479,9.470312 L13.470312,7.08724791 C14.1765627,6.38099725 14.1765627,5.23593867 13.470312,4.529688 C12.7640613,3.82343733 11.6190028,3.82343733 10.9127521,4.529688 L9.34232561,6.099 L7.92832561,6.099 L10.2056453,3.82258122 C11.3024203,2.72580626 13.0806438,2.72580626 14.1774188,3.82258122 Z" id="path-1"></path>
    </defs>
    <g id="Ic/18/Stencil/Link/Black" stroke="none" stroke-width="1" fill="none" fill-rule="evenodd">
        <mask id="mask-2" fill="white">
            <use xlink:href="#path-1"></use>
        </mask>
        <use id="Mask" fill="#000000" fill-rule="nonzero" xlink:href="#path-1"></use>
    </g>
</svg>