<?xml version="1.0" encoding="UTF-8"?>
<svg width="14px" height="14px" viewBox="0 0 14 14" version="1.1" xmlns="http://www.w3.org/2000/svg" xmlns:xlink="http://www.w3.org/1999/xlink">
    <!-- Generator: Sketch 57.1 (83088) - https://sketch.com -->
    <title>Ic/14/Stencil/Smile/Black@2x</title>
    <desc>Created with Sketch.</desc>
    <g id="Ic/14/Stencil/Smile/Black" stroke="none" stroke-width="1" fill="none" fill-rule="evenodd">
        <path d="M7,1.5 C10.0375661,1.5 12.5,3.96243388 12.5,7 C12.5,10.0375661 10.0375661,12.5 7,12.5 C4.13084455,12.5 1.77481555,10.3030445 1.52238608,7.49960672 L2.52743156,7.49970296 C2.77601865,9.7498212 4.68362124,11.5 7,11.5 C9.48528137,11.5 11.5,9.48528137 11.5,7 C11.5,4.51471863 9.48528137,2.5 7,2.5 C4.68396594,2.5 2.7765864,4.24965795 2.52754265,6.49929256 L1.5224767,6.49938789 C1.77537886,3.69643022 4.13118755,1.5 7,1.5 Z M4.5,7.5 L5.5,7.5 C5.5,8.32842712 6.17157288,9 7,9 C7.77969612,9 8.42044868,8.40511192 8.49313342,7.64446001 L8.5,7.5 L9.5,7.5 C9.5,8.88071187 8.38071187,10 7,10 C5.6745166,10 4.58996133,8.96846406 4.50531768,7.66437569 L4.5,7.5 L5.5,7.5 Z M5.5,5 L5.5,6.5 L4.5,6.5 L4.5,5 L5.5,5 Z M9.5,5 L9.5,6.5 L8.5,6.5 L8.5,5 L9.5,5 Z" id="Combined-Shape" fill="#000000" fill-rule="nonzero"></path>
    </g>
</svg>