<svg width="18px" height="18px" viewBox="0 0 18 18" version="1.1" xmlns="http://www.w3.org/2000/svg" xmlns:xlink="http://www.w3.org/1999/xlink" class="@@class">
    <title>@@title</title>
    <g class="svg-color">
        <path d="M9,3 C12.3137085,3 15,5.6862915 15,9 C15,12.3137085 12.3137085,15 9,15 C5.85497576,15 3.27511705,12.5802387 3.02061151,9.50090367 L4.02475737,9.50070198 C4.27594469,12.0270268 6.40756606,14 9,14 C11.7614237,14 14,11.7614237 14,9 C14,6.23857625 11.7614237,4 9,4 C6.40722328,4 4.27538101,5.97349494 4.02465783,8.50030016 L3.02052886,8.50009733 C3.27455798,5.42028573 5.85463498,3 9,3 Z M9.5,11.7 L9.5,12.7 L8.5,12.7 L8.5,11.7 L9.5,11.7 Z M9,5.5 C10.2426407,5.5 11.25,6.50735931 11.25,7.75 C11.25,8.76443613 10.5786597,9.62207235 9.6560269,9.90286099 L9.5,9.94424589 L9.5,10.9431726 L8.5,10.9431726 L8.5,9 L9,9 C9.69035594,9 10.25,8.44035594 10.25,7.75 C10.25,7.05964406 9.69035594,6.5 9,6.5 C8.35279131,6.5 7.8204661,6.99187466 7.75645361,7.62219476 L7.75,7.75 L6.75,7.75 C6.75,6.50735931 7.75735931,5.5 9,5.5 Z"></path>
    </g>
</svg>