<?xml version="1.0" encoding="UTF-8"?>
<svg width="18px" height="18px" viewBox="0 0 18 18" version="1.1" xmlns="http://www.w3.org/2000/svg" xmlns:xlink="http://www.w3.org/1999/xlink">
    <!-- Generator: Sketch 63.1 (92452) - https://sketch.com -->
    <title>Ic/18/Line/Map</title>
    <desc>Created with Sketch.</desc>
    <g id="Ic/18/Line/Map" stroke="none" stroke-width="1" fill="none" fill-rule="evenodd">
        <path d="M11.6926587,12.1862014 C13.0946138,12.5195204 14,13.1178393 14,13.94762 C14,15.2256221 11.7552577,16 9,16 C6.24474228,16 4,15.2256221 4,13.94762 C4,13.1167839 4.90484783,12.5200135 6.30831653,12.1863758 L6.80776619,12.9315082 L6.90826086,13.0817716 C5.73071177,13.3097345 5,13.7071043 5,13.94762 C5,14.3843168 6.78472322,15 9,15 C11.2152768,15 13,14.3843168 13,13.94762 C13,13.7034166 12.2649966,13.3091269 11.0905347,13.0817381 L11.6213811,12.2927519 L11.6926587,12.1862014 Z M9,2 C11.4799975,2 13.5,3.92403873 13.5,6.30997305 C13.5,7.03755711 13.3111887,7.73985853 12.9563163,8.36535769 C12.7653998,8.70186628 12.4071168,9.27191183 11.9140788,10.0296516 L11.9140788,10.0296516 L10.8391083,11.6599093 L9.98732591,12.9316703 L8.99976773,14.3903113 L7.58447549,12.2927502 L6.75252336,11.0429011 L5.46362387,9.04402031 C5.24726424,8.7031755 5.10937164,8.4805699 5.04844097,8.37374575 L5.04844097,8.37374575 L4.92211204,8.1348588 C4.64586516,7.56942936 4.5,6.94947908 4.5,6.30997305 C4.5,3.92403873 6.52000246,2 9,2 Z M9,3 C7.06169404,3 5.5,4.48750305 5.5,6.30997305 C5.5,6.8654588 5.64446839,7.4002998 5.91708749,7.87831339 C5.98534378,7.99798086 6.17874522,8.30704191 6.49395566,8.80009043 L6.49395566,8.80009043 L7.48262586,10.3338949 L7.99471759,11.1062285 L9,12.606 L9.58542167,11.7364186 L10.415152,10.4904867 L11.0700506,9.49319411 C11.4669147,8.88334749 11.7746269,8.39797027 11.9717502,8.06828298 L11.9717502,8.06828298 L12.086547,7.87189923 C12.3568293,7.39549878 12.5,6.86296179 12.5,6.30997305 C12.5,4.48750305 10.938306,3 9,3 Z M9,4.3 C10.1045755,4.3 11,5.19543852 11,6.3 C11,7.40456148 10.1045755,8.3 9,8.3 C7.89542446,8.3 7,7.40456148 7,6.3 C7,5.19543852 7.89542446,4.3 9,4.3 Z M9,5.3 C8.44771272,5.3 8,5.74771975 8,6.3 C8,6.85228025 8.44771272,7.3 9,7.3 C9.55228728,7.3 10,6.85228025 10,6.3 C10,5.74771975 9.55228728,5.3 9,5.3 Z" id="Combined-Shape" fill="#000000"></path>
    </g>
</svg>