<?xml version="1.0" encoding="UTF-8"?>
<svg width="14px" height="14px" viewBox="0 0 14 14" version="1.1" xmlns="http://www.w3.org/2000/svg" xmlns:xlink="http://www.w3.org/1999/xlink">
    <!-- Generator: Sketch 57.1 (83088) - https://sketch.com -->
    <title>Ic/14/Stencil/Category/Black@2x</title>
    <desc>Created with Sketch.</desc>
    <g id="Ic/14/Stencil/Category/Black" stroke="none" stroke-width="1" fill="none" fill-rule="evenodd">
        <path d="M3.5,9.5 L3.5,10.5 L2,10.5 L2,9.5 L3.5,9.5 Z M12,9.5 L12,10.5 L4.5,10.5 L4.5,9.5 L12,9.5 Z M3.5,6.5 L3.5,7.5 L2,7.5 L2,6.5 L3.5,6.5 Z M12,6.5 L12,7.5 L4.5,7.5 L4.5,6.5 L12,6.5 Z M3.5,3.5 L3.5,4.5 L2,4.5 L2,3.5 L3.5,3.5 Z M12,3.5 L12,4.5 L4.5,4.5 L4.5,3.5 L12,3.5 Z" id="Combined-Shape" fill="#000000" fill-rule="nonzero"></path>
    </g>
</svg>