<?xml version="1.0" encoding="UTF-8"?>
<svg width="18px" height="18px" viewBox="0 0 18 18" version="1.1" xmlns="http://www.w3.org/2000/svg" xmlns:xlink="http://www.w3.org/1999/xlink">
    <!-- Generator: Sketch 57.1 (83088) - https://sketch.com -->
    <title>Ic/18/Stencil/Category/Black@2x</title>
    <desc>Created with Sketch.</desc>
    <defs>
        <path d="M5,12 L5,13 L3,13 L3,12 L5,12 Z M15,12 L15,13 L6,13 L6,12 L15,12 Z M5,8.5 L5,9.5 L3,9.5 L3,8.5 L5,8.5 Z M15,8.5 L15,9.5 L6,9.5 L6,8.5 L15,8.5 Z M5,5 L5,6 L3,6 L3,5 L5,5 Z M15,5 L15,6 L6,6 L6,5 L15,5 Z" id="path-1"></path>
    </defs>
    <g id="Ic/18/Stencil/Category/Black" stroke="none" stroke-width="1" fill="none" fill-rule="evenodd">
        <mask id="mask-2" fill="white">
            <use xlink:href="#path-1"></use>
        </mask>
        <use id="Combined-Shape" fill="#000000" fill-rule="nonzero" xlink:href="#path-1"></use>
    </g>
</svg>