<?xml version="1.0" encoding="UTF-8"?>
<svg width="14px" height="14px" viewBox="0 0 14 14" version="1.1" xmlns="http://www.w3.org/2000/svg" xmlns:xlink="http://www.w3.org/1999/xlink">
    <!-- Generator: Sketch 57.1 (83088) - https://sketch.com -->
    <title>Ic/14/Stencil/Search/Black@2x</title>
    <desc>Created with Sketch.</desc>
    <g id="Ic/14/Stencil/Search/Black" stroke="none" stroke-width="1" fill="none" fill-rule="evenodd">
        <path d="M6,10 C8.209139,10 10,8.209139 10,6 C10,3.790861 8.209139,2 6,2 C3.790861,2 2,3.790861 2,6 C2,8.209139 3.790861,10 6,10 Z M6,9 C4.34314575,9 3,7.65685425 3,6 C3,4.34314575 4.34314575,3 6,3 C7.65685425,3 9,4.34314575 9,6 C9,7.65685425 7.65685425,9 6,9 Z" id="Oval" fill="#000000" fill-rule="nonzero"></path>
        <polygon id="Path-27" fill="#000000" fill-rule="nonzero" transform="translate(10.550000, 10.550000) rotate(-360.000000) translate(-10.550000, -10.550000) " points="9.14644661 9.85355339 11.2464466 11.9535534 11.9535534 11.2464466 9.85355339 9.14644661"></polygon>
    </g>
</svg>