<svg width="18px" height="18px" viewBox="0 0 18 18" version="1.1" xmlns="http://www.w3.org/2000/svg" xmlns:xlink="http://www.w3.org/1999/xlink" class="@@class">
  <title>@@title</title>
  <g stroke="none" stroke-width="1" fill="none" fill-rule="evenodd">
      <path class="svg-color" d="M9,3 C12.3137085,3 15,5.6862915 15,9 C15,12.3137085 12.3137085,15 9,15 C5.6862915,15 3,12.3137085 3,9 C3,5.6862915 5.6862915,3 9,3 Z M9,4 C6.23857625,4 4,6.23857625 4,9 C4,11.7614237 6.23857625,14 9,14 C11.7614237,14 14,11.7614237 14,9 C14,6.23857625 11.7614237,4 9,4 Z M9.5,7.5 L9.5,12.5 L8.5,12.5 L8.5,7.5 L9.5,7.5 Z M9.5,5.5 L9.5,6.5 L8.5,6.5 L8.5,5.5 L9.5,5.5 Z" id="Combined-Shape" fill="#000000"></path>
  </g>
</svg>