<?xml version="1.0" encoding="UTF-8"?>
<svg width="14px" height="14px" viewBox="0 0 14 14" version="1.1" xmlns="http://www.w3.org/2000/svg" xmlns:xlink="http://www.w3.org/1999/xlink">
    <!-- Generator: Sketch 57.1 (83088) - https://sketch.com -->
    <title>Ic/14/Line/Transfer/Black</title>
    <desc>Created with Sketch.</desc>
    <g id="Ic/14/Line/Transfer/Black" stroke="none" stroke-width="1" fill="none" fill-rule="evenodd">
        <polygon id="Line-2" fill="#000000" fill-rule="nonzero" points="1.90909091 5.70009183 11.2334101 5.70009183 11.2334101 4.70009183 1.90909091 4.70009183"></polygon>
        <polygon id="Line-2-Copy-2" fill="#000000" fill-rule="nonzero" transform="translate(9.948177, 5.200092) rotate(-45.000000) translate(-9.948177, -5.200092) " points="8.42476974 5.72350263 8.42749274 6.72349893 11.4633173 6.71523234 11.4715839 3.67940774 10.4715876 3.67668473 10.4660293 5.71794426"></polygon>
        <polygon id="Line-2" fill="#000000" fill-rule="nonzero" transform="translate(7.419732, 8.799908) scale(-1, 1) translate(-7.419732, -8.799908) " points="2.74855485 9.29990817 12.0909091 9.29990817 12.0909091 8.29990817 2.74855485 8.29990817"></polygon>
        <polygon id="Line-2-Copy-2" fill="#000000" fill-rule="nonzero" transform="translate(4.062552, 8.799908) scale(-1, 1) rotate(-45.000000) translate(-4.062552, -8.799908) " points="2.5398252 9.32263544 2.5398252 10.3226354 5.58527974 10.3226354 5.58527974 7.2771809 4.58527974 7.2771809 4.58527974 9.32263544"></polygon>
    </g>
</svg>