<?xml version="1.0" encoding="UTF-8"?>
<svg width="18px" height="18px" viewBox="0 0 18 18" version="1.1" xmlns="http://www.w3.org/2000/svg" xmlns:xlink="http://www.w3.org/1999/xlink">
    <!-- Generator: Sketch 57.1 (83088) - https://sketch.com -->
    <title>Ic/18/Stencil/Thumbup/Black@2x</title>
    <desc>Created with Sketch.</desc>
    <g id="Ic/18/Stencil/Thumbup/Black" stroke="none" stroke-width="1" fill="none" fill-rule="evenodd">
        <path d="M9.08697002,2.27984318 C9.11730992,2.29117322 9.1470815,2.30397047 9.17617949,2.31818969 L9.89872976,2.67127585 C10.7666555,3.09540213 11.2073898,4.07927002 10.9460555,5.00926061 L10.3866428,7 L13.9781074,7 C14.5303922,7 14.9781074,7.44771525 14.9781074,8 C14.9781074,8.06290767 14.9721714,8.125675 14.9603782,8.18746738 L13.9703449,13.3749348 C13.7903775,14.317908 12.9657963,15 12.0058032,15 L9.5,14.9993816 L9.5,13.9993816 L12.0058032,14 C12.4857998,14 12.8980903,13.658954 12.988074,13.1874674 L13.9781074,8 L9.06690281,8 L9.98334371,4.73873139 C10.1140109,4.2737361 9.8936437,3.78180215 9.45968085,3.56973902 L8.73713058,3.21665285 L7,7.868389 L7,14 L8.5,13.9993816 L8.5,14.9993816 L3,15 L3,7 L6.25683594,7 L7.80032091,2.86681342 C7.99353189,2.34942772 8.56958432,2.08663219 9.08697002,2.27984318 Z M6,8 L4,8 L4,14 L6,14 L6,8 Z" id="Combined-Shape" fill="#000000" fill-rule="nonzero"></path>
    </g>
</svg>