<?xml version="1.0" encoding="UTF-8"?>
<svg width="14px" height="14px" viewBox="0 0 14 14" version="1.1" xmlns="http://www.w3.org/2000/svg" xmlns:xlink="http://www.w3.org/1999/xlink">
    <!-- Generator: Sketch 57.1 (83088) - https://sketch.com -->
    <title>Ic/14/Line/Camera/Black@2x</title>
    <desc>Created with Sketch.</desc>
    <g id="Ic/14/Line/Camera/Black" stroke="none" stroke-width="1" fill="none" fill-rule="evenodd">
        <path d="M1.99964408,3 L11.999477,3 L11.999477,12 L1.99964408,12 L1.99964408,3 Z M2.99964408,4 L2.99964408,11 L10.999477,11 L10.999477,4 L2.99964408,4 Z" id="Rectangle" fill="#000000" fill-rule="nonzero"></path>
        <path d="M4.5,1.5 L9.5,1.5 L9.5,4 L4.5,4 L4.5,1.5 Z M5.5,2.5 L5.5,3 L8.5,3 L8.5,2.5 L5.5,2.5 Z" id="Rectangle" fill="#000000" fill-rule="nonzero"></path>
        <path d="M6.99956055,9.5 C8.10413005,9.5 8.99956055,8.6045695 8.99956055,7.5 C8.99956055,6.3954305 8.10413005,5.5 6.99956055,5.5 C5.89499105,5.5 4.99956055,6.3954305 4.99956055,7.5 C4.99956055,8.6045695 5.89499105,9.5 6.99956055,9.5 Z M6.99956055,8.5 C6.4472758,8.5 5.99956055,8.05228475 5.99956055,7.5 C5.99956055,6.94771525 6.4472758,6.5 6.99956055,6.5 C7.5518453,6.5 7.99956055,6.94771525 7.99956055,7.5 C7.99956055,8.05228475 7.5518453,8.5 6.99956055,8.5 Z" id="Oval" fill="#000000" fill-rule="nonzero"></path>
        <polygon id="Path-15" fill="#000000" fill-rule="nonzero" points="9.5 4.5 9.5 6 10.5 6 10.5 4.5"></polygon>
    </g>
</svg>