<?xml version="1.0" encoding="UTF-8"?>
<svg width="18px" height="18px" viewBox="0 0 18 18" version="1.1" xmlns="http://www.w3.org/2000/svg" xmlns:xlink="http://www.w3.org/1999/xlink">
    <!-- Generator: Sketch 59.1 (86144) - https://sketch.com -->
    <title>Ic/18/Stencil/Show/Black</title>
    <desc>Created with Sketch.</desc>
    <g id="Ic/18/Stencil/Show/Black" stroke="none" stroke-width="1" fill="none" fill-rule="evenodd">
        <path d="M8.99984676,4 C12.6933939,4 15.8355915,6.08711202 17.0000382,9.00019461 C15.8348719,11.9133659 12.6929709,14 8.99984676,14 C5.30672259,14 2.16482159,11.9133659 1.00005543,9.00080607 C2.16410197,6.08711202 5.30629965,4 8.99984676,4 Z M8.99984676,5 C5.93080219,5 3.23500423,6.619912 2.09177723,9.00061853 C3.23564509,11.380593 5.93132982,13 8.99984676,13 C11.9694359,13 14.5897599,11.4833504 15.7927266,9.22805656 L15.9082591,9.00009385 L15.7927764,8.77214157 C14.590283,6.51693914 11.9696987,5 8.99984676,5 Z M8.999949,5.73674048 C10.8021975,5.73674048 12.2632085,7.19775153 12.2632085,9 C12.2632085,10.8022485 10.8021975,12.2632595 8.999949,12.2632595 C7.36825815,12.2632595 6.01627413,11.0656922 5.77499475,9.50155543 L6.79248528,9.50168059 C7.02072196,10.5102157 7.92239407,11.2632595 8.999949,11.2632595 C10.2499127,11.2632595 11.2632085,10.2499637 11.2632085,9 C11.2632085,7.75003628 10.2499127,6.73674048 8.999949,6.73674048 C7.92156992,6.73674048 7.01934279,7.49093669 6.79196276,8.50063396 L5.77464812,8.50069686 C6.01497647,6.93545756 7.36747505,5.73674048 8.999949,5.73674048 Z" id="Combined-Shape" fill="#000000" fill-rule="nonzero"></path>
    </g>
</svg>