<?xml version="1.0" encoding="UTF-8"?>
<svg width="14px" height="14px" viewBox="0 0 14 14" version="1.1" xmlns="http://www.w3.org/2000/svg" xmlns:xlink="http://www.w3.org/1999/xlink">
    <!-- Generator: Sketch 59.1 (86144) - https://sketch.com -->
    <title>Ic/14/Stencil/Show/Black</title>
    <desc>Created with Sketch.</desc>
    <g id="Ic/14/Stencil/Show/Black" stroke="none" stroke-width="1" fill="none" fill-rule="evenodd">
        <path d="M6.99987102,3.1011837 C9.76890895,3.1011837 12.1246444,4.72830599 12.9979271,6.99945879 C12.1250064,9.27144396 9.7691217,10.8988163 6.99987102,10.8988163 C4.23062033,10.8988163 1.87473565,9.27144396 1.00161371,7.0000177 C1.87509765,4.72830599 4.23083309,3.1011837 6.99987102,3.1011837 Z M6.99987102,4.1011837 C4.83640515,4.1011837 2.93185693,5.27025323 2.09091564,7.00005996 C2.93162577,8.72963613 4.83632533,9.8988163 6.99987102,9.8988163 C9.0803408,9.8988163 10.9212853,8.81773769 11.8070063,7.19668589 L11.908662,6.99960244 L11.8069714,6.8025776 C10.9209715,5.18200544 9.08005751,4.1011837 6.99987102,4.1011837 Z M6.999949,4.74920139 C8.24303075,4.74920139 9.25074761,5.75691825 9.25074761,7 C9.25074761,8.24308175 8.24303075,9.25079861 6.999949,9.25079861 C5.92904122,9.25079861 5.03281475,8.50289902 4.80509384,7.5009241 L5.85357175,7.501106 C6.04676351,7.94244411 6.48734623,8.25079861 6.999949,8.25079861 C7.690746,8.25079861 8.25074761,7.690797 8.25074761,7 C8.25074761,6.309203 7.690746,5.74920139 6.999949,5.74920139 C6.48660444,5.74920139 6.04548853,6.05844898 5.8527346,6.50081081 L4.80486619,6.50007863 C5.03221688,5.49759999 5.92868401,4.74920139 6.999949,4.74920139 Z" id="Combined-Shape" fill="#000000" fill-rule="nonzero"></path>
    </g>
</svg>