<?xml version="1.0" encoding="UTF-8"?>
<svg width="14px" height="14px" viewBox="0 0 14 14" version="1.1" xmlns="http://www.w3.org/2000/svg" xmlns:xlink="http://www.w3.org/1999/xlink">
    <!-- Generator: Sketch 57.1 (83088) - https://sketch.com -->
    <title>Ic/14/Line/User/Black@2x</title>
    <desc>Created with Sketch.</desc>
    <g id="Ic/14/Line/User/Black" stroke="none" stroke-width="1" fill="none" fill-rule="evenodd">
        <path d="M7,7 C9.48528137,7 11.5,9.03506932 11.5,11.5454545 L11.5,11.5454545 L11.5,12 L2.5,12 L2.5,11.5454545 C2.5,9.03506932 4.51471863,7 7,7 Z M7,8 C5.25198462,8 3.80025867,9.29929187 3.54114011,11 L3.54114011,11 L10.4588599,11 C10.1997413,9.29929187 8.74801538,8 7,8 Z M7,2 C8.24264069,2 9.25,3.00735931 9.25,4.25 C9.25,5.49264069 8.24264069,6.5 7,6.5 C5.75735931,6.5 4.75,5.49264069 4.75,4.25 C4.75,3.00735931 5.75735931,2 7,2 Z M7,3 C6.30964406,3 5.75,3.55964406 5.75,4.25 C5.75,4.94035594 6.30964406,5.5 7,5.5 C7.69035594,5.5 8.25,4.94035594 8.25,4.25 C8.25,3.55964406 7.69035594,3 7,3 Z" id="Combined-Shape" fill="#000000" fill-rule="nonzero"></path>
    </g>
</svg>