<?xml version="1.0" encoding="UTF-8"?>
<svg width="14px" height="14px" viewBox="0 0 14 14" version="1.1" xmlns="http://www.w3.org/2000/svg" xmlns:xlink="http://www.w3.org/1999/xlink">
    <!-- Generator: Sketch 57.1 (83088) - https://sketch.com -->
    <title>Ic/14/Line/Filter/Black@2x</title>
    <desc>Created with Sketch.</desc>
    <g id="Ic/14/Line/Filter/Black" stroke="none" stroke-width="1" fill="none" fill-rule="evenodd">
        <path d="M8.75,8.25 C9.54281929,8.25 10.2125014,8.77721305 10.4275825,9.50017544 L12,9.5 L12,10.5 L10.4272865,10.5008184 C10.2118875,11.2232701 9.54245595,11.75 8.75,11.75 C7.95754405,11.75 7.28811247,11.2232701 7.07271346,10.5008184 L2,10.5 L2,9.5 L7.07241747,9.50017544 C7.28749862,8.77721305 7.95718071,8.25 8.75,8.25 Z M8.75,9.25 C8.33578644,9.25 8,9.58578644 8,10 C8,10.4142136 8.33578644,10.75 8.75,10.75 C9.16421356,10.75 9.5,10.4142136 9.5,10 C9.5,9.58578644 9.16421356,9.25 8.75,9.25 Z M5.25,5.25 C6.04281929,5.25 6.71250138,5.77721305 6.92758253,6.50017544 L12,6.5 L12,7.5 L6.92728654,7.50081842 C6.71188753,8.22327007 6.04245595,8.75 5.25,8.75 C4.45754405,8.75 3.78811247,8.22327007 3.57271346,7.50081842 L2,7.5 L2,6.5 L3.57241747,6.50017544 C3.78749862,5.77721305 4.45718071,5.25 5.25,5.25 Z M5.25,6.25 C4.83578644,6.25 4.5,6.58578644 4.5,7 C4.5,7.41421356 4.83578644,7.75 5.25,7.75 C5.66421356,7.75 6,7.41421356 6,7 C6,6.58578644 5.66421356,6.25 5.25,6.25 Z M8.75,2.25 C9.54281929,2.25 10.2125014,2.77721305 10.4275825,3.50017544 L12,3.5 L12,4.5 L10.4272865,4.50081842 C10.2118875,5.22327007 9.54245595,5.75 8.75,5.75 C7.95754405,5.75 7.28811247,5.22327007 7.07271346,4.50081842 L2,4.5 L2,3.5 L7.07241747,3.50017544 C7.28749862,2.77721305 7.95718071,2.25 8.75,2.25 Z M8.75,3.25 C8.33578644,3.25 8,3.58578644 8,4 C8,4.41421356 8.33578644,4.75 8.75,4.75 C9.16421356,4.75 9.5,4.41421356 9.5,4 C9.5,3.58578644 9.16421356,3.25 8.75,3.25 Z" id="Combined-Shape" fill="#000000" fill-rule="nonzero"></path>
    </g>
</svg>