<?xml version="1.0" encoding="UTF-8"?>
<svg width="14px" height="14px" viewBox="0 0 14 14" version="1.1" xmlns="http://www.w3.org/2000/svg" xmlns:xlink="http://www.w3.org/1999/xlink">
    <!-- Generator: Sketch 57.1 (83088) - https://sketch.com -->
    <title>Ic/14/Stencil/User/Black@2x</title>
    <desc>Created with Sketch.</desc>
    <g id="Ic/14/Stencil/User/Black" stroke="none" stroke-width="1" fill="none" fill-rule="evenodd">
        <path d="M7,7 C9.41427333,7 11.3844891,8.92044092 11.495102,11.3314791 L11.5,11.5454545 L11.5,12 L10.46,12 L10.46,11 L10.4588599,11 C10.1997413,9.29929187 8.74801538,8 7,8 C5.31441374,8 3.9043313,9.20814257 3.57342553,10.8193582 L3.54114011,11 L9.46,11 L9.46,12 L2.5,12 L2.5,11.5454545 C2.5,9.03506932 4.51471863,7 7,7 Z M7,2 C8.07088489,2 8.96703394,2.74813306 9.19430397,3.75025601 L8.14603558,3.75010644 C7.95317072,3.30857339 7.51262095,3 7,3 C6.30964406,3 5.75,3.55964406 5.75,4.25 C5.75,4.94035594 6.30964406,5.5 7,5.5 C7.5122251,5.5 7.9524903,5.19190298 8.14558834,4.75091618 L9.1940764,4.75074636 C8.96643629,5.75236577 8.07052781,6.5 7,6.5 C5.75735931,6.5 4.75,5.49264069 4.75,4.25 C4.75,3.00735931 5.75735931,2 7,2 Z" id="Combined-Shape" fill="#000000" fill-rule="nonzero"></path>
    </g>
</svg>