<?xml version="1.0" encoding="UTF-8"?>
<svg width="14px" height="14px" viewBox="0 0 14 14" version="1.1" xmlns="http://www.w3.org/2000/svg" xmlns:xlink="http://www.w3.org/1999/xlink">
    <!-- Generator: Sketch 57.1 (83088) - https://sketch.com -->
    <title>Ic/14/Stencil/Thumbdown/Black@2x</title>
    <desc>Created with Sketch.</desc>
    <g id="Ic/14/Stencil/Thumbdown/Black" stroke="none" stroke-width="1" fill="none" fill-rule="evenodd">
        <path d="M9.17936356,2 C10.0839466,2 10.8686015,2.60569008 11.1065691,3.46510436 L11.1428016,3.61932788 L11.9552255,7.80966394 C11.9673849,7.87237972 11.9735065,7.93611636 11.9735065,8 C11.9735065,8.51283584 11.5874664,8.93550716 11.0901277,8.99327227 L10.9735065,9 L7.53158946,9 L7.7992522,10.0313543 C8.0102392,10.8443264 7.65302007,11.6910101 6.94038159,12.1115207 L6.80264876,12.18526 L6.41700865,12.3716165 C6.38658075,12.3863205 6.35542703,12.3994726 6.32366744,12.4110221 C5.84171067,12.5862884 5.31255667,12.3679443 5.08829976,11.9202933 L5.0421208,11.8129935 L4.018,9 L2,9 L2,2 L6.5,2 L6.5,3 L5.01977939,3 L5.01977939,8.82551959 L5.98190841,11.4712345 L6.36754852,11.2848779 C6.70746528,11.1206167 6.89884631,10.7588481 6.85245706,10.39243 L6.83131794,10.2825579 L6.23893593,8 L10.9735065,8 L10.1610826,3.80966394 C10.0699312,3.33952178 9.65826044,3 9.17936356,3 L7.5,3 L7.5,2 L9.17936356,2 Z M4,3 L3,3 L3,8 L4,8 L4,3 Z" id="Combined-Shape" fill="#000000" fill-rule="nonzero"></path>
    </g>
</svg>