<?xml version="1.0" encoding="UTF-8"?>
<svg width="18px" height="18px" viewBox="0 0 18 18" version="1.1" xmlns="http://www.w3.org/2000/svg" xmlns:xlink="http://www.w3.org/1999/xlink">
    <!-- Generator: Sketch 57.1 (83088) - https://sketch.com -->
    <title>Ic/18/Line/Balloon/Black@2x</title>
    <desc>Created with Sketch.</desc>
    <defs>
        <path d="M15,3 L15,13.5 L10.5,13.5 L9.00257141,15 L7.5,13.5 L3,13.5 L3,3 L15,3 Z M14,4 L4,4 L4,12.5 L7.91371198,12.5 L9.00135924,13.5857859 L10.0852838,12.5 L14,12.5 L14,4 Z M7,8 L7,9 L6,9 L6,8 L7,8 Z M12,8 L12,9 L11,9 L11,8 L12,8 Z M9.5,8 L9.5,9 L8.5,9 L8.5,8 L9.5,8 Z" id="path-1"></path>
    </defs>
    <g id="Ic/18/Line/Balloon/Black" stroke="none" stroke-width="1" fill="none" fill-rule="evenodd">
        <mask id="mask-2" fill="white">
            <use xlink:href="#path-1"></use>
        </mask>
        <use id="Mask" fill="#000000" fill-rule="nonzero" xlink:href="#path-1"></use>
    </g>
</svg>