<?xml version="1.0" encoding="UTF-8"?>
<svg width="14px" height="14px" viewBox="0 0 14 14" version="1.1" xmlns="http://www.w3.org/2000/svg" xmlns:xlink="http://www.w3.org/1999/xlink">
    <!-- Generator: Sketch 57.1 (83088) - https://sketch.com -->
    <title>Ic/14/Stencil/Write/Black@2x</title>
    <desc>Created with Sketch.</desc>
    <g id="Ic/14/Stencil/Write/Black" stroke="none" stroke-width="1" fill="none" fill-rule="evenodd">
        <path d="M8,2 L8,3 L3,3 L3,11 L11,11 L11,6 L12,6 L12,12 L2,12 L2,2 L8,2 Z" id="Combined-Shape" fill="#000000" fill-rule="nonzero"></path>
        <path d="M10.7316217,1.5 L12.5,3.26799723 L8.26837832,7.49809455 L6.5,7.5 L6.5,5.73009732 L10.7316217,1.5 Z M10.7315705,2.91401002 L7.5,6.14441641 L7.5,6.49892191 L7.85382401,6.49854065 L11.0855828,3.26794604 L10.7315705,2.91401002 Z" id="Rectangle" fill="#000000" fill-rule="nonzero" transform="translate(9.500000, 4.500000) rotate(-360.000000) translate(-9.500000, -4.500000) "></path>
        <polygon id="Path-35" fill="#000000" fill-rule="nonzero" points="4 7 5.5 7 5.5 6 4 6"></polygon>
        <polygon id="Path-34" fill="#000000" fill-rule="nonzero" points="4 5 6.5 5 6.5 4 4 4"></polygon>
    </g>
</svg>