<?xml version="1.0" encoding="UTF-8"?>
<svg width="18px" height="18px" viewBox="0 0 18 18" version="1.1" xmlns="http://www.w3.org/2000/svg" xmlns:xlink="http://www.w3.org/1999/xlink">
    <!-- Generator: Sketch 57.1 (83088) - https://sketch.com -->
    <title>Ic/18/Solid/More/Black@2x</title>
    <desc>Created with Sketch.</desc>
    <defs>
        <path d="M1,10 C1.55228475,10 2,10.4477153 2,11 C2,11.5522847 1.55228475,12 1,12 C0.44771525,12 0,11.5522847 0,11 C0,10.4477153 0.44771525,10 1,10 Z M1,5 C1.55228475,5 2,5.44771525 2,6 C2,6.55228475 1.55228475,7 1,7 C0.44771525,7 0,6.55228475 0,6 C0,5.44771525 0.44771525,5 1,5 Z M1,0 C1.55228475,0 2,0.44771525 2,1 C2,1.55228475 1.55228475,2 1,2 C0.44771525,2 0,1.55228475 0,1 C0,0.44771525 0.44771525,0 1,0 Z" id="path-1"></path>
    </defs>
    <g id="Ic/18/Solid/More/Black" stroke="none" stroke-width="1" fill="none" fill-rule="evenodd">
        <g id="Colorchip/Black" transform="translate(8.000000, 3.000000)">
            <mask id="mask-2" fill="white">
                <use xlink:href="#path-1"></use>
            </mask>
            <use id="Mask" fill="#000000" xlink:href="#path-1"></use>
        </g>
    </g>
</svg>