<?xml version="1.0" encoding="UTF-8"?>
<svg width="14px" height="14px" viewBox="0 0 14 14" version="1.1" xmlns="http://www.w3.org/2000/svg" xmlns:xlink="http://www.w3.org/1999/xlink">
    <!-- Generator: Sketch 57.1 (83088) - https://sketch.com -->
    <title>Ic/14/Stencil/Exclamation/Black@2x</title>
    <desc>Created with Sketch.</desc>
    <g id="Ic/14/Stencil/Exclamation/Black" stroke="none" stroke-width="1" fill="none" fill-rule="evenodd">
        <path d="M7,1.5 C10.0375661,1.5 12.5,3.96243388 12.5,7 C12.5,10.0375661 10.0375661,12.5 7,12.5 C4.13118755,12.5 1.77537886,10.3035698 1.5224767,7.50061211 L2.52754265,7.50070744 C2.7765864,9.75034205 4.68396594,11.5 7,11.5 C9.48528137,11.5 11.5,9.48528137 11.5,7 C11.5,4.51471863 9.48528137,2.5 7,2.5 C4.68362124,2.5 2.77601865,4.2501788 2.52743156,6.50029704 L1.52238608,6.50039328 C1.77481555,3.69695546 4.13084455,1.5 7,1.5 Z" id="Combined-Shape" fill="#000000" fill-rule="nonzero"></path>
        <rect id="Rectangle" fill="#000000" fill-rule="nonzero" x="6.5" y="9" width="1" height="1"></rect>
        <polygon id="Rectangle" fill="#000000" fill-rule="nonzero" points="6.5 4 7.5 4 7.5 8.2 6.5 8.2"></polygon>
    </g>
</svg>