<?xml version="1.0" encoding="UTF-8"?>
<svg width="18px" height="18px" viewBox="0 0 18 18" version="1.1" xmlns="http://www.w3.org/2000/svg" xmlns:xlink="http://www.w3.org/1999/xlink">
    <!-- Generator: Sketch 57.1 (83088) - https://sketch.com -->
    <title>Ic/18/Line/Filter/Black@2x</title>
    <desc>Created with Sketch.</desc>
    <defs>
        <path d="M11.5,10.5 C12.4319128,10.5 13.2149582,11.1373769 13.4369863,11.9999808 L15,12 L15,13 L13.4367279,13.0010222 C13.2143512,13.8631171 12.4315516,14.5 11.5,14.5 C10.5684484,14.5 9.78564881,13.8631171 9.56327212,13.0010222 L3,13 L3,12 L9.56301369,11.9999808 C9.78504178,11.1373769 10.5680872,10.5 11.5,10.5 Z M11.5,11.5 C10.9477153,11.5 10.5,11.9477153 10.5,12.5 C10.5,13.0522847 10.9477153,13.5 11.5,13.5 C12.0522847,13.5 12.5,13.0522847 12.5,12.5 C12.5,11.9477153 12.0522847,11.5 11.5,11.5 Z M4.54850228,9.5 L3,9.5 L3,8.5 L4.54850228,8.5 L4.54843879,8.56052268 C4.74870157,7.66736707 5.54641482,7 6.5,7 C7.43191279,7 8.21495822,7.63737692 8.43698631,8.49998077 L15,8.5 L15,9.5 L8.43672788,9.50102216 C8.21435119,10.3631171 7.43155158,11 6.5,11 C5.54641482,11 4.74870157,10.3326329 4.54843879,9.43947732 L4.54850228,9.5 Z M6.5,8 C5.94771525,8 5.5,8.44771525 5.5,9 C5.5,9.55228475 5.94771525,10 6.5,10 C7.05228475,10 7.5,9.55228475 7.5,9 C7.5,8.44771525 7.05228475,8 6.5,8 Z M11.5,3.5 C12.4319128,3.5 13.2149582,4.13737692 13.4369863,4.99998077 L15,5 L15,6 L13.4367279,6.00102216 C13.2143512,6.86311708 12.4315516,7.5 11.5,7.5 C10.5684484,7.5 9.78564881,6.86311708 9.56327212,6.00102216 L3,6 L3,5 L9.56301369,4.99998077 C9.78504178,4.13737692 10.5680872,3.5 11.5,3.5 Z M11.5,4.5 C10.9477153,4.5 10.5,4.94771525 10.5,5.5 C10.5,6.05228475 10.9477153,6.5 11.5,6.5 C12.0522847,6.5 12.5,6.05228475 12.5,5.5 C12.5,4.94771525 12.0522847,4.5 11.5,4.5 Z" id="path-1"></path>
    </defs>
    <g id="Ic/18/Line/Filter/Black" stroke="none" stroke-width="1" fill="none" fill-rule="evenodd">
        <mask id="mask-2" fill="white">
            <use xlink:href="#path-1"></use>
        </mask>
        <use id="Mask" fill="#000000" fill-rule="nonzero" xlink:href="#path-1"></use>
    </g>
</svg>