<?xml version="1.0" encoding="UTF-8"?>
<svg width="14px" height="14px" viewBox="0 0 14 14" version="1.1" xmlns="http://www.w3.org/2000/svg" xmlns:xlink="http://www.w3.org/1999/xlink">
    <!-- Generator: Sketch 57.1 (83088) - https://sketch.com -->
    <title>Ic/14/Stencil/Thumbup/Black@2x</title>
    <desc>Created with Sketch.</desc>
    <g id="Ic/14/Stencil/Thumbup/Black" stroke="none" stroke-width="1" fill="none" fill-rule="evenodd">
        <path d="M6.30388805,1.59259628 C6.33564765,1.60414583 6.36680136,1.61729791 6.39722927,1.63200187 L6.78286937,1.81835844 C7.58636873,2.20664114 8.0036465,3.10848125 7.77947281,3.97226411 L7.51181007,5.00361839 L10.9537272,5.00361839 C11.5060119,5.00361839 11.9537272,5.45133364 11.9537272,6.00361839 C11.9537272,6.06750203 11.9476055,6.13123867 11.9354462,6.19395445 L11.1230222,10.3842905 C10.9407195,11.3245748 10.1173779,12.0036184 9.15958418,12.0036184 L7.5,12.0031117 L7.5,11.0031117 L9.15958418,11.0036184 C9.63848106,11.0036184 10.0501518,10.6640966 10.1413032,10.1939545 L10.9537272,6.00361839 L6.21915655,6.00361839 L6.81153855,3.72106048 C6.91585778,3.31909912 6.72167757,2.89942782 6.34776913,2.71874046 L5.96212903,2.5323839 L5,5.17411172 L5,11.0031117 L6.5,11.0031117 L6.5,12.0031117 L4,12.0036184 L3.999,11.9991117 L2,12 L2,5 L4.001,4.99911172 L5.02234141,2.19062487 C5.21108971,1.6715945 5.78485768,1.40384798 6.30388805,1.59259628 Z M3.999,5.99911172 L3,6 L3,11 L3.999,10.9991117 L3.999,5.99911172 Z" id="Combined-Shape" fill="#000000" fill-rule="nonzero"></path>
    </g>
</svg>