<?xml version="1.0" encoding="UTF-8"?>
<svg width="18px" height="18px" viewBox="0 0 18 18" version="1.1" xmlns="http://www.w3.org/2000/svg" xmlns:xlink="http://www.w3.org/1999/xlink">
    <!-- Generator: Sketch 57.1 (83088) - https://sketch.com -->
    <title>Ic/18/Line/Share/Black@2x</title>
    <desc>Created with Sketch.</desc>
    <defs>
        <path d="M12.5,3 C13.8807119,3 15,4.11928813 15,5.5 C15,6.88071187 13.8807119,8 12.5,8 C11.751294,8 11.0794588,7.67087685 10.621281,7.14941712 L7.87581368,8.71968457 C7.95640662,8.96521206 8,9.22751514 8,9.5 C8,9.67316799 7.98239358,9.84222379 7.94887318,10.0054749 L10.4450395,11.075831 C10.8964716,10.4256766 11.6485248,10 12.5,10 C13.8807119,10 15,11.1192881 15,12.5 C15,13.8807119 13.8807119,15 12.5,15 C11.1192881,15 10,13.8807119 10,12.5 C10,12.326832 10.0176064,12.1577762 10.0511268,11.9945251 L7.55496051,10.924169 C7.10352835,11.5743234 6.35147523,12 5.5,12 C4.11928813,12 3,10.8807119 3,9.5 C3,8.11928813 4.11928813,7 5.5,7 C6.24870602,7 6.92054121,7.32912315 7.37871901,7.85058288 L10.1245111,6.28130404 C10.0437105,6.03549209 10,5.77285061 10,5.5 C10,4.11928813 11.1192881,3 12.5,3 Z M12.5,11 C11.6715729,11 11,11.6715729 11,12.5 C11,13.3284271 11.6715729,14 12.5,14 C13.3284271,14 14,13.3284271 14,12.5 C14,11.6715729 13.3284271,11 12.5,11 Z M5.5,8 C4.67157288,8 4,8.67157288 4,9.5 C4,10.3284271 4.67157288,11 5.5,11 C6.32842712,11 7,10.3284271 7,9.5 C7,8.67157288 6.32842712,8 5.5,8 Z M12.5,4 C11.6715729,4 11,4.67157288 11,5.5 C11,6.32842712 11.6715729,7 12.5,7 C13.3284271,7 14,6.32842712 14,5.5 C14,4.67157288 13.3284271,4 12.5,4 Z" id="path-1"></path>
    </defs>
    <g id="Ic/18/Line/Share/Black" stroke="none" stroke-width="1" fill="none" fill-rule="evenodd">
        <mask id="mask-2" fill="white">
            <use xlink:href="#path-1"></use>
        </mask>
        <use id="Mask" fill="#000000" fill-rule="nonzero" xlink:href="#path-1"></use>
    </g>
</svg>