<?xml version="1.0" encoding="UTF-8"?>
<svg width="14px" height="14px" viewBox="0 0 14 14" version="1.1" xmlns="http://www.w3.org/2000/svg" xmlns:xlink="http://www.w3.org/1999/xlink" class="@@class">
	<title>@@title</title>
	<g stroke="none" stroke-width="1" fill="none" fill-rule="evenodd">
			<path d="M7,12 C9.76142375,12 12,9.76142375 12,7 C12,4.23857625 9.76142375,2 7,2 C4.23857625,2 2,4.23857625 2,7 C2,9.76142375 4.23857625,12 7,12 Z M7,11 C4.790861,11 3,9.209139 3,7 C3,4.790861 4.790861,3 7,3 C9.209139,3 11,4.790861 11,7 C11,9.209139 9.209139,11 7,11 Z" id="Oval" fill="#000000" fill-rule="nonzero"></path>
			<polygon fill="#000000" points="7.005 7.468 5.237 5.7 4.53 6.408 7.005 8.883 9.479 6.408 8.773 5.7"></polygon>
	</g>
</svg>