<?xml version="1.0" encoding="UTF-8"?>
<svg width="18px" height="18px" viewBox="0 0 18 18" version="1.1" xmlns="http://www.w3.org/2000/svg" xmlns:xlink="http://www.w3.org/1999/xlink">
    <!-- Generator: Sketch 57.1 (83088) - https://sketch.com -->
    <title>Ic/18/Line/User/Black@2x</title>
    <desc>Created with Sketch.</desc>
    <g id="Ic/18/Line/User/Black" stroke="none" stroke-width="1" fill="none" fill-rule="evenodd">
        <path d="M9,9.5 C12.0375661,9.5 14.5,11.9420832 14.5,14.9545455 L14.5,14.9545455 L14.5,15.5 L3.5,15.5 L3.5,14.9545455 C3.5,11.9420832 5.96243388,9.5 9,9.5 Z M9,10.5 C6.66810793,10.5 4.75312099,12.2548145 4.52315134,14.5 L4.52315134,14.5 L13.4768487,14.5 C13.246879,12.2548145 11.3318921,10.5 9,10.5 Z M9,3 C10.6568542,3 12,4.34314575 12,6 C12,7.65685425 10.6568542,9 9,9 C7.34314575,9 6,7.65685425 6,6 C6,4.34314575 7.34314575,3 9,3 Z M9,4 C7.8954305,4 7,4.8954305 7,6 C7,7.1045695 7.8954305,8 9,8 C10.1045695,8 11,7.1045695 11,6 C11,4.8954305 10.1045695,4 9,4 Z" id="Combined-Shape" fill="#000000" fill-rule="nonzero"></path>
    </g>
</svg>