<?xml version="1.0" encoding="UTF-8"?>
<svg width="14px" height="14px" viewBox="0 0 14 14" version="1.1" xmlns="http://www.w3.org/2000/svg" xmlns:xlink="http://www.w3.org/1999/xlink">
    <!-- Generator: Sketch 57.1 (83088) - https://sketch.com -->
    <title>Ic/14/Stencil/Tag/Black@2x</title>
    <desc>Created with Sketch.</desc>
    <g id="Ic/14/Stencil/Tag/Black" stroke="none" stroke-width="1" fill="none" fill-rule="evenodd">
        <path d="M12,2 L12,6.09090909 L6.09090909,12 L5.388,11.297 L7.07842712,9.60710678 L7.073,9.602 L11,5.67669553 L11,3 L8.32330447,3 L5.108,6.215 L4.401,5.508 L7.90909091,2 L12,2 Z M3.694,6.215 L4.401,6.922 L3.41421356,7.90909091 L5.388,9.883 L4.68,10.59 L2,7.90909091 L3.694,6.215 Z M8.75,4 C9.44035594,4 10,4.55964406 10,5.25 C10,5.94035594 9.44035594,6.5 8.75,6.5 C8.05964406,6.5 7.5,5.94035594 7.5,5.25 C7.5,4.55964406 8.05964406,4 8.75,4 Z M8.75,5 C8.61192881,5 8.5,5.11192881 8.5,5.25 C8.5,5.38807119 8.61192881,5.5 8.75,5.5 C8.88807119,5.5 9,5.38807119 9,5.25 C9,5.11192881 8.88807119,5 8.75,5 Z" id="Combined-Shape" fill="#000000" fill-rule="nonzero"></path>
    </g>
</svg>