<?xml version="1.0" encoding="UTF-8"?>
<svg width="14px" height="14px" viewBox="0 0 14 14" version="1.1" xmlns="http://www.w3.org/2000/svg" xmlns:xlink="http://www.w3.org/1999/xlink">
    <!-- Generator: Sketch 63.1 (92452) - https://sketch.com -->
    <title>Ic/14/Line/Map</title>
    <desc>Created with Sketch.</desc>
    <g id="Ic/14/Line/Map" stroke="none" stroke-width="1" fill="none" fill-rule="evenodd">
        <path d="M9.57860608,8.73485648 C10.7469409,9.07992065 11.5,9.6680364 11.5,10.44762 C11.5,11.7103594 9.46534638,12.5 7,12.5 C4.53465362,12.5 2.5,11.7103594 2.5,10.44762 C2.5,9.66774421 3.2522119,9.08063819 4.42083098,8.73534911 L4.70503473,9.18705792 L4.98012048,9.62149349 C4.0554137,9.84959469 3.5,10.2060481 3.5,10.44762 C3.5,10.8995795 5.04709349,11.5 7,11.5 C8.95290651,11.5 10.5,10.8995795 10.5,10.44762 C10.5,10.2031215 9.94086927,9.84843141 9.01811705,9.62116743 L9.57860608,8.73485648 Z M7,1.5 C8.79578475,1.5 10.25,2.96526173 10.25,4.77088949 C10.25,5.31949033 10.1152657,5.84963976 9.86161353,6.32259252 C9.74102914,6.54742973 9.52583895,6.91164892 9.23229915,7.39126697 L9.23229915,7.39126697 L8.73525926,8.19424529 L7.81546037,9.65203931 L6.99976373,10.9258816 L5.88995497,9.18705792 L5.31761647,8.27748613 L4.89095133,7.58202418 C4.60737353,7.11691547 4.40307058,6.77832723 4.27562324,6.56208011 L4.27562324,6.56208011 L4.14179152,6.32894285 C3.88595361,5.85440218 3.75,5.32196641 3.75,4.77088949 C3.75,2.96526173 5.20421525,1.5 7,1.5 Z M7,2.5 C5.75820109,2.5 4.75,3.51585957 4.75,4.77088949 C4.75,5.15533968 4.84434936,5.52484053 5.0220063,5.85436731 C5.03855205,5.88505361 5.06632494,5.93373199 5.10518004,6.00015399 L5.10518004,6.00015399 L6.09411148,7.63301164 L6.44591963,8.19430188 L7,9.07 L7.83568136,7.74678356 L8.37307835,6.87945889 C8.58829198,6.5279368 8.75986072,6.24098507 8.87900737,6.0321933 L8.87900737,6.0321933 L8.98035489,5.84995818 C9.15649667,5.5215292 9.25,5.15361432 9.25,4.77088949 C9.25,3.51585957 8.24179891,2.5 7,2.5 Z M7,3.5 C7.69035984,3.5 8.25,4.05964895 8.25,4.75 C8.25,5.44035105 7.69035984,6 7,6 C6.30964016,6 5.75,5.44035105 5.75,4.75 C5.75,4.05964895 6.30964016,3.5 7,3.5 Z M7,4.5 C6.86192843,4.5 6.75,4.61193019 6.75,4.75 C6.75,4.88806981 6.86192843,5 7,5 C7.13807157,5 7.25,4.88806981 7.25,4.75 C7.25,4.61193019 7.13807157,4.5 7,4.5 Z" id="Combined-Shape" fill="#000000"></path>
    </g>
</svg>