<?xml version="1.0" encoding="UTF-8"?>
<svg width="14px" height="14px" viewBox="0 0 14 14" version="1.1" xmlns="http://www.w3.org/2000/svg" xmlns:xlink="http://www.w3.org/1999/xlink">
    <!-- Generator: Sketch 57.1 (83088) - https://sketch.com -->
    <title>Ic/14/Line/Trash/Black@2x</title>
    <desc>Created with Sketch.</desc>
    <g id="Ic/14/Line/Trash/Black" stroke="none" stroke-width="1" fill="none" fill-rule="evenodd">
        <path d="M9.25,1.5 L9.25,3 L12,3.00047812 L12,4.00047812 L10.999,4 L11,12 L3,12 L2.999,4 L2,4.00047812 L2,3.00047812 L4.75,3 L4.75,1.5 L9.25,1.5 Z M10,4 L4,4 L4,11 L10,11 L10,4 Z M8.32955278,6.3 L8.32955278,8.8 L7.32955278,8.8 L7.32955278,6.3 L8.32955278,6.3 Z M6.5,6.3 L6.5,8.8 L5.5,8.8 L5.5,6.3 L6.5,6.3 Z M8.25,2.5 L5.75,2.5 L5.75,3 L8.25,3 L8.25,2.5 Z" id="Combined-Shape" fill="#000000" fill-rule="nonzero"></path>
    </g>
</svg>