<svg width="14px" height="14px" viewBox="0 0 14 14" version="1.1" xmlns="http://www.w3.org/2000/svg" xmlns:xlink="http://www.w3.org/1999/xlink" class="@@class">
    <title>@@title</title>
    <g class="svg-color">
        <path d="M7,12.5 C10.0375661,12.5 12.5,10.0375661 12.5,7 C12.5,3.96243388 10.0375661,1.5 7,1.5 C3.96243388,1.5 1.5,3.96243388 1.5,7 C1.5,10.0375661 3.96243388,12.5 7,12.5 Z M7,11.5 C4.51471863,11.5 2.5,9.48528137 2.5,7 C2.5,4.51471863 4.51471863,2.5 7,2.5 C9.48528137,2.5 11.5,4.51471863 11.5,7 C11.5,9.48528137 9.48528137,11.5 7,11.5 Z" ifill-rule="nonzero"></path>
        <path d="M8.7,5.74882859 C8.7,4.78287223 7.91639343,4 6.95,4 C5.98360657,4 5.2,4.78287223 5.2,5.74882859 L6.2,5.74882859 C6.2,5.33536697 6.53568155,5 6.95,5 C7.36431845,5 7.7,5.33536697 7.7,5.74882859 C7.7,6.1622902 7.36431845,6.49765718 6.95,6.49765718 L6.45,6.49765718 L6.45,8.5 L7.45,8.5 L7.45,7.42523305 C8.17282017,7.2102502 8.7,6.54112531 8.7,5.74882859 Z" fill-rule="nonzero"></path>
        <rect fill-rule="nonzero" x="6.45" y="9" width="1" height="1"></rect>
    </g>
</svg>