<?xml version="1.0" encoding="UTF-8"?>
<svg width="14px" height="14px" viewBox="0 0 14 14" version="1.1" xmlns="http://www.w3.org/2000/svg" xmlns:xlink="http://www.w3.org/1999/xlink">
    <!-- Generator: Sketch 57.1 (83088) - https://sketch.com -->
    <title>Ic/14/Stencil/Hanger/Black@2x</title>
    <desc>Created with Sketch.</desc>
    <g id="Ic/14/Stencil/Hanger/Black" stroke="none" stroke-width="1" fill="none" fill-rule="evenodd">
        <path d="M6.8,2.7 C7.9045695,2.7 8.8,3.63806697 8.8,4.79523121 C8.79300024,5.26124819 8.61184838,5.69761096 8.25654442,6.10431954 C8.09178866,6.29291181 7.90835366,6.49309894 7.70623942,6.70488093 L7.706,6.705 L5.2,9.21264069 L5.201,9.213 L4.41421356,10 L9.58578644,10 L7.707,8.119 L8.414,7.412 L12,11 L2,11 L6.89846326,6.10239343 C7.12451269,5.86802332 7.32622174,5.64927635 7.50344853,5.44640877 C7.70875602,5.21139783 7.79682259,4.99926105 7.8,4.79523121 C7.8,4.1802145 7.34161193,3.7 6.8,3.7 C6.28383488,3.7 5.86006687,4.09888961 5.80585854,4.64301324 L5.8,4.7617417 L4.8,4.7617417 C4.8,3.60457745 5.6954305,2.7 6.8,2.7 Z" id="Combined-Shape" fill="#000000" fill-rule="nonzero"></path>
    </g>
</svg>