<?xml version="1.0" encoding="UTF-8"?>
<svg width="18px" height="18px" viewBox="0 0 18 18" version="1.1" xmlns="http://www.w3.org/2000/svg" xmlns:xlink="http://www.w3.org/1999/xlink">
    <!-- Generator: Sketch 57.1 (83088) - https://sketch.com -->
    <title>Ic/18/Stencil/Vote/Black@2x</title>
    <desc>Created with Sketch.</desc>
    <defs>
        <path d="M13.9090909,3 L15,6.54545455 L14.4492337,15 L3.55076632,15 L3.322,11.5 L4.324,11.5 L4.48774157,14 L13.5122584,14 L13.935,7.5 L4.064,7.5 L4.259,10.5 L3.257,10.5 L3,6.54545455 L4.09090909,3 L13.9090909,3 Z M10.8926407,8.56066017 L11.5997475,9.26776695 L8.41776695,12.4497475 L6.65,10.6819805 L7.35710678,9.97487373 L8.41776695,11.0355339 L10.8926407,8.56066017 Z M13.1705163,4 L4.82948375,4 L4.059,6.5 L13.94,6.5 L13.1705163,4 Z M11,4.7 L11,5.7 L7,5.7 L7,4.7 L11,4.7 Z" id="path-1"></path>
    </defs>
    <g id="Ic/18/Stencil/Vote/Black" stroke="none" stroke-width="1" fill="none" fill-rule="evenodd">
        <mask id="mask-2" fill="white">
            <use xlink:href="#path-1"></use>
        </mask>
        <use id="Combined-Shape" fill="#000000" fill-rule="nonzero" xlink:href="#path-1"></use>
    </g>
</svg>