<svg viewBox="0 0 18 18" version="1.1" xmlns="http://www.w3.org/2000/svg" xmlns:xlink="http://www.w3.org/1999/xlink" class="@@class">
	<title>@@title</title>
	<g>
		<path d="M12.0535534,11.3464466 L15.0535534,14.3464466 L14.3464466,15.0535534 L11.3464466,12.0535534 L12.0535534,11.3464466 Z M7.75,3 C10.3733526,3 12.5,5.12664744 12.5,7.75 C12.5,10.3733526 10.3733526,12.5 7.75,12.5 C5.12664744,12.5 3,10.3733526 3,7.75 C3,5.12664744 5.12664744,3 7.75,3 Z M7.75,4 C5.67893219,4 4,5.67893219 4,7.75 C4,9.82106781 5.67893219,11.5 7.75,11.5 C9.82106781,11.5 11.5,9.82106781 11.5,7.75 C11.5,5.67893219 9.82106781,4 7.75,4 Z" class="svg-color"></path>
	</g>
</svg>