<?xml version="1.0" encoding="UTF-8"?>
<svg width="14px" height="14px" viewBox="0 0 14 14" version="1.1" xmlns="http://www.w3.org/2000/svg" xmlns:xlink="http://www.w3.org/1999/xlink">
    <!-- Generator: Sketch 57.1 (83088) - https://sketch.com -->
    <title>Ic/14/Line/Smile/Black@2x</title>
    <desc>Created with Sketch.</desc>
    <g id="Ic/14/Line/Smile/Black" stroke="none" stroke-width="1" fill="none" fill-rule="evenodd">
        <path d="M7,12.5 C10.0375661,12.5 12.5,10.0375661 12.5,7 C12.5,3.96243388 10.0375661,1.5 7,1.5 C3.96243388,1.5 1.5,3.96243388 1.5,7 C1.5,10.0375661 3.96243388,12.5 7,12.5 Z M7,11.5 C4.51471863,11.5 2.5,9.48528137 2.5,7 C2.5,4.51471863 4.51471863,2.5 7,2.5 C9.48528137,2.5 11.5,4.51471863 11.5,7 C11.5,9.48528137 9.48528137,11.5 7,11.5 Z" id="Oval" fill="#000000" fill-rule="nonzero"></path>
        <polygon id="Path-5" fill="#000000" fill-rule="nonzero" points="4.5 5 4.5 6.5 5.5 6.5 5.5 5"></polygon>
        <polygon id="Path-5-" fill="#000000" fill-rule="nonzero" points="8.5 5 8.5 6.5 9.5 6.5 9.5 5"></polygon>
        <path d="M4.5,7.5 C4.5,8.88071187 5.61928813,10 7,10 C8.38071187,10 9.5,8.88071187 9.5,7.5 L8.5,7.5 C8.5,8.32842712 7.82842712,9 7,9 C6.17157288,9 5.5,8.32842712 5.5,7.5 L4.5,7.5 Z" id="Path" fill="#000000" fill-rule="nonzero"></path>
    </g>
</svg>