<?xml version="1.0" encoding="UTF-8"?>
<svg width="18px" height="18px" viewBox="0 0 18 18" version="1.1" xmlns="http://www.w3.org/2000/svg" xmlns:xlink="http://www.w3.org/1999/xlink">
    <!-- Generator: Sketch 63.1 (92452) - https://sketch.com -->
    <title>Ic/18/Stencil/Gift</title>
    <desc>Created with Sketch.</desc>
    <g id="Ic/18/Stencil/Gift" stroke="none" stroke-width="1" fill="none" fill-rule="evenodd">
        <path d="M13.7590699,4.78374229 C13.7303585,5.0583912 13.6288288,5.31217536 13.4588619,5.54700923 L15,5.54621947 L15,9.54621947 L14,9.54619876 L14,11.5461988 L13,11.5461988 L13,9.54619876 L9.5,9.546 L9.5,13.5462195 L13,13.5461988 L13,12.5461988 L14,12.5461988 L14,13.5461988 L14,13.5462195 L14,14.5462195 L4,14.5462195 L4,12.5461988 L5,12.5461988 L5,13.5461988 L8.5,13.5462195 L8.5,9.546 L5,9.54619876 L5,11.5461988 L4,11.5461988 L4,9.54619876 L3,9.54621947 L3,5.54621947 L4.53996802,5.54665811 C4.37086057,5.31230028 4.26966714,5.0586368 4.2409301,4.78374229 C4.120451,3.63125645 5.13335106,2.8317567 6.52635709,3.03028625 C7.36009411,3.14910945 8.16865123,3.84619633 8.9996408,5.09745246 C9.83134877,3.84619633 10.6399059,3.14910945 11.4736429,3.03028625 C12.8666489,2.8317567 13.879549,3.63125645 13.7590699,4.78374229 Z M8.5,6.546 L4,6.54621947 L4,8.54621947 L8.5,8.546 L8.5,6.546 Z M14,6.54621947 L9.5,6.546 L9.5,8.546 L14,8.54621947 L14,6.54621947 Z M5.23551033,4.67977041 C5.26230132,4.93604917 5.51561447,5.22070831 6.0508979,5.51024479 L6.118,5.54521947 L8.095,5.54521947 L7.98847083,5.39192408 C7.47285971,4.66730488 7.00272423,4.23261597 6.59885772,4.07733479 L6.49037096,4.04190494 L6.385264,4.02028258 C5.5932862,3.90741085 5.18819478,4.2271566 5.23551033,4.67977041 Z M11.614736,4.02028258 C11.2011927,4.07922027 10.7042847,4.4683994 10.1510073,5.20148111 L10.0115292,5.39192408 L9.904,5.54521947 L11.879,5.54521947 L11.9511987,5.50897351 C12.3811649,5.27540575 12.6266733,5.0476488 12.7212925,4.83565483 L12.7497673,4.75691542 L12.7644897,4.67977041 C12.8118052,4.2271566 12.4067138,3.90741085 11.614736,4.02028258 Z" fill="#000000"></path>
    </g>
</svg>