<?xml version="1.0" encoding="UTF-8"?>
<svg width="14px" height="14px" viewBox="0 0 14 14" version="1.1" xmlns="http://www.w3.org/2000/svg" xmlns:xlink="http://www.w3.org/1999/xlink">
    <!-- Generator: Sketch 57.1 (83088) - https://sketch.com -->
    <title>Ic/14/Stencil/Direction/Black@2x</title>
    <desc>Created with Sketch.</desc>
    <g id="Ic/14/Stencil/Direction/Black" stroke="none" stroke-width="1" fill="none" fill-rule="evenodd">
        <path d="M5.578,9.821 L6.99685425,11.2394949 L8.41,9.825 L9.117,10.532 L6.99685425,12.6537085 L4.871,10.528 L5.578,9.821 Z M7.5,10 L7,10.5 L6.5,10 L6.499,7.499 L4,7.5 L3.5,7 L4,6.5 L6.499,6.499 L6.499,3.251 L5.582,4.168 L4.875,3.461 L6.99685425,1.34 L9.113,3.457 L8.406,4.164 L7.499,3.257 L7.499,6.499 L10.742,6.499 L9.821,5.578 L10.528,4.871 L12.6537085,6.99685425 L10.532,9.117 L9.825,8.41 L10.736,7.499 L7.499,7.499 L7.5,10 Z M3.461,4.875 L4.168,5.582 L2.75421356,6.99685425 L4.164,8.406 L3.457,9.113 L1.34,6.99685425 L3.461,4.875 Z" id="Combined-Shape" fill="#000000" fill-rule="nonzero"></path>
    </g>
</svg>