<?xml version="1.0" encoding="UTF-8"?>
<svg width="14px" height="14px" viewBox="0 0 14 14" version="1.1" xmlns="http://www.w3.org/2000/svg" xmlns:xlink="http://www.w3.org/1999/xlink">
    <!-- Generator: Sketch 57.1 (83088) - https://sketch.com -->
    <title>Ic/14/Line/Sound/Black@2x</title>
    <desc>Created with Sketch.</desc>
    <g id="Ic/14/Line/Sound/Black" stroke="none" stroke-width="1" fill="none" fill-rule="evenodd">
        <path d="M9.75,11.5 C10.9926407,11.5 12,10.4926407 12,9.25 C12,8.00735931 10.9926407,7 9.75,7 C8.50735931,7 7.5,8.00735931 7.5,9.25 C7.5,10.4926407 8.50735931,11.5 9.75,11.5 Z M9.75,10.5 C9.05964406,10.5 8.5,9.94035594 8.5,9.25 C8.5,8.55964406 9.05964406,8 9.75,8 C10.4403559,8 11,8.55964406 11,9.25 C11,9.94035594 10.4403559,10.5 9.75,10.5 Z" id="Oval-" fill="#000000" fill-rule="nonzero"></path>
        <polygon id="Path-36" fill="#000000" fill-rule="nonzero" points="6.5 3 11 3 11 9.31967213 12 9.31967213 12 2 5.5 2 5.5 10.5 6.5 10.5"></polygon>
        <path d="M4.25,12.5 C5.49264069,12.5 6.5,11.4926407 6.5,10.25 C6.5,9.00735931 5.49264069,8 4.25,8 C3.00735931,8 2,9.00735931 2,10.25 C2,11.4926407 3.00735931,12.5 4.25,12.5 Z M4.25,11.5 C3.55964406,11.5 3,10.9403559 3,10.25 C3,9.55964406 3.55964406,9 4.25,9 C4.94035594,9 5.5,9.55964406 5.5,10.25 C5.5,10.9403559 4.94035594,11.5 4.25,11.5 Z" id="Oval" fill="#000000" fill-rule="nonzero"></path>
    </g>
</svg>