<svg width="22px" height="22px" viewBox="0 0 22 22" version="1.1" xmlns="http://www.w3.org/2000/svg" xmlns:xlink="http://www.w3.org/1999/xlink" class="@@class">
    <title>@@title</title>
    <g class="svg-color">
        <path d="M20,4.5 L20,9.58535285 C19.8436105,9.53007711 19.6753177,9.5 19.5,9.5 C18.6715729,9.5 18,10.1715729 18,11 C18,11.8284271 18.6715729,12.5 19.5,12.5 C19.6753177,12.5 19.8436105,12.4699229 20,12.4146471 L20,17.5 L14,17.5 L14,16.5 L19,16.5 L19,13.4499909 C17.8588798,13.2183558 17,12.209479 17,11 C17,9.79052104 17.8588798,8.78164422 19,8.55000906 L19,5.5 L3,5.5 L3,8.55000906 C4.14112016,8.78164422 5,9.79052104 5,11 C5,12.209479 4.14112016,13.2183558 3,13.4499909 L3,16.5 L13,16.5 L13,17.5 L2,17.5 L2,12.4146471 C2.15638946,12.4699229 2.32468229,12.5 2.5,12.5 C3.32842712,12.5 4,11.8284271 4,11 C4,10.1715729 3.32842712,9.5 2.5,9.5 C2.32468229,9.5 2.15638946,9.53007711 2,9.58535285 L2,4.5 L20,4.5 Z" fill-rule="nonzero"></path>
        <path d="M15,14.5 L15,17.5 L14,17.5 L14,14.5 L15,14.5 Z M15,11.5 L15,13.5 L14,13.5 L14,11.5 L15,11.5 Z M15,8.5 L15,10.5 L14,10.5 L14,8.5 L15,8.5 Z M15,4.5 L15,7.5 L14,7.5 L14,4.5 L15,4.5 Z" fill-rule="nonzero"></path>
        <path d="M9.66561265,13.656996 C8.20869565,13.656996 7.3,12.8233992 7.3,11.0886166 L7.3,10.9008696 C7.3,9.03841897 8.39644269,8.34 9.74822134,8.34 C10.341502,8.34 10.7545455,8.43011858 11.0624506,8.59533597 L11.0624506,9.39889328 C10.6944664,9.27873518 10.3565217,9.17359684 9.88339921,9.17359684 C9.00474308,9.17359684 8.44150198,9.65422925 8.44150198,10.8032411 L8.44150198,11.0585771 C8.44150198,12.1700395 8.84703557,12.8083794 9.89090909,12.8083794 C10.4616601,12.8083794 10.8146245,12.6732016 11.1,12.5455336 L11.1,13.3490909 C10.7620553,13.5368379 10.2964427,13.656996 9.66561265,13.656996 Z" fill-rule="nonzero"></path>
    </g>
</svg>