<?xml version="1.0" encoding="UTF-8"?>
<svg width="22px" height="22px" viewBox="0 0 22 22" version="1.1" xmlns="http://www.w3.org/2000/svg" xmlns:xlink="http://www.w3.org/1999/xlink">
    <!-- Generator: Sketch 57.1 (83088) - https://sketch.com -->
    <title>Ic/22/Stencil/Balloon/Black@2x</title>
    <desc>Created with Sketch.</desc>
    <defs>
        <path d="M19,3 L19,17 L13,17 L11.0034285,19 L9,17 L3,17 L3,6.999 L4,7 L4,16 L9.41371198,16 L11.0022164,17.5857859 L12.5852838,16 L18,16 L18,4 L7,4 L7,3 L19,3 Z M8,10 L8,11 L7,11 L7,10 L8,10 Z M15,10 L15,11 L14,11 L14,10 L15,10 Z M11.5,10 L11.5,11 L10.5,11 L10.5,10 L11.5,10 Z M6,3 L6,4 L4,4 L4,6 L3,5.999 L3,3 L6,3 Z" id="path-1"></path>
    </defs>
    <g id="Ic/22/Stencil/Balloon/Black" stroke="none" stroke-width="1" fill="none" fill-rule="evenodd">
        <mask id="mask-2" fill="white">
            <use xlink:href="#path-1"></use>
        </mask>
        <use id="Mask" fill="#000000" fill-rule="nonzero" xlink:href="#path-1"></use>
    </g>
</svg>