<svg width="22px" height="22px" viewBox="0 0 22 22" version="1.1" xmlns="http://www.w3.org/2000/svg" xmlns:xlink="http://www.w3.org/1999/xlink" class="@@class">
    <title>@@title</title>
    <g class="svg-color">
        <path d="M15.5,3 C17.4329966,3 19,4.56700338 19,6.5 C19,8.43299662 17.4329966,10 15.5,10 C13.5670034,10 12,8.43299662 12,6.5 C12,4.56700338 13.5670034,3 15.5,3 Z M15.5,4 C14.1192881,4 13,5.11928813 13,6.5 C13,7.88071187 14.1192881,9 15.5,9 C16.8807119,9 18,7.88071187 18,6.5 C18,5.11928813 16.8807119,4 15.5,4 Z" fill-rule="nonzero"></path>
        <path d="M6.00004975,7.53543731 L6.00057405,8.5498926 C4.85916789,8.7813059 4,9.79031824 4,11 C4,12.2096818 4.85916789,13.2186941 6.00057405,13.4501074 L6.00004975,14.4645627 C4.30387842,14.2219693 3,12.7632532 3,11 C3,9.23674681 4.30387842,7.77803074 6.00004975,7.53543731 Z M10,11 C10,12.7629068 8.69663386,14.2213961 7.00094991,14.4644196 L7.00043449,13.4499027 C8.14133817,13.2180997 9,12.2093254 9,11 C9,9.79067455 8.14133817,8.78190033 7.00043449,8.55009729 L7.00094991,7.53558044 C8.69663386,7.77860392 10,9.23709322 10,11 Z" fill-rule="nonzero"></path>
        <path d="M15.5,12 C17.4329966,12 19,13.5670034 19,15.5 C19,17.4329966 17.4329966,19 15.5,19 C13.5670034,19 12,17.4329966 12,15.5 C12,13.5670034 13.5670034,12 15.5,12 Z M15.5,13 C14.1192881,13 13,14.1192881 13,15.5 C13,16.8807119 14.1192881,18 15.5,18 C16.8807119,18 18,16.8807119 18,15.5 C18,14.1192881 16.8807119,13 15.5,13 Z" fill-rule="nonzero"></path>
        <polygon fill-rule="nonzero" points="12.6214019 7.38028206 13.0686155 8.27470926 9.42306426 10.0974849 8.97585067 9.20305767"></polygon>
        <polygon fill-rule="nonzero" points="9.42935767 11.9056618 13.0936806 13.7378233 12.646467 14.6322505 8.98214407 12.800089"></polygon>
    </g>
</svg>