<svg width="22px" height="22px" viewBox="0 0 22 22" version="1.1" xmlns="http://www.w3.org/2000/svg" xmlns:xlink="http://www.w3.org/1999/xlink">
    <title>@@title</title>
    <g class="svg-color">
        <path d="M11,3 C15.418278,3 19,6.581722 19,11 C19,15.418278 15.418278,19 11,19 C6.74981051,19 3.2737361,15.6856194 3.01540073,11.500482 L4.01760973,11.5003924 C4.27417336,15.1328443 7.30225663,18 11,18 C14.8659932,18 18,14.8659932 18,11 C18,7.13400675 14.8659932,4 11,4 C7.30191536,4 4.27361442,6.86768497 4.01753877,10.5006133 L3.01533875,10.5005231 C3.27317954,6.31491134 6.74947025,3 11,3 Z M8.822,9.072 C9.29975,9.072 9.648875,9.15928125 9.88947266,9.26149219 L9.986,9.306 L9.986,9.966 C9.74,9.876 9.422,9.75 8.894,9.75 C8.00741176,9.75 7.70546021,10.276173 7.67300427,10.9633556 L7.67,11.094 L7.67,11.28 C7.67,12.114 7.874,12.678 8.774,12.678 C8.9516,12.678 9.1292,12.64728 9.26072,12.613488 L9.35,12.588 L9.35,11.724 L8.636,11.724 L8.636,11.124 L10.172,11.124 L10.172,13.068 C9.86,13.188 9.35,13.32 8.792,13.32 C7.60973913,13.32 6.84468809,12.7875085 6.78039681,11.4652302 L6.776,11.28 L6.776,11.148 C6.776,9.582 7.742,9.072 8.822,9.072 Z M11.768,9.138 L11.768,13.254 L10.91,13.254 L10.91,9.138 L11.768,9.138 Z M15.248,9.138 L15.248,9.78 L13.484,9.78 L13.484,10.926 L14.858,10.926 L14.858,11.574 L13.484,11.574 L13.484,13.254 L12.632,13.254 L12.632,9.138 L15.248,9.138 Z"></path>
    </g>
</svg>