<svg width="22px" height="22px" viewBox="0 0 22 22" version="1.1" xmlns="http://www.w3.org/2000/svg" xmlns:xlink="http://www.w3.org/1999/xlink" class="@@class">
	<title>@@title</title>
	<g>
		<path d="M11,19 C6.581722,19 3,15.418278 3,11 C3,6.581722 6.581722,3 11,3 C14.0124808,3 16.6360619,4.66507715 18.0006171,7.12510506 L18,4.5 L19,4.5 L19,9 L17.7104022,9.00094389 C17.710304,9.00061381 17.7102058,9.00028373 17.7101075,8.99995367 L14.5,9 L14.5,8 L17.3264957,8.00026701 C16.2030863,5.63517574 13.792501,4 11,4 C7.13400675,4 4,7.13400675 4,11 C4,14.8659932 7.13400675,18 11,18 C14.8659932,18 18,14.8659932 18,11 L19,11 L19,11 C19,15.418278 15.418278,19 11,19 Z"></path>
	</g>
</svg>