<?xml version="1.0" encoding="UTF-8"?>
<svg width="22px" height="22px" viewBox="0 0 22 22" version="1.1" xmlns="http://www.w3.org/2000/svg" xmlns:xlink="http://www.w3.org/1999/xlink">
    <!-- Generator: Sketch 57.1 (83088) - https://sketch.com -->
    <title>Ic/22/Line/Arrow/Open/Black@2x</title>
    <desc>Created with Sketch.</desc>
    <g id="Ic/22/Line/Arrow/Open/Black" stroke="none" stroke-width="1" fill="none" fill-rule="evenodd">
        <path d="M11,19 C15.418278,19 19,15.418278 19,11 C19,6.581722 15.418278,3 11,3 C6.581722,3 3,6.581722 3,11 C3,15.418278 6.581722,19 11,19 Z M11,18 C7.13400675,18 4,14.8659932 4,11 C4,7.13400675 7.13400675,4 11,4 C14.8659932,4 18,7.13400675 18,11 C18,14.8659932 14.8659932,18 11,18 Z" id="Oval" fill="#000000" fill-rule="nonzero"></path>
        <polygon id="Fill-1" fill="#000000" points="11.182 11.875 8.708 9.4 8 10.107 11.182 13.29 14.364 10.107 13.657 9.4"></polygon>
    </g>
</svg>