<?xml version="1.0" encoding="UTF-8"?>
<svg width="22px" height="22px" viewBox="0 0 22 22" version="1.1" xmlns="http://www.w3.org/2000/svg" xmlns:xlink="http://www.w3.org/1999/xlink">
    <!-- Generator: Sketch 57.1 (83088) - https://sketch.com -->
    <title>Ic/22/Stencil/Hanger/Black@2x</title>
    <desc>Created with Sketch.</desc>
    <g id="Ic/22/Stencil/Hanger/Black" stroke="none" stroke-width="1" fill="none" fill-rule="evenodd">
        <path d="M11,3.17 C12.6625288,3.17 13.9999439,4.57519037 13.9999439,6.30406833 C13.9893492,7.01145633 13.7165753,7.67041235 13.1976966,8.26607154 C12.7438917,8.78702776 12.1820357,9.37402214 11.5116476,10.0279264 L11.622,9.918 L8.59,12.9497475 L8.592,12.951 L4.41421356,17.128 L17.5857864,17.128 L11.706,11.248 L12.413,10.541 L20,18.128 L2,18.128 L10.814,9.314 C11.3724507,8.76676554 11.8516827,8.27162901 12.2507895,7.82721293 L12.4436644,7.60923414 C12.8130456,7.1851941 12.9931514,6.75010191 13,6.29658054 C13,5.11672995 12.098895,4.17 11,4.17 C9.89071014,4.17 9,5.08514493 9,6.2545981 L9,6.2545981 L8,6.2545981 C8,4.53882628 9.33227798,3.17 11,3.17 Z" id="Combined-Shape" fill="#000000" fill-rule="nonzero"></path>
    </g>
</svg>