<?xml version="1.0" encoding="UTF-8"?>
<svg width="22px" height="22px" viewBox="0 0 22 22" version="1.1" xmlns="http://www.w3.org/2000/svg" xmlns:xlink="http://www.w3.org/1999/xlink">
    <!-- Generator: Sketch 59.1 (86144) - https://sketch.com -->
    <title>Ic/22/Stencil/Hide/Black</title>
    <desc>Created with Sketch.</desc>
    <g id="Ic/22/Stencil//Hide/Black" stroke="none" stroke-width="1" fill="none" fill-rule="evenodd">
        <path d="M18.6464466,2.64644661 L19.3535534,3.35355339 L15.9527886,6.75477614 L15.9527886,6.75477614 L14.1600178,8.54625459 L14.1600244,8.54644661 L3.35355339,19.3535534 L2.64644661,18.6464466 L5.31103864,15.9812054 C3.32975674,14.8207971 1.79574761,13.0720644 1.0000244,11.0025961 C2.45523771,7.21491476 6.38294942,4.50172843 10.9998328,4.50172843 C12.7103385,4.50172843 14.3262469,4.87414657 15.7568878,5.53561095 L18.6464466,2.64644661 Z M21.0000244,11.0018573 C19.5437389,14.7890181 15.6163113,17.5017284 10.9998328,17.5017284 C9.67899348,17.5017284 8.41456069,17.2796626 7.24828295,16.8739189 L8.04467966,16.0783099 C8.97985937,16.3538901 9.97396065,16.5017284 10.9998328,16.5017284 C14.874087,16.5017284 18.2950917,14.393244 19.8010398,11.2582078 L19.9189183,11.0017875 L19.8010813,10.7453815 C19.1387592,9.36620365 18.1056212,8.18562926 16.8262146,7.29585293 L17.5432948,6.57909926 C19.1108388,7.71097774 20.3229073,9.24024021 21.0000244,11.0018573 Z M10.9998328,5.50172843 C7.02040176,5.50172843 3.51934825,7.72621984 2.08109094,11.0024505 C2.8698475,12.7978613 4.27819825,14.2773444 6.04522679,15.2477751 L7.83760153,13.4542381 C7.40753903,12.9005011 7.11970936,12.2307958 7.02894621,11.4999559 L8.03949189,11.500556 C8.11579724,11.9567654 8.29500034,12.3781187 8.5524292,12.7399437 L12.7391081,8.55485842 C12.2484387,8.20547964 11.6481965,8 10.9999619,8 C9.51319679,8 8.27889152,9.08090888 8.04002022,10.4997525 L7.02941257,10.4997601 C7.27634564,8.52660011 8.95987547,7 10.9999619,7 C11.9244543,7 12.7757254,7.31349811 13.4532662,7.83998546 L14.9983091,6.29531068 C13.7738643,5.78392264 12.4171725,5.50172843 10.9998328,5.50172843 Z M15.0016903,11.0017284 C15.0016903,13.211822 13.2100554,15.0034569 10.9999619,15.0034569 C10.4453261,15.0034569 9.91704436,14.8906218 9.43681956,14.6866547 L10.222315,13.9017475 C10.470338,13.9680879 10.7310195,14.0034569 10.9999619,14.0034569 C12.6577707,14.0034569 14.0016903,12.6595373 14.0016903,11.0017284 C14.0016903,10.7325225 13.9662519,10.4715936 13.8997858,10.2233525 L14.6847623,9.4382898 C14.8888088,9.9185936 15.0016903,10.4469786 15.0016903,11.0017284 Z" id="Combined-Shape" fill="#000000" fill-rule="nonzero"></path>
    </g>
</svg>