<?xml version="1.0" encoding="UTF-8"?>
<svg width="22px" height="22px" viewBox="0 0 22 22" version="1.1" xmlns="http://www.w3.org/2000/svg" xmlns:xlink="http://www.w3.org/1999/xlink">
    <!-- Generator: Sketch 63.1 (92452) - https://sketch.com -->
    <title>Ic/22/Solid/Show</title>
    <desc>Created with Sketch.</desc>
    <g id="Ic/22/Solid/Show" stroke="none" stroke-width="1" fill="none" fill-rule="evenodd">
        <path d="M11,4 C15.6166751,4 19.5442414,6.92162367 21,10.9995749 C19.5447428,15.0780033 15.6169698,18 11,18 C6.38332486,18 2.45575859,15.0783763 1,11.0004251 C2.45525718,6.92199667 6.38303017,4 11,4 Z M11,7 C8.790861,7 7,8.790861 7,11 C7,13.209139 8.790861,15 11,15 C13.209139,15 15,13.209139 15,11 C15,8.790861 13.209139,7 11,7 Z M11,8 C12.6568542,8 14,9.34314575 14,11 C14,12.6568542 12.6568542,14 11,14 C9.34314575,14 8,12.6568542 8,11 C8,9.34314575 9.34314575,8 11,8 Z" id="Combined-Shape" fill="#000000"></path>
    </g>
</svg>