<svg width="22px" height="22px" viewBox="0 0 22 22" version="1.1" xmlns="http://www.w3.org/2000/svg" xmlns:xlink="http://www.w3.org/1999/xlink" class="@@class">
	<title>@@title</title>
	<g stroke="none" stroke-width="1" fill="none" fill-rule="evenodd">
		<path d="M9.66701684,4.54264835 L9.83651473,4.68747224 L9.91035931,4.757 L11.7043593,6.55 L10.9989064,7.25576067 L9.31158304,5.56795585 L9.15822521,5.42239964 L9.00792337,5.29596693 C7.73165102,4.28644088 5.87824559,4.37860866 4.70710678,5.54974747 C3.44077682,6.81607743 3.44077682,8.86920395 4.70710678,10.1355339 L11,16.4284271 L16.2913593,11.136 L16.9983593,11.843 L11,17.8426407 L4,10.8426407 C2.34314575,9.18578644 2.34314575,6.49949494 4,4.84264069 C5.54996043,3.29268026 8.00081235,3.19268281 9.66701684,4.54264835 Z M18,4.84264069 C19.6568542,6.49949494 19.6568542,9.18578644 18,10.8426407 L17.7053593,11.136 L16.9983593,10.429 L17.2928932,10.1355339 C18.5592232,8.86920395 18.5592232,6.81607743 17.2928932,5.54974747 C16.0265633,4.28341751 13.9734367,4.28341751 12.7066536,5.55020036 L12.4123593,5.844 L11.7043593,5.137 L12,4.84264069 C13.6568542,3.18578644 16.3431458,3.18578644 18,4.84264069 Z" fill="#000000" fill-rule="nonzero"></path>
	</g>
</svg>