<?xml version="1.0" encoding="UTF-8"?>
<svg width="22px" height="22px" viewBox="0 0 22 22" version="1.1" xmlns="http://www.w3.org/2000/svg" xmlns:xlink="http://www.w3.org/1999/xlink">
    <!-- Generator: Sketch 63.1 (92452) - https://sketch.com -->
    <title>Ic/22/Solid/Gift</title>
    <desc>Created with Sketch.</desc>
    <g id="Ic/22/Solid/Gift" stroke="none" stroke-width="1" fill="none" fill-rule="evenodd">
        <path d="M16.96698,5.06313519 C16.96698,5.45137858 16.8658048,5.78517235 16.671945,6.0635479 L19,6.06313519 L19,11.0631352 L18,11.0631352 L18,19 L11.5,19 L11.5,7.054 L11.49902,7.054 L11.49902,5.287 L11.6772329,5.10545481 C12.8708904,3.89391862 13.7521644,3.22352639 14.3836412,3.07376173 C15.7769169,2.74332444 16.96698,3.54361302 16.96698,5.06313519 Z M7.61635884,3.07376173 C8.27866194,3.23083735 9.21574588,3.96061141 10.4994649,5.28675398 L10.499,6.063 L10.5,6.06313519 L10.5,19 L4,19 L4,11.0631352 L3,11.0631352 L3,6.06313519 L5.32639304,6.06373611 C5.15948446,5.82321981 5.06166808,5.54086466 5.03843004,5.21676332 L5.03302002,5.06313519 C5.03302002,3.54361302 6.22308313,2.74332444 7.61635884,3.07376173 Z M14.6144057,4.04677135 C14.2308524,4.13773707 13.5296035,4.67349471 12.5603997,5.6376588 L12.148,6.05513519 L14.433233,6.05881548 L14.6363773,6.03194293 C15.5885576,5.88702029 15.96698,5.57160191 15.96698,5.06313519 C15.96698,4.2295302 15.4134178,3.85727305 14.6144057,4.04677135 Z M6.03302002,5.06313519 C6.03302002,5.56915426 6.41610303,5.89108378 7.314407,6.02927887 L7.50097656,6.0544682 L9.85,6.05413519 L9.43705037,5.63512252 C8.59195773,4.79467188 7.95081911,4.28026092 7.54665712,4.10276787 L7.45761068,4.06779368 L7.38559428,4.04677135 C6.58658221,3.85727305 6.03302002,4.2295302 6.03302002,5.06313519 Z" id="Combined-Shape" fill="#000000"></path>
    </g>
</svg>