<?xml version="1.0" encoding="UTF-8"?>
<svg width="22px" height="22px" viewBox="0 0 22 22" version="1.1" xmlns="http://www.w3.org/2000/svg" xmlns:xlink="http://www.w3.org/1999/xlink">
    <!-- Generator: Sketch 58 (84663) - https://sketch.com -->
    <title>Ic/22/Solid/Thumbdown/Black@3x</title>
    <desc>Created with Sketch.</desc>
    <g id="Ic/22/Solid/Thumbdown/Black" stroke="none" stroke-width="1" fill="none" fill-rule="evenodd">
        <path d="M10.5,3 L10.5,4 L8,4 L8,12.194 L9.05517092,17.7737564 L10.0276546,17.3563705 C10.7870357,17.0304473 11.2374716,16.249282 11.151927,15.4392271 L11.1295509,15.2871074 L10.5084455,12 L18.0246923,12 L16.6841909,4.81655684 C16.5958559,4.34318929 16.1826997,4 15.7011606,4 L11.5,4 L11.5,3 L15.7011606,3 C16.6107345,3 17.3983165,3.61223274 17.6318489,4.47780825 L17.6672212,4.63311367 L19.0077227,11.8165568 C19.0190117,11.8770521 19.0246923,11.9384604 19.0246923,12 C19.0246923,12.5128358 18.6386521,12.9355072 18.1413135,12.9932723 L18.0246923,13 L11.7150923,13 L12.1121637,15.1014407 C12.3508383,16.3645907 11.7215099,17.6242026 10.58746,18.1980658 L10.4220586,18.2753076 L9.44957491,18.6926936 C9.3825271,18.7214702 9.31253127,18.7428225 9.24083754,18.7563692 C8.73691848,18.8515857 8.24992145,18.5507336 8.10082153,18.0727673 L8.07255813,17.959423 L7.13546542,13 L3,13 L3,3 L10.5,3 Z" id="Combined-Shape" fill="#000000" fill-rule="nonzero"></path>
    </g>
</svg>