<?xml version="1.0" encoding="UTF-8"?>
<svg width="22px" height="22px" viewBox="0 0 22 22" version="1.1" xmlns="http://www.w3.org/2000/svg" xmlns:xlink="http://www.w3.org/1999/xlink">
    <!-- Generator: Sketch 57.1 (83088) - https://sketch.com -->
    <title>Ic/22/Line/Heart/Black@2x</title>
    <desc>Created with Sketch.</desc>
    <g id="Ic/22/Line/Heart/Black" stroke="none" stroke-width="1" fill="none" fill-rule="evenodd">
        <path d="M10.9890875,5.39021759 L11.9815684,4.39773672 C13.8452173,2.53408776 16.8667893,2.53408776 18.7304383,4.39773672 C20.5940872,6.26138569 20.5940872,9.28295767 18.7304383,11.1466066 L14.5559769,15.321068 L10.9890875,18.8879574 L3.24773672,11.1466066 C1.38408776,9.28295767 1.38408776,6.26138569 3.24773672,4.39773672 C5.11138569,2.53408776 8.13295767,2.53408776 9.99660663,4.39773672 L10.9890875,5.39021759 Z M10.9890875,17.4737438 L18.0233315,10.4394999 C19.4964562,8.96637518 19.4964562,6.57796818 18.0233315,5.1048435 C16.5502068,3.63171883 14.1617998,3.63171883 12.6886751,5.1048435 L10.9890875,6.80443115 L9.28949985,5.1048435 C7.81637518,3.63171883 5.42796818,3.63171883 3.9548435,5.1048435 C2.48171883,6.57796818 2.48171883,8.96637518 3.9548435,10.4394999 L10.9890875,17.4737438 Z" id="Combined-Shape" fill="#000000" fill-rule="nonzero"></path>
    </g>
</svg>