<!-- Generated by IcoMoon.io -->
<svg version="1.1" xmlns="http://www.w3.org/2000/svg" width="32" height="32" viewBox="0 0 32 32">
<title>c-22-stencil-report</title>
<path d="M16 7.273c4.71 0 8.549 3.732 8.721 8.4l0.006 0.327v5.818h2.909v5.818h-23.273v-5.818h2.909v-2.909h1.455v2.909h1.455v1.455h-4.364v2.909h20.364v-2.909h-14.545v-1.455h11.636l0-5.791-0.005-0.3c-0.144-3.899-3.353-6.999-7.268-6.999-3.806 0-6.945 2.93-7.248 6.651l-0.019 0.321-0.006 0.3v1.455h-1.455v-1.455l0.006-0.327c0.172-4.668 4.011-8.4 8.721-8.4zM11.639 17.455v1.455h-1.455v-1.455h1.455zM16 10.185v1.455c-2.322 0-4.221 1.815-4.353 4.105l-0.007 0.256h-1.455c0-3.114 2.448-5.657 5.525-5.808l0.29-0.007zM7.258 6.229l2.057 2.057-1.029 1.029-2.057-2.057 1.029-1.029zM24.742 6.229l1.029 1.029-2.057 2.057-1.029-1.029 2.057-2.057zM16.727 2.909v2.909h-1.455v-2.909h1.455z"></path>
</svg>
