<svg width="22px" height="22px" viewBox="0 0 22 22" xmlns="http://www.w3.org/2000/svg" class="@@class">
  <title>@@title</title>
  <g stroke="none" stroke-width="1" fill="none" fill-rule="evenodd">
    <rect id="Rectangle" x="0" y="0" width="22" height="22"></rect>
    <path d="M7,15 L7,19 L3,19 L3,15 L7,15 Z M19,15 L19,19 L15,19 L15,15 L19,15 Z M13,15 L13,19 L9,19 L9,15 L13,15 Z M6,16 L4,16 L4,18 L6,18 L6,16 Z M18,16 L16,16 L16,18 L18,18 L18,16 Z M12,16 L10,16 L10,18 L12,18 L12,16 Z M7,9 L7,13 L3,13 L3,9 L7,9 Z M19,9 L19,13 L15,13 L15,9 L19,9 Z M13,9 L13,13 L9,13 L9,9 L13,9 Z M6,10 L4,10 L4,12 L6,12 L6,10 Z M18,10 L16,10 L16,12 L18,12 L18,10 Z M12,10 L10,10 L10,12 L12,12 L12,10 Z M7,3 L7,7 L3,7 L3,3 L7,3 Z M19,3 L19,7 L15,7 L15,3 L19,3 Z M13,3 L13,7 L9,7 L9,3 L13,3 Z M6,4 L4,4 L4,6 L6,6 L6,4 Z M18,4 L16,4 L16,6 L18,6 L18,4 Z M12,4 L10,4 L10,6 L12,6 L12,4 Z" id="Combined-Shape" fill="#000000"></path>
  </g>
</svg>