<?xml version="1.0" encoding="UTF-8"?>
<svg width="22px" height="22px" viewBox="0 0 22 22" version="1.1" xmlns="http://www.w3.org/2000/svg" xmlns:xlink="http://www.w3.org/1999/xlink">
    <!-- Generator: Sketch 63.1 (92452) - https://sketch.com -->
    <title>Ic/22/Solid/Hide</title>
    <desc>Created with Sketch.</desc>
    <g id="Ic/22/Solid/Hide" stroke="none" stroke-width="1" fill="none" fill-rule="evenodd">
        <path d="M21,10.9995749 C19.5447428,15.0780033 15.6169698,18 11,18 C9.17797179,18 7.4632781,17.5449325 5.96550499,16.7433137 L8.54775533,14.1603774 C9.22500347,14.6866373 10.0759068,15 11,15 C13.209139,15 15,13.209139 15,11 C15,10.0759068 14.6866373,9.22500347 14.1603774,8.54775533 L16.9203734,5.78778767 C18.789701,7.03585849 20.235605,8.85830955 21,10.9995749 Z M11,4 C12.8232521,4 14.5390255,4.4556791 16.0375131,5.25830218 L13.4542332,7.84116881 C12.7766625,7.31397654 11.9249978,7 11,7 C8.790861,7 7,8.790861 7,11 C7,11.9249978 7.31397654,12.7766625 7.84116881,13.4542332 L5.08161121,16.213537 C3.21132234,14.9654312 1.76466546,13.1424481 1,11.0004251 C2.45525718,6.92199667 6.38303017,4 11,4 Z M13.4461233,9.26278562 C13.7948983,9.75300077 14,10.3525484 14,11 C14,12.6568542 12.6568542,14 11,14 C10.3525484,14 9.75300077,13.7948983 9.26278562,13.4461233 Z M11,8 C11.6483155,8 12.248599,8.20564934 12.739176,8.55527346 L8.55527346,12.739176 C8.20564934,12.248599 8,11.6483155 8,11 C8,9.34314575 9.34314575,8 11,8 Z" id="Combined-Shape" fill="#000000"></path>
    </g>
</svg>