<svg width="22px" height="22px" viewBox="0 0 22 22" version="1.1" xmlns="http://www.w3.org/2000/svg" xmlns:xlink="http://www.w3.org/1999/xlink" class="@@class">
    <title>@@title</title>
    <g class="svg-color">
        <path d="M11,11 C14.7870954,11 17.8717765,14.1245646 17.9961045,18.0277834 L18,18.2727273 L18,19 L17,19 L17,18 L16.9944388,18 C16.8577327,14.6545927 14.2180021,12 11,12 C7.85683515,12 5.26535819,14.532559 5.01913578,17.767745 L5.0055612,18 L16,18 L16,19 L4,19 L4,18.2727273 C4,14.2561109 7.13400675,11 11,11 Z M11,3 C12.9016356,3 14.4726716,4.41546493 14.7169946,6.25028127 L13.704774,6.25064289 C13.4699033,4.97026575 12.3482605,4 11,4 C9.48121694,4 8.25,5.23121694 8.25,6.75 C8.25,8.26878306 9.48121694,9.5 11,9.5 C12.3479067,9.5 13.4693146,8.53024337 13.7045889,7.25036495 L14.7168618,7.25071551 C14.4721026,9.08504769 12.9012912,10.5 11,10.5 C8.92893219,10.5 7.25,8.82106781 7.25,6.75 C7.25,4.67893219 8.92893219,3 11,3 Z" fill-rule="nonzero"></path>
    </g>
</svg>