<?xml version="1.0" encoding="UTF-8"?>
<svg width="22px" height="22px" viewBox="0 0 22 22" version="1.1" xmlns="http://www.w3.org/2000/svg" xmlns:xlink="http://www.w3.org/1999/xlink">
    <title>Ic/22/Stencil/Calendar</title>
    <g id="Ic/22/Stencil/Calendar" stroke="none" stroke-width="1" fill="none" fill-rule="evenodd">
        <path d="M19,19 L3,19 L3,11.5 L4,11.5 L4,18 L18,18 L18,9 L4,9 L4,10.5 L3,10.5 L3,3.5 L7,3.5 L7,2 L8,2 L8,3.5 L14,3.5 L14,2 L15,2 L15,3.5 L19,3.5 L19,19 Z M7,4.5 L4,4.5 L4,8 L18,8 L18,4.5 L15,4.5 L15,6 L14,6 L14,4.5 L8,4.5 L8,6 L7,6 L7,4.5 Z" id="Combined-Shape" fill="#000000"></path>
    </g>
</svg>