<?xml version="1.0" encoding="UTF-8"?>
<svg width="22px" height="22px" viewBox="0 0 22 22" version="1.1" xmlns="http://www.w3.org/2000/svg" xmlns:xlink="http://www.w3.org/1999/xlink">
    <!-- Generator: Sketch 63.1 (92452) - https://sketch.com -->
    <title>Ic/22/Line/Map</title>
    <desc>Created with Sketch.</desc>
    <g id="Ic/22/Line/Map" stroke="none" stroke-width="1" fill="none" fill-rule="evenodd">
        <path d="M14.4479238,15.2201961 C16.3026314,15.6441472 17.5,16.4094826 17.5,17.43016 C17.5,18.9939453 14.5836801,20 11,20 C7.41631987,20 4.5,18.9939453 4.5,17.43016 C4.5,16.4086014 5.69601895,15.6448904 7.55277208,15.2204348 L8.14672467,16.1182755 C6.51910322,16.4375964 5.5,17.0024309 5.5,17.43016 C5.5,18.1526399 7.9563008,19 11,19 C14.0436992,19 16.5,18.1526399 16.5,17.43016 C16.5,16.9987737 15.4763698,16.4371244 13.853205,16.1184642 L14.4479238,15.2201961 Z M11,2 C14.0342103,2 16.5,4.39135073 16.5,7.3490566 C16.5,8.24984686 16.2704192,9.11932089 15.8385606,9.89435598 C15.5960702,10.3295395 15.1340453,11.0769849 14.4970481,12.0726164 L14.4970481,12.0726164 L13.3269971,13.8803312 L12.1327715,15.6970621 L10.9997664,17.4014247 L10.5838954,16.7772309 L9.06686187,14.4801037 L8.29264911,13.2941034 L6.83855605,11.0012394 C6.47895504,10.427344 6.25598404,10.0631859 6.16723465,9.90476075 L6.16723465,9.90476075 L6.02963278,9.6420972 C5.68303766,8.93268845 5.5,8.1533702 5.5,7.3490566 C5.5,4.39135073 7.96578966,2 11,2 Z M11,3 C8.51133096,3 6.5,4.95061153 6.5,7.3490566 C6.5,8.08137627 6.68707564,8.78654727 7.0396793,9.41604782 C7.14335272,9.60111363 7.47132752,10.1315916 8.01796694,10.9981814 L8.01796694,10.9981814 L9.00121996,12.5489876 L9.90326027,13.9319814 L11,15.596 L11.7001021,14.5371787 L12.8709266,12.7484029 L13.9490282,11.0715699 C14.2813917,10.5472757 14.5519026,10.1110283 14.7503617,9.77790266 L14.7503617,9.77790266 L14.9650187,9.40760714 C15.3146034,8.78022478 15.5,8.07808628 15.5,7.3490566 C15.5,4.95061153 13.488669,3 11,3 Z M11,4.7 C12.3807193,4.7 13.5,5.81929823 13.5,7.2 C13.5,8.58070177 12.3807193,9.7 11,9.7 C9.61928066,9.7 8.5,8.58070177 8.5,7.2 C8.5,5.81929823 9.61928066,4.7 11,4.7 Z M11,5.7 C10.1715689,5.7 9.5,6.37157946 9.5,7.2 C9.5,8.02842054 10.1715689,8.7 11,8.7 C11.8284311,8.7 12.5,8.02842054 12.5,7.2 C12.5,6.37157946 11.8284311,5.7 11,5.7 Z" id="Combined-Shape" fill="#000000"></path>
    </g>
</svg>