<?xml version="1.0" encoding="UTF-8"?>
<svg width="22px" height="22px" viewBox="0 0 22 22" version="1.1" xmlns="http://www.w3.org/2000/svg" xmlns:xlink="http://www.w3.org/1999/xlink">
    <title>Ic/22/Line/Share@2x</title>
    <g id="Ic/22/Line/Share" stroke="none" stroke-width="1" fill="none" fill-rule="evenodd">
        <path d="M15.5,3 C17.4329966,3 19,4.56700338 19,6.5 C19,8.43299662 17.4329966,10 15.5,10 C13.5670034,10 12,8.43299662 12,6.5 C12,4.56700338 13.5670034,3 15.5,3 Z M15.5,4 C14.1192881,4 13,5.11928813 13,6.5 C13,7.88071187 14.1192881,9 15.5,9 C16.8807119,9 18,7.88071187 18,6.5 C18,5.11928813 16.8807119,4 15.5,4 Z" id="Oval" fill="#000000" fill-rule="nonzero"></path>
        <path d="M6.5,7.5 C8.43299662,7.5 10,9.06700338 10,11 C10,12.9329966 8.43299662,14.5 6.5,14.5 C4.56700338,14.5 3,12.9329966 3,11 C3,9.06700338 4.56700338,7.5 6.5,7.5 Z M6.5,8.5 C5.11928813,8.5 4,9.61928813 4,11 C4,12.3807119 5.11928813,13.5 6.5,13.5 C7.88071187,13.5 9,12.3807119 9,11 C9,9.61928813 7.88071187,8.5 6.5,8.5 Z" id="Oval-Copy" fill="#000000" fill-rule="nonzero"></path>
        <path d="M15.5,12 C17.4329966,12 19,13.5670034 19,15.5 C19,17.4329966 17.4329966,19 15.5,19 C13.5670034,19 12,17.4329966 12,15.5 C12,13.5670034 13.5670034,12 15.5,12 Z M15.5,13 C14.1192881,13 13,14.1192881 13,15.5 C13,16.8807119 14.1192881,18 15.5,18 C16.8807119,18 18,16.8807119 18,15.5 C18,14.1192881 16.8807119,13 15.5,13 Z" id="Oval" fill="#000000" fill-rule="nonzero"></path>
        <polygon id="Path-57" fill="#000000" fill-rule="nonzero" points="12.6214019 7.38028206 13.0686155 8.27470926 9.42306426 10.0974849 8.97585067 9.20305767"></polygon>
        <polygon id="Path-58" fill="#000000" fill-rule="nonzero" points="9.42935767 11.9056618 13.0936806 13.7378233 12.646467 14.6322505 8.98214407 12.800089"></polygon>
    </g>
</svg>