<?xml version="1.0" encoding="UTF-8"?>
<svg width="22px" height="22px" viewBox="0 0 22 22" version="1.1" xmlns="http://www.w3.org/2000/svg" xmlns:xlink="http://www.w3.org/1999/xlink">
    <!-- Generator: Sketch 57.1 (83088) - https://sketch.com -->
    <title>Ic/22/Stencil/Bell/Black@2x</title>
    <desc>Created with Sketch.</desc>
    <defs>
        <path d="M6.166,11.5 L6.16666667,14.4276979 L5.24517094,16 L13.5,16 L13.5,17 L13.4946823,17.1643757 C13.4100387,18.4684641 12.3254834,19.5 11,19.5 C9.61962284,19.5 8.5005427,18.3812545 8.5000002,17.0010041 L3.5,17 L5.16666667,14.15625 L5.166,11.5 L6.166,11.5 Z M12.4998139,17.0238693 L9.50018607,17.0238693 C9.51293824,17.8412887 10.179544,18.5 11,18.5 C11.820456,18.5 12.4870618,17.8412887 12.4998139,17.0238693 Z M11,2 C12.1045695,2 13,2.8954305 13,4 C13,4.11356752 12.9905343,4.22492421 12.9723487,4.33332413 C15.2234125,5.12172716 16.8333333,7.22130522 16.8333333,9.6875 L16.8333333,14.15625 L18.5,17 L14.5,17 L14.5,16 L16.7548291,16 L15.8333333,14.4276979 L15.8333333,9.6875 C15.8333333,7.69974262 14.5442193,5.94340831 12.6418001,5.27711309 L11.8467551,4.99865991 L11.9861308,4.16787285 C11.9953235,4.11307689 12,4.05705028 12,4 C12,3.44771525 11.5522847,3 11,3 C10.4477153,3 10,3.44771525 10,4 C10,4.05705028 10.0046765,4.11307689 10.0138692,4.16787285 L10.1532449,4.99865991 L9.35819991,5.27711309 C7.45578071,5.94340831 6.16666667,7.69974262 6.16666667,9.6875 L6.166,10.5 L5.166,10.5 L5.16666667,9.6875 C5.16666667,7.22130522 6.77658745,5.12172716 9.02765127,4.33332413 C9.00946573,4.22492421 9,4.11356752 9,4 C9,2.8954305 9.8954305,2 11,2 Z" id="path-1"></path>
    </defs>
    <g id="Ic/22/Stencil/Bell/Black" stroke="none" stroke-width="1" fill="none" fill-rule="evenodd">
        <mask id="mask-2" fill="white">
            <use xlink:href="#path-1"></use>
        </mask>
        <use id="Mask" fill="#000000" fill-rule="nonzero" xlink:href="#path-1"></use>
    </g>
</svg>