<?xml version="1.0" encoding="UTF-8"?>
<svg width="22px" height="22px" viewBox="0 0 22 22" version="1.1" xmlns="http://www.w3.org/2000/svg" xmlns:xlink="http://www.w3.org/1999/xlink">
    <!-- Generator: Sketch 57.1 (83088) - https://sketch.com -->
    <title>Ic/22/Line/Gif/Black@2x</title>
    <desc>Created with Sketch.</desc>
    <defs>
        <path d="M11,3 C15.418278,3 19,6.581722 19,11 C19,15.418278 15.418278,19 11,19 C6.581722,19 3,15.418278 3,11 C3,6.581722 6.581722,3 11,3 Z M11,4 C7.13400675,4 4,7.13400675 4,11 C4,14.8659932 7.13400675,18 11,18 C14.8659932,18 18,14.8659932 18,11 C18,7.13400675 14.8659932,4 11,4 Z M8.822,9.072 C9.368,9.072 9.746,9.186 9.986,9.306 L9.986,9.306 L9.986,9.966 C9.74,9.876 9.422,9.75 8.894,9.75 C7.952,9.75 7.67,10.344 7.67,11.094 L7.67,11.094 L7.67,11.28 C7.67,12.114 7.874,12.678 8.774,12.678 C8.996,12.678 9.218,12.63 9.35,12.588 L9.35,12.588 L9.35,11.724 L8.636,11.724 L8.636,11.124 L10.172,11.124 L10.172,13.068 C9.86,13.188 9.35,13.32 8.792,13.32 C7.556,13.32 6.776,12.738 6.776,11.28 L6.776,11.28 L6.776,11.148 C6.776,9.582 7.742,9.072 8.822,9.072 Z M11.768,9.138 L11.768,13.254 L10.91,13.254 L10.91,9.138 L11.768,9.138 Z M15.248,9.138 L15.248,9.78 L13.484,9.78 L13.484,10.926 L14.858,10.926 L14.858,11.574 L13.484,11.574 L13.484,13.254 L12.632,13.254 L12.632,9.138 L15.248,9.138 Z" id="path-1"></path>
    </defs>
    <g id="Ic/22/Line/Gif/Black" stroke="none" stroke-width="1" fill="none" fill-rule="evenodd">
        <mask id="mask-2" fill="white">
            <use xlink:href="#path-1"></use>
        </mask>
        <use id="Mask" fill="#000000" fill-rule="nonzero" xlink:href="#path-1"></use>
    </g>
</svg>