<?xml version="1.0" encoding="UTF-8"?>
<svg width="22px" height="22px" viewBox="0 0 22 22" version="1.1" xmlns="http://www.w3.org/2000/svg" xmlns:xlink="http://www.w3.org/1999/xlink">
    <!-- Generator: Sketch 63.1 (92452) - https://sketch.com -->
    <title>Ic/22/Stencil/Map</title>
    <desc>Created with Sketch.</desc>
    <g id="Ic/22/Stencil/Map" stroke="none" stroke-width="1" fill="none" fill-rule="evenodd">
        <path d="M14.4479238,15.2201961 C16.3026314,15.6441472 17.5,16.4094826 17.5,17.43016 C17.5,18.9939453 14.5836801,20 11,20 C7.41631987,20 4.5,18.9939453 4.5,17.43016 C4.5,16.4086014 5.69601895,15.6448904 7.55277208,15.2204348 L8.14672467,16.1182755 C6.51910322,16.4375964 5.5,17.0024309 5.5,17.43016 C5.5,18.1526399 7.9563008,19 11,19 C14.0436992,19 16.5,18.1526399 16.5,17.43016 C16.5,16.9987737 15.4763698,16.4371244 13.853205,16.1184642 L14.4479238,15.2201961 Z M11,2 C14.0342103,2 16.5,4.39135073 16.5,7.3490566 C16.5,8.24984686 16.2704192,9.11932089 15.8385606,9.89435598 L15.6162264,10.2782915 C15.2958766,10.8166588 14.8004179,11.6039524 14.1641747,12.5908178 L13.7094695,13.2932385 C13.3331292,13.8724544 12.9367192,14.4777426 12.5353012,15.0871267 L11.4159608,16.7774465 L10.9997664,17.4014247 L9.86779544,15.6968992 L9.06686187,14.4801037 L8.16212635,13.0929747 L9.00121996,12.5489876 L9.90326027,13.9319814 L11,15.596 L12.0982312,13.9315897 L13.6492355,11.5421757 C14.2781647,10.5592455 14.7338862,9.82240712 14.9650187,9.40760714 C15.3146034,8.78022478 15.5,8.07808628 15.5,7.3490566 C15.5,4.95061153 13.488669,3 11,3 C8.51133096,3 6.5,4.95061153 6.5,7.3490566 C6.5,8.08137627 6.68707564,8.78654727 7.0396793,9.41604782 L7.23480007,9.75158953 C7.34131657,9.93069732 7.4716999,10.1456815 7.61583778,10.3801644 L8.44473608,11.7025687 L7.60195653,12.2408276 L6.94296956,11.1937829 C6.60646183,10.6513027 6.31464889,10.1679076 6.16723465,9.90476075 C5.73165704,9.12712747 5.5,8.2539094 5.5,7.3490566 C5.5,4.39135073 7.96578966,2 11,2 Z M11,4.7 C12.3807193,4.7 13.5,5.81929823 13.5,7.2 C13.5,8.58070177 12.3807193,9.7 11,9.7 C9.61928066,9.7 8.5,8.58070177 8.5,7.2 C8.5,5.81929823 9.61928066,4.7 11,4.7 Z M11,5.7 C10.1715689,5.7 9.5,6.37157946 9.5,7.2 C9.5,8.02842054 10.1715689,8.7 11,8.7 C11.8284311,8.7 12.5,8.02842054 12.5,7.2 C12.5,6.37157946 11.8284311,5.7 11,5.7 Z" id="Combined-Shape" fill="#000000"></path>
    </g>
</svg>