<svg width="22px" height="22px" viewBox="0 0 22 22" version="1.1" xmlns="http://www.w3.org/2000/svg" xmlns:xlink="http://www.w3.org/1999/xlink" class="@@class">
    <title>@@title</title>
    <g class="svg-color">
        <path d="M11,3 C15.418278,3 19,6.581722 19,11 C19,15.418278 15.418278,19 11,19 C6.74981051,19 3.2737361,15.6856194 3.01540073,11.500482 L4.01760973,11.5003924 C4.27417336,15.1328443 7.30225663,18 11,18 C14.8659932,18 18,14.8659932 18,11 C18,7.13400675 14.8659932,4 11,4 C7.30191536,4 4.27361442,6.86768497 4.01753877,10.5006133 L3.01533875,10.5005231 C3.27317954,6.31491134 6.74947025,3 11,3 Z"></path>
        <rect x="10.5" y="14.5" width="1" height="1"></rect>
        <polygon points="10.5 6.5 11.5 6.5 11.5 13.5 10.5 13.5"></polygon>
    </g>
</svg>