<?xml version="1.0" encoding="UTF-8"?>
<svg width="22px" height="22px" viewBox="0 0 22 22" version="1.1" xmlns="http://www.w3.org/2000/svg" xmlns:xlink="http://www.w3.org/1999/xlink">
    <!-- Generator: Sketch 59.1 (86144) - https://sketch.com -->
    <title>Ic/22/Stencil/Phone</title>
    <desc>Created with Sketch.</desc>
    <g id="Ic/22/Stencil/Phone" stroke="none" stroke-width="1" fill="none" fill-rule="evenodd">
        <path d="M4.744,4.951 L5.449,5.656 L5.26858182,5.83748054 C3.9061639,7.19989847 3.9061639,9.40881437 5.26858182,10.7712323 L11.2287677,16.7314182 C12.5911856,18.0938361 14.8001015,18.0938361 16.1625195,16.7314182 L16.343,16.55 L17.048,17.255 L16.8673411,17.4362399 C15.1156609,19.18792 12.2756262,19.18792 10.523946,17.4362399 L4.56376014,11.476054 C2.81207995,9.72437379 2.81207995,6.88433906 4.56376014,5.13265886 L4.744,4.951 Z M14.420566,11.224147 L18.75,15.553581 L17.755,16.548 L17.05,15.843 L17.3403566,15.553581 L14.420566,12.6337904 L14.13,12.923 L13.426,12.219 L14.420566,11.224147 Z M8.369,8.576 L9.074,9.281 L8.95349644,9.4017905 C8.75886531,9.59642163 8.75886531,9.91198104 8.95349644,10.1066122 L11.8933878,13.0465036 C12.088019,13.2411347 12.4035784,13.2411347 12.5982095,13.0465036 L12.719,12.926 L13.423,13.63 L13.3030312,13.7513252 C12.7191378,14.3352186 11.7724595,14.3352186 11.1885661,13.7513252 L8.24867476,10.8114339 C7.66478136,10.2275405 7.66478136,9.28086221 8.24867476,8.69696882 L8.369,8.576 Z M6.44641901,3.25 L10.775853,7.57943396 L9.781,8.574 L9.076,7.869 L9.36620961,7.57943396 L6.44641901,4.65964336 L6.156,4.949 L5.451,4.244 L6.44641901,3.25 Z" id="Combined-Shape" fill="#000000" fill-rule="nonzero"></path>
    </g>
</svg>