<svg width="22px" height="22px" viewBox="0 0 22 22" version="1.1" xmlns="http://www.w3.org/2000/svg" xmlns:xlink="http://www.w3.org/1999/xlink" class="@@class">
  <title>@@title</title>
  <g class="svg-color">
    <path d="M11.5,2 L11.4993867,4.01753877 C13.0566226,4.12730427 14.4732555,4.74642843 15.583702,5.70932788 L17.0104076,4.28248558 L17.7175144,4.98959236 L16.2906721,6.41629803 C17.2535716,7.52674451 17.8726957,8.94337739 17.9824612,10.5006133 L20,10.5 L20,11.5 L17.9823903,11.5003924 C17.8724291,13.0572326 17.2533643,14.4734946 16.2906721,15.583702 L17.7175144,17.0104076 L17.0104076,17.7175144 L15.583702,16.2906721 C14.4732555,17.2535716 13.0566226,17.8726957 11.4993867,17.9824612 L11.5,20 L10.5,20 L10.499,19 L10.5,19 L10.5000973,16.9794711 C10.6649323,16.9930671 10.8316565,17 11,17 C14.3137085,17 17,14.3137085 17,11 C17,7.6862915 14.3137085,5 11,5 C8.20414811,5 5.85493456,6.91228605 5.18895995,9.50025754 L4.16128124,9.49912327 C4.41507913,8.33736211 4.95738014,7.28346824 5.70932788,6.41629803 L4.28248558,4.98959236 L4.98959236,4.28248558 L6.41629803,5.70932788 C7.52650543,4.74663574 8.94276742,4.12757088 10.4996076,4.01760973 L10.5,2 L11.5,2 Z M5.02052886,10.5000973 C5.00693294,10.6649323 5,10.8316565 5,11 C5,13.7958519 6.91228605,16.1450654 9.50025754,16.8110401 L9.50009526,17.838931 C8.33794994,17.5852233 7.28371008,17.0428296 6.41629803,16.2906721 L4.98959236,17.7175144 L4.28248558,17.0104076 L5.70932788,15.583702 C4.74663574,14.4734946 4.12757088,13.0572326 4.01760973,11.5003924 L2,11.5 L2,10.5 L5.02052886,10.5000973 Z"></path>
  </g>
</svg>