<?xml version="1.0" encoding="UTF-8"?>
<svg width="22px" height="22px" viewBox="0 0 22 22" version="1.1" xmlns="http://www.w3.org/2000/svg" xmlns:xlink="http://www.w3.org/1999/xlink">
    <!-- Generator: Sketch 62 (91390) - https://sketch.com -->
    <title>Ic/22/Line/Balloon2</title>
    <desc>Created with Sketch.</desc>
    <g id="Ic/22/Line/Balloon2" stroke="none" stroke-width="1" fill="none" fill-rule="evenodd">
        <path d="M13.5,4.5 C16.5375661,4.5 19,6.96243388 19,10 C19,13.0375661 16.5375661,15.5 13.5,15.5 L13.142,15.5 L11.8117887,17.3498227 C11.4892813,17.7981612 10.8643872,17.9001675 10.4160487,17.5776601 C10.3282865,17.5145293 10.2513421,17.4375849 10.1882113,17.3498227 L8.857,15.5 L8.5,15.5 C5.46243388,15.5 3,13.0375661 3,10 C3,6.96243388 5.46243388,4.5 8.5,4.5 L13.5,4.5 Z M13.5,5.5 L8.5,5.5 C6.01471863,5.5 4,7.51471863 4,10 C4,12.4142733 5.90123652,14.3844891 8.2881643,14.495102 L8.5,14.5 L9.36938232,14.5 L11,16.7658714 L12.6293928,14.5 L13.5,14.5 C15.9852814,14.5 18,12.4852814 18,10 C18,7.58572667 16.0987635,5.61551091 13.7118357,5.50489799 L13.5,5.5 Z M8,9.5 C8.27614237,9.5 8.5,9.72385763 8.5,10 C8.5,10.2761424 8.27614237,10.5 8,10.5 C7.72385763,10.5 7.5,10.2761424 7.5,10 C7.5,9.72385763 7.72385763,9.5 8,9.5 Z M11,9.5 C11.2761424,9.5 11.5,9.72385763 11.5,10 C11.5,10.2761424 11.2761424,10.5 11,10.5 C10.7238576,10.5 10.5,10.2761424 10.5,10 C10.5,9.72385763 10.7238576,9.5 11,9.5 Z M14,9.5 C14.2761424,9.5 14.5,9.72385763 14.5,10 C14.5,10.2761424 14.2761424,10.5 14,10.5 C13.7238576,10.5 13.5,10.2761424 13.5,10 C13.5,9.72385763 13.7238576,9.5 14,9.5 Z" id="Combined-Shape" fill="#000000"></path>
    </g>
</svg>