<?xml version="1.0" encoding="UTF-8"?>
<svg width="22px" height="22px" viewBox="0 0 22 22" version="1.1" xmlns="http://www.w3.org/2000/svg" xmlns:xlink="http://www.w3.org/1999/xlink">
    <!-- Generator: Sketch 57.1 (83088) - https://sketch.com -->
    <title>Ic/22/Stencil/Clothes/Black@2x</title>
    <desc>Created with Sketch.</desc>
    <defs>
        <path d="M13.6276284,2.88603645 C16.7086723,3.61972218 19,6.39018763 19,9.69582134 L19,16.6958213 L16,16.6950365 L16,19 L6,19 L6,16.6950365 L3,16.6958213 L3,11.4990365 L4,11.4990365 L4,15.6958213 L6,15.6950365 L6,9.5 L7,9.5 L7,15.5 L7,16.6950365 L7,18 L15,18 L15,17.5 L15,15.6950365 L15,9.5 L16,9.5 L16,15.6950365 L18,15.6958213 L18,9.69582134 C18,7.14789303 16.3984209,4.92217137 14.0832223,4.06674721 C13.3428305,5.07392612 12.2288073,5.69582134 11,5.69582134 C9.77119268,5.69582134 8.65716947,5.07392612 7.91677772,4.06674721 C5.60157911,4.92217137 4,7.14789303 4,9.69582134 L4,10.4990365 L3,10.4990365 L3,9.69582134 C3,6.39018763 5.29132768,3.61972218 8.37237158,2.88603645 C8.88340026,3.96507008 9.86855323,4.69582134 11,4.69582134 C12.1314468,4.69582134 13.1165997,3.96507008 13.6276284,2.88603645 Z" id="path-1"></path>
    </defs>
    <g id="Ic/22/Stencil/Clothes/Black" stroke="none" stroke-width="1" fill="none" fill-rule="evenodd">
        <mask id="mask-2" fill="white">
            <use xlink:href="#path-1"></use>
        </mask>
        <use id="Combined-Shape" fill="#000000" fill-rule="nonzero" xlink:href="#path-1"></use>
    </g>
</svg>