<?xml version="1.0" encoding="UTF-8"?>
<svg width="22px" height="22px" viewBox="0 0 22 22" version="1.1" xmlns="http://www.w3.org/2000/svg" xmlns:xlink="http://www.w3.org/1999/xlink">
    <!-- Generator: Sketch 57.1 (83088) - https://sketch.com -->
    <title>Ic/22/Stencil/Trash/Black@2x</title>
    <desc>Created with Sketch.</desc>
    <defs>
        <path d="M6,10 L6,19 L8,19 L7.999,20 L5,20 L5,10 L6,10 Z M15.5,2 L15.5,5 L19,5 L19,6 L17,6 L17,20 L8.999,20 L9,19 L16,19 L16,6 L6,6 L6,9 L5,9 L5,6 L3,6 L3,5 L6.5,5 L6.5,2 L15.5,2 Z M13,10 L13,15 L12,15 L12,10 L13,10 Z M10,10 L10,15 L9,15 L9,10 L10,10 Z M14.5,3 L7.5,3 L7.5,5 L14.5,5 L14.5,3 Z" id="path-1"></path>
    </defs>
    <g id="Ic/22/Stencil/Trash/Black" stroke="none" stroke-width="1" fill="none" fill-rule="evenodd">
        <mask id="mask-2" fill="white">
            <use xlink:href="#path-1"></use>
        </mask>
        <use id="Combined-Shape" fill="#000000" fill-rule="nonzero" xlink:href="#path-1"></use>
    </g>
</svg>