<?xml version="1.0" encoding="UTF-8"?>
<svg width="22px" height="22px" viewBox="0 0 22 22" version="1.1" xmlns="http://www.w3.org/2000/svg" xmlns:xlink="http://www.w3.org/1999/xlink">
    <!-- Generator: Sketch 57.1 (83088) - https://sketch.com -->
    <title>Ic/22/Stencil/Thumbup/Black@2x</title>
    <desc>Created with Sketch.</desc>
    <g id="Ic/22/Stencil/Thumbup/Black" stroke="none" stroke-width="1" fill="none" fill-rule="evenodd">
        <path d="M3,9 L8,9 L8,19 L3,19 L3,9 Z M4,10 L4,18 L7,18 L7,10 L4,10 Z" id="Rectangle" fill="#000000" fill-rule="nonzero"></path>
        <path d="M9.24083754,3.24756841 C9.31253127,3.26111508 9.3825271,3.28246741 9.44957491,3.31124405 L10.4220586,3.72862999 C11.6596056,4.25977999 12.3622038,5.57919689 12.1121637,6.90249686 L11.7150923,9.00393761 L18.0246923,9.00393761 C18.5769771,9.00393761 19.0246923,9.45165286 19.0246923,10.0039376 C19.0246923,10.0654772 19.0190117,10.1268855 19.0077227,10.1873808 L17.6672212,17.3708239 C17.4905511,18.317559 16.6642388,19.0039376 15.7011606,19.0039376 L11.5,19.003 L11.5,18.003 L15.7011606,18.0039376 C16.1826997,18.0039376 16.5958559,17.6607483 16.6841909,17.1873808 L18.0246923,10.0039376 L10.5084455,10.0039376 L11.1295509,6.71683025 C11.2925693,5.85407957 10.834497,4.99386053 10.0276546,4.64756714 L9.05517092,4.23018121 L8,9.81451552 L8,18.0039376 L10.5,18.003 L10.5,19.003 L7,19.0039376 L7,9.00393761 L7.13546542,9.00393761 L8.07255813,4.04451459 C8.17509897,3.50183253 8.69815548,3.14502757 9.24083754,3.24756841 Z" id="Combined-Shape" fill="#000000" fill-rule="nonzero"></path>
    </g>
</svg>