<svg width="22px" height="22px" viewBox="0 0 22 22" version="1.1" xmlns="http://www.w3.org/2000/svg" xmlns:xlink="http://www.w3.org/1999/xlink" class="@@class">
	<title>@@title</title>
	<g stroke="none" stroke-width="1" fill="none" fill-rule="evenodd">
		<path d="M11,3 C15.418278,3 19,6.581722 19,11 C19,15.418278 15.418278,19 11,19 C6.581722,19 3,15.418278 3,11 C3,6.581722 6.581722,3 11,3 Z M11,4 C7.13400675,4 4,7.13400675 4,11 C4,14.8659932 7.13400675,18 11,18 C14.8659932,18 18,14.8659932 18,11 C18,7.13400675 14.8659932,4 11,4 Z M11.5,14.6 L11.5,15.6 L10.5,15.6 L10.5,14.6 L11.5,14.6 Z M11,6.3 C12.6567494,6.3 14,7.64199184 14,9.29765718 C14,10.721187 13.0070096,11.9128354 11.6755362,12.2190062 L11.5,12.2538661 L11.5,13.8 L10.5,13.8 L10.5,11.2953144 L11,11.2953144 C12.1046744,11.2953144 13,10.4008278 13,9.29765718 C13,8.19448658 12.1046744,7.3 11,7.3 C9.94553809,7.3 9.08182578,8.11501773 9.00548512,9.14858272 L9,9.29765718 L8,9.29765718 C8,7.64199184 9.34325064,6.3 11,6.3 Z" class="svg-color"></path>
	</g>
</svg>