<svg width="22px" height="22px" viewBox="0 0 22 22" version="1.1" xmlns="http://www.w3.org/2000/svg" xmlns:xlink="http://www.w3.org/1999/xlink" class="@@class">
  <title>@@title</title>
  <path fill="#FFF" fill-rule="evenodd" d="M14.357 3.343c1.468 0 2.657 1.19 2.657 2.657H19v4h-1v3.5h-1V10h-5.5v8H17v-3.5h1V19H4v-4.5h1V18h5.5v-8H5v3.5H4V10H3V6h2c0-1.467 1.19-2.657 2.657-2.657.704 0 1.38.28 1.879.778l1.471 1.471 1.472-1.47c.498-.499 1.174-.779 1.878-.779zM10.5 7H4v2h6.5V7zM18 7h-6.5v2H18V7zM7.657 4.343C6.742 4.343 6 5.085 6 6h4L8.828 4.828c-.31-.31-.732-.485-1.171-.485zm6.7 0c-.44 0-.86.175-1.171.485L12.014 6h4c0-.915-.742-1.657-1.657-1.657z"/>
</svg>