<?xml version="1.0" encoding="UTF-8"?>
<svg width="22px" height="22px" viewBox="0 0 22 22" version="1.1" xmlns="http://www.w3.org/2000/svg" xmlns:xlink="http://www.w3.org/1999/xlink">
    <!-- Generator: Sketch 57.1 (83088) - https://sketch.com -->
    <title>Ic/22/Line/Sound/Black@2x</title>
    <desc>Created with Sketch.</desc>
    <defs>
        <path d="M19,3 L19,14.1 L18.997,14.1 L18.9948211,14.1920352 C18.8951264,16.0357224 17.3685634,17.5 15.5,17.5 C13.5670034,17.5 12,15.9329966 12,14 C12,12.0670034 13.5670034,10.5 15.5,10.5 C16.4799843,10.5 17.3658991,10.9027597 18.0012456,11.5517804 L18,4 L10,4 L10,15.6 L9.997,15.599 L9.99482114,15.6920352 C9.89512645,17.5357224 8.3685634,19 6.5,19 C4.56700338,19 3,17.4329966 3,15.5 C3,13.5670034 4.56700338,12 6.5,12 C7.47998434,12 8.3658991,12.4027597 9.00124558,13.0517804 L9,3 L19,3 Z M6.5,13 C5.11928813,13 4,14.1192881 4,15.5 C4,16.8807119 5.11928813,18 6.5,18 C7.88071187,18 9,16.8807119 9,15.5 C9,14.1192881 7.88071187,13 6.5,13 Z M15.5,11.5 C14.1192881,11.5 13,12.6192881 13,14 C13,15.3807119 14.1192881,16.5 15.5,16.5 C16.8807119,16.5 18,15.3807119 18,14 C18,12.6192881 16.8807119,11.5 15.5,11.5 Z" id="path-1"></path>
    </defs>
    <g id="Ic/22/Line/Sound/Black" stroke="none" stroke-width="1" fill="none" fill-rule="evenodd">
        <mask id="mask-2" fill="white">
            <use xlink:href="#path-1"></use>
        </mask>
        <use id="Mask" fill="#000000" fill-rule="nonzero" xlink:href="#path-1"></use>
    </g>
</svg>