<?xml version="1.0" encoding="UTF-8"?>
<svg width="22px" height="22px" viewBox="0 0 22 22" version="1.1" xmlns="http://www.w3.org/2000/svg" xmlns:xlink="http://www.w3.org/1999/xlink">
    <!-- Generator: Sketch 57.1 (83088) - https://sketch.com -->
    <title>Ic/22/Stencil/Video/Black@2x</title>
    <desc>Created with Sketch.</desc>
    <defs>
        <path d="M11,3 C15.418278,3 19,6.581722 19,11 C19,15.418278 15.418278,19 11,19 C6.74981051,19 3.2737361,15.6856194 3.01540073,11.500482 L4.01760973,11.5003924 C4.27417336,15.1328443 7.30225663,18 11,18 C14.8659932,18 18,14.8659932 18,11 C18,7.13400675 14.8659932,4 11,4 C7.30191536,4 4.27361442,6.86768497 4.01753877,10.5006133 L3.01533875,10.5005231 C3.27317954,6.31491134 6.74947025,3 11,3 Z M9.5,7 L14.5,11 L9.5,15 L9.5,7 Z M10.5,9.08062485 L10.5,12.9193752 L12.8992189,11 L10.5,9.08062485 Z" id="path-1"></path>
    </defs>
    <g id="Ic/22/Stencil/Video/Black" stroke="none" stroke-width="1" fill="none" fill-rule="evenodd">
        <mask id="mask-2" fill="white">
            <use xlink:href="#path-1"></use>
        </mask>
        <use id="Mask" fill="#000000" fill-rule="nonzero" xlink:href="#path-1"></use>
    </g>
</svg>