<?xml version="1.0" encoding="UTF-8"?>
<svg width="22px" height="22px" viewBox="0 0 22 22" version="1.1" xmlns="http://www.w3.org/2000/svg" xmlns:xlink="http://www.w3.org/1999/xlink">
    <!-- Generator: Sketch 57.1 (83088) - https://sketch.com -->
    <title>Ic/22/Line/Filter/Black@2x</title>
    <desc>Created with Sketch.</desc>
    <defs>
        <path d="M14.5,13.5 C15.7096818,13.5 16.7186941,14.3591679 16.9501074,15.500574 L19,15.5 L19,16.5 L16.9499027,16.5004345 C16.7180997,17.6413382 15.7093254,18.5 14.5,18.5 C13.2906746,18.5 12.2819003,17.6413382 12.0500973,16.5004345 L3,16.5 L3,15.5 L12.0498926,15.500574 C12.2813059,14.3591679 13.2903182,13.5 14.5,13.5 Z M14.5,14.5 C13.6715729,14.5 13,15.1715729 13,16 C13,16.8284271 13.6715729,17.5 14.5,17.5 C15.3284271,17.5 16,16.8284271 16,16 C16,15.1715729 15.3284271,14.5 14.5,14.5 Z M7.5,8.5 C8.70968176,8.5 9.7186941,9.35916789 9.9501074,10.500574 L19,10.5 L19,11.5 L9.94990271,11.5004345 C9.71809967,12.6413382 8.70932545,13.5 7.5,13.5 C6.29067455,13.5 5.28190033,12.6413382 5.05009729,11.5004345 L3,11.5 L3,10.5 L5.0498926,10.500574 C5.2813059,9.35916789 6.29031824,8.5 7.5,8.5 Z M7.5,9.5 C6.67157288,9.5 6,10.1715729 6,11 C6,11.8284271 6.67157288,12.5 7.5,12.5 C8.32842712,12.5 9,11.8284271 9,11 C9,10.1715729 8.32842712,9.5 7.5,9.5 Z M14.5,3.5 C15.7096818,3.5 16.7186941,4.35916789 16.9501074,5.50057405 L19,5.5 L19,6.5 L16.9499027,6.50043449 C16.7180997,7.64133817 15.7093254,8.5 14.5,8.5 C13.2906746,8.5 12.2819003,7.64133817 12.0500973,6.50043449 L3,6.5 L3,5.5 L12.0498926,5.50057405 C12.2813059,4.35916789 13.2903182,3.5 14.5,3.5 Z M14.5,4.5 C13.6715729,4.5 13,5.17157288 13,6 C13,6.82842712 13.6715729,7.5 14.5,7.5 C15.3284271,7.5 16,6.82842712 16,6 C16,5.17157288 15.3284271,4.5 14.5,4.5 Z" id="path-1"></path>
    </defs>
    <g id="Ic/22/Line/Filter/Black" stroke="none" stroke-width="1" fill="none" fill-rule="evenodd">
        <mask id="mask-2" fill="white">
            <use xlink:href="#path-1"></use>
        </mask>
        <use id="Mask" fill="#000000" fill-rule="nonzero" xlink:href="#path-1"></use>
    </g>
</svg>