<svg width="22px" height="22px" viewBox="0 0 22 22" version="1.1" xmlns="http://www.w3.org/2000/svg" xmlns:xlink="http://www.w3.org/1999/xlink" class="@@class">
    <title>@@title</title>
    <g class="svg-color">
        <path d="M5,15.5 L5,16.5 L3,16.5 L3,15.5 L5,15.5 Z M19,15.5 L19,16.5 L6,16.5 L6,15.5 L19,15.5 Z M5,10.5 L5,11.5 L3,11.5 L3,10.5 L5,10.5 Z M19,10.5 L19,11.5 L6,11.5 L6,10.5 L19,10.5 Z M5,5.5 L5,6.5 L3,6.5 L3,5.5 L5,5.5 Z M19,5.5 L19,6.5 L6,6.5 L6,5.5 L19,5.5 Z"></path>
    </g>
</svg>