<?xml version="1.0" encoding="UTF-8"?>
<svg width="22px" height="22px" viewBox="0 0 22 22" version="1.1" xmlns="http://www.w3.org/2000/svg" xmlns:xlink="http://www.w3.org/1999/xlink">
    <!-- Generator: Sketch 57.1 (83088) - https://sketch.com -->
    <title>Ic/22/Stencil/Link/Black@2x</title>
    <desc>Created with Sketch.</desc>
    <defs>
        <path d="M12.8689508,9.13104918 C13.4024268,9.66452511 13.7471864,10.3152543 13.9032297,11.0002805 L12.8679503,11.0004288 C12.7341945,10.5752535 12.4988257,10.1751376 12.161844,9.83815596 C11.0443028,8.72061468 9.23241035,8.72061468 8.11486908,9.83815596 L4.83815596,13.1148691 C3.72061468,14.2324104 3.72061468,16.0443028 4.83815596,17.161844 C5.95569724,18.2793853 7.76758965,18.2793853 8.88513092,17.161844 L11.046,15 L12.46,15 L9.59223771,17.8689508 C8.08417214,19.3770164 5.63911475,19.3770164 4.13104918,17.8689508 C2.62298361,16.3608853 2.62298361,13.9158279 4.13104918,12.4077623 L7.40776229,9.13104918 C8.91582786,7.62298361 11.3608853,7.62298361 12.8689508,9.13104918 Z M17.8689508,4.13104918 C19.3770164,5.63911475 19.3770164,8.08417214 17.8689508,9.59223771 L14.5922377,12.8689508 C13.0841721,14.3770164 10.6391147,14.3770164 9.13104918,12.8689508 C8.59783196,12.3357336 8.25314806,11.6853768 8.09699747,11.0007161 L9.13236489,11.0005724 C9.2661751,11.4253746 9.50143879,11.8251269 9.83815596,12.161844 C10.9556972,13.2793853 12.7675896,13.2793853 13.8851309,12.161844 L17.161844,8.88513092 C18.2793853,7.76758965 18.2793853,5.95569724 17.161844,4.83815596 C16.0443028,3.72061468 14.2324104,3.72061468 13.1148691,4.83815596 L10.9518342,7 L9.53783421,7 L12.4077623,4.13104918 C13.9158279,2.62298361 16.3608853,2.62298361 17.8689508,4.13104918 Z" id="path-1"></path>
    </defs>
    <g id="Ic/22/Stencil/Link/Black" stroke="none" stroke-width="1" fill="none" fill-rule="evenodd">
        <mask id="mask-2" fill="white">
            <use xlink:href="#path-1"></use>
        </mask>
        <use id="Mask" fill="#000000" fill-rule="nonzero" xlink:href="#path-1"></use>
    </g>
</svg>