<?xml version="1.0" encoding="UTF-8"?>
<svg width="22px" height="22px" viewBox="0 0 22 22" version="1.1" xmlns="http://www.w3.org/2000/svg" xmlns:xlink="http://www.w3.org/1999/xlink">
    <!-- Generator: Sketch 59.1 (86144) - https://sketch.com -->
    <title>Ic/22/Stencil/Show/Black</title>
    <desc>Created with Sketch.</desc>
    <g id="Ic/22/Stencil/Show/Black" stroke="none" stroke-width="1" fill="none" fill-rule="evenodd">
        <path d="M10.9998328,4.50172843 C15.6167163,4.50172843 19.544428,7.21491476 21.0000244,11.0018573 C19.5437389,14.7890181 15.6163113,17.5017284 10.9998328,17.5017284 C6.38335441,17.5017284 2.45592678,14.7890181 1.0000244,11.0025961 C2.45523771,7.21491476 6.38294942,4.50172843 10.9998328,4.50172843 Z M10.9998328,5.50172843 C7.02040176,5.50172843 3.51934825,7.72621984 2.08109094,11.0024505 C3.52001041,14.2777976 7.02095682,16.5017284 10.9998328,16.5017284 C14.874087,16.5017284 18.2950917,14.393244 19.8010398,11.2582078 L19.9189183,11.0017875 L19.8010813,10.7453815 C18.2956227,7.6105094 14.8743324,5.50172843 10.9998328,5.50172843 Z M10.9999619,7 C13.2100554,7 15.0016903,8.79163485 15.0016903,11.0017284 C15.0016903,13.211822 13.2100554,15.0034569 10.9999619,15.0034569 C8.95884512,15.0034569 7.2746452,13.4753143 7.02903953,11.5007068 L8.03949955,11.5006018 C8.27709256,12.9209719 9.51211326,14.0034569 10.9999619,14.0034569 C12.6577707,14.0034569 14.0016903,12.6595373 14.0016903,11.0017284 C14.0016903,9.3439196 12.6577707,8 10.9999619,8 C9.51315809,8 8.27882727,9.08096514 8.04000157,10.4998632 L7.02941257,10.4997601 C7.27634564,8.52660011 8.95987547,7 10.9999619,7 Z" id="Combined-Shape" fill="#000000" fill-rule="nonzero"></path>
    </g>
</svg>