<?xml version="1.0" encoding="UTF-8"?>
<svg width="22px" height="22px" viewBox="0 0 22 22" version="1.1" xmlns="http://www.w3.org/2000/svg" xmlns:xlink="http://www.w3.org/1999/xlink">
    <!-- Generator: Sketch 57.1 (83088) - https://sketch.com -->
    <title>Ic/22/Line/Thumbdown/Black@2x</title>
    <desc>Created with Sketch.</desc>
    <g id="Ic/22/Line/Thumbdown/Black" stroke="none" stroke-width="1" fill="none" fill-rule="evenodd">
        <path d="M3,13 L3,3 L8,3 L15.7011606,3 C16.6642388,3 17.4905511,3.68637857 17.6672212,4.63311367 L17.6672212,4.63311367 L19.0077227,11.8165568 C19.0190117,11.8770521 19.0246923,11.9384604 19.0246923,12 C19.0246923,12.5522847 18.5769771,13 18.0246923,13 L18.0246923,13 L11.7150923,13 L12.1121637,15.1014407 C12.3622038,16.4247407 11.6596056,17.7441576 10.4220586,18.2753076 L10.4220586,18.2753076 L9.44957491,18.6926936 C9.3825271,18.7214702 9.31253127,18.7428225 9.24083754,18.7563692 C8.69815548,18.85891 8.17509897,18.5021051 8.07255813,17.959423 L8.07255813,17.959423 L7.13546542,13 L7,13 L3,13 Z M15.7011606,4 L8,4 L8,12.194 L9.05517092,17.7737564 L10.0276546,17.3563705 C10.834497,17.0100771 11.2925693,16.149858 11.1295509,15.2871074 L11.1295509,15.2871074 L10.5084455,12 L18.0246923,12 L16.6841909,4.81655684 C16.5958559,4.34318929 16.1826997,4 15.7011606,4 L15.7011606,4 Z M7,4 L4,4 L4,12 L7,12 L7,4 Z" id="Combined-Shape" fill="#000000" fill-rule="nonzero"></path>
    </g>
</svg>