<?xml version="1.0" encoding="UTF-8"?>
<svg width="22px" height="22px" viewBox="0 0 22 22" version="1.1" xmlns="http://www.w3.org/2000/svg" xmlns:xlink="http://www.w3.org/1999/xlink">
    <!-- Generator: Sketch 57.1 (83088) - https://sketch.com -->
    <title>Ic/22/Line/Direction/Black@2x</title>
    <desc>Created with Sketch.</desc>
    <defs>
        <path d="M11,2.51471863 L11.4847186,2.99971863 L11.5,3 L11.4997186,3.01471863 L13.7527186,5.26771863 L13.0457186,5.97471863 L11.4997186,4.42871863 L11.4997186,10.4997186 L17.5707186,10.4997186 L15.8737186,8.80271863 L16.5807186,8.09571863 L18.9847186,10.4997186 L19,10.5 L18.9997186,10.5147186 L19.4852814,11 L18.9997186,11.4847186 L19,11.5 L18.9847186,11.4997186 L16.6567186,13.8287186 L15.9497186,13.1217186 L17.5707186,11.4997186 L11.4997186,11.4997186 L11.4997186,17.5707186 L13.1217186,15.9497186 L13.8287186,16.6567186 L11.4997186,18.9847186 L11.5,19 L11.4847186,18.9997186 L11,19.4852814 L10.5147186,18.9997186 L10.5,19 L10.4997186,18.9847186 L8.09571863,16.5807186 L8.80271863,15.8737186 L10.4997186,17.5707186 L10.4997186,11.4997186 L4.42871863,11.4997186 L5.97471863,13.0457186 L5.26771863,13.7527186 L3.01471863,11.4997186 L3,11.5 L2.99971863,11.4847186 L2.51471863,11 L2.99971863,10.5147186 L3,10.5 L3.01471863,10.4997186 L5.34371863,8.17171863 L6.05071863,8.87871863 L4.42871863,10.4997186 L10.4997186,10.4997186 L10.4997186,4.42871863 L8.87871863,6.05071863 L8.17171863,5.34371863 L10.4997186,3.01471863 L10.5,3 L10.5147186,2.99971863 L11,2.51471863 Z" id="path-1"></path>
    </defs>
    <g id="Ic/22/Line/Direction/Black" stroke="none" stroke-width="1" fill="none" fill-rule="evenodd">
        <mask id="mask-2" fill="white">
            <use xlink:href="#path-1"></use>
        </mask>
        <use id="Mask" fill="#000000" fill-rule="nonzero" xlink:href="#path-1"></use>
    </g>
</svg>