<?xml version="1.0" encoding="UTF-8"?>
<svg width="22px" height="22px" viewBox="0 0 22 22" version="1.1" xmlns="http://www.w3.org/2000/svg" xmlns:xlink="http://www.w3.org/1999/xlink">
    <!-- Generator: Sketch 57.1 (83088) - https://sketch.com -->
    <title>Ic/22/Line/User/Black@2x</title>
    <desc>Created with Sketch.</desc>
    <g id="Ic/22/Line/User/Black" stroke="none" stroke-width="1" fill="none" fill-rule="evenodd">
        <path d="M11,11 C14.8659932,11 18,14.2561109 18,18.2727273 L18,18.2727273 L18,19 L4,19 L4,18.2727273 C4,14.2561109 7.13400675,11 11,11 Z M11,12 C7.78199789,12 5.14226727,14.6545927 5.0055612,18 L5.0055612,18 L16.9944388,18 C16.8577327,14.6545927 14.2180021,12 11,12 Z M11,3 C13.0710678,3 14.75,4.67893219 14.75,6.75 C14.75,8.82106781 13.0710678,10.5 11,10.5 C8.92893219,10.5 7.25,8.82106781 7.25,6.75 C7.25,4.67893219 8.92893219,3 11,3 Z M11,4 C9.48121694,4 8.25,5.23121694 8.25,6.75 C8.25,8.26878306 9.48121694,9.5 11,9.5 C12.5187831,9.5 13.75,8.26878306 13.75,6.75 C13.75,5.23121694 12.5187831,4 11,4 Z" id="Combined-Shape" fill="#000000" fill-rule="nonzero"></path>
    </g>
</svg>