<?xml version="1.0" encoding="UTF-8"?>
<svg width="22px" height="22px" viewBox="0 0 22 22" version="1.1" xmlns="http://www.w3.org/2000/svg" xmlns:xlink="http://www.w3.org/1999/xlink">
    <!-- Generator: Sketch 57.1 (83088) - https://sketch.com -->
    <title>Ic/22/Stencil/Direction/Black@2x</title>
    <desc>Created with Sketch.</desc>
    <g id="Ic/22/Stencil/Direction/Black" stroke="none" stroke-width="1" fill="none" fill-rule="evenodd">
        <path d="M9.288,16.359 L11.4852814,18.5563492 L13.607,16.435 L14.314,17.142 L11.4852814,19.9705627 L8.581,17.066 L9.288,16.359 Z M11.9852814,17.0977235 L11.5052814,17.5977235 L10.9852814,17.0977235 L10.985,11.985 L5.98528137,11.9852814 L5.48528137,11.5052814 L5.98528137,10.9852814 L10.985,10.985 L10.985,4.914 L9.364,6.536 L8.657,5.829 L10.985,3.5 L10.9852814,3.48528137 L11,3.485 L11.4852814,3 L11.97,3.485 L11.9852814,3.48528137 L11.985,3.5 L14.238,5.753 L13.531,6.46 L11.985,4.914 L11.985,10.985 L18.056,10.985 L16.359,9.288 L17.066,8.581 L19.9705627,11.4852814 L17.142,14.314 L16.435,13.607 L18.056,11.985 L11.985,11.985 L11.9852814,17.0977235 Z M5.829,8.657 L6.536,9.364 L4.41421356,11.4852814 L6.46,13.531 L5.753,14.238 L3,11.4852814 L5.829,8.657 Z" id="Combined-Shape" fill="#000000" fill-rule="nonzero"></path>
    </g>
</svg>