<?xml version="1.0" encoding="UTF-8"?>
<svg width="22px" height="22px" viewBox="0 0 22 22" version="1.1" xmlns="http://www.w3.org/2000/svg" xmlns:xlink="http://www.w3.org/1999/xlink">
    <!-- Generator: Sketch 57.1 (83088) - https://sketch.com -->
    <title>Ic/22/Line/Smile/Black@2x</title>
    <desc>Created with Sketch.</desc>
    <defs>
        <path d="M11,3 C15.418278,3 19,6.581722 19,11 C19,15.418278 15.418278,19 11,19 C6.581722,19 3,15.418278 3,11 C3,6.581722 6.581722,3 11,3 Z M11,4 C7.13400675,4 4,7.13400675 4,11 C4,14.8659932 7.13400675,18 11,18 C14.8659932,18 18,14.8659932 18,11 C18,7.13400675 14.8659932,4 11,4 Z M8,11.5 C8,13.1568542 9.34314575,14.5 11,14.5 C12.6568542,14.5 14,13.1568542 14,11.5 L14,11.5 L15,11.5 C15,13.709139 13.209139,15.5 11,15.5 C8.790861,15.5 7,13.709139 7,11.5 L7,11.5 Z M8.5,8 L8.5,10 L7.5,10 L7.5,8 L8.5,8 Z M14.5,8 L14.5,10 L13.5,10 L13.5,8 L14.5,8 Z" id="path-1"></path>
    </defs>
    <g id="Ic/22/Line/Smile/Black" stroke="none" stroke-width="1" fill="none" fill-rule="evenodd">
        <mask id="mask-2" fill="white">
            <use xlink:href="#path-1"></use>
        </mask>
        <use id="Mask" fill="#000000" fill-rule="nonzero" xlink:href="#path-1"></use>
    </g>
</svg>