<?xml version="1.0" encoding="UTF-8"?>
<svg width="30px" height="30px" viewBox="0 0 30 30" version="1.1" xmlns="http://www.w3.org/2000/svg" xmlns:xlink="http://www.w3.org/1999/xlink">
    <!-- Generator: Sketch 57.1 (83088) - https://sketch.com -->
    <title>Ic/30/Bold/Arrow/Circletop/Black@2x</title>
    <desc>Created with Sketch.</desc>
    <g id="Ic/30/Bold/Arrow/Circletop/Black" stroke="none" stroke-width="1" fill="none" fill-rule="evenodd">
        <path d="M15,4 C21.0751322,4 26,8.92486775 26,15 C26,21.0751322 21.0751322,26 15,26 C8.92486775,26 4,21.0751322 4,15 C4,8.92486775 8.92486775,4 15,4 Z M15,6 C10.0294373,6 6,10.0294373 6,15 C6,19.9705627 10.0294373,24 15,24 C19.9705627,24 24,19.9705627 24,15 C24,10.0294373 19.9705627,6 15,6 Z" id="Combined-Shape" fill="#000000" fill-rule="nonzero"></path>
        <polygon id="Fill-1" fill="#000000" points="9.34 16.657 10.754 18.071 14.996 13.828 19.239 18.071 20.653 16.657 14.996 11"></polygon>
    </g>
</svg>