<?xml version="1.0" encoding="UTF-8"?>
<svg width="30px" height="30px" viewBox="0 0 30 30" version="1.1" xmlns="http://www.w3.org/2000/svg" xmlns:xlink="http://www.w3.org/1999/xlink">
    <!-- Generator: Sketch 63.1 (92452) - https://sketch.com -->
    <title>Ic/30/Solid/Show</title>
    <desc>Created with Sketch.</desc>
    <g id="Ic/30/Solid/Show" stroke="none" stroke-width="1" fill="none" fill-rule="evenodd">
        <path d="M15,6 C21.0016777,6 26.1075138,9.75637329 28,14.9994535 C26.1081657,20.2431471 21.0020608,24 15,24 C8.99832232,24 3.89248616,20.2436267 2,15.0005465 C3.89183433,9.75685286 8.99793922,6 15,6 Z M15,9 C11.6862915,9 9,11.6862915 9,15 C9,18.3137085 11.6862915,21 15,21 C18.3137085,21 21,18.3137085 21,15 C21,11.6862915 18.3137085,9 15,9 Z M15,10 C17.7614237,10 20,12.2385763 20,15 C20,17.7614237 17.7614237,20 15,20 C12.2385763,20 10,17.7614237 10,15 C10,12.2385763 12.2385763,10 15,10 Z" id="Combined-Shape" fill="#000000"></path>
    </g>
</svg>