<?xml version="1.0" encoding="UTF-8"?>
<svg width="30px" height="30px" viewBox="0 0 30 30" version="1.1" xmlns="http://www.w3.org/2000/svg" xmlns:xlink="http://www.w3.org/1999/xlink">
    <title>Ic/30/Line/Calendar</title>
    <g id="Ic/30/Line/Calendar" stroke="none" stroke-width="1" fill="none" fill-rule="evenodd">
        <path d="M26,26 L4,26 L4,5 L9,5 L9,3 L10,3 L10,5 L20,5 L20,3 L21,3 L21,5 L26,5 L26,26 Z M25,12 L5,12 L5,25 L25,25 L25,12 Z M9,6 L5,6 L5,11 L25,11 L25,6 L21,6 L21,8 L20,8 L20,6 L10,6 L10,8 L9,8 L9,6 Z" id="Combined-Shape" fill="#000000"></path>
    </g>
</svg>