<?xml version="1.0" encoding="UTF-8"?>
<svg width="30px" height="30px" viewBox="0 0 30 30" version="1.1" xmlns="http://www.w3.org/2000/svg" xmlns:xlink="http://www.w3.org/1999/xlink">
    <!-- Generator: Sketch 57.1 (83088) - https://sketch.com -->
    <title>Ic/30/Line/Coupon/Black@2x</title>
    <desc>Created with Sketch.</desc>
    <g id="Ic/30/Line/Coupon/Black" stroke="none" stroke-width="1" fill="none" fill-rule="evenodd">
        <path d="M27,23.5 L3,23.5 L3,16.4146471 C3.15638946,16.4699229 3.32468229,16.5 3.5,16.5 C4.32842712,16.5 5,15.8284271 5,15 C5,14.1715729 4.32842712,13.5 3.5,13.5 C3.32468229,13.5 3.15638946,13.5300771 3,13.5853529 L3,6.5 L27,6.5 L27,13.5853529 C26.8436105,13.5300771 26.6753177,13.5 26.5,13.5 C25.6715729,13.5 25,14.1715729 25,15 C25,15.8284271 25.6715729,16.5 26.5,16.5 C26.6753177,16.5 26.8436105,16.4699229 27,16.4146471 L27,23.5 Z M24,15 C24,13.790521 24.8588798,12.7816442 26,12.5500091 L26,7.5 L4,7.5 L4,12.5500091 C5.14112016,12.7816442 6,13.790521 6,15 C6,16.209479 5.14112016,17.2183558 4,17.4499909 L4,22.5 L26,22.5 L26,17.4499909 C24.8588798,17.2183558 24,16.209479 24,15 Z" id="Combined-Shape" fill="#000000" fill-rule="nonzero"></path>
        <path d="M21,20.75 L21,23.5 L20,23.5 L20,20.75 L21,20.75 Z M21,17.25 L21,19.75 L20,19.75 L20,17.25 L21,17.25 Z M21,13.75 L21,16.25 L20,16.25 L20,13.75 L21,13.75 Z M21,10.25 L21,12.75 L20,12.75 L20,10.25 L21,10.25 Z M21,6.5 L21,9.25 L20,9.25 L20,6.5 L21,6.5 Z" id="Combined-Shape" fill="#000000" fill-rule="nonzero"></path>
        <path d="M13.760479,18.3932335 C11.9305389,18.3932335 10.8,17.3201796 10.8,15.107006 L10.8,14.867485 C10.8,12.501018 12.1796407,11.61 13.8850299,11.61 C14.6131737,11.61 15.1305389,11.7345509 15.5329341,11.9549102 L15.5329341,12.8746707 C15.0251497,12.6734731 14.5748503,12.5680838 13.9712575,12.5680838 C12.8311377,12.5680838 12.0742515,13.1812575 12.0742515,14.7429341 L12.0742515,15.0782635 C12.0742515,16.5824551 12.6011976,17.4351497 13.9808383,17.4351497 C14.7281437,17.4351497 15.2071856,17.2435329 15.6,17.0806587 L15.6,17.9908383 C15.1497006,18.2303593 14.5461078,18.3932335 13.760479,18.3932335 Z" id="C" fill="#000000" fill-rule="nonzero"></path>
    </g>
</svg>