<?xml version="1.0" encoding="UTF-8"?>
<svg width="30px" height="30px" viewBox="0 0 30 30" version="1.1" xmlns="http://www.w3.org/2000/svg" xmlns:xlink="http://www.w3.org/1999/xlink">
    <!-- Generator: Sketch 57.1 (83088) - https://sketch.com -->
    <title>Ic/30/Bold/Refresh/Black@2x</title>
    <desc>Created with Sketch.</desc>
    <g id="Ic/30/Bold/Refresh/Black" stroke="none" stroke-width="1" fill="none" fill-rule="evenodd">
        <path d="M19.5,13 L19.5,11 L21.9297361,10.999989 C20.5464969,8.6087896 17.9611249,7 15,7 C10.581722,7 7,10.581722 7,15 C7,19.418278 10.581722,23 15,23 C19.3349143,23 22.8645429,19.5521622 22.9961932,15.2491793 L23,15 L25,15 C25,20.5228475 20.5228475,25 15,25 C9.4771525,25 5,20.5228475 5,15 C5,9.4771525 9.4771525,5 15,5 C18.5894811,5 21.737247,6.89120723 23.501225,9.73154886 L23.5,7 L25.5,7 L25.5,13 L22.7481308,13.000644 L19.5,13 Z" id="Combined-Shape" fill="#000000" fill-rule="nonzero"></path>
    </g>
</svg>