<svg width="30px" height="30px" viewBox="0 0 30 30" version="1.1" xmlns="http://www.w3.org/2000/svg" xmlns:xlink="http://www.w3.org/1999/xlink" class="@@class">
    <title>@@title</title>
    <g stroke="none" stroke-width="1" fill="none" fill-rule="evenodd">
        <path d="M15.5,3 L15.5004728,6.51448923 C17.471358,6.62892328 19.2620409,7.41486886 20.6471157,8.64692017 L23.131728,6.16116524 L23.8388348,6.86827202 L21.3530798,9.35288433 C22.585339,10.7381928 23.3713419,12.5292463 23.4855686,14.5005248 L27,14.5 L27,15.5 L23.4855108,15.5004728 C23.3710767,17.471358 22.5851311,19.2620409 21.3530798,20.6471157 L23.8388348,23.131728 L23.131728,23.8388348 L20.6471157,21.3530798 C19.2620409,22.5851311 17.471358,23.3710767 15.5004728,23.4855108 L15.5,27 L14.5,27 L14.5004142,22.483625 C14.6655404,22.4944846 14.8321261,22.5 15,22.5 C19.1216632,22.5 22.4667885,19.1752459 22.4997542,15.0613594 L22.499,14.939 L22.4961464,14.7572689 C22.3680175,10.7274744 19.0609173,7.5 15,7.5 C11.3714197,7.5 8.34469335,10.0768433 7.64994476,13.500406 L6.63190411,13.5001631 C6.91224985,11.9254567 7.62620347,10.5007911 8.6458999,9.35403152 L6.16116524,6.86827202 L6.86827202,6.16116524 L9.35290949,8.64689779 C10.7380743,7.41477622 12.5288956,6.62881654 14.4999261,6.51446607 L14.5,3 L15.5,3 Z M7.51637502,14.5004142 C7.50551545,14.6655404 7.5,14.8321261 7.5,15 C7.5,18.6285803 10.0768433,21.6553066 13.500406,22.3500552 L13.5001631,23.3680959 C11.9254567,23.0877502 10.5007911,22.3737965 9.35403152,21.3541001 L6.86827202,23.8388348 L6.16116524,23.131728 L8.64689779,20.6470905 C7.41498392,19.2621592 6.62908153,17.4717082 6.51452396,15.5010706 L3,15.5 L3,14.5 L7.51637502,14.5004142 Z" fill="#000000"></path>
    </g>
</svg>