<svg width="30px" height="30px" viewBox="0 0 30 30" version="1.1" xmlns="http://www.w3.org/2000/svg" xmlns:xlink="http://www.w3.org/1999/xlink" class="@@class">
    <title>@@title</title>
    <g stroke="none" stroke-width="1" fill="none" fill-rule="evenodd">
      <path class="svg-color" d="M22,4 C24.209139,4 26,5.790861 26,8 L26,22 C26,24.209139 24.209139,26 22,26 L8,26 C5.790861,26 4,24.209139 4,22 L4,15.5 L5,15.5 L5,22 C5,23.5976809 6.24891996,24.9036609 7.82372721,24.9949073 L8,25 L22,25 C23.5976809,25 24.9036609,23.75108 24.9949073,22.1762728 L25,22 L25,8 C25,6.40231912 23.75108,5.09633912 22.1762728,5.00509269 L22,5 L8,5 C6.40231912,5 5.09633912,6.24891996 5.00509269,7.82372721 L5,8 L5,14.5 L4,14.5 L4,8 C4,5.790861 5.790861,4 8,4 L22,4 Z M11.2665317,9.8 L14.9925776,15.8418354 L18.7334683,9.8 L20.5,9.8 L20.5,20.191363 L19.0155196,20.191363 L19.0155196,11.997031 L15.6754386,17.385695 L14.3097166,17.385695 L10.9844804,11.997031 L10.9844804,20.191363 L9.5,20.191363 L9.5,9.8 L11.2665317,9.8 Z"  fill="#000000"></path>
    </g>
</svg>