<?xml version="1.0" encoding="UTF-8"?>
<svg width="30px" height="30px" viewBox="0 0 30 30" version="1.1" xmlns="http://www.w3.org/2000/svg" xmlns:xlink="http://www.w3.org/1999/xlink">
    <!-- Generator: Sketch 57.1 (83088) - https://sketch.com -->
    <title>Ic/30/Bold/Gridview/Black@2x</title>
    <desc>Created with Sketch.</desc>
    <g id="Ic/30/Bold/Gridview/Black" stroke="none" stroke-width="1" fill="none" fill-rule="evenodd">
        <path d="M4,4 L14,4 L14,14 L4,14 L4,4 Z M6,6 L6,12 L12,12 L12,6 L6,6 Z" id="Rectangle" fill="#000000" fill-rule="nonzero"></path>
        <path d="M16,4 L26,4 L26,14 L16,14 L16,4 Z M18,6 L18,12 L24,12 L24,6 L18,6 Z" id="Rectangle" fill="#000000" fill-rule="nonzero"></path>
        <path d="M16,16 L26,16 L26,26 L16,26 L16,16 Z M18,18 L18,24 L24,24 L24,18 L18,18 Z" id="Rectangle" fill="#000000" fill-rule="nonzero"></path>
        <path d="M4,16 L14,16 L14,26 L4,26 L4,16 Z M6,18 L6,24 L12,24 L12,18 L6,18 Z" id="Rectangle" fill="#000000" fill-rule="nonzero"></path>
    </g>
</svg>