<?xml version="1.0" encoding="UTF-8"?>
<svg width="30px" height="30px" viewBox="0 0 30 30" version="1.1" xmlns="http://www.w3.org/2000/svg" xmlns:xlink="http://www.w3.org/1999/xlink">
    <!-- Generator: Sketch 57.1 (83088) - https://sketch.com -->
    <title>Ic/30/Bold/Tag/Black@2x</title>
    <desc>Created with Sketch.</desc>
    <g id="Ic/30/Bold/Tag/Black" stroke="none" stroke-width="1" fill="none" fill-rule="evenodd">
        <path d="M26,4 L26,13 L13,26 L11.585,24.585 L12.999,23.17 L13,23.1715729 L24,12.1715729 L24,6 L17.8284271,6 L10.221,13.606 L8.807,12.193 L17,4 L26,4 Z M7.393,13.607 L8.807,15.021 L6.82842712,17 L11.585,21.756 L10.171,23.171 L4,17 L7.393,13.607 Z M19.5,8 C20.8807119,8 22,9.11928813 22,10.5 C22,11.8807119 20.8807119,13 19.5,13 C18.1192881,13 17,11.8807119 17,10.5 C17,9.11928813 18.1192881,8 19.5,8 Z M19.5,10 C19.2238576,10 19,10.2238576 19,10.5 C19,10.7761424 19.2238576,11 19.5,11 C19.7761424,11 20,10.7761424 20,10.5 C20,10.2238576 19.7761424,10 19.5,10 Z" id="Combined-Shape" fill="#000000" fill-rule="nonzero"></path>
    </g>
</svg>