<?xml version="1.0" encoding="UTF-8"?>
<svg width="30px" height="30px" viewBox="0 0 30 30" version="1.1" xmlns="http://www.w3.org/2000/svg" xmlns:xlink="http://www.w3.org/1999/xlink">
    <!-- Generator: Sketch 57.1 (83088) - https://sketch.com -->
    <title>Ic/30/Line/Tag/Stencil/Black@2x</title>
    <desc>Created with Sketch.</desc>
    <g id="Ic/30/Line/Tag/Stencil/Black" stroke="none" stroke-width="1" fill="none" fill-rule="evenodd">
        <path d="M4,17 L17,4 L26,4 L26,13 L13,26 L4,17 Z M5.41421356,17 L13,24.5857864 L25,12.5857864 L25,5 L17.4142136,5 L5.41421356,17 Z" id="Path-24" fill="#000000" fill-rule="nonzero"></path>
        <path d="M19.5,13 C20.8807119,13 22,11.8807119 22,10.5 C22,9.11928813 20.8807119,8 19.5,8 C18.1192881,8 17,9.11928813 17,10.5 C17,11.8807119 18.1192881,13 19.5,13 Z M19.5,12 C18.6715729,12 18,11.3284271 18,10.5 C18,9.67157288 18.6715729,9 19.5,9 C20.3284271,9 21,9.67157288 21,10.5 C21,11.3284271 20.3284271,12 19.5,12 Z" id="Oval" fill="#000000" fill-rule="nonzero"></path>
    </g>
</svg>