<?xml version="1.0" encoding="UTF-8"?>
<svg width="30px" height="30px" viewBox="0 0 30 30" version="1.1" xmlns="http://www.w3.org/2000/svg" xmlns:xlink="http://www.w3.org/1999/xlink">
    <!-- Generator: Sketch 57.1 (83088) - https://sketch.com -->
    <title>Ic/30/Bold/Coupon/Black@2x</title>
    <desc>Created with Sketch.</desc>
    <g id="Ic/30/Bold/Coupon/Black" stroke="none" stroke-width="1" fill="none" fill-rule="evenodd">
        <path d="M27,6.5 L27.000703,13.5856015 C26.8441149,13.5301673 26.6755804,13.5 26.5,13.5 C25.6715729,13.5 25,14.1715729 25,15 C25,15.8284271 25.6715729,16.5 26.5,16.5 C26.6755804,16.5 26.8441149,16.4698327 27.000703,16.4143985 L27,23.5 L3,23.5 L2.99969517,16.4145394 C3.15617076,16.4698838 3.32456837,16.5 3.5,16.5 C4.32842712,16.5 5,15.8284271 5,15 C5,14.1715729 4.32842712,13.5 3.5,13.5 C3.32456837,13.5 3.15617076,13.5301162 2.99969517,13.5854606 L3,6.5 L27,6.5 Z M25.0001984,8.5 L20.9996952,8.5 L21,11.5 L19,11.5 L18.9996952,8.5 L4.9997704,8.5 L4.9997704,11.8367065 C6.18236784,12.3983915 7,13.6037117 7,15 C7,16.3962883 6.18236784,17.6016085 4.9997704,18.1632935 L4.9997704,21.5 L18.9996952,21.5 L19,18.5 L21,18.5 L20.9996952,21.5 L25.0001984,21.5 L25.0005294,18.1634359 C23.8177704,17.6018122 23,16.3964063 23,15 C23,13.6035937 23.8177704,12.3981878 25.0005294,11.8365641 L25.0001984,8.5 Z M13.729572,11.625 C14.5466926,11.625 15.0622568,11.7222763 15.4319066,11.9071012 L15.4319066,13.239786 C15.0428016,13.0938716 14.6634241,13.006323 14.0992218,13.006323 C13.0486381,13.006323 12.4552529,13.5218872 12.4552529,14.776751 L12.4552529,15.0685798 C12.4552529,16.313716 12.8735409,16.9946498 14.0797665,16.9946498 C14.7412451,16.9946498 15.1692607,16.858463 15.5,16.7222763 L15.5,18.0257782 C15.0525292,18.2300584 14.4980545,18.3759728 13.6614786,18.3759728 C11.6770428,18.3759728 10.5,17.3448444 10.5,15.1269455 L10.5,14.9032101 C10.5,12.5199416 11.9299611,11.625 13.729572,11.625 Z M21,13.5 L21,16.5 L19,16.5 L19,13.5 L21,13.5 Z" id="Combined-Shape" fill="#000000" fill-rule="nonzero"></path>
    </g>
</svg>