<?xml version="1.0" encoding="UTF-8"?>
<svg width="30px" height="30px" viewBox="0 0 30 30" version="1.1" xmlns="http://www.w3.org/2000/svg" xmlns:xlink="http://www.w3.org/1999/xlink">
    <!-- Generator: Sketch 57.1 (83088) - https://sketch.com -->
    <title>Ic/30/Stencil/Smile/Black@2x</title>
    <desc>Created with Sketch.</desc>
    <g id="Ic/30/Stencil/Smile/Black" stroke="none" stroke-width="1" fill="none" fill-rule="evenodd">
        <path d="M15,4 C21.0751322,4 26,8.92486775 26,15 C26,21.0751322 21.0751322,26 15,26 C9.26220473,26 4.55047792,21.6068787 4.04490836,16.0007248 L5.04948449,16.0010997 C5.55171825,21.0538953 9.81502805,25 15,25 C20.5228475,25 25,20.5228475 25,15 C25,9.4771525 20.5228475,5 15,5 C9.4771525,5 5,9.4771525 5,15 L5,15 L4,15 C4,8.92486775 8.92486775,4 15,4 Z" id="Combined-Shape" fill="#000000" fill-rule="nonzero"></path>
        <path d="M19,16 L20,16 C20,18.7614237 18,21 15,21 C12,21 10,18.7614237 10,16 L11,16 C11,18.3017052 12.6423207,20 15,20 C17.3576793,20 19,18.3017052 19,16 Z M19,16 L20,16 C20,18.7614237 18,21 15,21 C12,21 10,18.7614237 10,16 L11,16 C11,18.3017052 12.6423207,20 15,20 C17.3576793,20 19,18.3017052 19,16 Z" id="Path" fill="#000000" fill-rule="nonzero"></path>
        <polygon id="Line-5" fill="#000000" fill-rule="nonzero" points="10 10.5 11 10.5 11 14 10 14"></polygon>
        <polygon id="Line-5-" fill="#000000" fill-rule="nonzero" points="19 10.5 20 10.5 20 14 19 14"></polygon>
    </g>
</svg>