<?xml version="1.0" encoding="UTF-8"?>
<svg width="30px" height="30px" viewBox="0 0 30 30" version="1.1" xmlns="http://www.w3.org/2000/svg" xmlns:xlink="http://www.w3.org/1999/xlink">
    <!-- Generator: Sketch 63.1 (92452) - https://sketch.com -->
    <title>Ic/30/Stencil/Gift</title>
    <desc>Created with Sketch.</desc>
    <g id="Ic/30/Stencil/Gift" stroke="none" stroke-width="1" fill="none" fill-rule="evenodd">
        <path d="M18.8966513,3.29233318 C20.6305279,2.50128945 22.9088234,3.35533598 23.0969641,5.37423461 C23.1672221,6.12815989 22.9413637,6.7392859 22.4481843,7.20010465 L27,7.19965078 L27,14.1996508 L25,14.1996508 L25,19.1996508 L24,19.1996508 L24,14.1996508 L15.5,14.199 L15.5,25.1996508 L24,25.1996508 L24,20.1996508 L25,20.1996508 L25,26.1996508 L5,26.1996508 L5,20.1996508 L6,20.1996508 L6,25.1996508 L14.5,25.1996508 L14.5,14.199 L6,14.1996508 L6,19.1996508 L5,19.1996508 L5,14.1996508 L3,14.1996508 L3,7.19965078 L7.64310718,7.19987652 C7.18796926,6.7744041 6.96114715,6.22010698 6.98561117,5.5410212 L6.98561117,5.5410212 L6.99645025,5.37423461 C7.18459086,3.35533598 9.46288638,2.50128945 11.196763,3.29233318 C12.0269665,3.67109557 13.2602185,4.80259213 14.9516865,6.71320306 L14.9516865,6.71320306 L15.046,6.82118852 L15.3928179,6.43086077 C16.881791,4.77354403 17.9971961,3.75295388 18.7809712,3.34863364 L18.7809712,3.34863364 Z M14.5,8.19965078 L4.04347826,8.19965078 L4.04347826,13.1996508 L14.5,13.1996508 L14.5,8.19965078 Z M25.9565217,8.19965078 L15.5,8.19965078 L15.5,13.1996508 L25.9565217,13.1996508 L25.9565217,8.19965078 Z M22.081922,5.32730135 C21.8709798,4.18829446 20.4393396,3.68767118 19.3117227,4.20212199 C18.7059961,4.47847166 17.6890056,5.38994258 16.3011846,6.91754271 L16.3011846,6.91754271 L16.101,7.14018852 L20.0032187,7.14183598 L20.2146661,7.10741626 C21.6247616,6.85594628 22.1814881,6.32773895 22.1012781,5.46702231 L22.1012781,5.46702231 Z M10.7816916,4.20212199 C9.60897003,3.66709315 8.10741688,4.22996844 7.99213617,5.46702231 C7.90839392,6.36564338 8.52627048,6.90964552 10.0097351,7.13531962 L10.0097351,7.13531962 L13.99,7.13818852 L13.7917936,6.91768106 C12.4741231,5.46670933 11.4902316,4.57126759 10.8756556,4.24834887 L10.8756556,4.24834887 Z" id="Mask" fill="#000000"></path>
    </g>
</svg>