<?xml version="1.0" encoding="UTF-8"?>
<svg width="30px" height="30px" viewBox="0 0 30 30" version="1.1" xmlns="http://www.w3.org/2000/svg" xmlns:xlink="http://www.w3.org/1999/xlink">
    <!-- Generator: Sketch 59.1 (86144) - https://sketch.com -->
    <title>Ic/30/Stencil/Hide/Black</title>
    <desc>Created with Sketch.</desc>
    <g id="Ic/30/Stencil/Hide/Black" stroke="none" stroke-width="1" fill="none" fill-rule="evenodd">
        <path d="M25.2530483,4.03984489 L25.9290209,4.71584489 L4.71602086,25.9298449 L4.03984489,25.2530483 L7.47729086,21.8142919 C4.96302915,20.2076215 3.01729185,17.8188689 2.00002086,15.0005465 C3.89185423,9.75685286 8.99795654,6 15.0000209,6 C17.4036193,6 19.663534,6.60248831 21.6309001,7.66167356 L25.2530483,4.03984489 Z M28.0000077,14.9994535 C26.1081744,20.2431471 21.0020721,24 15.0000209,24 C12.9581283,24 11.0199298,23.5652009 9.27668954,22.7849829 L10.0391179,22.0223628 C11.5739319,22.6543734 13.2531694,23 15.0000143,23 C20.2323144,23 24.8579405,19.8991473 26.8125519,15.2895793 L26.9312185,14.9995312 L26.8125154,14.7095109 C25.9110919,12.5845023 24.4420757,10.780193 22.6077185,9.4525651 L23.3234952,8.7380052 C25.4497899,10.3177693 27.093523,12.4880615 28.0000077,14.9994535 Z M15.0000143,7 C9.65870798,7 4.94961698,10.2314007 3.06881007,15.0004688 C4.07889471,17.5606136 5.90395297,19.6775419 8.20424468,21.0892368 L10.4188255,18.8748373 C9.63484609,17.9488786 9.12654503,16.7820696 9.02062916,15.5011172 L10.0247628,15.5007564 C10.1247111,16.5058793 10.5223181,17.4234087 11.1281778,18.1639387 L18.1654147,11.1293858 C17.3033245,10.423526 16.2011221,10 15,10 C12.4072233,10 10.275381,11.9734949 10.0246578,14.5003002 L9.02052886,14.5000973 C9.27455798,11.4202857 11.854635,9 15,9 C16.4772292,9 17.8297707,9.53385128 18.8752222,10.4191514 L20.8902015,8.40407621 C19.114948,7.50266037 17.1066434,7 15.0000143,7 Z M21,15 C21,18.3137085 18.3137085,21 15,21 C13.8717691,21 12.8162698,20.6885986 11.914763,20.1470566 L12.647794,19.4132743 C13.3488829,19.7877247 14.1496517,20 15,20 C17.7614237,20 20,17.7614237 20,15 C20,14.1495671 19.7876824,13.3487236 19.4131625,12.6475847 L20.146771,11.9142877 C20.6884891,12.8158987 21,13.8715707 21,15 Z" id="Combined-Shape" fill="#000000" fill-rule="nonzero"></path>
    </g>
</svg>