<?xml version="1.0" encoding="UTF-8"?>
<svg width="30px" height="30px" viewBox="0 0 30 30" version="1.1" xmlns="http://www.w3.org/2000/svg" xmlns:xlink="http://www.w3.org/1999/xlink">
    <!-- Generator: Sketch 57.1 (83088) - https://sketch.com -->
    <title>Ic/30/Bold/Thumbdown/Black@2x</title>
    <desc>Created with Sketch.</desc>
    <g id="Ic/30/Bold/Thumbdown/Black" stroke="none" stroke-width="1" fill="none" fill-rule="evenodd">
        <path d="M11,4 L11,18 L4,18 L4,4 L11,4 Z M9,6 L6,6 L6,16 L9,16 L9,6 Z" id="Combined-Shape" fill="#000000" fill-rule="nonzero"></path>
        <path d="M21.3193418,4 C22.769288,4 24.0117296,5.03699411 24.2709932,6.46357268 L24.2709932,6.46357268 L25.9391319,15.6423818 C25.9605767,15.7603803 25.9713643,15.8800686 25.9713643,16 C25.9713643,17.1045695 25.0759338,18 23.9713643,18 L23.9713643,18 L16.6489258,18 L16.9546275,19.7099301 C17.2766111,21.5109323 16.3356135,23.3008397 14.6694617,24.0566311 L14.6694617,24.0566311 L13.0823232,24.7765809 C12.9309875,24.845229 12.7716859,24.8947484 12.6081018,24.923994 C11.5207724,25.118387 10.4817312,24.3945191 10.2873382,23.3071897 L10.2873382,23.3071897 L9.3385175,18 L9,18 L9,4 L14,4 L14,5.999 L11,6 L11,16 L11.012668,16 L12.2561221,22.95521 L13.8432606,22.2352603 C14.6763365,21.8573646 15.1468353,20.9624108 14.9858435,20.0619097 L14.9858435,20.0619097 L14.2596543,16 L23.9713643,16 L22.3032256,6.82119089 C22.2168044,6.3456647 21.8026572,6 21.3193418,6 L21.3193418,6 L16,5.999 L16,4 Z" id="Combined-Shape" fill="#000000" fill-rule="nonzero"></path>
    </g>
</svg>