<?xml version="1.0" encoding="UTF-8"?>
<svg width="30px" height="30px" viewBox="0 0 30 30" version="1.1" xmlns="http://www.w3.org/2000/svg" xmlns:xlink="http://www.w3.org/1999/xlink">
    <!-- Generator: Sketch 57.1 (83088) - https://sketch.com -->
    <title>Ic/30/Bold/Direction/Black@2x</title>
    <desc>Created with Sketch.</desc>
    <g id="Ic/30/Bold/Direction/Black" stroke="none" stroke-width="1" fill="none" fill-rule="evenodd">
        <path d="M17.4742915,21.0092915 L18.8882915,22.4242915 L15,26.3137085 L11.1102915,22.4242915 L12.5252915,21.0102915 L15,23.4852814 L17.4742915,21.0092915 Z M22.4242915,11.1102915 L26.3137085,15 L22.4242915,18.8882915 L21.0092915,17.4742915 L23.4852814,15 L21.0102915,12.5252915 L22.4242915,11.1102915 Z M7.5752915,11.1102915 L8.9892915,12.5242915 L6.51471863,15 L8.9892915,17.4742915 L7.5752915,18.8882915 L3.6862915,15 L7.5752915,11.1102915 Z M15,3.6862915 L18.8882915,7.5752915 L17.4742915,8.9892915 L15,6.51471863 L12.5242915,8.9892915 L11.1102915,7.5752915 L15,3.6862915 Z M16,5 L15.9992915,13.9992915 L25,14 L25,16 L15.9992915,15.9992915 L16,21 L15,22 L14,21 L13.9992915,15.9992915 L9,16 L8,15 L9,14 L13.9992915,13.9992915 L14,5 L16,5 Z" id="Combined-Shape" fill="#000000" fill-rule="nonzero"></path>
    </g>
</svg>