<?xml version="1.0" encoding="UTF-8"?>
<svg width="30px" height="30px" viewBox="0 0 30 30" version="1.1" xmlns="http://www.w3.org/2000/svg" xmlns:xlink="http://www.w3.org/1999/xlink">
    <!-- Generator: Sketch 57.1 (83088) - https://sketch.com -->
    <title>Ic/30/Stencil/Vote/Black@2x</title>
    <desc>Created with Sketch.</desc>
    <g id="Ic/30/Stencil/Vote/Black" stroke="none" stroke-width="1" fill="none" fill-rule="evenodd">
        <path d="M24,4 L26,10.5 L24.9902617,26 L5.00973825,26 L4.521,18.5 L5.523,18.5 L5.9467135,25 L24.0532865,25 L24.9901667,10.6184092 L23.2614253,5 L6.73857465,5 L5.00983335,10.6184092 L5.457,17.5 L4.456,17.5 L4,10.5 L6,4 L24,4 Z" id="Combined-Shape" fill="#000000" fill-rule="nonzero"></path>
        <polygon id="Path-21" fill="#000000" fill-rule="nonzero" points="5 11 25.5 11 25.5 10 5 10"></polygon>
        <polygon id="Path-22" fill="#000000" fill-rule="nonzero" points="12 8 18 8 18 7 12 7"></polygon>
        <polygon id="Path-23" fill="#000000" fill-rule="nonzero" transform="translate(15.184198, 16.184198) rotate(-45.000000) translate(-15.184198, -16.184198) " points="11.4006583 17.8786676 11.4006583 13.4897277 10.4006583 13.4897277 10.4006583 18.8786676 19.967737 18.8786676 19.967737 17.8786676"></polygon>
    </g>
</svg>