<?xml version="1.0" encoding="UTF-8"?>
<svg width="30px" height="30px" viewBox="0 0 30 30" version="1.1" xmlns="http://www.w3.org/2000/svg" xmlns:xlink="http://www.w3.org/1999/xlink">
    <!-- Generator: Sketch 57.1 (83088) - https://sketch.com -->
    <title>Ic/30/Bold/Balloon/Black@2x</title>
    <desc>Created with Sketch.</desc>
    <g id="Ic/30/Bold/Balloon/Black" stroke="none" stroke-width="1" fill="none" fill-rule="evenodd">
        <rect id="Rectangle" fill="#000000" fill-rule="nonzero" x="9.5" y="13.5" width="2" height="2"></rect>
        <rect id="Rectangle--2" fill="#000000" fill-rule="nonzero" x="18.5" y="13.5" width="2" height="2"></rect>
        <rect id="Rectangle-" fill="#000000" fill-rule="nonzero" x="14" y="13.5" width="2" height="2"></rect>
        <path d="M26,5 L26,24 L17,24 L15.0034285,26 L13,24 L4,24 L4,12 L6,12 L6,22 L13.827424,22 L15.0010042,23.1715718 L16.1705676,22 L24,22 L24,7 L11,7 L11,5 L26,5 Z M9,5 L9,7 L6,7 L6,10 L4,10 L4,5 L9,5 Z" id="Combined-Shape" fill="#000000" fill-rule="nonzero"></path>
    </g>
</svg>