<?xml version="1.0" encoding="UTF-8"?>
<svg width="30px" height="30px" viewBox="0 0 30 30" version="1.1" xmlns="http://www.w3.org/2000/svg" xmlns:xlink="http://www.w3.org/1999/xlink">
    <!-- Generator: Sketch 61 (89581) - https://sketch.com -->
    <title>Ic/30/Line/Report/Black</title>
    <desc>Created with Sketch.</desc>
    <g id="Ic/30/Line/Report/Black" stroke="none" stroke-width="1" fill="none" fill-rule="evenodd">
        <path d="M26,21 L26,26 L4,26 L4,21 L26,21 Z M25,22 L5,22 L5,25 L25,25 L25,22 Z" id="Rectangle" fill="#000000" fill-rule="nonzero"></path>
        <path d="M15,7 C19.3349143,7 22.8645429,10.4478378 22.9961932,14.7508207 L23,15 L23,22 L7,22 L7,15 L7.00380682,14.7508207 C7.13545713,10.4478378 10.6650857,7 15,7 Z M15,8 C11.295854,8 8.25084657,10.8819996 8.01506245,14.527299 L8.00369014,14.7660963 L8,15 L8,21 L22.0001167,21 L22.0001167,15.0152757 L21.9966609,14.7814015 C21.8812336,11.008666 18.7846709,8 15,8 Z" id="Combined-Shape" fill="#000000" fill-rule="nonzero"></path>
        <path d="M15,9 L15,10 C12.3112453,10 10.1181819,12.1223067 10.0046195,14.7831104 L10,15 L9,15 C9,11.7616031 11.5655749,9.12242824 14.7750617,9.00413847 L15,9 Z" id="Oval" fill="#000000" fill-rule="nonzero"></path>
        <polygon id="Path-2" fill="#000000" fill-rule="nonzero" points="6.85355339 6.14644661 8.26776695 7.56066017 7.56066017 8.26776695 6.14644661 6.85355339"></polygon>
        <polygon id="Path-2" fill="#000000" fill-rule="nonzero" points="15.5 3 15.5 5 14.5 5 14.5 3"></polygon>
        <polygon id="Path-2" fill="#000000" fill-rule="nonzero" transform="translate(22.778175, 7.221825) rotate(45.000000) translate(-22.778175, -7.221825) " points="23.2781746 6.22182541 23.2781746 8.22182541 22.2781746 8.22182541 22.2781746 6.22182541"></polygon>
        <polygon id="Path-2" fill="#000000" fill-rule="nonzero" points="10 15 10 17 9 17 9 15"></polygon>
    </g>
</svg>