<?xml version="1.0" encoding="UTF-8"?>
<svg width="30px" height="30px" viewBox="0 0 30 30" version="1.1" xmlns="http://www.w3.org/2000/svg" xmlns:xlink="http://www.w3.org/1999/xlink">
    <!-- Generator: Sketch 57.1 (83088) - https://sketch.com -->
    <title>Ic/30/Stencil/Link/Black@2x</title>
    <desc>Created with Sketch.</desc>
    <g id="Ic/30/Stencil/Link/Black" stroke="none" stroke-width="1" fill="none" fill-rule="evenodd">
        <path d="M16.8492424,13.0355339 C17.8073957,13.9936872 18.2953822,15.2439647 18.313202,16.4996751 L17.3130662,16.499163 C17.2952064,15.4995729 16.9048962,14.5054013 16.1421356,13.7426407 C14.5800385,12.1805435 12.0473785,12.1805435 10.4852814,13.7426407 L6.24264069,17.9852814 C4.68054352,19.5473785 4.68054352,22.0800385 6.24264069,23.6421356 C7.80473785,25.2042328 10.3373978,25.2042328 11.8994949,23.6421356 L16.1421356,19.3994949 C16.2691131,19.2725174 16.385769,19.139127 16.4921034,19.0003661 L17.6853936,19.0003138 C17.4647753,19.3968721 17.1860582,19.7697859 16.8492424,20.1066017 L12.6066017,24.3492424 C10.6539803,26.3018639 7.48815536,26.3018639 5.53553391,24.3492424 C3.58291245,22.3966209 3.58291245,19.2307961 5.53553391,17.2781746 L9.77817459,13.0355339 C11.7307961,11.0829124 14.8966209,11.0829124 16.8492424,13.0355339 Z" id="Combined-Shape" fill="#000000" fill-rule="nonzero"></path>
        <path d="M24.3492424,5.53553391 C26.3018639,7.48815536 26.3018639,10.6539803 24.3492424,12.6066017 L20.1066017,16.8492424 C18.1539803,18.8018639 14.9881554,18.8018639 13.0355339,16.8492424 C12.1065848,15.9202933 11.6195783,14.7167564 11.5745141,13.499899 L12.5753543,13.499417 C12.6197406,14.4603514 13.008836,15.408331 13.7426407,16.1421356 C15.3047379,17.7042328 17.8373978,17.7042328 19.3994949,16.1421356 L23.6421356,11.8994949 C25.2042328,10.3373978 25.2042328,7.80473785 23.6421356,6.24264069 C22.0800385,4.68054352 19.5473785,4.68054352 17.9852814,6.24264069 L13.7426407,10.4852814 C13.5811056,10.6468164 13.4362748,10.8187301 13.3081481,10.998876 L12.1373773,10.9994551 C12.3669587,10.5599246 12.6663443,10.1473642 13.0355339,9.77817459 L17.2781746,5.53553391 C19.2307961,3.58291245 22.3966209,3.58291245 24.3492424,5.53553391 Z" id="Combined-Shape" fill="#000000" fill-rule="nonzero"></path>
    </g>
</svg>