<svg width="30px" height="30px" viewBox="0 0 30 30" version="1.1" xmlns="http://www.w3.org/2000/svg" xmlns:xlink="http://www.w3.org/1999/xlink" class="@@class">
    <title>@@title</title>
    <g stroke="none" stroke-width="1" fill="none" fill-rule="evenodd">
        <path d="M15,26 C21.0751322,26 26,21.0751322 26,15 C26,8.92486775 21.0751322,4 15,4 C8.92486775,4 4,8.92486775 4,15 C4,21.0751322 8.92486775,26 15,26 Z M15,25 C9.4771525,25 5,20.5228475 5,15 C5,9.4771525 9.4771525,5 15,5 C20.5228475,5 25,9.4771525 25,15 C25,20.5228475 20.5228475,25 15,25 Z" fill="#000000" fill-rule="nonzero"></path>
        <path d="M15.5,16.7645556 C17.1961471,16.5219407 18.5,15.063236 18.5,13.3 C18.5,11.3670034 16.9329966,9.8 15,9.8 C13.0670034,9.8 11.5,11.3670034 11.5,13.3 L12.5,13.3 C12.5,11.9192881 13.6192881,10.8 15,10.8 C16.3807119,10.8 17.5,11.9192881 17.5,13.3 C17.5,14.6807119 16.3807119,15.8 15,15.8 L14.5,15.8 L14.5,18.7078793 L15.5,18.7078793 L15.5,16.7645556 Z" fill="#000000" fill-rule="nonzero"></path>
        <rect id="Rectangle" fill="#000000" fill-rule="nonzero" x="14.5" y="19.7" width="1" height="1"></rect>
    </g>
</svg>