<?xml version="1.0" encoding="UTF-8"?>
<svg width="30px" height="30px" viewBox="0 0 30 30" version="1.1" xmlns="http://www.w3.org/2000/svg" xmlns:xlink="http://www.w3.org/1999/xlink">
    <!-- Generator: Sketch 57.1 (83088) - https://sketch.com -->
    <title>Ic/30/Stencil/Tag/Black@2x</title>
    <desc>Created with Sketch.</desc>
    <g id="Ic/30/Stencil/Tag/Black" stroke="none" stroke-width="1" fill="none" fill-rule="evenodd">
        <path d="M26,4 L26,13 L13,26 L12.294,25.294 L13.1213203,24.4671068 L13.119,24.465 L25,12.5857864 L25,5 L17.4142136,5 L7.561,14.854 L6.854,14.147 L17,4 L26,4 Z M6.147,14.854 L6.854,15.561 L5.41421356,17 L12.294,23.88 L11.587,24.587 L4,17 L6.147,14.854 Z" id="Combined-Shape" fill="#000000" fill-rule="nonzero"></path>
        <path d="M19.5,12 C20.3284271,12 21,11.3284271 21,10.5 C21,9.67157288 20.3284271,9 19.5,9 C18.6715729,9 18,9.67157288 18,10.5 C18,11.3284271 18.6715729,12 19.5,12 Z M19.5,13 C18.1192881,13 17,11.8807119 17,10.5 C17,9.11928813 18.1192881,8 19.5,8 C20.8807119,8 22,9.11928813 22,10.5 C22,11.8807119 20.8807119,13 19.5,13 Z" id="Oval" fill="#000000" fill-rule="nonzero"></path>
    </g>
</svg>