<?xml version="1.0" encoding="UTF-8"?>
<svg width="30px" height="30px" viewBox="0 0 30 30" version="1.1" xmlns="http://www.w3.org/2000/svg" xmlns:xlink="http://www.w3.org/1999/xlink">
    <!-- Generator: Sketch 57.1 (83088) - https://sketch.com -->
    <title>Ic/30/Stencil/Video/Black@2x</title>
    <desc>Created with Sketch.</desc>
    <g id="Ic/30/Stencil/Video/Black" stroke="none" stroke-width="1" fill="none" fill-rule="evenodd">
        <path d="M16.5,11.5 L21.5,18.5 L11.5,18.5 L16.5,11.5 Z M13.4431893,17.5 L19.5568107,17.5 L16.5,13.2204651 L13.4431893,17.5 Z" id="Triangle" fill="#000000" fill-rule="nonzero" transform="translate(16.500000, 15.000000) rotate(-270.000000) translate(-16.500000, -15.000000) "></path>
        <path d="M15,4 C21.0751322,4 26,8.92486775 26,15 C26,21.0751322 21.0751322,26 15,26 C9.26220473,26 4.55047792,21.6068787 4.04490836,16.0007248 L5.04948449,16.0010997 C5.55171825,21.0538953 9.81502805,25 15,25 C20.5228475,25 25,20.5228475 25,15 C25,9.4771525 20.5228475,5 15,5 C9.4771525,5 5,9.4771525 5,15 L5,15 L4,15 C4,8.92486775 8.92486775,4 15,4 Z" id="Combined-Shape" fill="#000000" fill-rule="nonzero"></path>
    </g>
</svg>