<?xml version="1.0" encoding="UTF-8"?>
<svg width="30px" height="30px" viewBox="0 0 30 30" version="1.1" xmlns="http://www.w3.org/2000/svg" xmlns:xlink="http://www.w3.org/1999/xlink">
    <!-- Generator: Sketch 63.1 (92452) - https://sketch.com -->
    <title>Ic/30/Solid/Gift</title>
    <desc>Created with Sketch.</desc>
    <g id="Ic/30/Solid/Gift" stroke="none" stroke-width="1" fill="none" fill-rule="evenodd">
        <path d="M23.0969641,5.37423461 C23.1672221,6.12815989 22.9413637,6.7392859 22.4481843,7.20010465 L27,7.19965078 L27,14.1996508 L25,14.1996508 L25,26 L15.5471307,26 L15.547,8.132 L15.5457466,8.133 L15.5467956,6.2602768 C16.8776832,4.79292429 17.9006497,3.851875 18.6472642,3.42173006 L18.7809712,3.34863364 L18.8966513,3.29233318 C20.6305279,2.50128945 22.9088234,3.35533598 23.0969641,5.37423461 Z M11.196763,3.29233318 C11.9589751,3.64007593 13.0609217,4.62230771 14.5452959,6.25944362 L14.545,7.199 L14.5471307,7.19965078 L14.5471307,26 L5,26 L5,14.1996508 L3,14.1996508 L3,7.19965078 L7.64310718,7.19987652 C7.22615543,6.81010134 7.00081518,6.31221146 6.98474659,5.70930991 L6.98561117,5.5410212 L6.99645025,5.37423461 C7.18459086,3.35533598 9.46288638,2.50128945 11.196763,3.29233318 Z M19.3117227,4.20212199 C18.7396476,4.4631189 17.8007352,5.29062829 16.5290475,6.66865084 L16.3011846,6.91754271 L16.101,7.14018852 L20.0032187,7.14183598 L20.2146661,7.10741626 C21.5542568,6.86851978 22.123682,6.37986784 22.1085056,5.59364296 L22.1012781,5.46702231 L22.081922,5.32730135 C21.8709798,4.18829446 20.4393396,3.68767118 19.3117227,4.20212199 Z M7.99213617,5.46702231 C7.91238165,6.3228519 8.46901607,6.85703167 9.80368224,7.10091105 L10.0097351,7.13531962 L13.99,7.13818852 L13.7917936,6.91768106 C12.5516331,5.55206061 11.6071385,4.67853592 10.9879367,4.31127421 L10.8756556,4.24834887 L10.7816916,4.20212199 C9.60897003,3.66709315 8.10741688,4.22996844 7.99213617,5.46702231 Z" id="Combined-Shape" fill="#000000"></path>
    </g>
</svg>