<?xml version="1.0" encoding="UTF-8"?>
<svg width="30px" height="30px" viewBox="0 0 30 30" version="1.1" xmlns="http://www.w3.org/2000/svg" xmlns:xlink="http://www.w3.org/1999/xlink">
    <!-- Generator: Sketch 61 (89581) - https://sketch.com -->
    <title>c-30-bold-search@2x</title>
    <desc>Created with Sketch.</desc>
    <g id="c-30-bold-search" stroke="none" stroke-width="1" fill="none" fill-rule="evenodd">
        <path d="M13,22 C17.9705627,22 22,17.9705627 22,13 C22,8.02943725 17.9705627,4 13,4 C8.02943725,4 4,8.02943725 4,13 C4,17.9705627 8.02943725,22 13,22 Z M13,20 C9.13400675,20 6,16.8659932 6,13 C6,9.13400675 9.13400675,6 13,6 C16.8659932,6 20,9.13400675 20,13 C20,16.8659932 16.8659932,20 13,20 Z" id="Oval" fill="#000000" fill-rule="nonzero"></path>
        <polygon id="Path-27" fill="#000000" fill-rule="nonzero" transform="translate(23.050000, 23.050000) rotate(-360.000000) translate(-23.050000, -23.050000) " points="19.7928932 21.2071068 24.8928932 26.3071068 26.3071068 24.8928932 21.2071068 19.7928932"></polygon>
    </g>
</svg>