<?xml version="1.0" encoding="UTF-8"?>
<svg width="30px" height="30px" viewBox="0 0 30 30" version="1.1" xmlns="http://www.w3.org/2000/svg" xmlns:xlink="http://www.w3.org/1999/xlink">
    <!-- Generator: Sketch 57.1 (83088) - https://sketch.com -->
    <title>Ic/30/Stencil/Question/Black@2x</title>
    <desc>Created with Sketch.</desc>
    <g id="Ic/30/Stencil/Question/Black" stroke="none" stroke-width="1" fill="none" fill-rule="evenodd">
        <path d="M15,4 C21.0751322,4 26,8.92486775 26,15 C26,21.0751322 21.0751322,26 15,26 C9.26220473,26 4.55047792,21.6068787 4.04490836,16.0007248 L5.04948449,16.0010997 C5.55171825,21.0538953 9.81502805,25 15,25 C20.5228475,25 25,20.5228475 25,15 C25,9.4771525 20.5228475,5 15,5 C9.4771525,5 5,9.4771525 5,15 L5,15 L4,15 C4,8.92486775 8.92486775,4 15,4 Z" id="Combined-Shape" fill="#000000" fill-rule="nonzero"></path>
        <path d="M15.5,16.7645556 C17.1961471,16.5219407 18.5,15.063236 18.5,13.3 C18.5,11.3670034 16.9329966,9.8 15,9.8 C13.0670034,9.8 11.5,11.3670034 11.5,13.3 L12.5,13.3 C12.5,11.9192881 13.6192881,10.8 15,10.8 C16.3807119,10.8 17.5,11.9192881 17.5,13.3 C17.5,14.6807119 16.3807119,15.8 15,15.8 L14.5,15.8 L14.5,18.7078793 L15.5,18.7078793 L15.5,16.7645556 Z" id="Shape" fill="#000000" fill-rule="nonzero"></path>
        <rect id="Rectangle" fill="#000000" fill-rule="nonzero" x="14.5" y="19.7" width="1" height="1"></rect>
    </g>
</svg>