<?xml version="1.0" encoding="UTF-8"?>
<svg width="30px" height="30px" viewBox="0 0 30 30" version="1.1" xmlns="http://www.w3.org/2000/svg" xmlns:xlink="http://www.w3.org/1999/xlink">
    <!-- Generator: Sketch 57.1 (83088) - https://sketch.com -->
    <title>Ic/30/Stencil/Camera/Black@2x</title>
    <desc>Created with Sketch.</desc>
    <g id="Ic/30/Stencil/Camera/Black" stroke="none" stroke-width="1" fill="none" fill-rule="evenodd">
        <path d="M10,26 L4,26 L4,17 L5,17 L5,25 L10,25 L10,26 Z M19,5 L11,5 L11,6 L19,6 L19,5 Z M25,25 L25,7 L5,7 L5,16 L4,16 L4,6 L10,6 L10,4 L20,4 L20,6 L26,6 L26,26 L11,26 L11,25 L25,25 Z" id="Combined-Shape" fill="#000000" fill-rule="nonzero"></path>
        <path d="M15,20 C17.209139,20 19,18.209139 19,16 C19,13.790861 17.209139,12 15,12 C12.790861,12 11,13.790861 11,16 C11,18.209139 12.790861,20 15,20 Z M15,21 C12.2385763,21 10,18.7614237 10,16 C10,13.2385763 12.2385763,11 15,11 C17.7614237,11 20,13.2385763 20,16 C20,18.7614237 17.7614237,21 15,21 Z" id="Oval" fill="#000000" fill-rule="nonzero"></path>
        <polygon id="Line-4" fill="#000000" fill-rule="nonzero" points="22 8.5 23 8.5 23 10.5 22 10.5"></polygon>
    </g>
</svg>