<?xml version="1.0" encoding="UTF-8"?>
<svg width="30px" height="30px" viewBox="0 0 30 30" version="1.1" xmlns="http://www.w3.org/2000/svg" xmlns:xlink="http://www.w3.org/1999/xlink">
    <!-- Generator: Sketch 57.1 (83088) - https://sketch.com -->
    <title>Ic/30/Bold/Category/Black@2x</title>
    <desc>Created with Sketch.</desc>
    <g id="Ic/30/Bold/Category/Black" stroke="none" stroke-width="1" fill="none" fill-rule="evenodd">
        <path d="M9,20 L9,22 L5,22 L5,20 L9,20 Z M25,20 L25,22 L11,22 L11,20 L25,20 Z M9,13.999 L9,15.999 L5,16 L5,14 L9,13.999 Z M25,14 L25,16 L11,15.999 L11,13.999 L25,14 Z M9,8 L9,10 L5,10 L5,8 L9,8 Z M25,8 L25,10 L11,10 L11,8 L25,8 Z" id="Combined-Shape" fill="#000000" fill-rule="nonzero"></path>
    </g>
</svg>