<?xml version="1.0" encoding="UTF-8"?>
<svg width="30px" height="30px" viewBox="0 0 30 30" version="1.1" xmlns="http://www.w3.org/2000/svg" xmlns:xlink="http://www.w3.org/1999/xlink">
    <!-- Generator: Sketch 57.1 (83088) - https://sketch.com -->
    <title>Ic/30/Line/Vote/Black@2x</title>
    <desc>Created with Sketch.</desc>
    <g id="Ic/30/Line/Vote/Black" stroke="none" stroke-width="1" fill="none" fill-rule="evenodd">
        <path d="M24,4 L26,10.5 L24.9902617,26 L5.00973825,26 L4,10.5 L6,4 L24,4 Z M24.965,11 L5.034,11 L5.9467135,25 L24.0532865,25 L24.965,11 Z M20.014842,14.1034492 L20.7219488,14.8105559 L13.9570025,21.5755022 L10.1464466,17.7649462 L10.8535534,17.0578394 L13.9570025,20.1612886 L20.014842,14.1034492 Z M23.2614253,5 L6.73857465,5 L5.199,10 L24.8,10 L23.2614253,5 Z M18,7 L18,8 L12,8 L12,7 L18,7 Z" id="Combined-Shape" fill="#000000" fill-rule="nonzero"></path>
    </g>
</svg>