<?xml version="1.0" encoding="UTF-8"?>
<svg width="30px" height="30px" viewBox="0 0 30 30" version="1.1" xmlns="http://www.w3.org/2000/svg" xmlns:xlink="http://www.w3.org/1999/xlink">
    <!-- Generator: Sketch 57.1 (83088) - https://sketch.com -->
    <title>Ic/30/Bold/Question/Black@2x</title>
    <desc>Created with Sketch.</desc>
    <g id="Ic/30/Bold/Question/Black" stroke="none" stroke-width="1" fill="none" fill-rule="evenodd">
        <path d="M19,13.2 C19,10.990861 17.209139,9.2 15,9.2 C12.790861,9.2 11,10.990861 11,13.2 L13,13.2 C13,12.0954305 13.8954305,11.2 15,11.2 C16.1045695,11.2 17,12.0954305 17,13.2 C17,14.3045695 16.1045695,15.2 15,15.2 L14,15.2 L14,18.6078793 L16,18.6078793 L16,17.0739825 C17.7252272,16.6299397 19,15.0638394 19,13.2 Z" id="Shape" fill="#000000" fill-rule="nonzero"></path>
        <path d="M15,4 C21.0751322,4 26,8.92486775 26,15 C26,21.0751322 21.0751322,26 15,26 C9.26220473,26 4.55047792,21.6068787 4.04490836,16.0007248 L6.05500569,16.0006955 C6.55276616,20.5003111 10.367685,24 15,24 C19.9705627,24 24,19.9705627 24,15 C24,10.0294373 19.9705627,6 15,6 C10.3673423,6 6.5522017,9.50020676 6.05489527,14.0003032 L4.04481833,14.000274 C4.5499183,8.39364311 9.26186398,4 15,4 Z" id="Combined-Shape" fill="#000000" fill-rule="nonzero"></path>
        <rect id="Rectangle" fill="#000000" fill-rule="nonzero" x="14" y="19.5" width="2" height="2"></rect>
    </g>
</svg>