<?xml version="1.0" encoding="UTF-8"?>
<svg width="30px" height="30px" viewBox="0 0 30 30" version="1.1" xmlns="http://www.w3.org/2000/svg" xmlns:xlink="http://www.w3.org/1999/xlink">
    <!-- Generator: Sketch 57.1 (83088) - https://sketch.com -->
    <title>Ic/30/Stencil/Trash/Black@2x</title>
    <desc>Created with Sketch.</desc>
    <g id="Ic/30/Stencil/Trash/Black" stroke="none" stroke-width="1" fill="none" fill-rule="evenodd">
        <polygon id="Fill-5" fill="#000000" points="13 18 14 18 14 13 13 13"></polygon>
        <polygon id="Fill-6" fill="#000000" points="16 18 17 18 17 13 16 13"></polygon>
        <polygon id="Fill-7" fill="#000000" points="5 7 25 7 25 6 5 6"></polygon>
        <polygon id="Fill-8" fill="#000000" points="12 24 8 24 8 13 7 13 7 25 12 25"></polygon>
        <polygon id="Fill-9" fill="#000000" points="7 6 7 12 8.00766667 12 8.00766667 7.00166667 21.9923333 7.00166667 22 24 13 24 13 25 23 25 23 6"></polygon>
        <polygon id="Path" fill="#000000" fill-rule="nonzero" points="11.5 4 18.5 4 18.5 6 19.5 6 19.5 3 10.5 3 10.5 6 11.5 6"></polygon>
    </g>
</svg>