<?xml version="1.0" encoding="UTF-8"?>
<svg width="30px" height="30px" viewBox="0 0 30 30" version="1.1" xmlns="http://www.w3.org/2000/svg" xmlns:xlink="http://www.w3.org/1999/xlink">
    <!-- Generator: Sketch 58 (84663) - https://sketch.com -->
    <title>Ic/30/Line/Filter/Black@2x</title>
    <desc>Created with Sketch.</desc>
    <g id="Ic/30/Line/Filter/Black" stroke="none" stroke-width="1" fill="none" fill-rule="evenodd">
        <path d="M19,18 C20.4866011,18 21.7206526,19.081293 21.9585702,20.5002947 L25,20.5 L25,21.5 L21.9584039,21.5006962 C21.7200781,22.9192103 20.486255,24 19,24 C17.513745,24 16.2799219,22.9192103 16.0415961,21.5006962 L5,21.5 L5,20.5 L16.0414298,20.5002947 C16.2793474,19.081293 17.5133989,18 19,18 Z M19,19 C17.8954305,19 17,19.8954305 17,21 C17,22.1045695 17.8954305,23 19,23 C20.1045695,23 21,22.1045695 21,21 C21,19.8954305 20.1045695,19 19,19 Z M11,12 C12.4866011,12 13.7206526,13.081293 13.9585702,14.5002947 L25,14.5 L25,15.5 L13.9584039,15.5006962 C13.7200781,16.9192103 12.486255,18 11,18 C9.51374499,18 8.27992193,16.9192103 8.0415961,15.5006962 L5,15.5 L5,14.5 L8.0414298,14.5002947 C8.27934741,13.081293 9.51339894,12 11,12 Z M11,13 C9.8954305,13 9,13.8954305 9,15 C9,16.1045695 9.8954305,17 11,17 C12.1045695,17 13,16.1045695 13,15 C13,13.8954305 12.1045695,13 11,13 Z M19,6 C20.4866011,6 21.7206526,7.08129303 21.9585702,8.50029469 L25,8.5 L25,9.5 L21.9584039,9.50069618 C21.7200781,10.9192103 20.486255,12 19,12 C17.513745,12 16.2799219,10.9192103 16.0415961,9.50069618 L5,9.5 L5,8.5 L16.0414298,8.50029469 C16.2793474,7.08129303 17.5133989,6 19,6 Z M19,7 C17.8954305,7 17,7.8954305 17,9 C17,10.1045695 17.8954305,11 19,11 C20.1045695,11 21,10.1045695 21,9 C21,7.8954305 20.1045695,7 19,7 Z" id="Combined-Shape" fill="#000000" fill-rule="nonzero"></path>
    </g>
</svg>