<?xml version="1.0" encoding="UTF-8"?>
<svg width="30px" height="30px" viewBox="0 0 30 30" version="1.1" xmlns="http://www.w3.org/2000/svg" xmlns:xlink="http://www.w3.org/1999/xlink">
    <!-- Generator: Sketch 57.1 (83088) - https://sketch.com -->
    <title>Ic/30/Bold/Hanger/Black@2x</title>
    <desc>Created with Sketch.</desc>
    <g id="Ic/30/Bold/Hanger/Black" stroke="none" stroke-width="1" fill="none" fill-rule="evenodd">
        <path d="M15,6 C17.209139,6 19,7.86131303 19,10.157359 C19,10.9983349 18.7158157,11.7522584 18.1474472,12.4191296 L12.64,18.0497528 L12.642,18.052 L8.82842712,21.9545455 L21.1715729,21.9545455 L16.411,17.086 L17.826,15.638 L26,24 L4,24 L13.555,14.227 L13.5521014,14.2208957 C14.8971265,12.8497099 15.884884,11.846086 16.5163607,11.2090327 C16.8638004,10.8585247 17,10.5419988 17,10.157359 C17,8.9836749 16.097292,8.04545455 15,8.04545455 C13.9310873,8.04545455 13.0805121,8.86058724 13.0053955,9.93562427 L13,10.0909091 L11,10.0909091 C11,7.79486311 12.790861,6 15,6 Z" id="Combined-Shape" fill="#000000" fill-rule="nonzero"></path>
    </g>
</svg>