<?xml version="1.0" encoding="UTF-8"?>
<svg width="30px" height="30px" viewBox="0 0 30 30" version="1.1" xmlns="http://www.w3.org/2000/svg" xmlns:xlink="http://www.w3.org/1999/xlink">
    <!-- Generator: Sketch 61 (89581) - https://sketch.com -->
    <title>c-30-bold-user@2x</title>
    <desc>Created with Sketch.</desc>
    <g id="c-30-bold-user" stroke="none" stroke-width="1" fill="none" fill-rule="evenodd">
        <path d="M15,4 C17.4188915,4 19.4366008,5.71766536 19.8999437,7.99981203 L17.8293257,8.00008893 C17.4175144,6.8348501 16.3062521,6 15,6 C13.3431458,6 12,7.34314575 12,9 C12,10.6568542 13.3431458,12 15,12 C16.3058822,12 17.4168852,11.1656226 17.8289758,10.0009007 L19.8997409,10.0011864 C19.4360122,12.2828356 17.4185387,14 15,14 C12.2385763,14 10,11.7614237 10,9 C10,6.23857625 12.2385763,4 15,4 Z" id="Combined-Shape" fill="#000000" fill-rule="nonzero"></path>
        <path d="M22.9381062,24 C22.4460082,20.0536884 19.0796177,17 15,17 C10.9203823,17 7.55399184,20.0536884 7.06189375,24 L7.06189375,24 L7.06,24 L7.06,26 L5,26 L5,25 C5,19.4771525 9.4771525,15 15,15 C20.5228475,15 25,19.4771525 25,25 L25,25 L25,26 L9.06,26 L9.06,24 Z" id="Combined-Shape" fill="#000000" fill-rule="nonzero"></path>
    </g>
</svg>