<?xml version="1.0" encoding="UTF-8"?>
<svg width="30px" height="30px" viewBox="0 0 30 30" version="1.1" xmlns="http://www.w3.org/2000/svg" xmlns:xlink="http://www.w3.org/1999/xlink">
    <!-- Generator: Sketch 57.1 (83088) - https://sketch.com -->
    <title>Ic/30/Bold/Sound/Black@2x</title>
    <desc>Created with Sketch.</desc>
    <g id="Ic/30/Bold/Sound/Black" stroke="none" stroke-width="1" fill="none" fill-rule="evenodd">
        <path d="M13.5,11.5 L13.5,20.75 L13.5,20.75 C13.5,23.0972102 11.5972102,25 9.25,25 C7.33804631,25 5.72097223,23.7374703 5.18699097,22.0006242 L7.379637,22.0011193 C7.7833688,22.6034841 8.47037878,23 9.25,23 C10.4926407,23 11.5,21.9926407 11.5,20.75 C11.5,19.5073593 10.4926407,18.5 9.25,18.5 C8.2700499,18.5 7.43642001,19.1264713 7.12775892,20.0007654 L5.06597006,19.9999804 C5.42021123,18.0104819 7.15870964,16.5 9.25,16.5 C10.0763477,16.5 10.8476127,16.7358373 11.5001593,17.1438764 L11.5,11.5 L13.5,11.5 Z M25,8.5 L25,19.3586187 L24.9969701,19.358 L24.9950991,19.4559163 C24.8876867,21.707493 23.0281746,23.5 20.75,23.5 C18.4027898,23.5 16.5,21.5972102 16.5,19.25 C16.5,16.9027898 18.4027898,15 20.75,15 C21.5763477,15 22.3476127,15.2358373 23.0001593,15.6438764 L23,8.5 L25,8.5 Z M20.75,17 C19.5073593,17 18.5,18.0073593 18.5,19.25 C18.5,20.4926407 19.5073593,21.5 20.75,21.5 C21.9926407,21.5 23,20.4926407 23,19.25 C23,18.0073593 21.9926407,17 20.75,17 Z M25,4.5 L25,6.5 L13.5,6.5 L13.5,9.5 L11.5,9.5 L11.5,4.5 L25,4.5 Z" id="Combined-Shape" fill="#000000" fill-rule="nonzero"></path>
    </g>
</svg>