<?xml version="1.0" encoding="UTF-8"?>
<svg width="30px" height="30px" viewBox="0 0 30 30" version="1.1" xmlns="http://www.w3.org/2000/svg" xmlns:xlink="http://www.w3.org/1999/xlink">
    <!-- Generator: Sketch 62 (91390) - https://sketch.com -->
    <title>Ic/30/Line/Balloon2</title>
    <desc>Created with Sketch.</desc>
    <g id="Ic/30/Line/Balloon2" stroke="none" stroke-width="1" fill="none" fill-rule="evenodd">
        <path d="M19.0372832,6.65 C22.8826855,6.65 26,9.7673145 26,13.6127168 C26,17.4581191 22.8826855,20.5754336 19.0372832,20.5754336 L17.946,20.575 L15.8080881,23.5080674 C15.4827583,23.9543621 14.8572331,24.0524236 14.4109383,23.7270938 C14.3269968,23.665904 14.2531017,23.592009 14.1919119,23.5080674 L12.053,20.575 L10.9627168,20.5754336 C7.1173145,20.5754336 4,17.4581191 4,13.6127168 C4,9.7673145 7.1173145,6.65 10.9627168,6.65 L19.0372832,6.65 Z M19.0372832,7.65 L10.9627168,7.65 C7.66959925,7.65 5,10.3195992 5,13.6127168 C5,16.8309908 7.54963275,19.4537661 10.7388051,19.5713209 L10.9623191,19.5754337 L12.5612677,19.5747978 L15,22.9190058 L17.437592,19.5747979 L19.0372832,19.5754336 C22.3304008,19.5754336 25,16.9058344 25,13.6127168 C25,10.3944428 22.4503672,7.77166749 19.2608237,7.65411276 L19.0372832,7.65 Z M10.5,13.15 C10.9142136,13.15 11.25,13.4857864 11.25,13.9 C11.25,14.3142136 10.9142136,14.65 10.5,14.65 C10.0857864,14.65 9.75,14.3142136 9.75,13.9 C9.75,13.4857864 10.0857864,13.15 10.5,13.15 Z M15,13.15 C15.4142136,13.15 15.75,13.4857864 15.75,13.9 C15.75,14.3142136 15.4142136,14.65 15,14.65 C14.5857864,14.65 14.25,14.3142136 14.25,13.9 C14.25,13.4857864 14.5857864,13.15 15,13.15 Z M19.5,13.15 C19.9142136,13.15 20.25,13.4857864 20.25,13.9 C20.25,14.3142136 19.9142136,14.65 19.5,14.65 C19.0857864,14.65 18.75,14.3142136 18.75,13.9 C18.75,13.4857864 19.0857864,13.15 19.5,13.15 Z" id="Combined-Shape" fill="#000000"></path>
    </g>
</svg>