<?xml version="1.0" encoding="UTF-8"?>
<svg width="30px" height="30px" viewBox="0 0 30 30" version="1.1" xmlns="http://www.w3.org/2000/svg" xmlns:xlink="http://www.w3.org/1999/xlink">
    <!-- Generator: Sketch 57.1 (83088) - https://sketch.com -->
    <title>Ic/30/Stencil/Thumbup/Black@2x</title>
    <desc>Created with Sketch.</desc>
    <g id="Ic/30/Stencil/Thumbup/Black" stroke="none" stroke-width="1" fill="none" fill-rule="evenodd">
        <path d="M11.6719108,4.01755012 C11.743702,4.03110792 11.8137912,4.05249244 11.8809232,4.08132072 L14.1610483,5.06046644 C15.4527522,5.61515807 16.1860616,6.9924083 15.9251928,8.37375875 L15.2403751,12 L25.0783068,12 C25.6305915,12 26.0783068,12.4477153 26.0783068,13 C26.0783068,13.0585487 26.0731649,13.1169843 26.0629403,13.1746334 L24.0810214,24.3492667 C23.9116564,25.3041959 23.0815864,26 22.1117544,26 L15.5,25.998 L15.5,24.999 L22.1117544,25 C22.5966704,25 23.0117054,24.6520979 23.0963879,24.1746334 L25.0783068,13 L14.0338486,13 L14.9425618,8.18818836 C15.1164743,7.26728806 14.6276014,6.34912124 13.7664655,5.97932682 L11.4863404,5.0001811 L10,12.865 L10,25 L14.5,24.999 L14.5,25.998 L10,25.999 L10,26 L4,26 L4,12 L8.999,12 L9.14674477,12 L10.5037094,4.8146107 C10.6061971,4.2719186 11.1292187,3.91506243 11.6719108,4.01755012 Z M8.999,13 L5,13 L5,25 L8.999,25 L8.999,13 Z" id="Combined-Shape" fill="#000000" fill-rule="nonzero"></path>
    </g>
</svg>