<?xml version="1.0" encoding="UTF-8"?>
<svg width="30px" height="30px" viewBox="0 0 30 30" version="1.1" xmlns="http://www.w3.org/2000/svg" xmlns:xlink="http://www.w3.org/1999/xlink">
    <!-- Generator: Sketch 57.1 (83088) - https://sketch.com -->
    <title>Ic/30/Stencil/Direction/Bold@2x</title>
    <desc>Created with Sketch.</desc>
    <g id="Ic/30/Stencil/Direction/Bold" stroke="none" stroke-width="1" fill="none" fill-rule="evenodd">
        <path d="M18.5352915,21.3632915 L19.2422915,22.0702915 L15,26.3137085 L10.7572915,22.0702915 L11.4642915,21.3632915 L15,24.8994949 L18.5352915,21.3632915 Z M15,3.6862915 L19.2422915,7.9282915 L18.5352915,8.6352915 L15.4992915,5.6002915 L15.4992915,14.4992915 L24.3992915,14.4992915 L21.3632915,11.4642915 L22.0702915,10.7572915 L26.3137085,15 L22.0702915,19.2422915 L21.3632915,18.5352915 L24.3992915,15.4992915 L15.4992915,15.4992915 L15.5,23 L15,23.5 L14.5,23 L14.4992915,15.4992915 L7,15.5 L6.5,15 L7,14.5 L14.4992915,14.4992915 L14.4992915,5.6002915 L11.4642915,8.6352915 L10.7572915,7.9282915 L15,3.6862915 Z M7.9282915,10.7572915 L8.6352915,11.4642915 L5.10050506,15 L8.6352915,18.5352915 L7.9282915,19.2422915 L3.6862915,15 L7.9282915,10.7572915 Z" id="Combined-Shape" fill="#000000" fill-rule="nonzero"></path>
    </g>
</svg>