<?xml version="1.0" encoding="UTF-8"?>
<svg width="30px" height="30px" viewBox="0 0 30 30" version="1.1" xmlns="http://www.w3.org/2000/svg" xmlns:xlink="http://www.w3.org/1999/xlink">
    <!-- Generator: Sketch 57.1 (83088) - https://sketch.com -->
    <title>Ic/30/Bold/Clothes/Black@2x</title>
    <desc>Created with Sketch.</desc>
    <g id="Ic/30/Bold/Clothes/Black" stroke="none" stroke-width="1" fill="none" fill-rule="evenodd">
        <path d="M18.7610162,4.03572559 C22.8223421,4.41897531 26,7.83839677 26,12 L26,23 L22.5,22.9997256 L22.5,27 L7.5,27 L7.5,22.9997256 L4,23 L4,15.9997256 L6,15.9997256 L6,21 L7.5,20.9997256 L7.5,12 L9.5,12 L9.5,25 L20.5,25 L20.5,12 L22.5,12 L22.5,20.9997256 L24,21 L24,12 C24,9.35484327 22.2799195,7.08635233 19.8729568,6.2973115 C18.7797433,7.94429114 16.9989681,9 15,9 C13.0010319,9 11.2202567,7.94429114 10.1270432,6.2973115 C7.72008048,7.08635233 6,9.35484327 6,12 L6,13.9997256 L4,13.9997256 L4,12 C4,7.83839677 7.17765792,4.41897531 11.2389838,4.03572559 C11.7969647,5.76482726 13.2702645,7 15,7 C16.7297355,7 18.2030353,5.76482726 18.7610162,4.03572559 Z" id="Combined-Shape" fill="#000000" fill-rule="nonzero"></path>
    </g>
</svg>