<svg width="30px" height="30px" viewBox="0 0 30 30" version="1.1" xmlns="http://www.w3.org/2000/svg" xmlns:xlink="http://www.w3.org/1999/xlink" class="@@class">
    <title>@@title</title>
    <g stroke="none" stroke-width="1" fill="none" fill-rule="evenodd">
        <path d="M20.5,4 C22.9852814,4 25,6.01471863 25,8.5 C25,10.9852814 22.9852814,13 20.5,13 C18.9702589,13 17.6187977,12.2366932 16.8057123,11.0701755 L12.6714114,13.3088355 C12.8832944,13.8309468 13,14.4018444 13,15 C13,15.5981556 12.8832944,16.1690532 12.6714114,16.6911645 L16.8057123,18.9298245 C17.6187977,17.7633068 18.9702589,17 20.5,17 C22.9852814,17 25,19.0147186 25,21.5 C25,23.9852814 22.9852814,26 20.5,26 C18.0147186,26 16,23.9852814 16,21.5 C16,20.9017764 16.1167321,20.330817 16.3286609,19.8086573 L12.194428,17.5699743 C11.471309,18.6075392 10.322282,19.3261536 9.00070744,19.4724574 L9.00094991,18.4644196 C10.6966339,18.2213961 12,16.7629068 12,15 C12,13.3000542 10.788069,11.88317 9.18108762,11.5662282 L9.00094991,11.5355804 L9.00070744,10.5275426 C10.322282,10.6738464 11.471309,11.3924608 12.194428,12.4300257 L16.3282553,10.1903429 C16.1165832,9.66845429 16,9.09784188 16,8.5 C16,6.01471863 18.0147186,4 20.5,4 Z M20.5,18 C18.5670034,18 17,19.5670034 17,21.5 C17,23.4329966 18.5670034,25 20.5,25 C22.4329966,25 24,23.4329966 24,21.5 C24,19.5670034 22.4329966,18 20.5,18 Z M8.00029704,10.5274316 L8.00004975,11.5354373 C6.30387842,11.7780307 5,13.2367468 5,15 C5,16.7632532 6.30387842,18.2219693 8.00004975,18.4645627 L8.00029704,19.4725684 C5.7501788,19.2239814 4,17.3163788 4,15 C4,12.6836212 5.7501788,10.7760186 8.00029704,10.5274316 Z M20.5,5 C18.5670034,5 17,6.56700338 17,8.5 C17,10.4329966 18.5670034,12 20.5,12 C22.4329966,12 24,10.4329966 24,8.5 C24,6.56700338 22.4329966,5 20.5,5 Z"  fill="#000000" fill-rule="nonzero"></path>
    </g>
</svg>