<?xml version="1.0" encoding="UTF-8"?>
<svg width="30px" height="30px" viewBox="0 0 30 30" version="1.1" xmlns="http://www.w3.org/2000/svg" xmlns:xlink="http://www.w3.org/1999/xlink">
    <!-- Generator: Sketch 61 (89581) - https://sketch.com -->
    <title>c-30-bold-bell@2x</title>
    <desc>Created with Sketch.</desc>
    <g id="c-30-bold-bell" stroke="none" stroke-width="1" fill="none" fill-rule="evenodd">
        <path d="M8.99982032,15 L9,18.7655644 L7.72317968,21 L18.9998203,21 L18.9998203,23 L4.27682032,23 L7,18.2344356 L6.99982032,15 L8.99982032,15 Z M15,3 C16.5105662,3 17.7603747,4.11643661 17.9692967,5.5691811 C20.963585,6.76467073 23,9.68297533 23,13 L23,18.2344356 L25.7231797,23 L20.9998203,23 L20.9998203,21 L22.2768203,21 L21,18.7655644 L21,13 C21,10.321031 19.2283995,7.98819023 16.6976272,7.24326382 L15.8682935,6.99915155 L15.9899468,6.14323937 C15.9966158,6.0963189 16,6.04853169 16,6 C16,5.44771525 15.5522847,5 15,5 C14.4477153,5 14,5.44771525 14,6 C14,6.04853169 14.0033842,6.0963189 14.0100532,6.14323937 L14.1317065,6.99915155 L13.3023728,7.24326382 C10.7716005,7.98819023 9,10.321031 9,13 L7,13 C7,9.68297533 9.03641495,6.76467073 12.0307033,5.5691811 C12.2396253,4.11643661 13.4894338,3 15,3 Z" id="Combined-Shape" fill="#000000" fill-rule="nonzero"></path>
        <path d="M19,21 L19,23 C19,25.209139 17.209139,27 15,27 C12.790861,27 11,25.209139 11,23 L11,23 L11,21 L19,21 Z M17,23 L13,23 C13,24.1045695 13.8954305,25 15,25 C16.1045695,25 17,24.1045695 17,23 L17,23 Z" id="Combined-Shape" fill="#000000" fill-rule="nonzero"></path>
    </g>
</svg>