<?xml version="1.0" encoding="UTF-8"?>
<svg width="30px" height="30px" viewBox="0 0 30 30" version="1.1" xmlns="http://www.w3.org/2000/svg" xmlns:xlink="http://www.w3.org/1999/xlink">
    <!-- Generator: Sketch 57.1 (83088) - https://sketch.com -->
    <title>Ic/30/Stencil/Thumbdown/Black@2x</title>
    <desc>Created with Sketch.</desc>
    <g id="Ic/30/Stencil/Thumbdown/Black" stroke="none" stroke-width="1" fill="none" fill-rule="evenodd">
        <path d="M22.1117544,4 C23.0277068,4 23.818995,4.62064012 24.0467656,5.4940526 L24.0810214,5.65073328 L26.0629403,16.8253666 C26.0731649,16.8830157 26.0783068,16.9414513 26.0783068,17 C26.0783068,17.5128358 25.6922666,17.9355072 25.1949279,17.9932723 L25.0783068,18 L15.2403751,18 L15.9251928,21.6262412 C16.1747194,22.947533 15.5146389,24.2650733 14.3263289,24.8625849 L14.1610483,24.9395336 L11.8809232,25.9186793 C11.8137912,25.9475076 11.743702,25.9688921 11.6719108,25.9824499 C11.1679824,26.077617 10.6810149,25.7767173 10.5319617,25.2987364 L10.5037094,25.1853893 L9.14674477,18 L4,18 L4,4 L14,4 L14,4.999 L10,5 L10,17.1293601 L11.4863404,24.9998189 L13.7664655,24.0206732 C14.5769463,23.6726314 15.0576718,22.8388341 14.9664313,21.974184 L14.9425618,21.8118116 L14.0338486,17 L25.0783068,17 L23.0963879,5.82536664 C23.0117054,5.34790207 22.5966704,5 22.1117544,5 L15,4.999 L15,4 L22.1117544,4 Z M9,5 L5,5 L5,17 L9,17 L9,5 Z" id="Combined-Shape" fill="#000000" fill-rule="nonzero"></path>
    </g>
</svg>