<?xml version="1.0" encoding="UTF-8"?>
<svg width="30px" height="30px" viewBox="0 0 30 30" version="1.1" xmlns="http://www.w3.org/2000/svg" xmlns:xlink="http://www.w3.org/1999/xlink">
    <!-- Generator: Sketch 57.1 (83088) - https://sketch.com -->
    <title>Ic/30/Bold/Setting/Black@2x</title>
    <desc>Created with Sketch.</desc>
    <g id="Ic/30/Bold/Setting/Black" stroke="none" stroke-width="1" fill="none" fill-rule="evenodd">
        <path d="M16,3.5 L16.00004,6.55820782 C17.6000197,6.74572265 19.0641669,7.37759208 20.2657524,8.32708691 L22.429825,6.16332073 L23.8440386,7.57753429 L21.6790338,9.74200263 C22.6264985,10.9438749 23.2565101,12.4076694 23.4426053,14.0069228 L26.5073593,14.0073593 L26.5073593,16.0073593 L23.4409131,16.007512 C23.2522676,17.6049292 22.620652,19.0666803 21.6722877,20.2665436 L23.8440386,22.4371843 L22.429825,23.8513979 L20.2578923,21.6791166 C19.0577842,22.62516 17.5965327,23.254686 16.00004,23.4417922 L16,26.5147186 L14,26.5147186 L14,22.5 L14.0006407,22.5 L14.0000929,21.4235662 C14.3260333,21.4738902 14.6599675,21.5 15,21.5 C18.5898509,21.5 21.5,18.5898509 21.5,15 C21.5,11.4101491 18.5898509,8.5 15,8.5 C12.4923071,8.5 10.3162903,9.92007453 9.23225121,11.9999221 L7.0444657,12.0002331 C7.35408392,11.179523 7.78705754,10.4193229 8.32077792,9.74224146 L6.15596142,7.57753429 L7.57017498,6.16332073 L9.73430188,8.32704405 C10.9358378,7.37760422 12.3999083,6.7457613 13.9998025,6.55822628 L14,3.5 L16,3.5 Z M6.55821203,13.9999241 L8.57643383,14.0000929 C8.52610978,14.3260333 8.5,14.6599675 8.5,15 C8.5,17.5076929 9.92007453,19.6837097 11.9999221,20.7677488 L12.0002331,22.9555343 C11.1796585,22.6459672 10.419574,22.2130854 9.74257687,21.6794865 L7.57017498,23.8513979 L6.15596142,22.4371843 L8.32737771,20.2661203 C7.37928869,19.0664494 6.74782907,17.6050165 6.55914014,16.0079629 L3.49264069,16.0073593 L3.49264069,14.0073593 L6.55728371,14.0078771 C6.55759193,14.0052257 6.55790137,14.0025747 6.55821203,13.9999241 Z" id="Combined-Shape" fill="#000000" fill-rule="nonzero"></path>
    </g>
</svg>