<?xml version="1.0" encoding="UTF-8"?>
<svg width="30px" height="30px" viewBox="0 0 30 30" version="1.1" xmlns="http://www.w3.org/2000/svg" xmlns:xlink="http://www.w3.org/1999/xlink">
    <!-- Generator: Sketch 59.1 (86144) - https://sketch.com -->
    <title>Ic/30/Stencil/Phone/Black</title>
    <desc>Created with Sketch.</desc>
    <g id="Ic/30/Stencil/Phone/Black" stroke="none" stroke-width="1" fill="none" fill-rule="evenodd">
        <path d="M7.04285425,6.24989322 L7.74985425,6.95689322 L6.18198052,8.52512627 C4.81514549,9.89196129 4.81514549,12.1080387 6.18198052,13.4748737 L16.5251263,23.8180195 C17.8919613,25.1848545 20.1080387,25.1848545 21.4748737,23.8180195 L23.0428542,22.2498932 L23.7498542,22.9568932 L22.1819805,24.5251263 C20.4246212,26.2824856 17.5753788,26.2824856 15.8180195,24.5251263 L5.47487373,14.1819805 C3.71751442,12.4246212 3.71751442,9.5753788 5.47487373,7.81801948 L7.04285425,6.24989322 Z M20,15.2928932 L25.7071068,21 L24.4568542,22.2498932 L23.7498542,21.5428932 L24.2928932,21 L20,16.7071068 L19.4568542,17.2498932 L18.7498542,16.5428932 L20,15.2928932 Z M12.0418542,11.2498932 L12.7488542,11.9568932 L12.0606602,12.6464466 C11.865398,12.8417088 11.865398,13.1582912 12.0606602,13.3535534 L16.6464466,17.9393398 C16.8417088,18.134602 17.1582912,18.134602 17.3535534,17.9393398 L18.0428542,17.2498932 L18.7498542,17.9568932 L18.0606602,18.6464466 C17.4748737,19.232233 16.5251263,19.232233 15.9393398,18.6464466 L11.3535534,14.0606602 C10.767767,13.4748737 10.767767,12.5251263 11.3535534,11.9393398 L12.0418542,11.2498932 Z M9,4.29289322 L14.7071068,10 L13.4568542,11.2488932 L12.7498542,10.5428932 L13.2928932,10 L9,5.70710678 L8.45685425,6.24989322 L7.74985425,5.54289322 L9,4.29289322 Z" id="Combined-Shape" fill="#000000" fill-rule="nonzero"></path>
    </g>
</svg>