<svg width="30px" height="30px" viewBox="0 0 30 30" version="1.1" xmlns="http://www.w3.org/2000/svg" xmlns:xlink="http://www.w3.org/1999/xlink" class="@@class">
  <title>@@title</title>
  <g id="Ic/30/Stencil/Bell/Black" stroke="none" stroke-width="1" fill="none" fill-rule="evenodd">
    <path d="M8.222,17 L8.22222222,19.3252112 L6.71264124,22 L18.5,22 L18.5,23 C18.5,24.9329966 16.9329966,26.5 15,26.5 C13.1314366,26.5 11.6048736,25.0357224 11.5051789,23.1920352 L11.5,23 L5,23 L7.22222222,19.0625 L7.222,17 L8.222,17 Z M17.5,23 L12.5,23 C12.5,24.3807119 13.6192881,25.5 15,25.5 C16.3254834,25.5 17.4100387,24.4684641 17.4946823,23.1643757 L17.5,23 Z M15,3 C16.1045695,3 17,3.8954305 17,5 C17,5.08755309 16.9943741,5.17379219 16.9834642,5.25837553 C20.3182563,6.14624833 22.7777778,9.21980783 22.7777778,12.875 L22.7777778,19.0625 L25,23 L19.5,23 L19.5,22 L23.2873588,22 L21.7777778,19.3252112 L21.7777778,12.875 C21.7777778,9.72988885 19.6783074,7.01070142 16.7261817,6.22471176 L15.8796102,5.99931605 L15.9916803,5.13045079 C15.9972017,5.08764424 16,5.04413066 16,5 C16,4.44771525 15.5522847,4 15,4 C14.4477153,4 14,4.44771525 14,5 C14,5.04413066 14.0027983,5.08764424 14.0083197,5.13045079 L14.1203898,5.99931605 L13.2738183,6.22471176 C10.3216926,7.01070142 8.22222222,9.72988885 8.22222222,12.875 L8.222,16 L7.222,16 L7.22222222,12.875 C7.22222222,9.21980783 9.68174371,6.14624833 13.0165358,5.25837553 C13.0056259,5.17379219 13,5.08755309 13,5 C13,3.8954305 13.8954305,3 15,3 Z" fill="#000000" fill-rule="nonzero"></path>
  </g>
</svg>