<?xml version="1.0" encoding="UTF-8"?>
<svg width="30px" height="30px" viewBox="0 0 30 30" version="1.1" xmlns="http://www.w3.org/2000/svg" xmlns:xlink="http://www.w3.org/1999/xlink">
    <!-- Generator: Sketch 58 (84663) - https://sketch.com -->
    <title>Ic/30/Stencil/360dgree/Black</title>
    <desc>Created with Sketch.</desc>
    <g id="Ic/30/Stencil/360dgree/Black" stroke="none" stroke-width="1" fill="none" fill-rule="evenodd">
        <path d="M4.06031344,12 L4.709572,12.756413 C3.74476757,13.5866559 3.24611272,14.4990083 3.24611272,15.4232218 C3.24611272,18.0957818 7.43241095,20.4822039 13.0449901,20.9395732 L13.0749543,19 L16,21.4692349 L13,24 L13.030127,21.9391129 C6.92448397,21.4599686 2.25,18.7904786 2.25,15.4232218 C2.25,14.1792229 2.89120946,13.0060487 4.06031344,12 Z M25.9443256,12.0039953 C27.1105026,13.0091673 27.75,14.180896 27.75,15.4232218 C27.75,18.6744856 23.3854503,21.2991914 17.4922011,21.8921457 L17.3926056,20.8997603 C22.8389941,20.3517673 26.7538873,17.997471 26.7538873,15.4232218 C26.7538873,14.5003055 26.2566483,13.589232 25.2944566,12.7598826 L25.9443256,12.0039953 Z M8.48649364,8.45683931 C9.77860169,8.45683931 10.701536,9.25365206 10.701536,10.4966799 C10.701536,11.2934927 10.2237818,11.7397078 9.77860169,11.9521912 C10.2020657,12.0584329 10.8969809,12.685259 10.8969809,13.7158035 C10.8969809,15.0119522 9.8220339,16 8.44306144,16 C7.05323093,16 6,14.9907039 6,13.5989376 L7.11837924,13.5989376 C7.11837924,14.501992 7.67213983,14.9907039 8.44306144,14.9907039 C9.21398305,14.9907039 9.76774364,14.4701195 9.76774364,13.7158035 C9.76774364,12.9614874 9.21398305,12.4515272 8.45391949,12.4515272 C8.31276483,12.4515272 8.12817797,12.4621514 7.97616525,12.4940239 L7.97616525,11.5166003 C8.13903602,11.5272244 8.28019068,11.5378486 8.45391949,11.5378486 C9.10540254,11.5378486 9.58315678,11.1341301 9.58315678,10.5391766 C9.58315678,9.90172643 9.13797669,9.46613546 8.48649364,9.46613546 C7.83501059,9.46613546 7.38983051,9.86985392 7.38983051,10.6666667 L6.27145127,10.6666667 C6.27145127,9.31739708 7.19438559,8.45683931 8.48649364,8.45683931 Z M15.5876589,8.45683931 L13.9155191,11.0066401 C14.0240996,10.9960159 14.1326801,10.9853918 14.2304025,10.9853918 C15.4573623,10.9853918 16.7820445,11.9203187 16.7820445,13.4926959 C16.7820445,14.9163347 15.6202331,16 14.1543962,16 C12.6559852,16 11.548464,14.8525896 11.548464,13.5458167 C11.548464,12.940239 11.7221928,12.5046481 12.1130826,11.9096946 L14.3824153,8.45683931 L15.5876589,8.45683931 Z M20.310911,8.35059761 C22.0373411,8.35059761 23.1882945,9.78486056 23.1882945,12.1752988 C23.1882945,14.5657371 22.0373411,16 20.310911,16 C18.5844809,16 17.4335275,14.5657371 17.4335275,12.1752988 C17.4335275,9.78486056 18.5844809,8.35059761 20.310911,8.35059761 Z M14.1543962,11.9946879 C13.3074682,11.9946879 12.6777013,12.6427623 12.6777013,13.4926959 C12.6777013,14.3532537 13.3074682,14.9907039 14.1543962,14.9907039 C15.0121822,14.9907039 15.6528072,14.3532537 15.6528072,13.4926959 C15.6528072,12.6427623 15.0121822,11.9946879 14.1543962,11.9946879 Z M20.310911,9.37051793 C19.1273835,9.37051793 18.5736229,10.5073041 18.5736229,12.1752988 C18.5736229,13.8326693 19.1273835,14.9800797 20.310911,14.9800797 C21.4944386,14.9800797 22.0481992,13.8326693 22.0481992,12.1752988 C22.0481992,10.5073041 21.4944386,9.37051793 20.310911,9.37051793 Z M25.1753178,8 C25.9136653,8 26.5,8.57370518 26.5,9.30677291 C26.5,10.0504648 25.9136653,10.62417 25.1753178,10.62417 C24.4261123,10.62417 23.8397775,10.0504648 23.8397775,9.30677291 C23.8397775,8.57370518 24.4261123,8 25.1753178,8 Z M25.1753178,8.5312085 C24.7192797,8.5312085 24.3826801,8.86055777 24.3826801,9.31739708 C24.3826801,9.75298805 24.7192797,10.0929615 25.1753178,10.0929615 C25.6096398,10.0929615 25.9462394,9.76361222 25.9462394,9.31739708 C25.9462394,8.86055777 25.6096398,8.5312085 25.1753178,8.5312085 Z" id="Combined-Shape" fill="#000000" fill-rule="nonzero"></path>
    </g>
</svg>