<?xml version="1.0" encoding="UTF-8"?>
<svg width="30px" height="30px" viewBox="0 0 30 30" version="1.1" xmlns="http://www.w3.org/2000/svg" xmlns:xlink="http://www.w3.org/1999/xlink">
    <!-- Generator: Sketch 57.1 (83088) - https://sketch.com -->
    <title>Ic/30/Stencil/Mike/Black@2x</title>
    <desc>Created with Sketch.</desc>
    <g id="Ic/30/Stencil/Mike/Black" stroke="none" stroke-width="1" fill="none" fill-rule="evenodd">
        <path d="M15,4 C17.7614237,4 20,6.23857625 20,9 L20,16 C20,18.7614237 17.7614237,21 15,21 C12.2385763,21 10,18.7614237 10,16 L10,13 L11,13 L11,16 C11,18.209139 12.790861,20 15,20 C17.209139,20 19,18.209139 19,16 L19,9 C19,6.790861 17.209139,5 15,5 C12.790861,5 11,6.790861 11,9 L11,12 L10,12 L10,9 C10,6.23857625 12.2385763,4 15,4 Z" id="Combined-Shape" fill="#000000" fill-rule="nonzero"></path>
        <path d="M21.5,16 L21.5,16.4 C21.5,19.762145 18.5962144,22.5 15,22.5 C11.4037856,22.5 8.5,19.762145 8.5,16.4 L8.5,16 L7.5,16 L7.5,16.4 C7.5,20.3280137 10.8642279,23.5 15,23.5 C19.1357721,23.5 22.5,20.3280137 22.5,16.4 L22.5,16 L21.5,16 Z" id="Shape" fill="#000000" fill-rule="nonzero"></path>
        <polygon id="Path-19" fill="#000000" fill-rule="nonzero" points="15.5 27 15.5 23 14.5 23 14.5 27"></polygon>
    </g>
</svg>