<?xml version="1.0" encoding="UTF-8"?>
<svg width="30px" height="30px" viewBox="0 0 30 30" version="1.1" xmlns="http://www.w3.org/2000/svg" xmlns:xlink="http://www.w3.org/1999/xlink">
    <!-- Generator: Sketch 61 (89581) - https://sketch.com -->
    <title>c-30-bold-heart@2x</title>
    <desc>Created with Sketch.</desc>
    <g id="c-30-bold-heart" stroke="none" stroke-width="1" fill="none" fill-rule="evenodd">
        <path d="M13.3810078,6.37509803 L13.5643337,6.5507775 L15.0000494,7.9867157 L15.0020494,7.9837157 L16.4160494,9.3977157 L14.9998692,10.8151817 L12.1805552,7.99478478 L12.0283839,7.84832867 C10.5136428,6.45759258 8.16250883,6.50480703 6.7023248,7.96499106 C5.19795765,9.46935821 5.19795765,11.9084193 6.7023248,13.4127864 L12.2434883,18.9546518 L12.3754624,19.0831961 L15.0012225,21.709704 L21.8650494,14.8457157 L23.2790494,16.2597157 L15.0012225,24.5381311 L10.9350494,20.4707157 L10.8611312,20.4000199 L5.28811124,14.827 C3.00269551,12.5415842 3.00269551,8.83619323 5.28811124,6.5507775 C7.51338445,4.32550429 11.0848808,4.26694447 13.3810078,6.37509803 Z M24.7123536,6.5507775 C26.9977694,8.83619323 26.9977694,12.5415842 24.7123536,14.827 L24.6930494,14.8457157 L23.2790494,13.4317157 L23.2981401,13.4127864 C24.8025072,11.9084193 24.8025072,9.46935821 23.2981401,7.96499106 C21.7937729,6.46062391 19.3547119,6.46062391 17.8502741,7.96506173 L17.8310494,7.9837157 L16.4170494,6.5697157 L16.4361312,6.5507775 C18.7215469,4.26536177 22.4269379,4.26536177 24.7123536,6.5507775 Z" id="Combined-Shape" fill="#000000" fill-rule="nonzero"></path>
    </g>
</svg>