<?xml version="1.0" encoding="UTF-8"?>
<svg width="30px" height="30px" viewBox="0 0 30 30" version="1.1" xmlns="http://www.w3.org/2000/svg" xmlns:xlink="http://www.w3.org/1999/xlink">
    <!-- Generator: Sketch 57.1 (83088) - https://sketch.com -->
    <title>Ic/30/Bold/Camera/Black@2x</title>
    <desc>Created with Sketch.</desc>
    <g id="Ic/30/Bold/Camera/Black" stroke="none" stroke-width="1" fill="none" fill-rule="evenodd">
        <path d="M6,17 L6,24 L9,24 L9,26 L4,26 L4,17 L6,17 Z M26,6 L26,26 L11,26 L11,24 L24,24 L24,8 L6,8 L6,15 L4,15 L4,6 L26,6 Z" id="Combined-Shape" fill="#000000" fill-rule="nonzero"></path>
        <path d="M9,3 L21,3 L21,8 L9,8 L9,3 Z M11,5 L11,6 L19,6 L19,5 L11,5 Z" id="Rectangle" fill="#000000" fill-rule="nonzero"></path>
        <path d="M15,21 C17.7614237,21 20,18.7614237 20,16 C20,13.2385763 17.7614237,11 15,11 C12.2385763,11 10,13.2385763 10,16 C10,18.7614237 12.2385763,21 15,21 Z M15,19 C13.3431458,19 12,17.6568542 12,16 C12,14.3431458 13.3431458,13 15,13 C16.6568542,13 18,14.3431458 18,16 C18,17.6568542 16.6568542,19 15,19 Z" id="Oval" fill="#000000" fill-rule="nonzero"></path>
        <polygon id="Path-15" fill="#000000" fill-rule="nonzero" points="20.5 9.5 20.5 11.5 22.5 11.5 22.5 9.5"></polygon>
    </g>
</svg>