<?xml version="1.0" encoding="UTF-8"?>
<svg width="30px" height="30px" viewBox="0 0 30 30" version="1.1" xmlns="http://www.w3.org/2000/svg" xmlns:xlink="http://www.w3.org/1999/xlink">
    <!-- Generator: Sketch 58 (84663) - https://sketch.com -->
    <title>Ic/30/Bold/Filter/Black@2x</title>
    <desc>Created with Sketch.</desc>
    <g id="Ic/30/Bold/Filter/Black" stroke="none" stroke-width="1" fill="none" fill-rule="evenodd">
        <path d="M19,18 C20.3062521,18 21.4175144,18.8348501 21.8293257,20.0000889 L25,20 L25,22 L21.8289758,22.0009007 C21.4168852,23.1656226 20.3058822,24 19,24 C17.6941178,24 16.5831148,23.1656226 16.1710242,22.0009007 L5,22 L5,20 L16.1706743,20.0000889 C16.5824856,18.8348501 17.6937479,18 19,18 Z M19,20 C18.4477153,20 18,20.4477153 18,21 C18,21.5522847 18.4477153,22 19,22 C19.5522847,22 20,21.5522847 20,21 C20,20.4477153 19.5522847,20 19,20 Z M11,12 C12.3062521,12 13.4175144,12.8348501 13.8293257,14.0000889 L25,14 L25,16 L13.8289758,16.0009007 C13.4168852,17.1656226 12.3058822,18 11,18 C9.69411778,18 8.58311485,17.1656226 8.17102423,16.0009007 L5,16 L5,14 L8.17067428,14.0000889 C8.58248558,12.8348501 9.69374794,12 11,12 Z M11,14 C10.4477153,14 10,14.4477153 10,15 C10,15.5522847 10.4477153,16 11,16 C11.5522847,16 12,15.5522847 12,15 C12,14.4477153 11.5522847,14 11,14 Z M19,6 C20.3062521,6 21.4175144,6.8348501 21.8293257,8.00008893 L25,8 L25,10 L21.8289758,10.0009007 C21.4168852,11.1656226 20.3058822,12 19,12 C17.6941178,12 16.5831148,11.1656226 16.1710242,10.0009007 L5,10 L5,8 L16.1706743,8.00008893 C16.5824856,6.8348501 17.6937479,6 19,6 Z M19,8 C18.4477153,8 18,8.44771525 18,9 C18,9.55228475 18.4477153,10 19,10 C19.5522847,10 20,9.55228475 20,9 C20,8.44771525 19.5522847,8 19,8 Z" id="Combined-Shape" fill="#000000" fill-rule="nonzero"></path>
    </g>
</svg>