<?xml version="1.0" encoding="UTF-8"?>
<svg width="30px" height="30px" viewBox="0 0 30 30" version="1.1" xmlns="http://www.w3.org/2000/svg" xmlns:xlink="http://www.w3.org/1999/xlink">
    <!-- Generator: Sketch 57.1 (83088) - https://sketch.com -->
    <title>Ic/30/Line/Exclamation/Black@2x</title>
    <desc>Created with Sketch.</desc>
    <g id="Ic/30/Line/Exclamation/Black" stroke="none" stroke-width="1" fill="none" fill-rule="evenodd">
        <path d="M15,26 C21.0751322,26 26,21.0751322 26,15 C26,8.92486775 21.0751322,4 15,4 C8.92486775,4 4,8.92486775 4,15 C4,21.0751322 8.92486775,26 15,26 Z M15,25 C9.4771525,25 5,20.5228475 5,15 C5,9.4771525 9.4771525,5 15,5 C20.5228475,5 25,9.4771525 25,15 C25,20.5228475 20.5228475,25 15,25 Z" id="Oval" fill="#000000" fill-rule="nonzero"></path>
        <rect id="Rectangle" fill="#000000" x="14.5" y="20" width="1" height="1"></rect>
        <polygon id="Rectangle" fill="#000000" points="14.5 9 15.5 9 15.5 19 14.5 19"></polygon>
    </g>
</svg>