<?xml version="1.0" encoding="UTF-8"?>
<svg width="30px" height="30px" viewBox="0 0 30 30" version="1.1" xmlns="http://www.w3.org/2000/svg" xmlns:xlink="http://www.w3.org/1999/xlink">
    <!-- Generator: Sketch 63.1 (92452) - https://sketch.com -->
    <title>Ic/30/Solid/Hide</title>
    <desc>Created with Sketch.</desc>
    <g id="Ic/30/Solid/Hide" stroke="none" stroke-width="1" fill="none" fill-rule="evenodd">
        <path d="M28,14.9994535 C26.1081657,20.2431471 21.0020608,24 15,24 C12.6285597,24 10.3969848,23.4135273 8.44824368,22.3805989 L11.1925423,19.6373863 C12.2283683,20.4888275 13.5544888,21 15,21 C18.3137085,21 21,18.3137085 21,15 C21,13.5544888 20.4888275,12.2283683 19.6373863,11.1925423 L22.595984,8.23284567 C25.0747799,9.83892103 26.9926301,12.2085633 28,14.9994535 Z M15,6 C17.4361714,6 19.7247377,6.61892653 21.7107005,7.70498107 L18.9404915,10.4752263 C17.8863602,9.55644294 16.5081622,9 15,9 C11.6862915,9 9,11.6862915 9,15 C9,16.5081622 9.55644294,17.8863602 10.4752263,18.9404915 L7.55281999,21.8622256 C5.00199169,20.2553222 3.02743753,17.8470336 2,15.0005465 C3.89183433,9.75685286 8.99793922,6 15,6 Z M18.9255196,11.9028487 C19.5983795,12.7545082 20,13.8303524 20,15 C20,17.7614237 17.7614237,20 15,20 C13.8303524,20 12.7545082,19.5983795 11.9028487,18.9255196 Z M15,10 C16.2316709,10 17.3593262,10.4453435 18.2307244,11.1837889 L11.1837889,18.2307244 C10.4453435,17.3593262 10,16.2316709 10,15 C10,12.2385763 12.2385763,10 15,10 Z" id="Combined-Shape" fill="#000000"></path>
    </g>
</svg>