<svg width="30px" height="30px" viewBox="0 0 30 30" version="1.1" xmlns="http://www.w3.org/2000/svg" xmlns:xlink="http://www.w3.org/1999/xlink">
    <title>Ic/30/Line/Gridview/Black@2x</title>
    <desc>Created with Sketch.</desc>
    <g id="Ic/30/Line/Gridview/Black" stroke="none" stroke-width="1" fill="none" fill-rule="evenodd">
        <path d="M4,4 L14,4 L14,14 L4,14 L4,4 Z M5,5 L5,13 L13,13 L13,5 L5,5 Z" id="Rectangle" fill="#000000" fill-rule="nonzero"></path>
        <path d="M4,16 L14,16 L14,26 L4,26 L4,16 Z M5,17 L5,25 L13,25 L13,17 L5,17 Z" id="Rectangle--2" fill="#000000" fill-rule="nonzero"></path>
        <path d="M16,4 L26,4 L26,14 L16,14 L16,4 Z M17,5 L17,13 L25,13 L25,5 L17,5 Z" id="Rectangle-" fill="#000000" fill-rule="nonzero"></path>
        <path d="M16,16 L26,16 L26,26 L16,26 L16,16 Z M17,17 L17,25 L25,25 L25,17 L17,17 Z" id="Rectangle--3" fill="#000000" fill-rule="nonzero"></path>
    </g>
</svg>