<svg xmlns="http://www.w3.org/2000/svg" width="30" height="30" viewBox="0 0 30 30" class="@@class">
  <title>@@title</title>
  <g fill="none" fill-rule="evenodd">
    <path d="M0 0H30V30H0z"/>
    <g opacity=".8">
      <path class="svg-color svg-color--point" d="M21.712 2.55c2.286 2.286 2.286 5.992 0 8.277l-.729.729-.707-.707.73-.73c1.894-1.894 1.894-4.966 0-6.861-1.896-1.895-4.968-1.895-6.863 0l-.729.729-.707-.707.73-.73c2.285-2.285 5.99-2.285 8.275 0z" transform="translate(3 4)"/>
      <path class="svg-color" d="M10.381 2.375l.157.15 2.168 2.169L12 5.4 9.872 3.273l-.167-.161c-1.91-1.753-4.87-1.693-6.71.146-1.895 1.895-1.895 4.967 0 6.862l5.557 5.557.103.1 3.346 3.347 7.568-7.568.707.707-8.275 8.275-4.066-4.067-.074-.071-5.573-5.573c-2.285-2.285-2.285-5.99 0-8.276C4.513.326 8.085.267 10.381 2.375z" transform="translate(3 4)"/>
    </g>
  </g>
</svg>