<?xml version="1.0" encoding="UTF-8"?>
<svg width="30px" height="30px" viewBox="0 0 30 30" version="1.1" xmlns="http://www.w3.org/2000/svg" xmlns:xlink="http://www.w3.org/1999/xlink">
    <!-- Generator: Sketch 59.1 (86144) - https://sketch.com -->
    <title>Ic/30/Stencil/Show/Black</title>
    <desc>Created with Sketch.</desc>
    <g id="Ic/30/Stencil/Show/Black" stroke="none" stroke-width="1" fill="none" fill-rule="evenodd">
        <path d="M15.0000209,6 C21.001689,6 26.1075225,9.75637329 28.0000077,14.9994535 C26.1081744,20.2431471 21.0020721,24 15.0000209,24 C8.99833965,24 3.89250607,20.2436267 2.00002086,15.0005465 C3.89185423,9.75685286 8.99795654,6 15.0000209,6 Z M15.0000143,7 C9.65870798,7 4.94961698,10.2314007 3.06881007,15.0004688 C4.95022907,19.7690841 9.65912494,23 15.0000143,23 C20.2323144,23 24.8579405,19.8991473 26.8125519,15.2895793 L26.9312185,14.9995312 L26.8125154,14.7095109 C24.8573365,10.1003874 20.2319059,7 15.0000143,7 Z M15,9 C18.3137085,9 21,11.6862915 21,15 C21,18.3137085 18.3137085,21 15,21 C11.8549758,21 9.27511705,18.5802387 9.02061151,15.5009037 L10.0247574,15.500702 C10.2759447,18.0270268 12.4075661,20 15,20 C17.7614237,20 20,17.7614237 20,15 C20,12.2385763 17.7614237,10 15,10 C12.4072233,10 10.275381,11.9734949 10.0246578,14.5003002 L9.02052886,14.5000973 C9.27455798,11.4202857 11.854635,9 15,9 Z" id="Combined-Shape" fill="#000000" fill-rule="nonzero"></path>
    </g>
</svg>