<?xml version="1.0" encoding="UTF-8"?>
<svg width="30px" height="30px" viewBox="0 0 30 30" version="1.1" xmlns="http://www.w3.org/2000/svg" xmlns:xlink="http://www.w3.org/1999/xlink">
    <!-- Generator: Sketch 57.1 (83088) - https://sketch.com -->
    <title>Ic/30/Line/Arrow/Circletop/Black@2x</title>
    <desc>Created with Sketch.</desc>
    <g id="Ic/30/Line/Arrow/Circletop/Black" stroke="none" stroke-width="1" fill="none" fill-rule="evenodd">
        <path d="M15,4 C21.0751322,4 26,8.92486775 26,15 C26,21.0751322 21.0751322,26 15,26 C8.92486775,26 4,21.0751322 4,15 C4,8.92486775 8.92486775,4 15,4 Z M15,5 C9.4771525,5 5,9.4771525 5,15 C5,20.5228475 9.4771525,25 15,25 C20.5228475,25 25,20.5228475 25,15 C25,9.4771525 20.5228475,5 15,5 Z" id="Combined-Shape" fill="#000000" fill-rule="nonzero"></path>
        <polygon id="Fill-1" fill="#000000" points="8.99 17.01 9.697 17.717 15 12.414 20.304 17.717 21.011 17.01 15 11"></polygon>
    </g>
</svg>