<svg width="30px" height="30px" viewBox="0 0 30 30" version="1.1" xmlns="http://www.w3.org/2000/svg" xmlns:xlink="http://www.w3.org/1999/xlink" class="@@class">
    <title>@@title</title>
    <g stroke="none" stroke-width="1" fill="none" fill-rule="evenodd">
        <path d="M5,11 L5,23 L13.4142136,23 L15,24.5857864 L16.5857864,23 L25,23 L25,6 L10,6 L10,5 L26,5 L26,24 L17,24 L15,26 L13,24 L4,24 L4,11 L5,11 Z M4,5 L9,5 L9,6 L5,6 L5,10 L4,10 L4,5 Z" fill="#000000" fill-rule="nonzero"></path>
        <rect fill="#000000" fill-rule="nonzero" x="10" y="14" width="1" height="1"></rect>
        <rect fill="#000000" fill-rule="nonzero" x="19" y="14" width="1" height="1"></rect>
        <rect fill="#000000" fill-rule="nonzero" x="14.5" y="14" width="1" height="1"></rect>
    </g>
</svg>