<?xml version="1.0" encoding="UTF-8"?>
<svg width="30px" height="30px" viewBox="0 0 30 30" version="1.1" xmlns="http://www.w3.org/2000/svg" xmlns:xlink="http://www.w3.org/1999/xlink">
    <!-- Generator: Sketch 57.1 (83088) - https://sketch.com -->
    <title>Ic/30/Bold/Vote/Black@2x</title>
    <desc>Created with Sketch.</desc>
    <g id="Ic/30/Bold/Vote/Black" stroke="none" stroke-width="1" fill="none" fill-rule="evenodd">
        <path d="M24,4 L26,10.5 L24.9902617,26 L5.00973825,26 L4.521,18.5 L6.525,18.5 L6.88368874,24 L23.1163113,24 L23.93,11.5 L6.069,11.5 L6.394,16.5 L4.391,16.5 L4,10.5 L6,4 L24,4 Z M19.8683954,13.542789 L21.2826089,14.9570025 L14.1641093,22.0755022 L10,17.9113928 L11.4142136,16.4971793 L14.1641093,19.247075 L19.8683954,13.542789 Z M22.5228507,6 L7.47714931,6 L6.4,9.5 L23.599,9.5 L22.5228507,6 Z M18,6.7 L18,8.7 L12,8.7 L12,6.7 L18,6.7 Z" id="Combined-Shape" fill="#000000" fill-rule="nonzero"></path>
    </g>
</svg>