<?xml version="1.0" encoding="UTF-8"?>
<svg width="30px" height="30px" viewBox="0 0 30 30" version="1.1" xmlns="http://www.w3.org/2000/svg" xmlns:xlink="http://www.w3.org/1999/xlink">
    <!-- Generator: Sketch 58 (84663) - https://sketch.com -->
    <title>Ic/30/Bold/Share/Black@2x</title>
    <desc>Created with Sketch.</desc>
    <g id="Ic/30/Bold/Share/Black" stroke="none" stroke-width="1" fill="none" fill-rule="evenodd">
        <path d="M20.5,4 C22.9852814,4 25,6.01471863 25,8.5 C25,10.9852814 22.9852814,13 20.5,13 C19.1523063,13 17.9429848,12.4075583 17.1182638,11.4689031 L12.8352273,13.7891732 C12.9426006,14.1744254 13,14.5805095 13,15 C13,15.4194905 12.9426006,15.8255746 12.8352273,16.2108268 L17.1182638,18.5310969 C17.9429848,17.5924417 19.1523063,17 20.5,17 C22.9852814,17 25,19.0147186 25,21.5 C25,23.9852814 22.9852814,26 20.5,26 C18.0147186,26 16,23.9852814 16,21.5 C16,21.0804398 16.0574185,20.6742904 16.1648262,20.2889811 L11.8814428,17.9692369 C11.2672833,18.6681035 10.4399031,19.1750002 9.50095434,19.3882751 L9.50083003,17.2916153 C10.3833391,16.9056476 11,16.0248383 11,15 C11,14.0392141 10.4580129,13.2050162 9.66309942,12.7864669 L9.50083003,12.7083847 L9.50095434,10.6117249 C10.4399031,10.8249998 11.2672833,11.3318965 11.8814428,12.0307631 L16.1648262,9.71101886 C16.0574185,9.32570957 16,8.91956019 16,8.5 C16,6.01471863 18.0147186,4 20.5,4 Z M20.5,19 C19.1192881,19 18,20.1192881 18,21.5 C18,22.8807119 19.1192881,24 20.5,24 C21.8807119,24 23,22.8807119 23,21.5 C23,20.1192881 21.8807119,19 20.5,19 Z M7.50004231,10.6114986 L7.50017484,12.7079455 C6.61712907,13.0936838 6,13.9747728 6,15 C6,16.0252272 6.61712907,16.9063162 7.50017484,17.2920545 L7.50004231,19.3885014 C5.49603236,18.9337878 4,17.1416025 4,15 C4,12.8583975 5.49603236,11.0662122 7.50004231,10.6114986 Z M20.5,6 C19.1192881,6 18,7.11928813 18,8.5 C18,9.88071187 19.1192881,11 20.5,11 C21.8807119,11 23,9.88071187 23,8.5 C23,7.11928813 21.8807119,6 20.5,6 Z" id="Combined-Shape" fill="#000000" fill-rule="nonzero"></path>
    </g>
</svg>