<?xml version="1.0" encoding="UTF-8"?>
<svg width="30px" height="30px" viewBox="0 0 30 30" version="1.1" xmlns="http://www.w3.org/2000/svg" xmlns:xlink="http://www.w3.org/1999/xlink">
    <!-- Generator: Sketch 59.1 (86144) - https://sketch.com -->
    <title>Ic/30/Line/Gif/Black@2x</title>
    <desc>Created with Sketch.</desc>
    <g id="Ic/30/Line/Gif/Black" stroke="none" stroke-width="1" fill="none" fill-rule="evenodd">
        <path d="M15,4 C21.0751322,4 26,8.92486775 26,15 C26,21.0751322 21.0751322,26 15,26 C8.92486775,26 4,21.0751322 4,15 C4,8.92486775 8.92486775,4 15,4 Z M15,5 C9.4771525,5 5,9.4771525 5,15 C5,20.5228475 9.4771525,25 15,25 C20.5228475,25 25,20.5228475 25,15 C25,9.4771525 20.5228475,5 15,5 Z M11.638,11.858 C12.43,11.858 12.97,12.029 13.33,12.218 L13.33,12.218 L13.33,13.1 C12.961,12.938 12.484,12.758 11.665,12.758 C10.216,12.758 9.784,13.73 9.784,14.891 L9.784,14.891 L9.78579102,15.3277891 C9.8136875,16.5221719 10.177375,17.357 11.566,17.357 C11.926,17.357 12.286,17.294 12.511,17.222 L12.511,17.222 L12.511,15.818 L11.368,15.818 L11.368,14.99 L13.591,14.99 L13.591,17.852 C13.123,18.041 12.403,18.23 11.575,18.23 C9.766,18.23 8.614,17.339 8.614,15.17 L8.614,15.17 L8.614,14.981 C8.614,12.632 10.036,11.858 11.638,11.858 Z M16.003,11.957 L16.003,18.131 L14.887,18.131 L14.887,11.957 L16.003,11.957 Z M21.277,11.957 L21.277,12.83 L18.595,12.83 L18.595,14.675 L20.683,14.675 L20.683,15.53 L18.595,15.53 L18.595,18.131 L17.488,18.131 L17.488,11.957 L21.277,11.957 Z" id="Combined-Shape" fill="#000000" fill-rule="nonzero"></path>
    </g>
</svg>