<svg width="30px" height="30px" viewBox="0 0 30 30" version="1.1" xmlns="http://www.w3.org/2000/svg" xmlns:xlink="http://www.w3.org/1999/xlink" class="@@class">
  <title>@@title</title>
  <g class="svg-color">
    <path d="M7.5,21.5 L7.5,24.9444444 L9.5,24.944 L9.499,26 L6.5,26 L6.5,21.5 L7.5,21.5 Z M15,3 C17.3115065,3 19.2443605,4.69963269 19.8230721,7.00002454 L23.5,7 L23.5,26 L10.499,26 L10.5,24.944 L22.5,24.9444444 L22.5,8.05555556 L19.9877206,8.05491032 C19.995862,8.18175558 20,8.30977251 20,8.43880931 L20,8.43880931 L20,10 L19,10 L19,8.43880931 C19,8.30964017 18.9950378,8.18180361 18.9853164,8.05551551 L11.0146836,8.05551551 C11.0049622,8.18180361 11,8.30964017 11,8.43880931 L11,8.43880931 L11,10 L10,10 L10,8.43880931 C10,8.30977251 10.004138,8.18175558 10.0122794,8.05491032 L7.5,8.05555556 L7.5,20.5 L6.5,20.5 L6.5,7 L10.1769279,7.00002454 C10.7556395,4.69963269 12.6884935,3 15,3 Z M15,4 C13.2521607,4 11.7549555,5.25017695 11.214817,6.99972065 L18.785183,6.99972065 C18.2450445,5.25017695 16.7478393,4 15,4 Z"></path>
  </g>
</svg>