<?xml version="1.0" encoding="UTF-8"?>
<svg width="30px" height="30px" viewBox="0 0 30 30" version="1.1" xmlns="http://www.w3.org/2000/svg" xmlns:xlink="http://www.w3.org/1999/xlink">
    <!-- Generator: Sketch 57.1 (83088) - https://sketch.com -->
    <title>Ic/30/Line/Refresh/Black@2x</title>
    <desc>Created with Sketch.</desc>
    <g id="Ic/30/Line/Refresh/Black" stroke="none" stroke-width="1" fill="none" fill-rule="evenodd">
        <path d="M19.5,12.5 L19.5,11.5 L23.2944148,11.5007672 C21.9290835,8.26841726 18.7294504,6 15,6 C10.0294373,6 6,10.0294373 6,15 C6,19.9705627 10.0294373,24 15,24 C19.9705627,24 24,19.9705627 24,15 C24,14.8322671 23.9954115,14.665606 23.9863532,14.5001352 L24.9877141,14.4999314 C24.9958727,14.6655929 25,14.8323145 25,15 C25,20.5228475 20.5228475,25 15,25 C9.4771525,25 5,20.5228475 5,15 C5,9.4771525 9.4771525,5 15,5 C18.9595384,5 22.3815897,7.30125587 24.0016414,10.639255 L24,7 L25,7 L25,12.5 L23.648358,12.5004321 L19.5,12.5 Z" id="Combined-Shape" fill="#000000" fill-rule="nonzero"></path>
    </g>
</svg>