<?xml version="1.0" encoding="UTF-8"?>
<svg width="30px" height="30px" viewBox="0 0 30 30" version="1.1" xmlns="http://www.w3.org/2000/svg" xmlns:xlink="http://www.w3.org/1999/xlink">
    <!-- Generator: Sketch 57.1 (83088) - https://sketch.com -->
    <title>Ic/30/Line/Arrow/Circlebottom/Black@2x</title>
    <desc>Created with Sketch.</desc>
    <g id="Ic/30/Line/Arrow/Circlebottom/Black" stroke="none" stroke-width="1" fill="none" fill-rule="evenodd">
        <path d="M15,26 C21.0751322,26 26,21.0751322 26,15 C26,8.92486775 21.0751322,4 15,4 C8.92486775,4 4,8.92486775 4,15 C4,21.0751322 8.92486775,26 15,26 Z M15,25 C9.4771525,25 5,20.5228475 5,15 C5,9.4771525 9.4771525,5 15,5 C20.5228475,5 25,9.4771525 25,15 C25,20.5228475 20.5228475,25 15,25 Z" id="Oval" fill="#000000" fill-rule="nonzero"></path>
        <polygon id="Fill-1" fill="#000000" points="15 17.804 9.697 12.5 8.99 13.208 15 19.218 21.01 13.208 20.304 12.5"></polygon>
    </g>
</svg>