<?xml version="1.0" encoding="UTF-8"?>
<svg width="30px" height="30px" viewBox="0 0 30 30" version="1.1" xmlns="http://www.w3.org/2000/svg" xmlns:xlink="http://www.w3.org/1999/xlink">
    <!-- Generator: Sketch 57.1 (83088) - https://sketch.com -->
    <title>Ic/30/Bold/Thumbup/Black@2x</title>
    <desc>Created with Sketch.</desc>
    <g id="Ic/30/Bold/Thumbup/Black" stroke="none" stroke-width="1" fill="none" fill-rule="evenodd">
        <path d="M11,12 L11,26 L4,26 L4,12 L11,12 Z M9,14 L6,14 L6,24 L9,24 L9,14 Z" id="Combined-Shape" fill="#000000" fill-rule="nonzero"></path>
        <path d="M12.6081018,5.076006 C12.7716859,5.10525162 12.9309875,5.15477096 13.0823232,5.22341912 L14.6694617,5.94336889 C16.3356135,6.69916028 17.2766111,8.48906773 16.9546275,10.2900699 L16.6489258,12 L23.9713643,12 C25.0759338,12 25.9713643,12.8954305 25.9713643,14 C25.9713643,14.1199314 25.9605767,14.2396197 25.9391319,14.3576182 L24.2709932,23.5364273 C24.0117296,24.9630059 22.769288,26 21.3193418,26 L16,25.99945 L16,23.99945 L21.3193418,24 C21.8026572,24 22.2168044,23.6543353 22.3032256,23.1788091 L23.9713643,14 L14.2596543,14 L14.9858435,9.93809027 C15.1468353,9.03758916 14.6763365,8.14263544 13.8432606,7.76473974 L12.2561221,7.04478997 L11.012668,14 L11,14 L11,24 L14,23.99945 L14,25.99945 L9,26 L9,12 L9.3385175,12 L10.2873382,6.6928103 C10.4817312,5.60548094 11.5207724,4.881613 12.6081018,5.076006 Z" id="Combined-Shape" fill="#000000" fill-rule="nonzero"></path>
    </g>
</svg>