<?xml version="1.0" encoding="UTF-8"?>
<svg width="30px" height="30px" viewBox="0 0 30 30" version="1.1" xmlns="http://www.w3.org/2000/svg" xmlns:xlink="http://www.w3.org/1999/xlink">
    <!-- Generator: Sketch 63.1 (92452) - https://sketch.com -->
    <title>Ic/30/Line/Map</title>
    <desc>Created with Sketch.</desc>
    <g id="Ic/30/Line/Map" stroke="none" stroke-width="1" fill="none" fill-rule="evenodd">
        <path d="M19.0988733,21.18 C21.7636151,21.6743636 23.5,22.6337595 23.5,23.9127001 C23.5,25.7702898 19.6977117,27 15,27 C10.3022883,27 6.5,25.7702898 6.5,23.9127001 C6.5,22.6328384 8.23343708,21.6757626 10.9016166,21.1803078 L11.2397896,21.7056356 L11.2397896,21.7056356 L11.519,22.137 L11.4905781,22.0935177 C9.06062416,22.490558 7.5,23.2750039 7.5,23.9127001 C7.5,24.9129417 10.861206,26 15,26 C19.138794,26 22.5,24.9129417 22.5,23.9127001 C22.5,23.2703784 20.9320023,22.4897922 18.5069749,22.0933019 L19.0988733,21.18 Z M15,3 C19.140995,3 22.5,6.32408276 22.5,10.4272237 C22.5,11.6756951 22.1882156,12.8805906 21.6013401,13.9553215 C21.1519093,14.7783493 20.1541629,16.3982068 18.7594295,18.5917949 L18.7594295,18.5917949 L17.5435483,20.492805 L16.421581,22.2308927 L14.999765,24.4142006 L14.5813392,23.7733553 L12.2374945,20.1490841 L11.3749438,18.799552 L10.3586314,17.173108 C9.54883299,15.8691833 8.9853662,14.9514327 8.6648333,14.4140914 L8.6648333,14.4140914 L8.40654236,13.9697636 C7.81460535,12.8914161 7.5,11.6813274 7.5,10.4272237 C7.5,6.32408276 10.859005,3 15,3 Z M15,4 C11.4089638,4 8.5,6.87872048 8.5,10.4272237 C8.5,11.5119379 8.77162041,12.5566906 9.28314234,13.4885438 C9.36487182,13.6374152 9.54306955,13.9377703 9.81679348,14.3880228 L9.81679348,14.3880228 L12.0363693,17.9761294 L13.079326,19.6093434 L14.4187,21.6872807 L15,22.583 L16.4800888,20.297477 L17.7845196,18.2611913 L18.4833628,17.1591103 C19.3882795,15.7254467 20.082042,14.5973473 20.5037674,13.8663025 L20.5037674,13.8663025 L20.7236712,13.476054 C21.230816,12.5473318 21.5,11.5070666 21.5,10.4272237 C21.5,6.87872048 18.5910362,4 15,4 Z M15,7 C16.9330069,7 18.5,8.56701765 18.5,10.5 C18.5,12.4329823 16.9330069,14 15,14 C13.0669931,14 11.5,12.4329823 11.5,10.5 C11.5,8.56701765 13.0669931,7 15,7 Z M15,8 C13.6192813,8 12.5,9.11929889 12.5,10.5 C12.5,11.8807011 13.6192813,13 15,13 C16.3807187,13 17.5,11.8807011 17.5,10.5 C17.5,9.11929889 16.3807187,8 15,8 Z" id="Combined-Shape" fill="#000000"></path>
    </g>
</svg>