<?xml version="1.0" encoding="UTF-8"?>
<svg width="30px" height="30px" viewBox="0 0 30 30" version="1.1" xmlns="http://www.w3.org/2000/svg" xmlns:xlink="http://www.w3.org/1999/xlink">
    <!-- Generator: Sketch 57.1 (83088) - https://sketch.com -->
    <title>Ic/30/Bold/Mike/Black@2x</title>
    <desc>Created with Sketch.</desc>
    <g id="Ic/30/Bold/Mike/Black" stroke="none" stroke-width="1" fill="none" fill-rule="evenodd">
        <path d="M15,4 C17.7614237,4 20,6.23857625 20,9 L20,16 C20,18.7614237 17.7614237,21 15,21 C12.2385763,21 10,18.7614237 10,16 L10,14 L12,14 L12,16 C12,17.6568542 13.3431458,19 15,19 C16.6568542,19 18,17.6568542 18,16 L18,9 C18,7.34314575 16.6568542,6 15,6 C13.3431458,6 12,7.34314575 12,9 L12,12 L10,12 L10,9 C10,6.23857625 12.2385763,4 15,4 Z" id="Combined-Shape" fill="#000000" fill-rule="nonzero"></path>
        <path d="M21,16 L21,16.4 C21,19.4792106 18.3264355,22 15,22 C11.6735645,22 9,19.4792106 9,16.4 L9,16 L7,16 L7,16.4 C7,20.6109481 10.594449,24 15,24 C19.405551,24 23,20.6109481 23,16.4 L23,16 L21,16 Z" id="Shape" fill="#000000" fill-rule="nonzero"></path>
        <polygon id="Path-19" fill="#000000" fill-rule="nonzero" points="16 27 16 23 14 23 14 27"></polygon>
    </g>
</svg>