<?xml version="1.0" encoding="UTF-8"?>
<svg width="30px" height="30px" viewBox="0 0 30 30" version="1.1" xmlns="http://www.w3.org/2000/svg" xmlns:xlink="http://www.w3.org/1999/xlink">
    <!-- Generator: Sketch 57.1 (83088) - https://sketch.com -->
    <title>Ic/30/Stencil/Sound/Black@2x</title>
    <desc>Created with Sketch.</desc>
    <g id="Ic/30/Stencil/Sound/Black" stroke="none" stroke-width="1" fill="none" fill-rule="evenodd">
        <path d="M13.5,10 L13.5,20.75 L13.5,20.75 C13.5,23.0972102 11.5972102,25 9.25,25 C7.15905831,25 5.42079093,23.4900217 5.06614736,21.5010146 L6.08712248,21.5006625 C6.42594459,22.9336786 7.71344595,24 9.25,24 C11.0449254,24 12.5,22.5449254 12.5,20.75 C12.5,18.9550746 11.0449254,17.5 9.25,17.5 C7.53907354,17.5 6.13693354,18.822072 6.00944578,20.5003503 L5.00723122,20.4999943 C5.13663849,18.2691521 6.98671544,16.5 9.25,16.5 C10.5540586,16.5 11.7209392,17.0873285 12.5005482,18.0118916 L12.5,10 L13.5,10 Z M25,7 L25,19.3890089 L24.9962312,19.389 L24.9950991,19.4559163 C24.8876867,21.707493 23.0281746,23.5 20.75,23.5 C18.4027898,23.5 16.5,21.5972102 16.5,19.25 C16.5,16.9027898 18.4027898,15 20.75,15 C22.0540586,15 23.2209392,15.5873285 24.0005482,16.5118916 L24,7 L25,7 Z M20.75,16 C18.9550746,16 17.5,17.4550746 17.5,19.25 C17.5,21.0449254 18.9550746,22.5 20.75,22.5 C22.5449254,22.5 24,21.0449254 24,19.25 C24,17.4550746 22.5449254,16 20.75,16 Z M25,5 L25,6 L22,6 L22,6.026 L13.5,6.13900894 L13.5,9 L12.5,9 L12.5,5 L25,5 Z" id="Combined-Shape" fill="#000000" fill-rule="nonzero"></path>
    </g>
</svg>