<?xml version="1.0" encoding="UTF-8"?>
<svg width="30px" height="30px" viewBox="0 0 30 30" version="1.1" xmlns="http://www.w3.org/2000/svg" xmlns:xlink="http://www.w3.org/1999/xlink">
    <!-- Generator: Sketch 57.1 (83088) - https://sketch.com -->
    <title>Ic/30/Bold/Gif/Black@2x</title>
    <desc>Created with Sketch.</desc>
    <g id="Ic/30/Bold/Gif/Black" stroke="none" stroke-width="1" fill="none" fill-rule="evenodd">
        <path d="M15,4 C21.0751322,4 26,8.92486775 26,15 C26,21.0751322 21.0751322,26 15,26 C8.92486775,26 4,21.0751322 4,15 C4,8.92486775 8.92486775,4 15,4 Z M15,6 C10.0294373,6 6,10.0294373 6,15 C6,19.9705627 10.0294373,24 15,24 C19.9705627,24 24,19.9705627 24,15 C24,10.0294373 19.9705627,6 15,6 Z M11.474,11.975 C12.311,11.975 12.959,12.137 13.292,12.308 L13.292,12.308 L13.292,13.55 C12.959,13.433 12.464,13.271 11.708,13.271 C10.421,13.271 10.079,13.937 10.079,14.954 L10.079,14.954 L10.079,15.224 C10.079,16.349 10.322,17.006 11.375,17.006 C11.627,17.006 11.879,16.961 12.023,16.907 L12.023,16.907 L12.023,15.962 L11.159,15.962 L11.159,14.855 L13.598,14.855 L13.598,17.825 C13.148,18.014 12.293,18.212 11.429,18.212 C9.512,18.212 8.333,17.42 8.333,15.197 L8.333,15.197 L8.333,14.999 C8.333,12.704 9.8,11.975 11.474,11.975 Z M16.334,12.074 L16.334,18.122 L14.633,18.122 L14.633,12.074 L16.334,12.074 Z M21.662,12.074 L21.662,13.289 L19.196,13.289 L19.196,14.657 L21.122,14.657 L21.122,15.845 L19.196,15.845 L19.196,18.122 L17.504,18.122 L17.504,12.074 L21.662,12.074 Z" id="Mask" fill="#000000" fill-rule="nonzero"></path>
    </g>
</svg>