<?xml version="1.0" encoding="UTF-8"?>
<svg width="30px" height="30px" viewBox="0 0 30 30" version="1.1" xmlns="http://www.w3.org/2000/svg" xmlns:xlink="http://www.w3.org/1999/xlink">
    <!-- Generator: Sketch 57.1 (83088) - https://sketch.com -->
    <title>Ic/30/Line/Hanger/Black@2x</title>
    <desc>Created with Sketch.</desc>
    <g id="Ic/30/Line/Hanger/Black" stroke="none" stroke-width="1" fill="none" fill-rule="evenodd">
        <path d="M14.45,5.17 C16.3853994,5.17 17.95,6.76815816 17.95,8.73512186 C17.948694,9.574183 17.6251232,10.3341391 16.9968771,10.9937649 C16.6212852,11.3881168 16.1922329,11.8348884 15.7096892,12.3341137 L27,23.628 L3,23.628 L15,11.628 L15.1266265,11.4983887 C15.5524984,11.0572989 15.9345492,10.6591915 16.2727562,10.3040918 C16.7292215,9.82482694 16.9491063,9.30839347 16.95,8.73434396 C16.95,7.31574889 15.8283091,6.17 14.45,6.17 C13.0598114,6.17 11.95,7.27858295 11.95,8.68536445 L11.95,8.68536445 L10.95,8.68536445 C10.95,6.72605013 12.5077744,5.17 14.45,5.17 Z M15,13.0422136 L5.41421356,22.628 L24.5857864,22.628 L15,13.0422136 Z" id="Combined-Shape" fill="#000000" fill-rule="nonzero"></path>
    </g>
</svg>