<?xml version="1.0" encoding="UTF-8"?>
<svg width="30px" height="30px" viewBox="0 0 30 30" version="1.1" xmlns="http://www.w3.org/2000/svg" xmlns:xlink="http://www.w3.org/1999/xlink">
    <!-- Generator: Sketch 57.1 (83088) - https://sketch.com -->
    <title>Ic/30/Bold/Trash/Black@2x</title>
    <desc>Created with Sketch.</desc>
    <g id="Ic/30/Bold/Trash/Black" stroke="none" stroke-width="1" fill="none" fill-rule="evenodd">
        <path d="M9,13.5 L9,23 L12,22.999 L11.999,24.999 L7,25 L7,13.5 L9,13.5 Z M20,2.5 L20,6.499 L23,6.5 L23,6.5 L25,6.5 L25,8.5 L23,8.5 L23,25 L13.999,24.999 L14,22.999 L21,23 L21,8.5 L9,8.5 L9,11.5 L7,11.5 L7,8.5 L5,8.5 L5,6.5 L7,6.5 L7,6.5 L10,6.499 L10,2.5 L20,2.5 Z M18,13.5 L18,18.5 L16,18.5 L16,13.5 L18,13.5 Z M14,13.5 L14,18.5 L12,18.5 L12,13.5 L14,13.5 Z M18,4.5 L12,4.5 L12,6.499 L18,6.499 L18,4.5 Z" id="Combined-Shape" fill="#000000" fill-rule="nonzero"></path>
    </g>
</svg>