<?xml version="1.0" encoding="UTF-8"?>
<svg width="30px" height="30px" viewBox="0 0 30 30" version="1.1" xmlns="http://www.w3.org/2000/svg" xmlns:xlink="http://www.w3.org/1999/xlink">
    <!-- Generator: Sketch 63.1 (92452) - https://sketch.com -->
    <title>Ic/30/Stencil/PHome</title>
    <desc>Created with Sketch.</desc>
    <g id="Ic/30/Stencil/PHome" stroke="none" stroke-width="1" fill="none" fill-rule="evenodd">
        <path d="M16.2828078,9.5 C18.6809656,9.5 20.1566091,11.0557045 19.9867481,13.0200369 C19.8168113,14.9842156 18.38699,16.5401505 15.6738422,16.5401505 L15.6738422,16.5401505 L13.2371451,16.5401505 L12.894692,20.5 L10.4938031,20.5 L11.2576844,11.6686463 L10,11.6686463 L10.1875374,9.5 Z M16.0618899,11.668339 L13.6585733,11.6686463 L13.4247584,14.3715043 L15.6998637,14.3710434 C16.5534929,14.3710434 17.4742623,13.899662 17.5502787,13.0201137 C17.6263709,12.1396436 16.8843387,11.668339 16.0618899,11.668339 L16.0618899,11.668339 Z" id="Combined-Shape" fill="#000000"></path>
        <path d="M26,4 L26,26 L4,26 L4,16 L6,16 L6,24 L24,24 L24,6 L6,6 L6,14 L4,14 L4,4 L26,4 Z" id="Combined-Shape" fill="#000000" fill-rule="nonzero"></path>
    </g>
</svg>