<?xml version="1.0" encoding="UTF-8"?>
<svg width="30px" height="30px" viewBox="0 0 30 30" version="1.1" xmlns="http://www.w3.org/2000/svg" xmlns:xlink="http://www.w3.org/1999/xlink">
    <!-- Generator: Sketch 57.1 (83088) - https://sketch.com -->
    <title>Ic/30/Bold/Link/Black@2x</title>
    <desc>Created with Sketch.</desc>
    <g id="Ic/30/Bold/Link/Black" stroke="none" stroke-width="1" fill="none" fill-rule="evenodd">
        <path d="M24.3492424,5.53553391 C26.3018639,7.48815536 26.3018639,10.6539803 24.3492424,12.6066017 L20.1066017,16.8492424 C18.1539803,18.8018639 14.9881554,18.8018639 13.0355339,16.8492424 C12.2854399,16.0991484 11.8234924,15.1700232 11.6496914,14.1994154 L13.7042894,14.199821 C13.8435677,14.6517883 14.0920537,15.0773351 14.4497475,15.4350288 C15.6213203,16.6066017 17.5208153,16.6066017 18.6923882,15.4350288 L22.9350288,11.1923882 C24.1066017,10.0208153 24.1066017,8.12132034 22.9350288,6.94974747 C21.763456,5.77817459 19.863961,5.77817459 18.6923882,6.94974747 L15.4417961,10.1990678 L12.6588033,10.1994337 C12.7750609,10.0537571 12.9006378,9.91307072 13.0355339,9.77817459 L17.2781746,5.53553391 C19.2307961,3.58291245 22.3966209,3.58291245 24.3492424,5.53553391 Z" id="Combined-Shape" fill="#000000" fill-rule="nonzero"></path>
        <path d="M16.8492424,12.5355339 C17.6029538,13.2892453 18.0657327,14.2237188 18.2375793,15.1994063 L16.1847816,15.1990145 C16.0463469,14.7418149 15.7964293,14.3111479 15.4350288,13.9497475 C14.263456,12.7781746 12.363961,12.7781746 11.1923882,13.9497475 L6.94974747,18.1923882 C5.77817459,19.363961 5.77817459,21.263456 6.94974747,22.4350288 C8.12132034,23.6066017 10.0208153,23.6066017 11.1923882,22.4350288 L14.4270678,19.1990678 L17.2140506,19.200224 C17.1011425,19.3406047 16.9795398,19.4763043 16.8492424,19.6066017 L12.6066017,23.8492424 C10.6539803,25.8018639 7.48815536,25.8018639 5.53553391,23.8492424 C3.58291245,21.8966209 3.58291245,18.7307961 5.53553391,16.7781746 L9.77817459,12.5355339 C11.7307961,10.5829124 14.8966209,10.5829124 16.8492424,12.5355339 Z" id="Combined-Shape" fill="#000000" fill-rule="nonzero"></path>
    </g>
</svg>