<?xml version="1.0" encoding="UTF-8"?>
<svg width="30px" height="30px" viewBox="0 0 30 30" version="1.1" xmlns="http://www.w3.org/2000/svg" xmlns:xlink="http://www.w3.org/1999/xlink">
    <!-- Generator: Sketch 57.1 (83088) - https://sketch.com -->
    <title>Ic/30/Stencil/Write/Black@2x</title>
    <desc>Created with Sketch.</desc>
    <g id="Ic/30/Stencil/Write/Black" stroke="none" stroke-width="1" fill="none" fill-rule="evenodd">
        <path d="M18,5 L18,6 L6,6 L6,24 L24,24 L24,12 L25,12 L25,25 L5,25 L5,5 L18,5 Z" id="Combined-Shape" fill="#000000" fill-rule="nonzero"></path>
        <polygon id="Path-32" fill="#000000" fill-rule="nonzero" points="8 9 16 9 16 8 8 8"></polygon>
        <polygon id="Path-32" fill="#000000" fill-rule="nonzero" points="8 12 13 12 13 11 8 11"></polygon>
        <path d="M16.2789367,2.77785893 L20.2789367,2.77785893 L20.2789367,18.7778589 L18.2810922,20.7800144 L16.2789367,18.7778589 L16.2789367,2.77785893 Z M17.2789367,3.77785893 L17.2789367,18.3636454 L18.2803297,19.3650384 L19.2789367,18.3642766 L19.2789367,3.77785893 L17.2789367,3.77785893 Z" id="Rectangle" fill="#000000" fill-rule="nonzero" transform="translate(18.278937, 11.778937) rotate(-315.000000) translate(-18.278937, -11.778937) "></path>
    </g>
</svg>