<?xml version="1.0" encoding="UTF-8"?>
<svg width="30px" height="30px" viewBox="0 0 30 30" version="1.1" xmlns="http://www.w3.org/2000/svg" xmlns:xlink="http://www.w3.org/1999/xlink">
    <!-- Generator: Sketch 62 (91390) - https://sketch.com -->
    <title>Ic/30/stencil/notice</title>
    <desc>Created with Sketch.</desc>
    <defs>
        <path d="M18.3900931,3 L18.3900931,27 L10.0824008,20.5384615 L10.0819392,17.223 L10.0809392,17.2235385 L10.0817294,10.3837762 L5.46634483,10.3837762 L5.46593924,15.923 L4.54393924,15.923 L4.54393924,9.46153846 L10.0824008,9.46153846 L18.3900931,3 Z M17.4663448,4.88685315 L11.0049392,9.912 L11.0049392,20.087 L17.4663448,25.1123916 L17.4663448,4.88685315 Z M19.4560608,9 C22.7697693,9 25.4560608,11.6862915 25.4560608,15 C25.4560608,18.2416714 22.885295,20.8829082 19.6712615,20.9962126 L19.4560608,21 L19.4560608,20.0769231 C22.259968,20.0769231 24.5329838,17.8039072 24.5329838,15 C24.5329838,12.2644808 22.3694946,10.0342716 19.660252,9.92710819 L19.4560608,9.92307692 L19.4560608,9 Z M5.46593924,16.923 L5.46634483,19.6145455 L9.15893924,19.6145385 L9.15893924,20.5375385 L4.54393924,20.5384615 L4.54393924,16.923 L5.46593924,16.923 Z" id="path-1"></path>
    </defs>
    <g id="Ic/30/stencil/notice" stroke="none" stroke-width="1" fill="none" fill-rule="evenodd">
        <mask id="mask-2" fill="white">
            <use xlink:href="#path-1"></use>
        </mask>
        <use id="Mask" fill="#000000" xlink:href="#path-1"></use>
    </g>
</svg>