<?xml version="1.0" encoding="UTF-8"?>
<svg width="30px" height="30px" viewBox="0 0 30 30" version="1.1" xmlns="http://www.w3.org/2000/svg" xmlns:xlink="http://www.w3.org/1999/xlink">
    <!-- Generator: Sketch 57.1 (83088) - https://sketch.com -->
    <title>Ic/30/Bold/Bag/Black@2x</title>
    <desc>Created with Sketch.</desc>
    <g id="Ic/30/Bold/Bag/Black" stroke="none" stroke-width="1" fill="none" fill-rule="evenodd">
        <path d="M8.5,20 L8.5,25 L11.5,25 L11.499,27 L6.5,27 L6.5,20 L8.5,20 Z M23.5,7.5 L23.5,27 L13.499,27 L13.5,25 L21.5,25 L21.5,9.5 L8.5,9.5 L8.5,18 L6.5,18 L6.5,7.5 L23.5,7.5 Z" id="Combined-Shape" fill="#000000" fill-rule="nonzero"></path>
        <path d="M18,8 C18,6.34314575 16.6568542,5 15,5 C13.3431458,5 12,6.34314575 12,8 L12,9 L12,11 L10,11 L10,8 C10,5.23857625 12.2385763,3 15,3 C17.7614237,3 20,5.23857625 20,8 L20,11 L18,11 L18,9 L18,8 Z" id="Combined-Shape" fill="#000000" fill-rule="nonzero"></path>
    </g>
</svg>