<?xml version="1.0" encoding="UTF-8"?>
<svg width="30px" height="30px" viewBox="0 0 30 30" version="1.1" xmlns="http://www.w3.org/2000/svg" xmlns:xlink="http://www.w3.org/1999/xlink">
    <!-- Generator: Sketch 57.1 (83088) - https://sketch.com -->
    <title>Ic/30/Stencil/Gif/Black@2x</title>
    <desc>Created with Sketch.</desc>
    <g id="Ic/30/Stencil/Gif/Black" stroke="none" stroke-width="1" fill="none" fill-rule="evenodd">
        <path d="M15,4 C21.0751322,4 26,8.92486775 26,15 C26,21.0751322 21.0751322,26 15,26 C9.0927785,26 4.27311582,21.3436072 4.01120686,15.5010164 L5.01233508,15.5010665 C5.27338575,20.7911215 9.64517475,25 15,25 C20.5228475,25 25,20.5228475 25,15 C25,9.4771525 20.5228475,5 15,5 C9.64483803,5 5.27283594,9.20940785 5.01228588,14.4999314 L4.01116205,14.499984 C4.27256563,8.65692439 9.09244133,4 15,4 Z M11.638,11.858 C12.3508,11.858 12.85948,11.99651 13.216528,12.161993 L13.33,12.218 L13.33,13.1 C12.961,12.938 12.484,12.758 11.665,12.758 C10.276375,12.758 9.82176563,13.6506875 9.78629232,14.746916 L9.784,14.891 L9.784,15.17 C9.784,16.448 10.117,17.357 11.566,17.357 C11.866,17.357 12.166,17.31325 12.387875,17.257 L12.511,17.222 L12.511,15.818 L11.368,15.818 L11.368,14.99 L13.591,14.99 L13.591,17.852 C13.123,18.041 12.403,18.23 11.575,18.23 C9.82837931,18.23 8.69422949,17.3993888 8.6180891,15.3898363 L8.614,15.17 L8.614,14.981 C8.614,12.632 10.036,11.858 11.638,11.858 Z M16.003,11.957 L16.003,18.131 L14.887,18.131 L14.887,11.957 L16.003,11.957 Z M21.277,11.957 L21.277,12.83 L18.595,12.83 L18.595,14.675 L20.683,14.675 L20.683,15.53 L18.595,15.53 L18.595,18.131 L17.488,18.131 L17.488,11.957 L21.277,11.957 Z" id="Combined-Shape" fill="#000000" fill-rule="nonzero"></path>
    </g>
</svg>