<?xml version="1.0" encoding="UTF-8"?>
<svg width="30px" height="30px" viewBox="0 0 30 30" version="1.1" xmlns="http://www.w3.org/2000/svg" xmlns:xlink="http://www.w3.org/1999/xlink">
    <!-- Generator: Sketch 57.1 (83088) - https://sketch.com -->
    <title>Ic/30/Bold/Smile/Black@2x</title>
    <desc>Created with Sketch.</desc>
    <g id="Ic/30/Bold/Smile/Black" stroke="none" stroke-width="1" fill="none" fill-rule="evenodd">
        <path d="M15,4 C21.0751322,4 26,8.92486775 26,15 C26,21.0751322 21.0751322,26 15,26 C9.26220473,26 4.55047792,21.6068787 4.04490836,16.0007248 L6.05500569,16.0006955 C6.55276616,20.5003111 10.367685,24 15,24 C19.9705627,24 24,19.9705627 24,15 C24,10.0294373 19.9705627,6 15,6 C10.3673423,6 6.5522017,9.50020676 6.05489527,14.0003032 L4.04481833,14.000274 C4.5499183,8.39364311 9.26186398,4 15,4 Z M12,16 C12,17.6568542 13.3431458,19 15,19 C16.6568542,19 18,17.6568542 18,16 L20,16 C20,18.7614237 17.7614237,21 15,21 C12.2385763,21 10,18.7614237 10,16 L12,16 Z M12,10.5 L12,14 L10,14 L10,10.5 L12,10.5 Z M20,10.5 L20,14 L18,14 L18,10.5 L20,10.5 Z" id="Combined-Shape" fill="#000000" fill-rule="nonzero"></path>
    </g>
</svg>