<?xml version="1.0" encoding="UTF-8"?>
<svg width="30px" height="30px" viewBox="0 0 30 30" version="1.1" xmlns="http://www.w3.org/2000/svg" xmlns:xlink="http://www.w3.org/1999/xlink">
    <!-- Generator: Sketch 57.1 (83088) - https://sketch.com -->
    <title>Ic/30/Bold/Arrow/Circleleft/Black@2x</title>
    <desc>Created with Sketch.</desc>
    <g id="Ic/30/Bold/Arrow/Circleleft/Black" stroke="none" stroke-width="1" fill="none" fill-rule="evenodd">
        <path d="M15,26 C21.0751322,26 26,21.0751322 26,15 C26,8.92486775 21.0751322,4 15,4 C8.92486775,4 4,8.92486775 4,15 C4,21.0751322 8.92486775,26 15,26 Z M15,24 C10.0294373,24 6,19.9705627 6,15 C6,10.0294373 10.0294373,6 15,6 C19.9705627,6 24,10.0294373 24,15 C24,19.9705627 19.9705627,24 15,24 Z" id="Oval" fill="#000000" fill-rule="nonzero"></path>
        <polygon id="Fill-1" fill="#000000" points="12.4 10.489 16.91 14.999 12.4 19.509 13.688 20.797 19.487 14.999 13.688 9.2"></polygon>
    </g>
</svg>