<svg xmlns="http://www.w3.org/2000/svg" width="40" height="40" viewBox="0 0 40 40">
  <title>@@title</title>
    <path fill-rule="evenodd" d="M20 5c8.284 0 15 6.716 15 15 0 8.284-6.716 15-15 15-8.117 0-14.728-6.447-14.992-14.5h1C6.274 28 12.437 34 20 34c7.732 0 14-6.268 14-14S27.732 6 20 6C12.435 6 6.272 12 6.009 19.5h-1C5.271 11.447 11.882 5 20 5zm-4.361 10.018l.826 3.458h2.254l1.008-3.458h.91l.966 3.458h2.24l.826-3.458h1.008l-.868 3.458h1.022v.854h-1.232l-1.26 5.082h-1.078l-1.428-5.082h-1.4l-1.456 5.082h-1.078l-1.288-5.082h-1.428v-.854h1.218l-.868-3.458h1.106zm2.842 4.312h-1.806l.812 3.346h.042l.952-3.346zm5.152 0h-1.778l.952 3.346h.014l.812-3.346zm-3.472-2.436h-.028l-.462 1.582h.924l-.434-1.582z"/>
</svg>
