<?xml version="1.0" encoding="UTF-8"?>
<svg width="40px" height="40px" viewBox="0 0 40 40" version="1.1" xmlns="http://www.w3.org/2000/svg" xmlns:xlink="http://www.w3.org/1999/xlink">
    <!-- Generator: Sketch 57.1 (83088) - https://sketch.com -->
    <title>Ic/40/Line/Bag/Black@2x</title>
    <desc>Created with Sketch.</desc>
    <defs>
        <path d="M26.5,13 C26.5,9.41014913 23.5898509,6.5 20,6.5 C16.4101491,6.5 13.5,9.41014913 13.5,13 L13.5,13 L12.5,13 C12.5,8.85786438 15.8578644,5.5 20,5.5 C24.1421356,5.5 27.5,8.85786438 27.5,13 L27.5,13 L35,13 L35,35 L5,35 L5,13 Z M13,20.5 L6,20.5 L6,34 L34,34 L34,20.5 L28,20.5 L28,23 L27,23 L27,20.5 L14,20.5 L14,23 L13,23 L13,20.5 Z M34,14 L6,14 L6,19.5 L13,19.5 L13,18 L14,18 L14,19.5 L27,19.5 L27,18 L28,18 L28,19.5 L34,19.5 L34,14 Z" id="path-1"></path>
    </defs>
    <g id="Ic/40/Line/Bag/Black" stroke="none" stroke-width="1" fill="none" fill-rule="evenodd">
        <mask id="mask-2" fill="white">
            <use xlink:href="#path-1"></use>
        </mask>
        <use id="Mask" fill="#000000" fill-rule="nonzero" xlink:href="#path-1"></use>
    </g>
</svg>