<?xml version="1.0" encoding="UTF-8"?>
<svg width="40px" height="40px" viewBox="0 0 40 40" version="1.1" xmlns="http://www.w3.org/2000/svg" xmlns:xlink="http://www.w3.org/1999/xlink">
    <!-- Generator: Sketch 57.1 (83088) - https://sketch.com -->
    <title>Ic/40/Line/Watch/Black@2x</title>
    <desc>Created with Sketch.</desc>
    <defs>
        <path d="M27,5 L27,11.5 L26.9820854,11.4995609 C29.4353925,13.5170016 31,16.575784 31,20 C31,23.4246796 29.4349688,26.4838266 26.9810889,28.5012585 L27,28.5 L27,35 L13,35 L13,28.5 L13.0189111,28.5012585 C10.5650312,26.4838266 9,23.4246796 9,20 C9,16.575784 10.5646075,13.5170016 13.0179146,11.4995609 L13,11.5 L13,5 L27,5 Z M26.0002294,29.2209197 C24.2746255,30.3461002 22.213676,31 20,31 C17.7867469,31 15.726162,30.34635 14.0007597,29.2215646 L14,34 L26,34 L26.0002294,29.2209197 Z M20,10 C14.4771525,10 10,14.4771525 10,20 C10,25.5228475 14.4771525,30 20,30 C25.5228475,30 30,25.5228475 30,20 C30,14.4771525 25.5228475,10 20,10 Z M21,13 L21,21.5 L15.5,21.5 L15.5,20.5 L20,20.5 L20,13 L21,13 Z M26,6 L14,6 L14.0007597,10.7784354 C15.726162,9.65364998 17.7867469,9 20,9 C22.213676,9 24.2746255,9.65389982 26.0002294,10.7790803 L26,6 Z" id="path-1"></path>
    </defs>
    <g id="Ic/40/Line/Watch/Black" stroke="none" stroke-width="1" fill="none" fill-rule="evenodd">
        <mask id="mask-2" fill="white">
            <use xlink:href="#path-1"></use>
        </mask>
        <use id="Mask" fill="#000000" fill-rule="nonzero" xlink:href="#path-1"></use>
    </g>
</svg>