<?xml version="1.0" encoding="UTF-8"?>
<svg width="40px" height="40px" viewBox="0 0 40 40" version="1.1" xmlns="http://www.w3.org/2000/svg" xmlns:xlink="http://www.w3.org/1999/xlink">
    <!-- Generator: Sketch 57.1 (83088) - https://sketch.com -->
    <title>Ic/40/Line/Eyewear/Black@2x</title>
    <desc>Created with Sketch.</desc>
    <defs>
        <path d="M22.2928209,7.52830505 L22.9999276,8.23541183 L20.707,10.5283051 L31.8499276,21.6711259 L31.9402459,21.7529473 C33.0938812,22.8324693 33.8537417,24.3276317 33.9810274,25.9996343 L36,26 L36,27 L33.9810299,27.000332 C33.7255578,30.3563982 30.9215021,33 27.5,33 C24.0784979,33 21.2744422,30.3563982 21.0189701,27.000332 L18.9810299,27.000332 C18.7255578,30.3563982 15.9215021,33 12.5,33 C9.07849793,33 6.27444215,30.3563982 6.01897008,27.000332 L4,27 L4,26 L6.01897265,25.9996343 C6.14625832,24.3276317 6.90611882,22.8324693 8.05975414,21.7529473 L8.15,21.6711259 L19.293,10.5273051 L17,8.23541183 L17.7071068,7.52830505 L20,9.82130505 L22.2928209,7.52830505 Z M12.5,21 C9.46243388,21 7,23.4624339 7,26.5 C7,29.5375661 9.46243388,32 12.5,32 C15.5375661,32 18,29.5375661 18,26.5 C18,23.4624339 15.5375661,21 12.5,21 Z M27.5,21 C24.4624339,21 22,23.4624339 22,26.5 C22,29.5375661 24.4624339,32 27.5,32 C30.5375661,32 33,29.5375661 33,26.5 C33,23.4624339 30.5375661,21 27.5,21 Z M20,11.2343051 L11.0784735,20.1559109 C11.5359984,20.0538413 12.0117115,20 12.5,20 C15.9215021,20 18.7255578,22.6436018 18.9810299,25.999668 L21.0189701,25.999668 C21.2744422,22.6436018 24.0784979,20 27.5,20 C27.9882885,20 28.4640016,20.0538413 28.9215265,20.1559109 L20,11.2343051 Z" id="path-1"></path>
    </defs>
    <g id="Ic/40/Line/Eyewear/Black" stroke="none" stroke-width="1" fill="none" fill-rule="evenodd">
        <mask id="mask-2" fill="white">
            <use xlink:href="#path-1"></use>
        </mask>
        <use id="Mask" fill="#000000" fill-rule="nonzero" xlink:href="#path-1"></use>
    </g>
</svg>