<?xml version="1.0" encoding="UTF-8"?>
<svg width="40px" height="40px" viewBox="0 0 40 40" version="1.1" xmlns="http://www.w3.org/2000/svg" xmlns:xlink="http://www.w3.org/1999/xlink">
    <!-- Generator: Sketch 58 (84663) - https://sketch.com -->
    <title>Ic/40/Stencil/360dgree/Black</title>
    <desc>Created with Sketch.</desc>
    <g id="Ic/40/Stencil/360dgree/Black" stroke="none" stroke-width="1" fill="none" fill-rule="evenodd">
        <path d="M4.52786658,17 L5.14820968,17.7899533 C3.73441639,18.9161674 3,20.1600351 3,21.4211433 C3,25.1050508 9.26318942,28.3554691 17.5593967,28.8961116 L17.5999391,26.4569873 L21.5,29.4413108 L17.5,32.5 L17.5433127,29.9044717 C8.75104947,29.3452541 2,25.8345723 2,21.4211433 C2,19.8154074 2.89370288,18.3017591 4.52786658,17 Z M35.4786356,17.0051838 C37.1086869,18.3057918 38,19.817569 38,21.4211433 C38,25.6270407 31.8614896,29.0442644 23.5346361,29.8198264 L23.4425521,28.8169368 C31.3126112,28.0839206 37,24.91783 37,21.4211433 C37,20.1618009 36.2676617,18.9196645 34.8576686,17.7946397 L35.4786356,17.0051838 Z M27.1975636,11.4820717 C29.5135064,11.4820717 31.0574682,13.4541833 31.0574682,16.7410359 C31.0574682,20.0278884 29.5135064,22 27.1975636,22 C24.8816208,22 23.3376589,20.0278884 23.3376589,16.7410359 C23.3376589,13.4541833 24.8816208,11.4820717 27.1975636,11.4820717 Z M11.3355403,11.6281541 C13.0688559,11.6281541 14.3069386,12.7237716 14.3069386,14.4329349 C14.3069386,15.5285525 13.6660487,16.1420983 13.0688559,16.4342629 C13.6369174,16.5803453 14.5691208,17.4422311 14.5691208,18.8592297 C14.5691208,20.6414343 13.1271186,22 11.2772775,22 C9.41287076,22 8,20.6122178 8,18.6985392 L9.50026483,18.6985392 C9.50026483,19.940239 10.2431144,20.6122178 11.2772775,20.6122178 C12.3114407,20.6122178 13.0542903,19.8964143 13.0542903,18.8592297 C13.0542903,17.8220452 12.3114407,17.1208499 11.2918432,17.1208499 C11.1024894,17.1208499 10.8548729,17.1354582 10.6509534,17.1792829 L10.6509534,15.8353254 C10.8694386,15.8499336 11.0587924,15.8645418 11.2918432,15.8645418 C12.1657839,15.8645418 12.8066737,15.309429 12.8066737,14.4913679 C12.8066737,13.6148738 12.2094809,13.0159363 11.3355403,13.0159363 C10.4615996,13.0159363 9.86440678,13.5710491 9.86440678,14.6666667 L8.36414195,14.6666667 C8.36414195,12.811421 9.60222458,11.6281541 11.3355403,11.6281541 Z M20.8614936,11.6281541 L18.6183792,15.1341301 C18.764036,15.1195219 18.9096928,15.1049137 19.0407839,15.1049137 C20.6867055,15.1049137 22.4637182,16.3904382 22.4637182,18.5524568 C22.4637182,20.5099602 20.9051907,22 18.9388242,22 C16.9287606,22 15.4430614,20.4223108 15.4430614,18.625498 C15.4430614,17.7928287 15.6761123,17.1938911 16.2004767,16.37583 L19.2447034,11.6281541 L20.8614936,11.6281541 Z M18.9388242,16.4926959 C17.8027013,16.4926959 16.9578919,17.3837981 16.9578919,18.5524568 C16.9578919,19.7357238 17.8027013,20.6122178 18.9388242,20.6122178 C20.0895127,20.6122178 20.9488877,19.7357238 20.9488877,18.5524568 C20.9488877,17.3837981 20.0895127,16.4926959 18.9388242,16.4926959 Z M27.1975636,12.8844622 C25.6099047,12.8844622 24.8670551,14.4475432 24.8670551,16.7410359 C24.8670551,19.0199203 25.6099047,20.5976096 27.1975636,20.5976096 C28.7852225,20.5976096 29.528072,19.0199203 29.528072,16.7410359 C29.528072,14.4475432 28.7852225,12.8844622 27.1975636,12.8844622 Z M33.7229873,11 C34.7134534,11 35.5,11.7888446 35.5,12.7968127 C35.5,13.8193891 34.7134534,14.6082337 33.7229873,14.6082337 C32.7179555,14.6082337 31.9314089,13.8193891 31.9314089,12.7968127 C31.9314089,11.7888446 32.7179555,11 33.7229873,11 Z M33.7229873,11.7304117 C33.1112288,11.7304117 32.6596928,12.1832669 32.6596928,12.811421 C32.6596928,13.4103586 33.1112288,13.877822 33.7229873,13.877822 C34.3056144,13.877822 34.7571504,13.4249668 34.7571504,12.811421 C34.7571504,12.1832669 34.3056144,11.7304117 33.7229873,11.7304117 Z" id="Combined-Shape" fill="#000000" fill-rule="nonzero"></path>
        <path d="" id="Path-8" stroke="#979797"></path>
    </g>
</svg>