<?xml version="1.0" encoding="UTF-8"?>
<svg width="40px" height="40px" viewBox="0 0 40 40" version="1.1" xmlns="http://www.w3.org/2000/svg" xmlns:xlink="http://www.w3.org/1999/xlink">
    <!-- Generator: Sketch 63.1 (92452) - https://sketch.com -->
    <title>Ic/40/Line/map</title>
    <desc>Created with Sketch.</desc>
    <g id="Ic/40/Line/map" stroke="none" stroke-width="1" fill="none" fill-rule="evenodd">
        <path d="M25.1394213,28.1435122 C28.8767816,28.7872535 31.3541,30.1419679 31.3541,31.8777801 C31.3541,34.2989147 26.4230474,36 20.3541,36 C14.2851526,36 9.3541,34.2989147 9.3541,31.8777801 C9.3541,30.1412881 11.8281243,28.788299 15.5723009,28.1442244 L16.1671,29.0605122 L16.0231226,29.0832623 C12.5824192,29.6339986 10.3541,30.8034697 10.3541,31.8777801 C10.3541,33.4576094 14.8251336,35 20.3541,35 C25.8830664,35 30.3541,33.4576094 30.3541,31.8777801 C30.3541,30.783963 28.0552814,29.6013507 24.5435429,29.0611152 L24.7446404,28.7519732 C24.8765109,28.5489275 25.0081537,28.3460342 25.1394213,28.1435122 Z M20.3541,4 C25.8752328,4 30.3541,8.40897423 30.3541,13.851752 C30.3541,15.5080851 29.9383668,17.1062361 29.1558012,18.5317869 C28.5970351,19.5496516 27.407132,21.4805489 25.7481588,24.0861614 L25.7481588,24.0861614 L24.5473929,25.9626117 C24.1565549,26.5706338 23.757028,27.1897653 23.3531585,27.8135688 L23.3531585,27.8135688 L22.1328678,29.6925574 L20.3538654,32.4108309 L19.9361015,31.774367 L16.7559615,26.8828184 L15.5856629,25.0614266 L13.0630465,21.0277929 C12.5177413,20.1470687 12.1142074,19.4873586 11.8514913,19.0470532 L11.8514913,19.0470532 L11.5629113,18.5509476 C10.7735945,17.1205962 10.3541,15.515557 10.3541,13.851752 C10.3541,8.40897423 14.8329672,4 20.3541,4 Z M20.3541,5 C15.381762,5 11.3541,8.96481014 11.3541,13.851752 C11.3541,15.3453511 11.7301976,16.784348 12.4384364,18.0677748 C12.6234452,18.4029975 13.1659887,19.2964709 14.0617689,20.740997 L14.0617689,20.740997 L16.1806635,24.1356116 L17.0056912,25.4233056 C17.3955691,26.0300648 17.794155,26.6480532 18.1970966,27.2708096 L18.1970966,27.2708096 L19.4146362,29.1469215 L20.3531,30.5868 L21.9059065,28.2074315 C22.3124882,27.5814034 22.7168881,26.9568498 23.1147496,26.3402253 L23.1147496,26.3402253 L24.2843626,24.5205929 L25.5232987,22.5742059 C26.6495914,20.7931943 27.5098655,19.3954096 28.0336968,18.4858878 L28.0336968,18.4858878 L28.2791999,18.0505697 C28.9813761,16.7714592 29.3541,15.3386431 29.3541,13.851752 C29.3541,8.96481014 25.326438,5 20.3541,5 Z M20.3541,10.3538 C22.5632508,10.3538 24.3541,12.1446774 24.3541,14.3538 C24.3541,16.5629226 22.5632508,18.3538 20.3541,18.3538 C18.1449492,18.3538 16.3541,16.5629226 16.3541,14.3538 C16.3541,12.1446774 18.1449492,10.3538 20.3541,10.3538 Z M20.3541,11.3538 C18.6972375,11.3538 17.3541,12.6969586 17.3541,14.3538 C17.3541,16.0106414 18.6972375,17.3538 20.3541,17.3538 C22.0109625,17.3538 23.3541,16.0106414 23.3541,14.3538 C23.3541,12.6969586 22.0109625,11.3538 20.3541,11.3538 Z" id="Combined-Shape" fill="#000000"></path>
    </g>
</svg>