<?xml version="1.0" encoding="UTF-8"?>
<svg width="40px" height="40px" viewBox="0 0 40 40" version="1.1" xmlns="http://www.w3.org/2000/svg" xmlns:xlink="http://www.w3.org/1999/xlink">
    <!-- Generator: Sketch 57.1 (83088) - https://sketch.com -->
    <title>Ic/40/Line/Life/Black@2x</title>
    <desc>Created with Sketch.</desc>
    <defs>
        <path d="M20.5,4.5 L20.5008316,6.00877553 C28.0008516,6.27200977 34,12.4240821 34,19.9748094 C34,20.1376336 33.9972102,20.5223347 33.9915908,20.9191058 C33.9989657,20.945782 34.0046987,20.9728975 34.0102113,21.000071 L32.9852003,21.0003765 C32.919133,20.7426793 32.827932,20.4925882 32.712769,20.2529214 C32.0434266,18.8599469 30.640209,17.9561492 29.0749839,17.9561492 C27.5254241,17.9561492 26.1338836,18.8418517 25.4564309,20.2134464 C25.3322479,20.4648716 25.2346098,20.7281042 25.1649081,20.9998257 L23.9102625,21.0005559 C23.8440795,20.7423583 23.7526657,20.4917962 23.6372002,20.2517047 C23.039944,19.0098093 21.8593058,18.1570238 20.500761,17.9872546 L20.5,31.0524149 C20.5,33.2615539 18.709139,35.0524149 16.5,35.0524149 C14.290861,35.0524149 12.5,33.2615539 12.5,31.0524149 L12.5,31.0524149 L13.5,31.0524149 C13.5,32.7092691 14.8431458,34.0524149 16.5,34.0524149 C18.1568542,34.0524149 19.5,32.7092691 19.5,31.0524149 L19.5,31.0524149 L19.500156,17.9871386 C18.1482861,18.1557496 16.9722121,19.0006699 16.3717421,20.2332305 C16.2521136,20.478787 16.1577213,20.7354446 16.0898433,21.0001423 L14.8351579,21.0000848 C14.7678654,20.7376876 14.6745161,20.4831873 14.5563525,20.2395637 C13.8842282,18.8538126 12.4849478,17.9561492 10.9250161,17.9561492 C9.36847526,17.9561492 7.97172149,18.8498937 7.29783738,20.231017 C7.17774821,20.4771394 7.08302098,20.734432 7.01494469,20.9998094 L7.00990562,21.0001421 L6.00933696,21.0009427 L6.00880319,20.999 L5.98982011,20.9999166 L6.00780319,20.92 L6.00715563,20.841862 C6.00240159,20.472684 6,20.1258386 6,19.9748094 C6,12.4237467 11.9996814,6.27146329 19.5001678,6.00874049 L19.5,4.5 L20.5,4.5 Z M20,6.99820067 C13.2256314,6.99820067 7.66150762,12.170551 7.05484897,18.7747738 C7.9937175,17.6410089 9.39788473,16.9509836 10.9250161,16.9509836 C12.8705205,16.9509836 14.61623,18.0708874 15.4542962,19.7987691 L15.4619543,19.8149836 L15.4745637,19.7908615 C16.3142508,18.0672696 18.057634,16.9509836 20,16.9509836 C21.951515,16.9509836 23.7016728,18.0778319 24.5366018,19.8139286 L24.5379543,19.8169836 L24.5616646,19.7661601 C25.3725586,18.1243954 27.0049747,17.0403522 28.8440656,16.9562556 L29.0749839,16.9509836 C30.6028257,16.9509836 32.007229,17.6416669 32.9456584,18.7746114 C32.339051,12.1710703 26.7747086,6.99820067 20,6.99820067 Z" id="path-1"></path>
    </defs>
    <g id="Ic/40/Line/Life/Black" stroke="none" stroke-width="1" fill="none" fill-rule="evenodd">
        <mask id="mask-2" fill="white">
            <use xlink:href="#path-1"></use>
        </mask>
        <use id="Mask" fill="#000000" fill-rule="nonzero" xlink:href="#path-1"></use>
    </g>
</svg>