<svg width="40px" height="40px" viewBox="0 0 40 40" version="1.1" xmlns="http://www.w3.org/2000/svg" xmlns:xlink="http://www.w3.org/1999/xlink" class="@@class">
	<title>@@title</title>
	<path d="M5,13 L5,22.3050548 L12.6668408,22.3050548 L18.1953485,26 L28.992,25.999 L28.992,27 L17.8919394,27 L13.0151362,23.7406176 L13.0151362,27 L4,27 L4,13 L5,13 Z M17.1583069,13 L20.182,14.992 L20.8841762,13.776216 L21.7502016,14.276216 L21.019,15.543 L25.5505008,18.5275145 L29.9306884,18.5275145 C33.1807074,18.5275145 35.891773,20.7855021 35.9968397,26.1729884 L36,26.5 L36,27 L29.992,27 L29.992,25.999 L34.9922646,26 C34.8488346,21.4420304 32.7284672,19.6094078 30.1099764,19.5302088 L29.9306884,19.5275145 L25.2507634,19.5275145 L20.518,16.41 L19.7502016,17.7403176 L18.8841762,17.2403176 L19.681,15.859 L16.8585695,14 L6,13.999 L6,13 L17.1583069,13 Z M12.0151362,23.3050548 L5,23.3050548 L5,26 L12.0151362,26 L12.0151362,23.3050548 Z"></path>
</svg>
