<?xml version="1.0" encoding="UTF-8"?>
<svg width="40px" height="40px" viewBox="0 0 40 40" version="1.1" xmlns="http://www.w3.org/2000/svg" xmlns:xlink="http://www.w3.org/1999/xlink">
    <!-- Generator: Sketch 57.1 (83088) - https://sketch.com -->
    <title>Ic/40/Line/Outer/Black@2x</title>
    <desc>Created with Sketch.</desc>
    <defs>
        <path d="M24.5880963,6.00115759 C30.4651663,6.7778877 35.0006471,11.8078277 35.0006471,17.897086 L35.0006471,30 L29.9993529,29.9991576 L30,34 L10,34 L10,14 L11,14 L11,33 L19.5003529,32.9991576 L19.5007225,9.9830624 C17.57058,9.82232614 15.8572779,8.73723279 14.8630349,7.10409904 C9.76965184,8.10456215 5.99935287,12.5971232 5.99935287,17.897086 L5.99935287,29 L9.99935287,28.9991576 L9.99935287,29.9991576 L4.99935287,30 L4.99935287,17.897086 C4.99935287,11.8078277 9.53483368,6.7778877 15.4119037,6.00115759 C16.174408,7.71682474 17.8498176,8.92750797 19.8124428,9.00031112 L20.1873529,8.99915759 L20.2344294,8.99835384 C22.1768309,8.90817723 23.8316693,7.70315061 24.5880963,6.00115759 Z M25.1369651,7.10409904 C24.1430647,8.73667003 22.4306007,9.82157825 20.5012728,9.98289591 L20.5003529,32.9991576 L29,33 L29,14 L30,14 L29.9993529,28.9991576 L34.0006471,29 L34.0006471,17.897086 C34.0006471,12.5971232 30.2303482,8.10456215 25.1369651,7.10409904 Z M17.4041809,26.1698709 L17.4041809,27.1698709 L13.0357165,27.1698709 L13.0357165,26.1698709 L17.4041809,26.1698709 Z" id="path-1"></path>
    </defs>
    <g id="Ic/40/Line/Outer/Black" stroke="none" stroke-width="1" fill="none" fill-rule="evenodd">
        <mask id="mask-2" fill="white">
            <use xlink:href="#path-1"></use>
        </mask>
        <use id="Mask" fill="#000000" fill-rule="nonzero" xlink:href="#path-1"></use>
    </g>
</svg>