<?xml version="1.0" encoding="UTF-8"?>
<svg width="40px" height="40px" viewBox="0 0 40 40" version="1.1" xmlns="http://www.w3.org/2000/svg" xmlns:xlink="http://www.w3.org/1999/xlink">
    <!-- Generator: Sketch 57.1 (83088) - https://sketch.com -->
    <title>Ic/40/Line/Sneaker/Black@2x</title>
    <desc>Created with Sketch.</desc>
    <defs>
        <path d="M16.0727449,9 L16.095527,9.52178334 C16.209742,12.1376764 17.3608303,14.5130025 19.3628683,16.6675237 L19.7306402,16.3009982 L20.437747,17.0081049 L20.0645307,17.3804848 C20.3554583,17.6602355 20.661042,17.9361271 20.9808458,18.208206 L21.4748061,17.7152117 L22.1819129,18.4223185 L21.7610422,18.8426895 C22.1391086,19.1369647 22.5341448,19.426622 22.945561,19.7117242 C24.7853705,20.9866709 26.3914114,21.8200021 28.2180689,22.5024065 C28.8962009,22.7557437 29.5902604,22.9854796 30.5415162,23.2782908 C30.8551547,23.3748335 31.966505,23.7117221 32.0654411,23.7419051 C34.3438849,24.4370013 35.6683681,25.8860566 35.970626,28.0767508 L36,28.3232127 L36,31 L4.22465535,31 L4.22988113,30.4922084 C4.24306844,29.2107909 4.16740908,27.7570974 4,26.081044 C4,23.7803527 4.11900784,22.6666161 4.44479246,21.0993999 C4.49146531,20.8759361 4.51683624,20.7544013 4.53804383,20.6512216 C4.57457425,20.4734929 4.60463953,20.3218603 4.6330084,20.1706725 C4.81341992,19.2091953 4.93725255,17.0411118 4.99925854,13.6981259 L5.0061384,13.3071845 L5.01437825,12.8129695 L11.6751975,12.8129695 C11.8362415,10.6164437 13.0815392,9.32989589 15.3106213,9.06706998 L15.5532115,9.04283255 L16.0727449,9 Z M15.1304131,10.1082125 C13.6713041,10.3617921 12.8846567,11.1707658 12.7021798,12.6124476 L12.6810351,12.8129695 L14.1953569,12.8129695 L14.1953569,13.8181886 L6.00049458,13.8181886 C5.93686755,17.1620353 5.8114168,19.3311692 5.61904302,20.3563975 C5.58948975,20.5138974 5.55834162,20.6709913 5.52073134,20.8539738 C5.49915542,20.9589455 5.47338963,21.0823718 5.42702367,21.3043595 C5.11499104,22.8054205 5.00330803,23.8506076 5.00073785,26.0302318 C5.07288196,26.7415418 5.12835717,27.4216585 5.16713733,28.070639 L34,28.0687289 L34,29.0687289 L5.21449965,29.0697199 L5.22752428,29.5384043 L5.23393189,29.9947809 L34.9973068,29.9947809 L34.9992891,28.3742902 C34.8093826,26.5117184 33.7602591,25.3097385 31.7731871,24.7035325 C31.676068,24.6739039 30.5629512,24.3364798 30.2468624,24.2391828 C29.2784124,23.941079 28.567327,23.7057074 27.8675394,23.4442801 C25.9639736,22.7331442 24.2838909,21.8613948 22.3748293,20.538458 C21.9124384,20.2180315 21.4691623,19.891493 21.0458467,19.5587215 L20.7676993,19.8365321 L20.0605926,19.1294253 L20.267788,18.9206436 C19.9497438,18.64823 19.6448026,18.3717825 19.3533966,18.0912391 L19.0235334,18.4223185 L18.3164267,17.7152117 L18.6520486,17.3799403 C16.6183693,15.202935 15.3818797,12.7879947 15.1304131,10.1082125 Z M14.8971523,14.413902 C17.7132235,19.5685542 22.4324032,23.0289032 29.0872112,24.8018737 L29.5658469,24.9256448 L29.3225167,25.8955883 C22.3186159,24.1385162 17.2765736,20.5936063 14.2289625,15.2677946 L14.0195748,14.8933369 L14.8971523,14.413902 Z M8.39341551,20.6809721 C9.2409433,20.6809721 9.92800033,21.3680291 9.92800033,22.2155569 C9.92800033,23.0630847 9.2409433,23.7501417 8.39341551,23.7501417 C7.54588772,23.7501417 6.8588307,23.0630847 6.8588307,22.2155569 C6.8588307,21.3680291 7.54588772,20.6809721 8.39341551,20.6809721 Z M8.39341551,21.6809721 C8.09817247,21.6809721 7.8588307,21.9203138 7.8588307,22.2155569 C7.8588307,22.5107999 8.09817247,22.7501417 8.39341551,22.7501417 C8.68865855,22.7501417 8.92800033,22.5107999 8.92800033,22.2155569 C8.92800033,21.9203138 8.68865855,21.6809721 8.39341551,21.6809721 Z" id="path-1"></path>
    </defs>
    <g id="Ic/40/Line/Sneaker/Black" stroke="none" stroke-width="1" fill="none" fill-rule="evenodd">
        <mask id="mask-2" fill="white">
            <use xlink:href="#path-1"></use>
        </mask>
        <use id="Mask" fill="#000000" fill-rule="nonzero" xlink:href="#path-1"></use>
    </g>
</svg>