<?xml version="1.0" encoding="UTF-8"?>
<svg width="40px" height="40px" viewBox="0 0 40 40" version="1.1" xmlns="http://www.w3.org/2000/svg" xmlns:xlink="http://www.w3.org/1999/xlink">
    <!-- Generator: Sketch 57.1 (83088) - https://sketch.com -->
    <title>Ic/40/Line/Coupon/Black@2x</title>
    <desc>Created with Sketch.</desc>
    <g id="Ic/40/Line/Coupon/Black" stroke="none" stroke-width="1" fill="none" fill-rule="evenodd">
        <path d="M36,30 L4,30 L4,22.4499909 C4.16155497,22.4827849 4.32876708,22.5 4.5,22.5 C5.88071187,22.5 7,21.3807119 7,20 C7,18.6192881 5.88071187,17.5 4.5,17.5 C4.32876708,17.5 4.16155497,17.5172151 4,17.5500091 L4,10 L36,10 L36,17.5500091 C35.838445,17.5172151 35.6712329,17.5 35.5,17.5 C34.1192881,17.5 33,18.6192881 33,20 C33,21.3807119 34.1192881,22.5 35.5,22.5 C35.6712329,22.5 35.838445,22.4827849 36,22.4499909 L36,30 Z M32,20 C32,18.236764 33.3038529,16.7780593 35,16.5354444 L35,11 L5,11 L5,16.5354444 C6.69614707,16.7780593 8,18.236764 8,20 C8,21.763236 6.69614707,23.2219407 5,23.4645556 L5,29 L35,29 L35,23.4645556 C33.3038529,23.2219407 32,21.763236 32,20 Z" id="Combined-Shape" fill="#000000" fill-rule="nonzero"></path>
        <polygon id="Line-2" fill="#000000" fill-rule="nonzero" points="25.5 11 25.5 13 26.5 13 26.5 11"></polygon>
        <polygon id="Line-2-" fill="#000000" fill-rule="nonzero" points="25.5 15 25.5 17 26.5 17 26.5 15"></polygon>
        <polygon id="Line-2--2" fill="#000000" fill-rule="nonzero" points="25.5 19 25.5 21 26.5 21 26.5 19"></polygon>
        <polygon id="Line-2--3" fill="#000000" fill-rule="nonzero" points="25.5 23 25.5 25 26.5 25 26.5 23"></polygon>
        <polygon id="Line-2--4" fill="#000000" fill-rule="nonzero" points="25.5 27 25.5 29 26.5 29 26.5 27"></polygon>
        <path d="M17.088,24.852 C14.554,24.852 13,23.284 13,20.106 L13,19.826 C13,16.466 14.876,15.15 17.27,15.15 C18.278,15.15 19.006,15.36 19.58,15.668 L19.58,16.592 C18.838,16.298 18.138,16.088 17.214,16.088 C15.436,16.088 14.176,17.152 14.176,19.644 L14.176,20.106 C14.176,22.514 15.072,23.914 17.228,23.914 C18.39,23.914 19.09,23.592 19.678,23.298 L19.678,24.236 C19.048,24.6 18.194,24.852 17.088,24.852 Z" id="C" fill="#000000" fill-rule="nonzero"></path>
    </g>
</svg>