<?xml version="1.0" encoding="UTF-8"?>
<svg width="40px" height="40px" viewBox="0 0 40 40" version="1.1" xmlns="http://www.w3.org/2000/svg" xmlns:xlink="http://www.w3.org/1999/xlink">
    <!-- Generator: Sketch 63.1 (92452) - https://sketch.com -->
    <title>Ic/40/Stencil/Map</title>
    <desc>Created with Sketch.</desc>
    <g id="Ic/40/Stencil/Map" stroke="none" stroke-width="1" fill="none" fill-rule="evenodd">
        <path d="M25.1394213,28.1435122 C28.8767816,28.7872535 31.3541,30.1419679 31.3541,31.8777801 C31.3541,34.2989147 26.4230474,36 20.3541,36 C14.2851526,36 9.3541,34.2989147 9.3541,31.8777801 C9.3541,30.1412881 11.8281243,28.788299 15.5723009,28.1442244 L16.1671,29.0605122 L16.0231226,29.0832623 C12.5824192,29.6339986 10.3541,30.8034697 10.3541,31.8777801 C10.3541,33.4576094 14.8251336,35 20.3541,35 C25.8830664,35 30.3541,33.4576094 30.3541,31.8777801 C30.3541,30.783963 28.0552814,29.6013507 24.5435429,29.0611152 L24.7446404,28.7519732 C24.8765109,28.5489275 25.0081537,28.3460342 25.1394213,28.1435122 Z M20.3541,4 C25.8752328,4 30.3541,8.40897423 30.3541,13.851752 C30.3541,15.5080851 29.9383668,17.1062361 29.1558012,18.5317869 L28.9053002,18.9761539 C28.2473125,20.1192775 27.080801,21.9976354 25.5291242,24.4298307 L23.9551625,26.8821722 C23.5567222,27.4996944 23.1517661,28.1251072 22.7446404,28.7519732 L20.7719571,31.7745823 L20.3538654,32.4108309 L18.5765051,29.6923904 L16.7559615,26.8828184 L15.3378945,24.673887 L16.1806635,24.1356116 L16.4279495,24.5223966 C16.9980721,25.4132683 17.5926842,26.336675 18.1970966,27.2708096 L20.3531,30.5868 L21.2949423,29.1467727 C21.9064537,28.2079392 22.5179573,27.2651621 23.1147496,26.3402253 L24.4622669,24.2424675 L25.7192805,22.2639092 C26.9428276,20.3241628 27.828907,18.8708362 28.2791999,18.0505697 C28.9813761,16.7714592 29.3541,15.3386431 29.3541,13.851752 C29.3541,8.96481014 25.326438,5 20.3541,5 C15.381762,5 11.3541,8.96481014 11.3541,13.851752 C11.3541,15.3453511 11.7301976,16.784348 12.4384364,18.0677748 L12.6820173,18.4968232 C13.1608951,19.3242855 13.9812264,20.6757085 14.7965936,21.9818671 L15.1216546,22.5005671 L14.2752614,23.0331256 L13.244706,21.3752647 C12.5182364,20.1927645 11.870565,19.1083939 11.5629113,18.5509476 C10.7735945,17.1205962 10.3541,15.515557 10.3541,13.851752 C10.3541,8.40897423 14.8329672,4 20.3541,4 Z M20.3541,10.3538 C22.5632508,10.3538 24.3541,12.1446774 24.3541,14.3538 C24.3541,16.5629226 22.5632508,18.3538 20.3541,18.3538 C18.1449492,18.3538 16.3541,16.5629226 16.3541,14.3538 C16.3541,12.1446774 18.1449492,10.3538 20.3541,10.3538 Z M20.3541,11.3538 C18.6972375,11.3538 17.3541,12.6969586 17.3541,14.3538 C17.3541,16.0106414 18.6972375,17.3538 20.3541,17.3538 C22.0109625,17.3538 23.3541,16.0106414 23.3541,14.3538 C23.3541,12.6969586 22.0109625,11.3538 20.3541,11.3538 Z" id="Combined-Shape" fill="#000000"></path>
    </g>
</svg>