<?xml version="1.0" encoding="UTF-8"?>
<svg width="40px" height="40px" viewBox="0 0 40 40" version="1.1" xmlns="http://www.w3.org/2000/svg" xmlns:xlink="http://www.w3.org/1999/xlink">
    <!-- Generator: Sketch 57.1 (83088) - https://sketch.com -->
    <title>Ic/40/Stencil/Group/Black@2x</title>
    <desc>Created with Sketch.</desc>
    <defs>
        <path d="M27.5004003,21 C30.9222431,21 33.7265167,23.6441285 33.9815065,27.0006709 L32.9780142,27.0003933 C32.7255847,24.1969555 30.3695557,22 27.5004003,22 C24.4628342,22 22.0004003,24.4624339 22.0004003,27.5 C22.0004003,30.5375661 24.4628342,33 27.5004003,33 C30.3692127,33 32.7250214,30.8035698 32.9779236,28.0006121 L33.9814302,28.000332 C33.7259581,31.3563982 30.9219023,34 27.5004003,34 C23.9105494,34 21.0004003,31.0898509 21.0004003,27.5 C21.0004003,23.9101491 23.9105494,21 27.5004003,21 Z M12.5004003,21 C16.0902511,21 19.0004003,23.9101491 19.0004003,27.5 C19.0004003,31.0898509 16.0902511,34 12.5004003,34 C8.9105494,34 6.00040027,31.0898509 6.00040027,27.5 C6.00040027,23.9101491 8.9105494,21 12.5004003,21 Z M12.5004003,22 C9.46283415,22 7.00040027,24.4624339 7.00040027,27.5 C7.00040027,30.5375661 9.46283415,33 12.5004003,33 C15.5379664,33 18.0004003,30.5375661 18.0004003,27.5 C18.0004003,24.4624339 15.5379664,22 12.5004003,22 Z M27.5004003,6 C31.0902511,6 34.0004003,8.91014913 34.0004003,12.5 C34.0004003,16.0898509 31.0902511,19 27.5004003,19 C23.9105494,19 21.0004003,16.0898509 21.0004003,12.5 C21.0004003,8.91014913 23.9105494,6 27.5004003,6 Z M13.0007322,6.01897008 C16.3567985,6.27444215 19.0004003,9.07849793 19.0004003,12.5 C19.0004003,16.0898509 16.0902511,19 12.5004003,19 C8.9105494,19 6.00040027,16.0898509 6.00040027,12.5 C6.00040027,9.07815715 8.64452873,6.27388358 12.0010711,6.01889382 L12.0007936,7.02238608 C9.19735573,7.27481555 7.00040027,9.63084455 7.00040027,12.5 C7.00040027,15.5375661 9.46283415,18 12.5004003,18 C15.5379664,18 18.0004003,15.5375661 18.0004003,12.5 C18.0004003,9.70872302 15.9210916,7.4030946 13.2269187,7.04755916 L13.0010124,7.0224767 L13.0007322,6.01897008 Z M27.5004003,7 C24.4628342,7 22.0004003,9.46243388 22.0004003,12.5 C22.0004003,15.5375661 24.4628342,18 27.5004003,18 C30.5379664,18 33.0004003,15.5375661 33.0004003,12.5 C33.0004003,9.46243388 30.5379664,7 27.5004003,7 Z" id="path-1"></path>
    </defs>
    <g id="Ic/40/Stencil/Group/Black" stroke="none" stroke-width="1" fill="none" fill-rule="evenodd">
        <mask id="mask-2" fill="white">
            <use xlink:href="#path-1"></use>
        </mask>
        <use id="Mask" fill="#000000" fill-rule="nonzero" xlink:href="#path-1"></use>
    </g>
</svg>