<?xml version="1.0" encoding="UTF-8"?>
<svg width="40px" height="40px" viewBox="0 0 40 40" version="1.1" xmlns="http://www.w3.org/2000/svg" xmlns:xlink="http://www.w3.org/1999/xlink">
    <!-- Generator: Sketch 57.1 (83088) - https://sketch.com -->
    <title>Ic/40/Stencil/Culture/Black@2x</title>
    <desc>Created with Sketch.</desc>
    <defs>
        <path d="M31,6 L31,7 L11,7 C9.8954305,7 9,7.8954305 9,9 C9,10.0543618 9.81587779,10.9181651 10.8507377,10.9945143 L11,11 L31,11 L31,34 L15,34 L15,33 L30,33 L30,12 L11,12 C10.231693,12 9.53084306,11.7111821 9.00009834,11.2361945 L9,27 L8,27 L8,9 L8.00509269,8.82372721 C8.09295962,7.30724616 9.30724616,6.09295962 10.8237272,6.00509269 L11,6 L31,6 Z M9,28 L9,33 L14,33 L14,34 L8,34 L8,28 L9,28 Z" id="path-1"></path>
    </defs>
    <g id="Ic/40/Stencil/Culture/Black" stroke="none" stroke-width="1" fill="none" fill-rule="evenodd">
        <mask id="mask-2" fill="white">
            <use xlink:href="#path-1"></use>
        </mask>
        <use id="Mask" fill="#000000" fill-rule="nonzero" xlink:href="#path-1"></use>
    </g>
</svg>