<svg xmlns="http://www.w3.org/2000/svg" width="40" height="40" viewBox="0 0 40 40">
  <title>@@title</title>
    <path fill-rule="evenodd" d="M36 10v7.55c-.162-.033-.329-.05-.5-.05-1.38 0-2.5 1.12-2.5 2.5s1.12 2.5 2.5 2.5c.171 0 .338-.017.5-.05V30H25.5v-3h1v2H35v-5.535c-1.696-.243-3-1.702-3-3.465s1.304-3.222 3-3.465V11h-8.5v2h-1v-2H5v5.535c1.696.243 3 1.702 3 3.465s-1.304 3.222-3 3.465V29h19.5v1H4v-7.55c.162.033.329.05.5.05C5.88 22.5 7 21.38 7 20s-1.12-2.5-2.5-2.5c-.171 0-.338.017-.5.05V10h32zm-9.5 13v2h-1v-2h1zm-9.23-7.85c1.008 0 1.736.21 2.31.518v.924c-.742-.294-1.442-.504-2.366-.504-1.778 0-3.038 1.064-3.038 3.556v.462c0 2.408.896 3.808 3.052 3.808 1.162 0 1.862-.322 2.45-.616v.938c-.63.364-1.484.616-2.59.616-2.534 0-4.088-1.568-4.088-4.746v-.28c0-3.36 1.876-4.676 4.27-4.676zM26.5 19v2h-1v-2h1zm0-4v2h-1v-2h1z"/>
</svg>
