<?xml version="1.0" encoding="UTF-8"?>
<svg width="40px" height="40px" viewBox="0 0 40 40" version="1.1" xmlns="http://www.w3.org/2000/svg" xmlns:xlink="http://www.w3.org/1999/xlink">
    <!-- Generator: Sketch 57.1 (83088) - https://sketch.com -->
    <title>Ic/40/Line/Top/Black@2x</title>
    <desc>Created with Sketch.</desc>
    <defs>
        <path d="M24.5880963,6.00115759 C30.4651663,6.7778877 35.0006471,11.8078277 35.0006471,17.897086 L35.0006471,19 L29.4993529,18.9991576 L29.5,34.5 L10.5,34.5 L10.4993529,18.9991576 L4.99935287,19 L4.99935287,17.897086 C4.99935287,11.8078277 9.53483368,6.7778877 15.4119037,6.00115759 C16.1985878,7.77123033 17.9569936,9.00378421 20,9.00378421 C22.0430064,9.00378421 23.8014122,7.77123033 24.5880963,6.00115759 Z M25.1369651,7.10409904 C24.0577558,8.87679763 22.1313369,10.0037842 20,10.0037842 C17.8686631,10.0037842 15.9422442,8.87679763 14.8630349,7.10409904 C9.76965184,8.10456215 5.99935287,12.5971232 5.99935287,17.897086 L5.99935287,18 L10.4993529,17.9991576 L10.5,14 L11.5,14 L11.5,33.5 L28.5,33.5 L28.5,14 L29.5,14 L29.4993529,17.9991576 L34.0006471,18 L34.0006471,17.897086 C34.0006471,12.5971232 30.2303482,8.10456215 25.1369651,7.10409904 Z" id="path-1"></path>
    </defs>
    <g id="Ic/40/Line/Top/Black" stroke="none" stroke-width="1" fill="none" fill-rule="evenodd">
        <mask id="mask-2" fill="white">
            <use xlink:href="#path-1"></use>
        </mask>
        <use id="Mask" fill="#000000" fill-rule="nonzero" xlink:href="#path-1"></use>
    </g>
</svg>