<svg xmlns="http://www.w3.org/2000/svg" width="40" height="40" viewBox="0 0 40 40">
  <title>@@title</title>
    <path fill-rule="evenodd" d="M20 5c8.284 0 15 6.716 15 15 0 8.284-6.716 15-15 15-8.117 0-14.728-6.447-14.992-14.5h1C6.274 28 12.437 34 20 34c7.732 0 14-6.268 14-14S27.732 6 20 6C12.435 6 6.272 12 6.009 19.5h-1C5.271 11.447 11.882 5 20 5zm.231 10.018c2.114 0 3.136 1.008 3.136 2.772 0 1.848-1.204 2.856-2.996 2.856h-1.918v3.766h-1.12v-9.394h2.898zm-.112.938h-1.666v3.766h1.694c1.456 0 2.03-.602 2.03-1.862 0-1.33-.532-1.904-2.058-1.904z"/>
</svg>
