<?xml version="1.0" encoding="UTF-8"?>
<svg width="40px" height="40px" viewBox="0 0 40 40" version="1.1" xmlns="http://www.w3.org/2000/svg" xmlns:xlink="http://www.w3.org/1999/xlink">
    <!-- Generator: Sketch 57.1 (83088) - https://sketch.com -->
    <title>Ic/40/Line/Money/Black@2x</title>
    <desc>Created with Sketch.</desc>
    <defs>
        <path d="M20,5 C28.2842712,5 35,11.7157288 35,20 C35,28.2842712 28.2842712,35 20,35 C11.7157288,35 5,28.2842712 5,20 C5,11.7157288 11.7157288,5 20,5 Z M20,6 C12.2680135,6 6,12.2680135 6,20 C6,27.7319865 12.2680135,34 20,34 C27.7319865,34 34,27.7319865 34,20 C34,12.2680135 27.7319865,6 20,6 Z M15.639,15.018 L16.465,18.476 L18.719,18.476 L19.727,15.018 L20.637,15.018 L21.603,18.476 L23.843,18.476 L24.669,15.018 L25.677,15.018 L24.809,18.476 L25.831,18.476 L25.831,19.33 L24.599,19.33 L23.339,24.412 L22.261,24.412 L20.833,19.33 L19.433,19.33 L17.977,24.412 L16.899,24.412 L15.611,19.33 L14.183,19.33 L14.183,18.476 L15.401,18.476 L14.533,15.018 L15.639,15.018 Z M18.481,19.33 L16.675,19.33 L17.487,22.676 L17.529,22.676 L18.481,19.33 Z M23.633,19.33 L21.855,19.33 L22.807,22.676 L22.821,22.676 L23.633,19.33 Z M20.161,16.894 L20.133,16.894 L19.671,18.476 L20.595,18.476 L20.161,16.894 Z" id="path-1"></path>
    </defs>
    <g id="Ic/40/Line/Money/Black" stroke="none" stroke-width="1" fill="none" fill-rule="evenodd">
        <mask id="mask-2" fill="white">
            <use xlink:href="#path-1"></use>
        </mask>
        <use id="Mask" fill="#000000" fill-rule="nonzero" xlink:href="#path-1"></use>
    </g>
</svg>