<?xml version="1.0" encoding="UTF-8"?>
<svg width="40px" height="40px" viewBox="0 0 40 40" version="1.1" xmlns="http://www.w3.org/2000/svg" xmlns:xlink="http://www.w3.org/1999/xlink">
    <!-- Generator: Sketch 57.1 (83088) - https://sketch.com -->
    <title>Ic/40/Stencil/Acc/Black@2x</title>
    <desc>Created with Sketch.</desc>
    <defs>
        <path d="M23.1669865,4.88150176 L26.4799385,8.78182027 L20.6590883,13.0194196 C26.4273689,13.3602967 31,18.1461508 31,24 C31,29.9072215 26.3436072,34.7268842 20.5010164,34.9887931 L20.5010665,33.9876649 C25.7911215,33.7266143 30,29.3548253 30,24 C30,18.4771525 25.5228475,14 20,14 C14.4771525,14 10,18.4771525 10,24 C10,29.355162 14.2094079,33.7271641 19.4999314,33.9877141 L19.499984,34.9888379 C13.6569244,34.7274344 9,29.9075587 9,24 C9,18.1464891 13.5721025,13.36085 19.3399115,13.0194787 L13.5200615,8.78182027 L16.8330135,4.88150176 L23.1669865,4.88150176 Z M22.7043364,5.88150176 L17.2956636,5.88150176 L14.9799385,8.60779097 L20,12.2630035 L25.0200615,8.60779097 L22.7043364,5.88150176 Z" id="path-1"></path>
    </defs>
    <g id="Ic/40/Stencil/Acc/Black" stroke="none" stroke-width="1" fill="none" fill-rule="evenodd">
        <mask id="mask-2" fill="white">
            <use xlink:href="#path-1"></use>
        </mask>
        <use id="Mask" fill="#000000" fill-rule="nonzero" xlink:href="#path-1"></use>
    </g>
</svg>