<?xml version="1.0" encoding="UTF-8"?>
<svg width="40px" height="40px" viewBox="0 0 40 40" version="1.1" xmlns="http://www.w3.org/2000/svg" xmlns:xlink="http://www.w3.org/1999/xlink">
    <!-- Generator: Sketch 57.1 (83088) - https://sketch.com -->
    <title>Ic/40/Stencil/Bag/Black@2x</title>
    <desc>Created with Sketch.</desc>
    <defs>
        <path d="M20,5.5 C24.0609173,5.5 27.3680175,8.72747441 27.4961464,12.7572689 L27.5,13 L35,13 L35,35 L12,35 L12,34 L34,34 L34,20.5 L28,20.5 L28,23 L27,23 L27,20.5 L14,20.5 L14,23 L13,23 L13,20.5 L6,20.5 L6,34 L10.999,34 L10.999,35 L5,35 L5,13 L12.5,13 C12.5,8.85786438 15.8578644,5.5 20,5.5 Z M34,14 L6,14 L6,19.5 L13,19.5 L13,18 L14,18 L14,19.5 L27,19.5 L27,18 L28,18 L28,19.5 L34,19.5 L34,14 Z M20,6.5 C16.4881894,6.5 13.6268494,9.28499621 13.504103,12.7668659 L13.5,13 L26.5,13 C26.5,9.41014913 23.5898509,6.5 20,6.5 Z" id="path-1"></path>
    </defs>
    <g id="Ic/40/Stencil/Bag/Black" stroke="none" stroke-width="1" fill="none" fill-rule="evenodd">
        <mask id="mask-2" fill="white">
            <use xlink:href="#path-1"></use>
        </mask>
        <use id="Mask" fill="#000000" fill-rule="nonzero" xlink:href="#path-1"></use>
    </g>
</svg>