<svg xmlns="http://www.w3.org/2000/svg" xmlns:xlink="http://www.w3.org/1999/xlink" width="80" height="80" viewBox="0 0 80 80" class="@@class">
  <title>@@title</title>
  <defs>
    <path id="3zhxhu1tqa" d="M17.733 0C7.94 0 0 7.94 0 17.733v44.534C0 72.06 7.94 80 17.733 80h44.535C72.06 80 80 72.061 80 62.267V17.733C80 7.94 72.06 0 62.268 0H17.733z"/>
  </defs>
  <g fill="none" fill-rule="evenodd">
    <g transform="translate(-216 -495) translate(0 437) translate(20 48) translate(4) translate(192 10)">
      <mask id="6w2c2vc3fb" fill="#fff">
        <use xlink:href="#3zhxhu1tqa"/>
      </mask>
      <path stroke="#E8E8E8" d="M62.259.5c4.834.087 9.136 2.031 12.233 5.13C77.604 8.74 79.5 13.015 79.5 17.732h0v44.525c-.087 4.835-2.031 9.137-5.129 12.234-3.111 3.112-7.386 5.008-12.103 5.008h0-44.526c-4.835-.087-9.137-2.031-12.234-5.129C2.396 71.259.5 66.984.5 62.267h0V17.742C.587 12.908 2.53 8.606 5.63 5.508 8.74 2.396 13.015.5 17.732.5h0z"/>
      <g mask="url(#6w2c2vc3fb)">
        <path fill="#FFF" d="M0 0H80V80H0z"/>
      <g fill="#000">
        <path d="M0 12.377L60.938 12.377 60.938 0.188 0 0.188z" transform="translate(9.531 33.719)"/>
      </g>
    </g>
    <path stroke="#E8E8E8" d="M62.259.5c4.834.087 9.136 2.031 12.233 5.13C77.604 8.74 79.5 13.015 79.5 17.732h0v44.525c-.087 4.835-2.031 9.137-5.129 12.234-3.111 3.112-7.386 5.008-12.103 5.008h0-44.526c-4.835-.087-9.137-2.031-12.234-5.129C2.396 71.259.5 66.984.5 62.267h0V17.742C.587 12.908 2.53 8.606 5.63 5.508 8.74 2.396 13.015.5 17.732.5h0z" mask="url(#6w2c2vc3fb)"/>
    </g>
  </g>
</svg>
