<svg xmlns="http://www.w3.org/2000/svg" xmlns:xlink="http://www.w3.org/1999/xlink" width="80" height="80" viewBox="0 0 80 80" class="@@class">
  <title>@@title</title>
    <defs>
        <path id="tmvkftrmva" d="M17.733 0C7.94 0 0 7.94 0 17.733v44.534C0 72.06 7.94 80 17.733 80h44.535C72.06 80 80 72.061 80 62.267V17.733C80 7.94 72.06 0 62.268 0H17.733z"/>
    </defs>
    <g fill="none" fill-rule="evenodd">
        <g>
            <g transform="translate(-126 -75) translate(126 75)">
                <mask id="swnsspu4ab" fill="#fff">
                    <use xlink:href="#tmvkftrmva"/>
                </mask>
                <use fill="#B0B4C2" xlink:href="#tmvkftrmva"/>
                <g fill="#FFF" mask="url(#swnsspu4ab)" opacity=".94">
                    <path d="M14.615.128v5.079c0 2.097 1.103 3.399 2.877 3.399 1.774 0 2.877-1.302 2.877-3.4V.129h.619v5.066c0 2.508-1.307 4.006-3.496 4.006-2.19 0-3.496-1.498-3.496-4.006V.128h.62zM46.165 0c.844 0 1.545.254 2.029.734.48.478.733 1.168.733 1.995v.09h-.632v-.254c0-1.216-.816-1.971-2.13-1.971-1.014 0-2.107.69-2.107 1.807 0 .865.603 1.227 1.87 1.667l.505.178c1.456.509 2.57 1.015 2.57 2.478 0 .62-.278 1.236-.762 1.69-.379.353-1.056.775-2.14.775-.862 0-1.6-.282-2.137-.816-.533-.53-.815-1.258-.815-2.103V6.18h.632v.215c0 1.274.975 2.2 2.32 2.2 1.252 0 2.27-.834 2.27-1.859 0-.985-.782-1.44-2.134-1.894l-.675-.226c-1.058-.365-2.135-.885-2.135-2.19 0-.634.244-1.226.686-1.667C44.61.262 45.32 0 46.164 0zM25.662 0c.844 0 1.546.254 2.03.734.479.478.733 1.168.733 1.995v.09h-.632v-.254c0-1.216-.817-1.971-2.131-1.971-1.013 0-2.106.69-2.106 1.807 0 .865.603 1.227 1.87 1.667l.505.178c1.456.509 2.57 1.015 2.57 2.478 0 .62-.279 1.236-.763 1.69-.378.353-1.056.775-2.14.775-.861 0-1.6-.282-2.136-.816-.534-.53-.816-1.258-.816-2.103V6.18h.632v.215c0 1.274.976 2.2 2.32 2.2 1.252 0 2.27-.834 2.27-1.859 0-.985-.782-1.44-2.133-1.894l-.53-.177c-1.104-.368-2.28-.874-2.28-2.24 0-.633.243-1.225.686-1.666.498-.498 1.207-.76 2.05-.76zm5.747.122v8.947h-.619V.122h.62zM.667.128L.678.16l2.687 8.053L5.954.128h.78l2.613 8.086L12.02.128h.668L9.653 9.064h-.636L6.35.927 3.686 9.064h-.66L0 .128h.667zm53.878 0l.014.029 4.108 8.907h-.7l-1.253-2.73h-4.83l-1.252 2.73h-.776l4.21-8.936h.48zM34.725.123l6.038 8.08V.123h.619v8.936h-.727l-.015-.02-6.01-8.035v8.055h-.62V.123h.715zm19.574.936l-2.145 4.682h4.29L54.3 1.059z" transform="translate(10.667 36)"/>
                </g>
            </g>
        </g>
    </g>
</svg>
