<svg xmlns="http://www.w3.org/2000/svg" xmlns:xlink="http://www.w3.org/1999/xlink" width="80" height="80" viewBox="0 0 80 80" class="@@class">
  <title>@@title</title>
    <defs>
        <path id="wpyettjiba" d="M17.733 0C7.94 0 0 7.94 0 17.733v44.534C0 72.06 7.94 80 17.733 80h44.535C72.06 80 80 72.061 80 62.267V17.733C80 7.94 72.06 0 62.268 0H17.733z"/>
    </defs>
    <g fill="none" fill-rule="evenodd">
        <g>
            <g transform="translate(-318 -75) translate(318 75)">
                <mask id="vwdkx1bmnb" fill="#fff">
                    <use xlink:href="#wpyettjiba"/>
                </mask>
                <path stroke="#E8E8E8" d="M62.259.5c4.834.087 9.136 2.031 12.233 5.13C77.604 8.74 79.5 13.015 79.5 17.732h0v44.525c-.087 4.835-2.031 9.137-5.129 12.234-3.111 3.112-7.386 5.008-12.103 5.008h0-44.526c-4.835-.087-9.137-2.031-12.234-5.129C2.396 71.259.5 66.984.5 62.267h0V17.742C.587 12.908 2.53 8.606 5.63 5.508 8.74 2.396 13.015.5 17.732.5h0z"/>
                <g fill="#000" mask="url(#vwdkx1bmnb)" opacity=".94">
                    <path d="M1.173.183v8.96H0V.183h1.173zm7.376 0v8.96H7.375V.183H8.55zM22.308 0c1.958 0 3.452 1.206 3.892 3.048h-1.274c-.37-1.08-1.32-1.804-2.618-1.804-1.807 0-3 1.46-3 3.327 0 1.88 1.193 3.327 3 3.327 1.46 0 2.375-.812 2.78-1.879h1.228c-.521 1.905-2.015 3.124-4.008 3.124-2.467 0-4.205-1.943-4.205-4.572C18.103 1.917 19.84 0 22.308 0zm21.273.183v8.96h-1.173V.183h1.173zm3.185 0v8.96h-1.174V.183h1.174zm5.531 0v8.96h-1.173V.183h1.173zm3.185 0v8.96h-1.173V.183h1.173zm-39.28 5.12L17.6 8.96h-1.2l-.933-2.426h-3.624l-.92 2.426H9.721l1.387-3.657h5.093zm17.264 0l1.399 3.657h-1.2l-.933-2.426h-3.624l-.921 2.426h-1.2l1.386-3.657h5.093zm7.265 2.377v1.28h-5.196V7.68h5.196zm17.936 0v1.28h-2.515V7.68h2.515zM47.269.914L50.453 6.2v2.211L47.27 3.138V.914zm-6.705 1.097l-3.193 5.12h-1.333l3.204-5.12h1.322zM6.872.731v2.246l-2.06 3.606H3.725L1.676 2.977V.731L4.268 5.3 6.872.73zm19.78 3.475v1.28h-4.023v-1.28h4.022zm31.847-.366v1.28h-2.347V3.84H58.5zM14.393.183l1.698 4.571h-1.226l-1.132-3.03-1.12 3.03h-1.215L13.096.183h1.297zm17.265 0l1.698 4.571H32.13l-1.132-3.03-1.12 3.03h-1.215L30.36.183h1.297zm9.241 0v1.28h-5.196V.183h5.196zm17.768 0v1.28h-2.515V.183h2.515z" transform="translate(10.667 36)"/>
                </g>
            </g>
        </g>
    </g>
</svg>
