<svg xmlns="http://www.w3.org/2000/svg" xmlns:xlink="http://www.w3.org/1999/xlink" width="80" height="80" viewBox="0 0 80 80" class="@@class">
  <title>@@title</title>
    <defs>
        <path id="i7klqrm3sa" d="M17.733 0C7.94 0 0 7.94 0 17.733v44.534C0 72.06 7.94 80 17.733 80h44.535C72.06 80 80 72.061 80 62.267V17.733C80 7.94 72.06 0 62.268 0H17.733z"/>
    </defs>
    <g fill="none" fill-rule="evenodd">
        <g>
            <g transform="translate(-222 -75) translate(222 75)">
                <mask id="03bbuytptb" fill="#fff">
                    <use xlink:href="#i7klqrm3sa"/>
                </mask>
                <use fill="#11214A" xlink:href="#i7klqrm3sa"/>
                <g fill="#FFF" mask="url(#03bbuytptb)">
                    <path d="M13.697.139v5.653c0 1.764.91 2.847 2.37 2.847 1.462 0 2.371-1.083 2.371-2.847V.139h1.392v5.639C19.83 8.43 18.328 10 16.068 10s-3.762-1.57-3.762-4.222V.139h1.391zM24.647 0c1.847 0 2.963 1.125 2.963 2.903h-1.46v-.18c0-.89-.62-1.376-1.502-1.376-.896 0-1.475.486-1.475 1.278 0 .695.386 1.042 1.599 1.5l.55.208c.855.32 1.365.598 1.779 1.042.413.444.661.944.661 1.736 0 1.542-1.282 2.889-3.1 2.889-1.792 0-3.184-1.139-3.184-3.111h1.46v.139c0 1.014.717 1.625 1.723 1.625 1.006 0 1.64-.584 1.64-1.486 0-1.028-.647-1.223-1.764-1.64l-.661-.25c-.73-.277-1.227-.54-1.585-.985-.358-.445-.579-.945-.579-1.64 0-1.25.924-2.652 2.936-2.652zm21.168 0c1.846 0 2.962 1.125 2.962 2.903h-1.46v-.18c0-.89-.62-1.376-1.502-1.376-.896 0-1.475.486-1.475 1.278 0 .695.386 1.042 1.599 1.5l.55.208c.855.32 1.365.598 1.779 1.042.413.444.661.944.661 1.736 0 1.542-1.282 2.889-3.1 2.889-1.792 0-3.184-1.139-3.184-3.111h1.46v.139c0 1.014.717 1.625 1.723 1.625 1.006 0 1.64-.584 1.64-1.486 0-1.028-.648-1.223-1.764-1.64l-.661-.25c-.73-.277-1.227-.54-1.585-.985-.358-.445-.579-.945-.579-1.64 0-1.25.923-2.652 2.936-2.652zM1.64.139l3.459 5.653L8.572.139h1.64V9.86H8.834V2.194L5.733 7.236H4.465L1.378 2.194v7.667H0V.14h1.64zm29.282 0v9.722h-1.405V.14h1.405zm3.666 0l5.03 7.57V.138h1.378v9.722h-1.543l-5.016-7.528v7.528h-1.379V.14h1.53zm20.401 0l3.9 9.722h-1.42l-1.088-2.708h-4.3L50.992 9.86h-1.42L53.474.139h1.516zm-.758 1.667l-1.599 3.972h3.198L54.23 1.806z" transform="translate(12.222 28.889)"/>
                </g>
                <path fill="#FFF" fill-rule="nonzero" d="M26.061 54.556V45.31l4.608 6.385h.462l4.622-6.385v9.245h.506V44.444h-.491l-4.84 6.746-4.881-6.746h-.491v10.112h.505zm17.969 0v-.477h-4.868v-4.435h4.565v-.476h-4.565V44.92h4.752v-.477h-5.257v10.112h5.373zm2.398 0V45.05l7.135 9.505h.68V44.444h-.506v9.534l-7.15-9.534h-.665v10.112h.506z" mask="url(#03bbuytptb)"/>
            </g>
        </g>
    </g>
</svg>
