<svg xmlns="http://www.w3.org/2000/svg" xmlns:xlink="http://www.w3.org/1999/xlink" width="80" height="80" viewBox="0 0 80 80" class="@@class">
  <title>@@title</title>
    <defs>
        <path id="iq3jrguqja" d="M17.733 0C7.94 0 0 7.94 0 17.733v44.534C0 72.06 7.94 80 17.733 80h44.535C72.06 80 80 72.061 80 62.267V17.733C80 7.94 72.06 0 62.268 0H17.733z"/>
    </defs>
    <g fill="none" fill-rule="evenodd">
        <g>
            <g transform="translate(-606 -75) translate(606 75)">
                <mask id="hc4svvdzcb" fill="#fff">
                    <use xlink:href="#iq3jrguqja"/>
                </mask>
                <use fill="#3A3BFD" xlink:href="#iq3jrguqja"/>
                <g fill="#FFF" mask="url(#hc4svvdzcb)" opacity=".94">
                    <path d="M54.745 0c2.15 0 3.472 1.341 3.32 3.034-.153 1.693-1.413 2.745-2.898 2.745 0 0 .452.618 1.09 1.246.535.526 1.154 1.043 2.41 1.553l-1.35 1.521-.268-.101c-1.503-.622-2.714-2.013-3.184-2.534-.522-.578-1.422-1.825-1.422-1.825l-.353 3.843h-2.156l.685-7.613h-1.127L49.66 0zM26.71 0l2.818 9.482h-2.324l-.577-1.991h-4.682l-.86 1.991h-2.31l3.353-7.613h-1.153L21.142 0h5.567zm21.446 0l-.167 1.87H43.66l-.169 1.869h4.128l-.168 1.869h-4.128l-.18 2.005h4.45l-.168 1.869H40.82l.685-7.613h-1.127L40.546 0h7.61zm-16.09 0l2.138 4.881 1.375-1.75c.83-1.188 1.36-1.815 1.589-3.131h2.163c-.17 1.556-.892 2.75-1.7 3.745l-2.505 3.186-.233 2.551H32.65l.234-2.55-2.399-5.063h-1.34L29.315 0h2.75zM5.63 0c2.149 0 3.471 1.341 3.32 3.034C8.796 4.727 7.515 6.07 5.083 6.07H2.901l-.307 3.413H.442l.685-7.613H0L.168 0zm7.994 0l-.685 7.613h4.86l-.168 1.869h-7.016l.685-7.613h-1.127L10.341 0h3.283zm11.271 1.87H24.5c-.033 0-.063.018-.076.048L22.774 5.62h3.333l-1.127-3.69c-.011-.037-.046-.062-.085-.062zm-19.463 0H3.278l-.21 2.33 2.04-.001c.764 0 1.59-.407 1.658-1.165.068-.759-.597-1.165-1.334-1.165zm49.115 0h-1.773l-.21 2.33 1.659-.001c.831 0 1.574-.407 1.642-1.165.068-.759-.503-1.165-1.318-1.165z" transform="translate(10.667 34.667)"/>
                </g>
            </g>
        </g>
    </g>
</svg>
