<svg xmlns="http://www.w3.org/2000/svg" xmlns:xlink="http://www.w3.org/1999/xlink" width="80" height="80" viewBox="0 0 80 80" class="@@class">
  <title>@@title</title>
    <defs>
        <path id="iorbsylnta" d="M17.733 0C7.94 0 0 7.94 0 17.733v44.534C0 72.06 7.94 80 17.733 80h44.535C72.06 80 80 72.061 80 62.267V17.733C80 7.94 72.06 0 62.268 0H17.733z"/>
    </defs>
    <g fill="none" fill-rule="evenodd">
        <g>
            <g transform="translate(-510 -75) translate(510 75)">
                <mask id="sr4f7zcthb" fill="#fff">
                    <use xlink:href="#iorbsylnta"/>
                </mask>
                <use fill="#463775" xlink:href="#iorbsylnta"/>
                <path fill="#FFF" d="M22.858 45.29c1.225 0 2.267.422 3.013 1.22.73.798 1.115 1.869 1.115 3.097v.357h-4.883v-.966h3.832c-.096-.77-.395-1.426-.868-1.899-.542-.541-1.306-.828-2.21-.828-.852 0-1.61.308-2.193.891-.593.593-.907 1.439-.907 2.445 0 1.001.324 1.846.936 2.443.59.576 1.427.893 2.353.893 1.266 0 2.296-.617 2.793-1.66h1.072c-.266.784-.758 1.443-1.422 1.908-.685.48-1.53.733-2.443.733-1.22 0-2.283-.426-3.073-1.232-.803-.786-1.228-1.854-1.228-3.085 0-1.228.414-2.3 1.197-3.1.75-.785 1.786-1.217 2.916-1.217zm40.146 0c1.225 0 2.267.422 3.014 1.22.73.798 1.115 1.869 1.115 3.097v.357h-4.884v-.966h3.832c-.096-.77-.394-1.426-.867-1.899-.542-.541-1.306-.828-2.21-.828-.852 0-1.61.308-2.193.891-.594.593-.907 1.439-.907 2.445 0 1.001.324 1.846.936 2.443.59.576 1.426.893 2.353.893 1.265 0 2.295-.617 2.793-1.66h1.072c-.267.784-.759 1.443-1.423 1.908-.685.48-1.53.733-2.442.733-1.221 0-2.284-.426-3.073-1.232-.803-.786-1.229-1.854-1.229-3.085 0-1.228.414-2.3 1.198-3.1.75-.785 1.785-1.217 2.915-1.217zm-19.233 0c.478 0 1.702.087 2.735.898.998.782 1.504 1.932 1.504 3.42v4.19h-.998v-1.33c-.771.942-1.911 1.456-3.241 1.456-1.214 0-2.31-.437-3.089-1.232-.794-.777-1.218-1.83-1.228-3.043h1.013c.01.947.321 1.756.906 2.34.58.625 1.409.954 2.398.954.982 0 1.776-.319 2.36-.948.577-.591.881-1.417.881-2.388 0-.965-.296-1.774-.88-2.404-.595-.609-1.412-.932-2.361-.932-.846 0-1.538.225-2.113.687l-.588-.797c.734-.57 1.666-.871 2.7-.871zm9.946 0c1 0 1.87.269 2.59.8.708.54 1.178 1.308 1.36 2.222h-1.046c-.367-1.316-1.393-2.04-2.904-2.04-.97 0-1.798.323-2.395.935-.603.633-.909 1.44-.909 2.4 0 .966.314 1.79.907 2.382.58.625 1.408.954 2.397.954.582 0 1.121-.127 1.606-.375l.473.878c-.616.317-1.315.478-2.079.478-1.213 0-2.31-.437-3.088-1.232-.803-.786-1.229-1.854-1.229-3.085 0-1.224.426-2.297 1.23-3.102.784-.784 1.88-1.215 3.087-1.215zm-38.265-1.965v2.154h2.043v.98h-2.043v5.505c0 .598.25.9.742.9.394 0 .777-.027 1.026-.074l.275-.052v.99l-.19.035c-.275.052-.69.083-1.11.083-1.253 0-1.74-.567-1.74-2.023V46.46h-1.588v-.981h1.587v-2.154h.998zm16.973 1.98c.205 0 .399 0 .576.06l.158.052v1.034l-.29-.077c-.19-.05-.377-.071-.648-.071-.534 0-1.077.228-1.49.626-.45.436-.7 1.024-.7 1.657v5.213h-.996v-8.32h.997v.865c.11-.12.231-.236.36-.342.595-.462 1.278-.696 2.033-.696zm5.797 0c.205 0 .399 0 .576.06l.158.052v1.034l-.29-.077c-.19-.05-.377-.071-.648-.071-.534 0-1.077.228-1.49.626-.45.436-.699 1.024-.699 1.657v5.213h-.997v-8.32h.997v.865c.11-.12.232-.236.36-.342.595-.462 1.279-.696 2.033-.696zm-12.36-17.143v5.213c0 .801.208 1.4.618 1.779.36.334.853.504 1.461.504h.231v.997H27.8c-.808 0-1.545-.273-2.076-.77-.561-.508-.859-1.23-.859-2.086v-5.637h.997zm30.485-.173c1.693 0 2.745 1.028 2.745 2.683v.232H58.08v-.279c0-.995-.68-1.639-1.733-1.639-1.002 0-1.702.59-1.702 1.435 0 .38.138.629.448.804l.017.01c.307.22.806.344 1.246.454l.537.142c.717.185 1.199.397 1.563.688.493.43.73.967.73 1.642 0 .711-.297 1.35-.837 1.797-.541.436-1.233.666-2.002.666-.834 0-1.543-.268-2.05-.775-.506-.49-.775-1.166-.775-1.955v-.232h1.013v.232c0 1.069.7 1.733 1.827 1.733.552 0 1.021-.155 1.357-.446.292-.279.455-.642.455-1.02 0-.377-.14-.658-.442-.884-.306-.218-.731-.355-1.105-.466l-.514-.14c-.596-.156-1.215-.348-1.707-.694-.528-.371-.774-.866-.774-1.556 0-.614.241-1.2.678-1.654.47-.508 1.176-.778 2.037-.778zm-20.202 0c1.694 0 2.746 1.028 2.746 2.683v.232h-1.013v-.279c0-.995-.68-1.639-1.733-1.639-1.002 0-1.702.59-1.702 1.435 0 .38.138.629.448.804l.017.01c.307.22.806.344 1.246.454l.537.142c.717.185 1.2.397 1.563.688.493.43.73.967.73 1.642 0 .711-.297 1.35-.837 1.797-.54.436-1.233.666-2.002.666-.834 0-1.543-.268-2.05-.775-.506-.49-.775-1.166-.775-1.955v-.232h1.013v.232c0 1.069.7 1.733 1.828 1.733.551 0 1.02-.155 1.356-.446.293-.279.455-.642.455-1.02 0-.377-.14-.657-.442-.884-.306-.218-.73-.355-1.105-.466l-.514-.14c-.595-.156-1.215-.348-1.707-.694-.528-.371-.774-.866-.774-1.556 0-.613.241-1.2.678-1.654.47-.508 1.176-.778 2.037-.778zm28.95-.015c.478 0 1.702.087 2.735.897l.182.151c.877.777 1.321 1.875 1.321 3.269v4.191h-.997v-1.33c-.771.941-1.912 1.456-3.242 1.456-1.213 0-2.31-.438-3.088-1.232-.794-.778-1.218-1.83-1.228-3.043h1.013c.009.947.321 1.756.906 2.34.58.625 1.408.954 2.397.954.983 0 1.777-.32 2.36-.948.578-.592.882-1.417.882-2.388 0-.966-.296-1.774-.881-2.404-.594-.61-1.41-.932-2.36-.932-.847 0-1.538.225-2.113.687l-.588-.797c.734-.57 1.666-.871 2.7-.871zm-22.715.188v8.32h-.997v-8.32h.997zm3.829 0v8.32h-.998v-8.32h.998zm-26.825-.173c.782 0 1.522.272 2.085.765.557.52.85 1.242.85 2.091v5.637h-.998V31.27c0-.8-.207-1.4-.617-1.779-.361-.334-.853-.504-1.461-.504h-.232v-.997zm-7.72.173v8.32h-.997v-8.32h.997zm2.393-.173c.781 0 1.522.272 2.085.765.556.52.85 1.242.85 2.091v5.637h-.998V31.27c0-.8-.208-1.4-.617-1.779-.361-.334-.853-.504-1.462-.504h-.231v-.997zm17.133.173v8.32h-.997v-8.32h.997zm17.412-.173c.78 0 1.522.272 2.085.765.556.52.849 1.242.849 2.091v5.637h-.997V31.27c0-.8-.208-1.4-.618-1.779-.36-.334-.852-.504-1.46-.504h-.232v-.997zm-6.72-2.656c.448 0 .812.372.812.83 0 .439-.364.796-.813.796-.448 0-.813-.357-.813-.797 0-.457.365-.829.813-.829z" mask="url(#sr4f7zcthb)"/>
            </g>
        </g>
    </g>
</svg>
