<svg xmlns="http://www.w3.org/2000/svg" xmlns:xlink="http://www.w3.org/1999/xlink" width="80" height="80" viewBox="0 0 80 80" class="@@class">
  <title>@@title</title>
    <defs>
        <path id="62r6te5xfa" d="M17.733 0C7.94 0 0 7.94 0 17.733v44.534C0 72.06 7.94 80 17.733 80h44.535C72.06 80 80 72.061 80 62.267V17.733C80 7.94 72.06 0 62.268 0H17.733z"/>
    </defs>
    <g fill="none" fill-rule="evenodd">
        <g>
            <g transform="translate(-702 -75) translate(702 75)">
                <mask id="snwqmg2nyb" fill="#fff">
                    <use xlink:href="#62r6te5xfa"/>
                </mask>
                <path stroke="#E8E8E8" d="M62.259.5c4.834.087 9.136 2.031 12.233 5.13C77.604 8.74 79.5 13.015 79.5 17.732h0v44.525c-.087 4.835-2.031 9.137-5.129 12.234-3.111 3.112-7.386 5.008-12.103 5.008h0-44.526c-4.835-.087-9.137-2.031-12.234-5.129C2.396 71.259.5 66.984.5 62.267h0V17.742C.587 12.908 2.53 8.606 5.63 5.508 8.74 2.396 13.015.5 17.732.5h0z"/>
                <g fill="#000" mask="url(#snwqmg2nyb)">
                    <path d="M44.607 0c2.324 0 3.84.908 4.79 1.856.324.323.582.651.784.949l-.785.516-.592.389-.063.04c-.36-.935-.878-1.715-1.505-2.292-.77-.676-1.696-1.072-2.69-1.072-2.156 0-3.981 1.849-4.614 4.405-.024.094-.043.19-.063.287-.056.277-.1.56-.129.852-.01.111-.02.222-.027.334v.01h-.001c-.01.17-.017.342-.018.516.005.765.11 1.497.3 2.175.61 2.178 2.092 3.798 3.888 4.124l.017.003c.052.009.104.018.156.024l.042.005.135.014c.048.004.096.009.146.011l.098.003.073.002.043-.002c.046 0 .092-.002.138-.004.05-.002.1-.007.15-.011.08-.007.16-.017.24-.029l.036-.006c.078-.013.155-.028.232-.046l.05-.012c.075-.017.147-.038.22-.06.016-.006.033-.01.049-.015.08-.026.16-.055.237-.086l.02-.007c.171-.069.337-.15.5-.241l.068-.04c.055-.033.11-.067.164-.102l.085-.057.141-.1.09-.068c.044-.035.087-.07.13-.107l.089-.074.129-.118.082-.076c.064-.064.127-.129.19-.196.03-.033.059-.068.088-.102.034-.038.068-.076.1-.115l.099-.124.08-.103c.034-.046.068-.092.1-.139l.068-.097c.035-.052.069-.103.102-.155l.052-.084c.037-.06.072-.12.107-.18l.023-.04c.035-.063.071-.127.105-.192l.122-.246.112-.252 1.575 1.034c-1.22 1.747-3.296 2.778-5.632 2.778-3.37 0-5.837-1.824-6.637-4.712-.017-.06-.032-.124-.048-.186-.15-.605-.23-1.253-.23-1.94 0-.676.08-1.317.23-1.918C38.791 1.948 41.281 0 44.607 0zM4.51.01c.16-.003.42.003.743.044.337.04.636.104.865.187 1.01.307 1.792.89 2.322 1.728l.026.043-1.681 1.014v-.088c-.003-.154-.014-.291-.035-.42-.06-.368-.18-.697-.356-.975C5.607.295 4.244.496 4.091.523 2.817.746 2.024 1.947 2.245 3.313c.042.258.12.508.23.742.078.165.177.326.293.478.354.534 1.307.96 1.62 1.101l.068.03 1.85.865c.184.086.366.18.558.287 1.428.837 2 1.802 1.912 3.223-.048.778-.301 1.461-.752 2.031l-.013.016c-.028.036-.226.256-.276.307-.429.418-1 .747-1.648.966l-.008.003-.17.054-.064.02-.136.037-.214.052c-.074.016-.149.032-.224.045l-.054.009c-.059.01-.118.02-.177.028l-.092.012-.14.016-.111.01-.12.008-.126.007-.11.004-.09.003-.032-.001h-.034c-.653 0-1.272-.102-1.829-.283-.726-.237-1.344-.61-1.79-1.073-.172-.185-.324-.39-.455-.609-.04-.073-.078-.147-.111-.223l1.586-1.2-.002.138v.01l.001.021.002.03c.026 1.105.735 2.082 1.73 2.47.298.114.622.178.96.18.034 0 .067-.003.1-.004l.071-.004c.897-.052 1.676-.532 2.128-1.238.077-.12.146-.246.204-.379l.002-.006c.02-.044.034-.09.051-.136.101-.28.16-.58.16-.894 0-1.054-.62-1.964-1.523-2.395l-.372-.188-.835-.414s-1.537-.71-1.703-.795C1.822 6.293 1.26 5.79.89 5.179.643 4.78.484 4.341.421 3.874c-.02-.15-.03-.3-.03-.444v-.058l.001-.03c.035-1.294.833-2.46 2.033-2.97L2.504.34c.051-.02.102-.039.154-.056l.015-.006.1-.032.018-.005.036-.01.028-.007C3.262.088 3.848.01 4.462.01zm54.157.25V.8h-2.86v12.622h-1.862V.8h-2.878V.26h7.6zm-36.568 0l.001 12.617h5.254v.54h-7.118V.26h1.863zm-4.445 0V.8H12.8v5.677h4.614v.54H12.8v5.86h5.001v.54h-6.86V.26h6.712zm18.41 0V.8h-4.855l.001 5.677h4.613v.54H31.21v5.86h5.002v.54H29.35V.26h6.713z" transform="translate(10.667 33.333)"/>
                </g>
            </g>
        </g>
    </g>
</svg>
