<svg xmlns="http://www.w3.org/2000/svg" xmlns:xlink="http://www.w3.org/1999/xlink" width="80" height="80" viewBox="0 0 80 80" class="@@class">
  <title>@@title</title>
    <defs>
        <path id="drgzuxejma" d="M17.733 0C7.94 0 0 7.94 0 17.733v44.534C0 72.06 7.94 80 17.733 80h44.535C72.06 80 80 72.061 80 62.267V17.733C80 7.94 72.06 0 62.268 0H17.733z"/>
    </defs>
    <g fill="none" fill-rule="evenodd">
        <g>
            <g transform="translate(-414 -75) translate(414 75)">
                <mask id="05hsgm1p3b" fill="#fff">
                    <use xlink:href="#drgzuxejma"/>
                </mask>
                <use fill="#000" xlink:href="#drgzuxejma"/>
                <g fill="#FFF" mask="url(#05hsgm1p3b)" opacity=".94">
                    <path d="M2.456 17.079c1.444 0 2.382.865 2.382 2.287H3.454v-.045c0-.63-.357-1.055-.998-1.055-.655 0-.982.44-.982.938 0 .572.506.807 1.116.997l.507.162c1.027.322 1.86.805 1.86 2.14 0 1.378-1.146 2.199-2.486 2.199C.953 24.702 0 23.72 0 22.37h1.37c0 .66.387 1.143 1.116 1.143.73 0 1.102-.484 1.102-1.011 0-.572-.402-.807-.923-.982l-.491-.162c-1.236-.41-2.07-.864-2.07-2.155 0-1.026.745-2.125 2.352-2.125zm12.594-.014c1.533 0 2.367.864 2.53 1.04l.268-.865h1.117v7.33h-1.117l-.267-.924c-.253.323-1.147 1.04-2.531 1.04-2.188 0-3.766-1.685-3.766-3.81 0-2.126 1.578-3.811 3.766-3.811zm20.588-2.756v10.26h-.923l-.417-1.01c-.253.321-1.057 1.128-2.575 1.128-2.189 0-3.767-1.686-3.767-3.811 0-2.126 1.578-3.811 3.767-3.811 1.533 0 2.367.864 2.53 1.04v-3.796h1.385zm5.359 2.756c1.533 0 2.367.864 2.53 1.04l.268-.865h1.117v7.33h-1.117l-.268-.924c-.252.323-1.146 1.04-2.53 1.04-2.189 0-3.767-1.685-3.767-3.81 0-2.126 1.578-3.811 3.767-3.811zm17.67-2.756v10.26h-.924l-.416-1.01c-.253.321-1.057 1.128-2.575 1.128-2.189 0-3.767-1.686-3.767-3.811 0-2.126 1.578-3.811 3.767-3.811 1.533 0 2.367.864 2.53 1.04v-3.796h1.385zm-50.107.923v2.008h1.503v1.232H8.56v4.016c0 .528.208.865.818.865h.685v1.188c-.238.029-.625.073-1.012.073-1.057 0-1.876-.47-1.876-1.965v-4.177H6.118V17.24h1.057v-2.008H8.56zm41.07 1.847c.269 0 .552.03.656.059v1.231h-.655c-.923 0-1.414.542-1.414 1.568v4.632h-1.4V17.24h.924l.327.66c.134-.25.625-.821 1.563-.821zm-25.708 0c1.355 0 2.501.953 2.501 2.448v5.043H25.01v-4.647c0-.601-.15-.967-.387-1.202-.253-.25-.596-.381-.983-.381s-.73.132-.982.38c-.238.236-.387.588-.387 1.203v4.647h-1.4v-7.33h.923l.284.572c.208-.235.654-.733 1.845-.733zm-8.768 1.29c-1.489 0-2.456 1.129-2.456 2.507 0 1.378.967 2.506 2.456 2.506 1.489 0 2.456-1.128 2.456-2.506s-.967-2.507-2.456-2.507zm25.947 0c-1.489 0-2.456 1.129-2.456 2.507 0 1.378.967 2.506 2.456 2.506 1.488 0 2.456-1.128 2.456-2.506s-.968-2.507-2.456-2.507zm13.755 0c-1.489 0-2.456 1.129-2.456 2.507 0 1.378.967 2.506 2.456 2.506 1.488 0 2.456-1.128 2.456-2.506s-.968-2.507-2.456-2.507zm-23.03 0c-1.488 0-2.456 1.129-2.456 2.507 0 1.378.968 2.506 2.457 2.506 1.488 0 2.456-1.128 2.456-2.506s-.968-2.507-2.456-2.507zM17.952 3.08v4.646c0 .6.15.967.388 1.202.253.25.595.381.982.381s.73-.132.982-.38c.238-.236.387-.587.387-1.203V3.078h1.4v7.33h-.923l-.283-.557c-.164.205-.715.718-1.846.718-1.355 0-2.501-.953-2.501-2.448V3.078h1.414zm7.979-.162c1.444 0 2.381.865 2.381 2.287h-1.384V5.16c0-.63-.357-1.055-.997-1.055-.655 0-.982.439-.982.938 0 .57.506.806 1.116.996l.506.162c1.027.322 1.861.806 1.861 2.14 0 1.378-1.146 2.199-2.486 2.199-1.518 0-2.471-.982-2.471-2.331h1.37c0 .66.387 1.143 1.116 1.143.73 0 1.102-.484 1.102-1.011 0-.572-.402-.807-.923-.982l-.491-.162c-1.236-.41-2.07-.864-2.07-2.154 0-1.027.745-2.126 2.352-2.126zm17.387 0c1.444 0 2.382.865 2.382 2.287h-1.385V5.16c0-.63-.357-1.055-.997-1.055-.655 0-.982.439-.982.938 0 .57.506.806 1.116.996l.506.162c1.027.322 1.86.806 1.86 2.14 0 1.378-1.145 2.199-2.485 2.199-1.518 0-2.471-.982-2.471-2.331h1.37c0 .66.387 1.143 1.116 1.143.73 0 1.102-.484 1.102-1.011 0-.572-.402-.807-.923-.982l-.491-.162c-1.236-.41-2.07-.864-2.07-2.154 0-1.027.745-2.126 2.352-2.126zm7.651-.014c1.534 0 2.367.864 2.53 1.04l.27-.865h1.115v7.33h-1.116l-.268-.924c-.253.323-1.146 1.04-2.53 1.04-2.19 0-3.767-1.685-3.767-3.81 0-2.126 1.578-3.811 3.766-3.811zm-38.971.014c1.355 0 2.486.953 2.486 2.448v5.043h-1.4V5.76c0-.601-.148-.968-.387-1.202-.253-.25-.595-.381-.982-.381s-.73.132-.982.38c-.239.235-.402.587-.402 1.203v4.647h-1.4V5.76c0-.601-.149-.968-.387-1.202-.253-.25-.595-.381-.982-.381s-.73.132-.983.38c-.238.235-.387.587-.387 1.203v4.647H4.792v-7.33h.923l.282.572c.21-.235.656-.733 1.847-.733.789 0 1.503.323 1.964.88.596-.601 1.31-.88 2.189-.88zm20.08.16v7.33h-1.681v-7.33h1.68zm4.675-.16c1.355 0 2.501.953 2.501 2.448v5.043H37.84V5.76c0-.601-.149-.968-.387-1.203-.253-.248-.596-.38-.983-.38s-.73.132-.982.38c-.238.235-.387.587-.387 1.203v4.647h-1.4v-7.33h.923l.284.572c.208-.235.654-.733 1.845-.733zm14.32 1.29c-1.488 0-2.456 1.128-2.456 2.507 0 1.378.968 2.506 2.457 2.506 1.488 0 2.456-1.128 2.456-2.506 0-1.379-.968-2.507-2.456-2.507zM31.238 0c.661 0 1.198.44 1.198.997 0 .542-.537.967-1.198.967-.662 0-1.198-.425-1.198-.967 0-.558.536-.997 1.198-.997z" transform="translate(10.667 28)"/>
                </g>
            </g>
        </g>
    </g>
</svg>
