<svg version="1.1" xmlns="http://www.w3.org/2000/svg" xmlns:xlink="http://www.w3.org/1999/xlink" x="0px" y="0px" viewBox="0 0 22 22" xml:space="preserve" class="@@class">
	<title>@@title</title>
	<g>
		<path d="M19.5,5.4c-0.2-0.3-0.4-0.7-0.7-1c-0.3-0.3-0.6-0.5-1-0.7c-1.8-1.1-4.2-0.8-5.8,0.7l-0.3,0.3L11,5.4l0,0l-1-1c-1.9-1.9-4.9-1.9-6.7,0C3.2,4.5,3.2,4.5,3.1,4.6c-1.7,1.9-1.7,4.8,0.1,6.6l7.7,7.7l3.2-3.2l0.4-0.4l3.2-3.2l0.7-0.7l0.3-0.3C20.3,9.6,20.5,7.2,19.5,5.4z"/>
	</g>
	<g>
		<path d="M17,11.4L13.5,15L11,17.5l-7-7C2.5,9,2.5,6.8,3.8,5.3C3.9,5.2,3.9,5.2,4,5.1c1.5-1.5,3.9-1.5,5.3,0L11,6.8l0.7-0.7L11,5.4l0,0l-1-1c-1.9-1.9-4.9-1.9-6.7,0C3.2,4.5,3.2,4.5,3.1,4.6c-1.7,1.9-1.7,4.8,0.1,6.6l7.7,7.7l3.2-3.2l0.4-0.4l3.2-3.2L17,11.4z"/>
		<path d="M19.5,5.4c-0.2-0.3-0.4-0.7-0.7-1c-0.3-0.3-0.6-0.5-1-0.7c-1.8-1.1-4.2-0.8-5.8,0.7l-0.3,0.3l0.7,0.7l0.3-0.3c1.5-1.5,3.9-1.5,5.3,0c1.5,1.5,1.5,3.9,0,5.3l-0.3,0.3l0.7,0.7l0.3-0.3C20.3,9.6,20.5,7.2,19.5,5.4z"/>
		<rect width="1" height="1" x="11.2" y="4.9" transform="matrix(0.7071 -0.7071 0.7071 0.7071 -0.3837 9.85)" />
		<rect width="1" height="1" x="17.2" y="10.9" transform="matrix(0.7071 -0.7071 0.7071 0.7071 -2.8863 15.8918)" />
	</g>
</svg>
