<svg xmlns="http://www.w3.org/2000/svg" xmlns:xlink="http://www.w3.org/1999/xlink"  viewBox="0 0 49 49" width="49" height="49" class="@@class">
  <title>@@title</title>
  <defs>
    <clipPath id="icLoadingGradientPath">
      <path d="M20.7,0.3C21.8,0.1,22.8,0.9,23,2c0.2,1.1-0.6,2.1-1.7,2.3C13.1,5.5,6.4,11.7,4.5,19.9 c-2.5,11,4.3,22,15.4,24.6c11,2.5,22-4.3,24.6-15.4s-4.3-22-15.4-24.6c-1.1-0.2-1.7-1.3-1.5-2.4c0.2-1.1,1.3-1.7,2.4-1.5 c13.2,3,21.4,16.2,18.4,29.4S32.2,51.4,19,48.4C5.8,45.3-2.4,32.2,0.6,19C2.9,9.2,10.9,1.8,20.7,0.3z" />
    </clipPath>
    <linearGradient id="icLoadingGradient1" x1="0%" y1="0%" x2="0%" y2="100%">
      <stop offset="0%" stop-color="#ffffff" />
      <stop offset="100%" stop-color="#666666" />
    </linearGradient>
    <linearGradient id="icLoadingGradient2" x1="0%" y1="100%" x2="0%" y2="0%">
      <stop offset="0%" stop-color="#666666" />
      <stop offset="100%" stop-color="#000000" />
    </linearGradient>
  </defs>
  <g clip-path="url(#icLoadingGradientPath)">
    <rect x="0" y="0" width="25" height="49" fill="url(#icLoadingGradient1)" />
    <rect x="24.5" y="" width="25" height="49" fill="url(#icLoadingGradient2)" />
  </g>
</svg>