<svg viewBox="0 0 124 30" version="1.1" xmlns="http://www.w3.org/2000/svg" xmlns:xlink="http://www.w3.org/1999/xlink" class="@@class">
  <title>@@title</title>
  <g stroke="none" stroke-width="1" fill="none" fill-rule="evenodd">
    <polygon fill="#FF923A" points="12 20.85 4.65268435 25.2127124 6.53142503 16.8768477 0.111793546 11.2372876 8.6202348 10.4481523 12 2.6 15.3797652 10.4481523 23.8882065 11.2372876 17.468575 16.8768477 19.3473157 25.2127124"></polygon>
    <polygon fill="#FF923A" points="37 20.85 29.6526843 25.2127124 31.531425 16.8768477 25.1117935 11.2372876 33.6202348 10.4481523 37 2.6 40.3797652 10.4481523 48.8882065 11.2372876 42.468575 16.8768477 44.3473157 25.2127124"></polygon>
    <polygon fill="#FF923A" points="62 20.85 54.6526843 25.2127124 56.531425 16.8768477 50.1117935 11.2372876 58.6202348 10.4481523 62 2.6 65.3797652 10.4481523 73.8882065 11.2372876 67.468575 16.8768477 69.3473157 25.2127124"></polygon>
    <polygon fill="#FF923A" points="87 20.85 79.6526843 25.2127124 81.531425 16.8768477 75.1117935 11.2372876 83.6202348 10.4481523 87 2.6 90.3797652 10.4481523 98.8882065 11.2372876 92.468575 16.8768477 94.3473157 25.2127124"></polygon>
    <polygon fill="#FF923A" points="112 20.85 104.652684 25.2127124 106.531425 16.8768477 100.111794 11.2372876 108.620235 10.4481523 112 2.6 115.379765 10.4481523 123.888206 11.2372876 117.468575 16.8768477 119.347316 25.2127124"></polygon>
  </g>
</svg>