<svg xmlns="http://www.w3.org/2000/svg" width="36" height="36" viewBox="0 0 36 36" class="@@class">
  <title>@@title</title>
  <g fill="none" fill-rule="evenodd">
    <rect width="35" height="35" x=".5" y=".5" fill="#000" stroke="#FFF" rx="8"/>
    <g fill="#FFF">
      <path d="M8.27 16.465h.778v4.58h-.654v-3.611l-1.472 2.375H6.32l-1.466-2.375v3.611H4.2v-4.58h.778l1.643 2.663zM12.953 19.128v-2.663h.661v2.657c0 1.25-.713 1.989-1.786 1.989s-1.786-.74-1.786-1.99v-2.656h.66v2.663c0 .831.432 1.341 1.126 1.341.693 0 1.125-.51 1.125-1.34M16.686 19.776c0-.484-.307-.576-.837-.772l-.314-.118c-.347-.13-.583-.255-.753-.464a1.155 1.155 0 0 1-.274-.772c0-.59.438-1.25 1.393-1.25.877 0 1.407.53 1.407 1.367h-.694v-.085c0-.418-.294-.647-.713-.647-.425 0-.7.229-.7.602 0 .327.183.49.759.706l.262.098c.405.15.647.282.844.49.196.21.314.446.314.819 0 .726-.609 1.36-1.472 1.36-.85 0-1.512-.536-1.512-1.465h.694v.065c0 .478.34.766.818.766.477 0 .778-.275.778-.7M18.213 21.045h.667v-4.58h-.667zM20.548 17.5v3.545h-.654v-4.58h.726l2.388 3.566v-3.566h.654v4.58h-.732zM26.735 19.776c0-.484-.308-.576-.838-.772l-.314-.118c-.346-.13-.582-.255-.752-.464a1.155 1.155 0 0 1-.275-.772c0-.59.439-1.25 1.394-1.25.876 0 1.406.53 1.406 1.367h-.693v-.085c0-.418-.295-.647-.713-.647-.425 0-.7.229-.7.602 0 .327.183.49.759.706l.261.098c.406.15.648.282.844.49.197.21.314.446.314.819 0 .726-.608 1.36-1.472 1.36-.85 0-1.51-.536-1.51-1.465h.693v.065c0 .478.34.766.817.766.478 0 .779-.275.779-.7M30.966 19.77h-2.041l-.517 1.275h-.674l1.852-4.58h.72l1.85 4.58h-.673l-.517-1.276zm-1.02-2.52l-.76 1.872h1.518l-.759-1.871z"/>
    </g>
  </g>
</svg>
