<svg xmlns="http://www.w3.org/2000/svg" width="26" height="20" viewBox="0 0 26 20" class="@@class">
  <title>@@title</title>
  <g fill="none" fill-rule="evenodd">
    <path fill="#FFF" d="M8 2h10c4.418 0 8 3.582 8 8s-3.582 8-8 8H8c-4.418 0-8-3.582-8-8s3.582-8 8-8z"/>
    <path fill="#0E0E0E" d="M18 2c4.418 0 8 3.582 8 8 0 4.335-3.448 7.865-7.75 7.996L18 18h-1.901l.001 1.5-2.6-2 2.6-2-.001 1.5H18c3.866 0 7-3.134 7-7 0-3.785-3.005-6.87-6.76-6.996L18 3H8c-3.866 0-7 3.134-7 7 0 3.785 3.005 6.87 6.76 6.996L8 17h4v1H8c-4.418 0-8-3.582-8-8 0-4.335 3.448-7.865 7.75-7.996L8 2h10zM7.482 6.7c1.071 0 1.837.675 1.837 1.728 0 .675-.397 1.053-.766 1.233.351.09.927.621.927 1.494 0 1.098-.89 1.935-2.034 1.935-1.151 0-2.024-.855-2.024-2.034h.926c0 .765.46 1.179 1.099 1.179.638 0 1.097-.441 1.097-1.08s-.459-1.071-1.089-1.071c-.117 0-.27.009-.396.036v-.828c.135.009.252.018.396.018.54 0 .937-.342.937-.846 0-.54-.37-.909-.91-.909s-.909.342-.909 1.017h-.927c0-1.143.766-1.872 1.837-1.872zm5.946 0l-1.386 2.16c.09-.009.18-.018.261-.018 1.017 0 2.115.792 2.115 2.124 0 1.206-.962 2.124-2.177 2.124-1.242 0-2.16-.972-2.16-2.079 0-.513.144-.882.468-1.386l1.88-2.925h1zm3.976-.09c1.43 0 2.384 1.215 2.384 3.24 0 2.025-.954 3.24-2.384 3.24-1.431 0-2.386-1.215-2.386-3.24 0-2.025.954-3.24 2.386-3.24zM12.24 9.697c-.702 0-1.224.549-1.224 1.269 0 .729.522 1.269 1.224 1.269.71 0 1.242-.54 1.242-1.269 0-.72-.532-1.269-1.242-1.269zm5.163-2.223c-.982 0-1.44.963-1.44 2.376 0 1.404.458 2.376 1.44 2.376.98 0 1.44-.972 1.44-2.376 0-1.413-.46-2.376-1.44-2.376zM20.71 5.5c.389 0 .69.295.69.705 0 .4-.301.695-.69.695-.409 0-.71-.305-.71-.695 0-.41.301-.705.71-.705z"/>
  </g>
</svg>
