<svg xmlns="http://www.w3.org/2000/svg" width="36" height="28" viewBox="0 0 36 28" class="@@class">
  <g fill="none" fill-rule="evenodd">
    <path fill="#FFF" d="M11 3h14c6.075 0 11 4.925 11 11s-4.925 11-11 11H11C4.925 25 0 20.075 0 14S4.925 3 11 3z"/>
    <path fill="#0E0E0E" d="M25 3c6.075 0 11 4.925 11 11 0 5.979-4.77 10.843-10.712 10.996L25 25h-9v-1h9c5.523 0 10-4.477 10-10 0-5.43-4.327-9.848-9.72-9.996L25 4H11c-5.43 0-9.848 4.327-9.996 9.72L1 14H0C0 8.021 4.77 3.157 10.712 3.004L11 3h14zM14 24v1h-2v-1h2zm-5.822-.403c.486.142.984.248 1.49.315l.38.043-.093.996c-.561-.053-1.114-.148-1.655-.285l-.403-.11.281-.96zm-3.4-1.767c.4.317.82.603 1.262.856l.335.183-.463.886c-.496-.26-.972-.556-1.423-.888l-.333-.255.623-.782zm-2.476-2.892c.252.442.537.864.853 1.263l.242.295-.76.65c-.364-.425-.695-.878-.99-1.353l-.214-.36.869-.495zM15 9.33l8.03 4.668L15 18.666V9.33zM1.093 15.368c.069.507.177 1.005.322 1.491l.115.362-.947.322c-.18-.528-.319-1.07-.416-1.623l-.065-.416.99-.136zM16 11.068v5.859l5.039-2.93-5.04-2.93z"/>
  </g>
</svg>
