<svg xmlns="http://www.w3.org/2000/svg" width="26" height="20" viewBox="0 0 26 20" class="@@class">
  <title>@@title</title>
  <g fill="none" fill-rule="evenodd">
    <path fill="#FFF" d="M8 2h10c4.418 0 8 3.582 8 8s-3.582 8-8 8H8c-4.418 0-8-3.582-8-8s3.582-8 8-8z"/>
      <path fill="#0E0E0E" d="M18 2c4.418 0 8 3.582 8 8 0 4.335-3.448 7.865-7.75 7.996L18 18h-7v-1h7c3.866 0 7-3.134 7-7 0-3.785-3.005-6.87-6.76-6.996L18 3H8C4.215 3 1.13 6.005 1.004 9.76L1 10H0c0-4.335 3.448-7.865 7.75-7.996L8 2h10zM7.068 16.939c.307.04.618.061.932.061h1v1H8c-.358 0-.713-.024-1.064-.07zm-3.415-1.452c.49.388 1.028.71 1.603.955l-.392.92c-.658-.28-1.274-.648-1.833-1.092zm-2.202-3.01c.22.584.52 1.136.888 1.64l-.809.59C1.11 14.13.768 13.499.515 12.83zM11 6.28l6.396 3.718L11 13.716V6.28zm1 1.738v3.96l3.404-1.98L12 8.018zM1 10.012c0 .22.011.44.032.66l-.996.094c-.023-.25-.036-.5-.036-.753z"/>
  </g>
</svg>
