<svg xmlns="http://www.w3.org/2000/svg" width="36" height="28" viewBox="0 0 36 28" class="@@class">
  <title>@@title</title>
  <g fill="none" fill-rule="evenodd">
    <path fill="#FFF" d="M11 2h14c6.075 0 11 4.925 11 11s-4.925 11-11 11H11C4.925 24 0 19.075 0 13S4.925 2 11 2z"/>
    <path fill="#0E0E0E" d="M25 2c6.075 0 11 4.925 11 11 0 5.979-4.77 10.843-10.712 10.996L25 24h-2v2l-3-2.5 3-2.5v2h2c5.523 0 10-4.477 10-10 0-5.43-4.327-9.848-9.72-9.996L25 3H11C5.477 3 1 7.477 1 13c0 5.43 4.327 9.848 9.72 9.996L11 23h7v1h-7C4.925 24 0 19.075 0 13 0 7.021 4.77 2.157 10.712 2.004L11 2h14zM10.36 8.508c1.483 0 2.543.934 2.543 2.392 0 .935-.549 1.458-1.06 1.708.486.124 1.284.86 1.284 2.068 0 1.52-1.234 2.68-2.816 2.68-1.596 0-2.804-1.184-2.804-2.817H8.79c0 1.06.636 1.633 1.52 1.633.885 0 1.52-.611 1.52-1.496s-.635-1.483-1.507-1.483c-.162 0-.374.013-.548.05v-1.146c.187.012.349.025.548.025.748 0 1.296-.474 1.296-1.172 0-.748-.51-1.258-1.259-1.258-.747 0-1.258.473-1.258 1.408H7.818c0-1.583 1.06-2.592 2.542-2.592zm8.233 0l-1.919 2.99c.125-.012.25-.024.362-.024 1.408 0 2.928 1.096 2.928 2.94 0 1.67-1.333 2.941-3.016 2.941-1.72 0-2.99-1.345-2.99-2.878 0-.71.199-1.221.648-1.92l2.604-4.05h1.383zm5.504-.125c1.982 0 3.302 1.682 3.302 4.486s-1.32 4.486-3.302 4.486c-1.981 0-3.302-1.682-3.302-4.486s1.32-4.486 3.302-4.486zm-7.149 4.274c-.972 0-1.694.76-1.694 1.757 0 1.01.722 1.758 1.694 1.758.985 0 1.72-.748 1.72-1.758 0-.996-.735-1.757-1.72-1.757zm7.15-3.078c-1.36 0-1.995 1.334-1.995 3.29 0 1.944.636 3.29 1.994 3.29s1.994-1.346 1.994-3.29c0-1.956-.636-3.29-1.994-3.29zm4.585-2.733c.538 0 .955.409.955.976 0 .554-.417.963-.955.963-.566 0-.983-.422-.983-.963 0-.567.417-.976.983-.976z"/>
  </g>
</svg>
