<svg width="50px" height="40px" viewBox="0 0 50 40" version="1.1" xmlns="http://www.w3.org/2000/svg" xmlns:xlink="http://www.w3.org/1999/xlink" class="@@class">
  <title>@@title</title>
  <g id="Symbols" stroke="none" stroke-width="1" fill="none" fill-rule="evenodd">
    <g>
      <rect fill="#FFFFFF" x="0" y="4" width="50" height="30" rx="15"></rect>
      <path d="M35,4 C43.2842712,4 50,10.7157288 50,19 C50,27.1794071 43.4532136,33.8297302 35.3138282,33.9967822 L35,34 L32,34 L32,37.2 L28,33.6 L32,30 L32,33 L35,33 C42.7319865,33 49,26.7319865 49,19 C49,11.3724998 42.9002476,5.16967311 35.312645,5.00342205 L35,5 L15,5 C7.2680135,5 1,11.2680135 1,19 C1,26.6275002 7.09975237,32.8303269 14.687355,32.996578 L15,33 L25,33 L25,34 L15,34 C6.71572875,34 0,27.2842712 0,19 C0,10.8205929 6.54678637,4.17026978 14.6861718,4.00321776 L15,4 L35,4 Z M14.3894231,12.3076923 C16.4490385,12.3076923 17.9201923,13.6057692 17.9201923,15.6307692 C17.9201923,16.9288462 17.1586538,17.6557692 16.4490385,18.0019231 C17.1240385,18.175 18.2317308,19.1961538 18.2317308,20.875 C18.2317308,22.9865385 16.5182692,24.5961538 14.3201923,24.5961538 C12.1048077,24.5961538 10.4259615,22.9519231 10.4259615,20.6846154 L10.4259615,20.6846154 L12.2086538,20.6846154 C12.2086538,22.1557692 13.0913462,22.9519231 14.3201923,22.9519231 C15.5490385,22.9519231 16.4317308,22.1038462 16.4317308,20.875 C16.4317308,19.6461538 15.5490385,18.8153846 14.3375,18.8153846 C14.1125,18.8153846 13.8182692,18.8326923 13.5759615,18.8846154 L13.5759615,18.8846154 L13.5759615,17.2923077 C13.8355769,17.3096154 14.0605769,17.3269231 14.3375,17.3269231 C15.3759615,17.3269231 16.1375,16.6692308 16.1375,15.7 C16.1375,14.6615385 15.4278846,13.9519231 14.3894231,13.9519231 C13.3509615,13.9519231 12.6413462,14.6096154 12.6413462,15.9076923 L12.6413462,15.9076923 L10.8586538,15.9076923 C10.8586538,13.7096154 12.3298077,12.3076923 14.3894231,12.3076923 Z M25.8240385,12.3076923 L23.1586538,16.4615385 C23.3317308,16.4442308 23.5048077,16.4269231 23.6605769,16.4269231 C25.6163462,16.4269231 27.7278846,17.95 27.7278846,20.5115385 C27.7278846,22.8307692 25.8759615,24.5961538 23.5394231,24.5961538 C21.1509615,24.5961538 19.3855769,22.7269231 19.3855769,20.5980769 C19.3855769,19.6115385 19.6625,18.9019231 20.2855769,17.9326923 L20.2855769,17.9326923 L23.9028846,12.3076923 L25.8240385,12.3076923 Z M33.4682692,12.1346154 C36.2201923,12.1346154 38.0548077,14.4711538 38.0548077,18.3653846 C38.0548077,22.2596154 36.2201923,24.5961538 33.4682692,24.5961538 C30.7163462,24.5961538 28.8817308,22.2596154 28.8817308,18.3653846 C28.8817308,14.4711538 30.7163462,12.1346154 33.4682692,12.1346154 Z M23.5394231,18.0711538 C22.1894231,18.0711538 21.1855769,19.1269231 21.1855769,20.5115385 C21.1855769,21.9134615 22.1894231,22.9519231 23.5394231,22.9519231 C24.9067308,22.9519231 25.9278846,21.9134615 25.9278846,20.5115385 C25.9278846,19.1269231 24.9067308,18.0711538 23.5394231,18.0711538 Z M33.4682692,13.7961538 C31.5817308,13.7961538 30.6990385,15.6480769 30.6990385,18.3653846 C30.6990385,21.0653846 31.5817308,22.9346154 33.4682692,22.9346154 C35.3548077,22.9346154 36.2375,21.0653846 36.2375,18.3653846 C36.2375,15.6480769 35.3548077,13.7961538 33.4682692,13.7961538 Z M39.8370726,10 C40.5849359,10 41.1645299,10.5677656 41.1645299,11.3553114 C41.1645299,12.1245421 40.5849359,12.6923077 39.8370726,12.6923077 C39.0518162,12.6923077 38.4722222,12.1062271 38.4722222,11.3553114 C38.4722222,10.5677656 39.0518162,10 39.8370726,10 Z" fill="#000000"></path>
    </g>
  </g>
</svg>