<svg width="50px" height="40px" viewBox="0 0 50 40" version="1.1" xmlns="http://www.w3.org/2000/svg" xmlns:xlink="http://www.w3.org/1999/xlink" class="@@class">
  <title>@@title</title>
  <g stroke="none" stroke-width="1" fill="none" fill-rule="evenodd">
    <g>
      <rect fill="#FFFFFF" x="0" y="5" width="50" height="30" rx="15"></rect>
      <path d="M25,34 L25,35 L22.4000001,35 L22.4000001,34 L25,34 Z M19.8000002,34 L19.8000002,35 L17.2000003,35 L17.2000003,34 L19.8000002,34 Z M35,5 C43.2842712,5 50,11.7157288 50,20 C50,28.1794071 43.4532136,34.8297302 35.3138282,34.9967822 L35,35 L25,35 L25,34 L35,34 C42.7319865,34 49,27.7319865 49,20 C49,12.3724998 42.9002476,6.16967311 35.312645,6.00342205 L35,6 L15,6 C7.37249981,6 1.16967311,12.0997524 1.00342205,19.687355 L1,20 L0,20 C0,11.8205929 6.54678637,5.17026978 14.6861718,5.00321776 L15,5 L35,5 Z M12.1204404,33.7036609 C12.7728294,33.8400307 13.4366743,33.9298956 14.1084827,33.9720899 L14.6137777,33.9947791 L14.58672,34.994413 C13.8633313,34.9748327 13.1472583,34.903863 12.4423546,34.7827356 L11.9158312,34.6825046 L12.1204404,33.7036609 Z M7.46649527,31.802407 C8.03131881,32.1637123 8.62128907,32.4839844 9.23207976,32.7605211 L9.69400902,32.959681 L9.31475957,33.8849755 C8.64925275,33.6122049 8.00496548,33.2918683 7.38653557,32.9268745 L6.92763385,32.6448014 L7.46649527,31.802407 Z M3.78795767,28.3853622 C4.19008201,28.9221472 4.63017306,29.429538 5.1044615,29.9034499 L5.46653095,30.2525427 L4.78540139,30.9847056 C4.25938502,30.4953537 3.76898161,29.9690498 3.31821019,29.4101436 L2.98762543,28.984919 L3.78795767,28.3853622 Z M1.55910368,23.9303934 C1.74735144,24.5752643 1.98176577,25.2043074 2.26012957,25.8133166 L2.4771083,26.2662514 L1.58318054,26.7144624 C1.2614201,26.0727322 0.986147217,25.4083403 0.759757318,24.7258261 L0.599167881,24.2106134 L1.55910368,23.9303934 Z M21,13.5 L32,20 L21,26.5 L21,13.5 Z M22,15.252 L22,24.747 L30.035,19.999 L22,15.252 Z M1.00002372,20.0251927 C1.00056722,20.3346026 1.01114277,20.6427397 1.03165765,20.9492894 L1.06987288,21.4078841 L0.0748171807,21.5072025 C0.0422297863,21.1807146 0.0202392269,20.8524145 0.00894066492,20.5226512 L2.37154889e-05,20.0269526 L1.00002372,20.0251927 Z" fill="#000000"></path>
    </g>
  </g>
</svg>